<?xml version="1.0" standalone="yes"?>
<!DOCTYPE svg PUBLIC "-//W3C//DTD SVG 1.1//EN"
 "http://www.w3.org/Graphics/SVG/1.1/DTD/svg11.dtd">
<svg xmlns="http://www.w3.org/2000/svg" version="1.1"
  width="100%" height="100%" viewBox="0 0 1024 768"
  style="fill: none; font-family: Arial;
 font: Arial;
">

<!-- Creator: NGspice -->

<rect x="0" y="0" width="1024" height="768" fill="white" stroke="none"/>
<text stroke="none" fill="black" font-size="16" x="358" y="752">
Frequency(Hz)
</text>
<text transform="rotate(-90, 20, 434)"  stroke="none" fill="black" font-size="16" x="20" y="434">
Phase(deg)
</text>
<text stroke="none" fill="black" font-size="16" x="10" y="16">
ac9: OTA_2stage Phase
</text>
<path stroke="black" d="M95 704l0 -640"/>
<text stroke="none" fill="black" font-size="16" x="90" y="728">
1
</text>
<path stroke="black" stroke-dasharray="1,2" d="M152 704l0 -640M168 704l0 -640M180 704l0 -640"/>
<path stroke="black" d="M190 704l0 -640"/>
<text stroke="none" fill="black" font-size="16" x="180" y="728">
10
</text>
<path stroke="black" stroke-dasharray="1,2" d="M247 704l0 -640M263 704l0 -640M275 704l0 -640"/>
<path stroke="black" d="M285 704l0 -640"/>
<text stroke="none" fill="black" font-size="16" x="270" y="728">
100
</text>
<path stroke="black" stroke-dasharray="1,2" d="M342 704l0 -640M358 704l0 -640M370 704l0 -640"/>
<path stroke="black" d="M380 704l0 -640"/>
<text stroke="none" fill="black" font-size="16" x="360" y="728">
10^3
</text>
<path stroke="black" stroke-dasharray="1,2" d="M437 704l0 -640M453 704l0 -640M465 704l0 -640"/>
<path stroke="black" d="M475 704l0 -640"/>
<text stroke="none" fill="black" font-size="16" x="455" y="728">
10^4
</text>
<path stroke="black" stroke-dasharray="1,2" d="M532 704l0 -640M548 704l0 -640M560 704l0 -640"/>
<path stroke="black" d="M570 704l0 -640"/>
<text stroke="none" fill="black" font-size="16" x="550" y="728">
10^5
</text>
<path stroke="black" stroke-dasharray="1,2" d="M627 704l0 -640M643 704l0 -640M655 704l0 -640"/>
<path stroke="black" d="M665 704l0 -640"/>
<text stroke="none" fill="black" font-size="16" x="645" y="728">
10^6
</text>
<path stroke="black" stroke-dasharray="1,2" d="M722 704l0 -640M738 704l0 -640M750 704l0 -640"/>
<path stroke="black" d="M760 704l0 -640"/>
<text stroke="none" fill="black" font-size="16" x="740" y="728">
10^7
</text>
<path stroke="black" stroke-dasharray="1,2" d="M817 704l0 -640M833 704l0 -640M845 704l0 -640"/>
<path stroke="black" d="M855 704l0 -640"/>
<text stroke="none" fill="black" font-size="16" x="835" y="728">
10^8
</text>
<path stroke="black" stroke-dasharray="1,2" d="M912 704l0 -640M928 704l0 -640M940 704l0 -640"/>
<path stroke="black" d="M950 704l0 -640"/>
<text stroke="none" fill="black" font-size="16" x="930" y="728">
10^9
</text>
<text stroke="none" fill="black" font-size="16" x="623" y="752">
Hz
</text>
<path stroke="black" stroke-dasharray="1,2" d="M95 704l855 0"/>
<text stroke="none" fill="black" font-size="16" x="33" y="712">
-400.0
</text>
<path stroke="black" stroke-dasharray="1,2" d="M95 624l855 0"/>
<text stroke="none" fill="black" font-size="16" x="33" y="632">
-350.0
</text>
<path stroke="black" stroke-dasharray="1,2" d="M95 544l855 0"/>
<text stroke="none" fill="black" font-size="16" x="33" y="552">
-300.0
</text>
<path stroke="black" stroke-dasharray="1,2" d="M95 464l855 0"/>
<text stroke="none" fill="black" font-size="16" x="33" y="472">
-250.0
</text>
<path stroke="black" stroke-dasharray="1,2" d="M95 384l855 0"/>
<text stroke="none" fill="black" font-size="16" x="33" y="392">
-200.0
</text>
<path stroke="black" stroke-dasharray="1,2" d="M95 304l855 0"/>
<text stroke="none" fill="black" font-size="16" x="33" y="312">
-150.0
</text>
<path stroke="black" stroke-dasharray="1,2" d="M95 224l855 0"/>
<text stroke="none" fill="black" font-size="16" x="33" y="232">
-100.0
</text>
<path stroke="black" stroke-dasharray="1,2" d="M95 144l855 0"/>
<text stroke="none" fill="black" font-size="16" x="43" y="152">
-50.0
</text>
<path stroke="black" d="M95 64l855 0"/>
<text stroke="none" fill="black" font-size="16" x="63" y="72">
0.0
</text>
<text stroke="none" fill="black" font-size="16" x="10" y="32">
     
</text>
<path stroke="red" d="M95 64l77 0 9 1 39 0 9 1 10 0 9 1 10 0 10 1 9 1 10 2 9 1 10 2 10 3 9 3 10 5 9 5 10 6 9 7 10 9 10 10 9 10 10 11 9 10 20 18 9 7 10 6 9 5 10 4 9 3 20 4 9 2 10 1 9 2 10 0 10 1 9 1 10 0 9 1 10 1 10 0 9 1 10 0 9 1 10 1 9 2 10 1"/>
<path stroke="red" d="M651 215l10 2 9 3 10 3 9 4 10 4 10 7 9 7 10 10 9 11 10 14 10 18 9 21 10 26 9 34 10 42 9 9 10 -29 10 5 9 21 10 24 9 27 20 58 9 30 10 31 9 30"/>
<path stroke="blue" d="M95 64l86 0 10 1 38 0 10 1 9 0 10 1 10 0 9 1 10 1 9 2 20 4 9 3 10 3 9 4 10 6 9 6 10 8 10 9 9 10 10 10 9 11 10 10 10 9 9 8 10 7 9 6 10 5 9 3 20 6 9 2 10 1 9 2 20 2 9 0 10 1 9 1 10 0 10 1 9 0 10 1 9 1 10 1 9 1 10 1 10 2 9 2"/>
<path stroke="blue" d="M670 218l10 2 9 4 10 4 10 5 9 6 10 9 9 10 10 13 10 15 9 19 10 22 9 25 10 32 9 38 10 13 10 -22 9 5 10 21 9 27 10 28 10 29 9 29 10 29 9 29"/>
<path stroke="#FFA500" d="M95 64l86 0 10 1 38 0 10 1 9 0 20 2 9 1 10 1 9 1 10 2 10 3 9 3 10 3 9 5 10 6 9 7 10 8 10 9 9 10 10 11 9 10 10 10 10 9 9 8 10 6 9 6 10 4 9 3 20 6 9 1 10 2 9 1 20 2 9 0 10 1 9 1 10 0 10 1 9 0 10 1 9 0 10 1 9 1 10 1 10 2"/>
<path stroke="#FFA500" d="M661 215l9 2 10 2 9 3 20 8 9 6 10 7 9 10 10 12 10 15 9 18 10 22 9 22 10 22 9 29 10 35 10 3 9 -12 10 13 9 24 10 28 10 29 9 29 10 28 9 28"/>
<path stroke="green" d="M95 64l67 0 10 1 38 0 10 1 9 0 10 1 9 0 20 2 9 1 10 2 9 2 20 6 9 4 10 5 9 6 10 7 29 29 9 11 19 19 10 9 10 7 9 6 10 5 9 4 10 3 9 3 20 4 9 1 10 1 9 1 10 1 10 0 9 1 10 0 9 1 10 0 10 1 9 0 10 1 9 0 10 1 9 1 20 2 9 2 10 2 9 3"/>
<path stroke="green" d="M689 221l10 3 10 4 9 5 10 7 9 9 10 11 10 14 9 18 10 23 9 23 10 17 9 19 10 33 10 26 9 -8 10 3 9 20 10 27 10 29 9 29 10 29 9 28"/>
<path stroke="#FFC0C5" d="M95 64l48 0 10 1 38 0 9 1 10 0 10 1 9 0 10 1 9 2 10 1 10 2 9 2 10 3 9 3 20 10 9 7 10 8 9 8 10 10 9 11 10 11 19 19 10 8 9 7 20 10 9 4 10 3 9 2 10 2 9 1 10 2 10 0 9 1 10 1 9 0 10 1 10 0 9 1 29 0 10 1 9 0 10 1 9 0 10 1"/>
<path stroke="#FFC0C5" d="M632 211l9 1 20 2 9 1 10 2 9 3 10 3 10 4 9 4 10 6 9 8 10 10 10 13 9 17 10 23 9 27 10 18 9 10 10 26 10 33 9 7 10 -4 9 16 10 25 10 29 9 29 10 30 9 28"/>
<path stroke="#A52A2A" d="M95 64l19 0 10 1 38 0 10 1 9 0 10 1 9 0 20 2 9 2 10 1 9 3 10 2 10 4 9 4 10 5 9 7 10 7 10 9 9 10 10 10 9 11 19 19 10 9 10 7 9 5 10 5 9 4 20 6 9 2 10 1 9 1 10 1 9 1 10 1 10 0 9 1 19 0 10 1 38 0 10 1 19 0 10 1 9 0 10 1"/>
<path stroke="#A52A2A" d="M632 211l9 0 20 2 9 2 10 2 9 2 20 6 9 5 10 5 9 7 10 10 10 11 9 16 10 22 9 28 10 23 9 7 10 17 10 32 9 18 10 -3 9 11 10 23 10 28 9 30 10 30 9 29"/>
<path stroke="#F0E68C" d="M95 64l10 1 28 0 10 1 19 0 10 1 9 1 10 1 9 1 20 4 9 2 10 3 9 4 10 5 10 6 9 7 10 8 9 9 10 11 10 10 9 11 10 9 9 9 10 8 9 6 10 5 10 4 9 4 10 2 9 3 10 1 10 2 9 1 10 1 9 0 10 1 9 0 10 1 19 0 10 1 57 0 10 1 19 0 10 1 9 0 10 1"/>
<path stroke="#F0E68C" d="M632 211l9 0 20 2 9 2 10 1 9 2 20 6 9 4 10 6 9 6 10 9 10 11 9 15 10 20 9 27 10 28 9 7 10 10 10 28 9 24 10 1 9 7 10 22 10 28 9 30 10 30 9 30"/>
<path stroke="#DDA0DD" d="M95 65l29 0 9 1 10 0 10 1 9 1 10 1 9 1 10 1 9 2 20 6 9 4 10 4 9 6 10 7 10 8 19 19 9 11 29 29 10 8 9 6 10 6 9 4 20 6 9 2 10 2 9 2 20 2 9 0 10 1 9 0 10 1 29 0 9 1 58 0 9 1 29 0 10 1 19 0 9 1 20 2 9 1 10 2 9 2 20 6 9 4"/>
<path stroke="#DDA0DD" d="M718 228l10 5 9 6 10 8 10 11 9 14 10 18 9 27 10 29 9 11 10 3 10 23 9 25 10 7 9 7 10 20 10 27 9 30 10 31 9 30"/>
<path stroke="#DA70D6" d="M95 65l10 0 9 1 19 0 20 2 9 1 10 1 9 2 10 2 9 2 10 3 10 4 9 5 10 6 9 7 10 8 10 10 9 10 10 11 9 10 10 10 10 9 9 7 10 6 9 5 10 5 9 3 10 3 10 2 9 1 10 2 9 1 10 1 10 0 9 1 10 0 9 1 29 0 10 1 67 0 9 1 29 0 10 1 19 0 9 1 20 2"/>
<path stroke="#DA70D6" d="M661 213l9 1 10 2 9 2 10 2 10 4 9 3 10 5 9 6 10 8 10 10 9 13 10 18 9 26 10 30 9 15 10 -2 10 16 9 24 10 12 9 9 10 19 10 26 9 30 10 31 9 31"/>
</svg>
