<?xml version="1.0" standalone="yes"?>
<!DOCTYPE svg PUBLIC "-//W3C//DTD SVG 1.1//EN"
 "http://www.w3.org/Graphics/SVG/1.1/DTD/svg11.dtd">
<svg xmlns="http://www.w3.org/2000/svg" version="1.1"
  width="100%" height="100%" viewBox="0 0 1024 768"
  style="fill: none; font-family: Arial;
 font: Arial;
">

<!-- Creator: NGspice -->

<rect x="0" y="0" width="1024" height="768" fill="white" stroke="none"/>
<text stroke="none" fill="black" font-size="16" x="358" y="752">
Frequency(Hz)
</text>
<text transform="rotate(-90, 20, 424)"  stroke="none" fill="black" font-size="16" x="20" y="424">
Gain(db)
</text>
<text stroke="none" fill="black" font-size="16" x="10" y="16">
ac7: Rail_to_Rail_Opamp (tt) Gain
</text>
<path stroke="black" d="M95 704l0 -639"/>
<text stroke="none" fill="black" font-size="16" x="90" y="728">
1
</text>
<path stroke="black" stroke-dasharray="1,2" d="M152 704l0 -639M168 704l0 -639M180 704l0 -639"/>
<path stroke="black" d="M190 704l0 -639"/>
<text stroke="none" fill="black" font-size="16" x="180" y="728">
10
</text>
<path stroke="black" stroke-dasharray="1,2" d="M247 704l0 -639M263 704l0 -639M275 704l0 -639"/>
<path stroke="black" d="M285 704l0 -639"/>
<text stroke="none" fill="black" font-size="16" x="270" y="728">
100
</text>
<path stroke="black" stroke-dasharray="1,2" d="M342 704l0 -639M358 704l0 -639M370 704l0 -639"/>
<path stroke="black" d="M380 704l0 -639"/>
<text stroke="none" fill="black" font-size="16" x="360" y="728">
10^3
</text>
<path stroke="black" stroke-dasharray="1,2" d="M437 704l0 -639M453 704l0 -639M465 704l0 -639"/>
<path stroke="black" d="M475 704l0 -639"/>
<text stroke="none" fill="black" font-size="16" x="455" y="728">
10^4
</text>
<path stroke="black" stroke-dasharray="1,2" d="M532 704l0 -639M548 704l0 -639M560 704l0 -639"/>
<path stroke="black" d="M570 704l0 -639"/>
<text stroke="none" fill="black" font-size="16" x="550" y="728">
10^5
</text>
<path stroke="black" stroke-dasharray="1,2" d="M627 704l0 -639M643 704l0 -639M655 704l0 -639"/>
<path stroke="black" d="M665 704l0 -639"/>
<text stroke="none" fill="black" font-size="16" x="645" y="728">
10^6
</text>
<path stroke="black" stroke-dasharray="1,2" d="M722 704l0 -639M738 704l0 -639M750 704l0 -639"/>
<path stroke="black" d="M760 704l0 -639"/>
<text stroke="none" fill="black" font-size="16" x="740" y="728">
10^7
</text>
<path stroke="black" stroke-dasharray="1,2" d="M817 704l0 -639M833 704l0 -639M845 704l0 -639"/>
<path stroke="black" d="M855 704l0 -639"/>
<text stroke="none" fill="black" font-size="16" x="835" y="728">
10^8
</text>
<path stroke="black" stroke-dasharray="1,2" d="M912 704l0 -639M928 704l0 -639M940 704l0 -639"/>
<path stroke="black" d="M950 704l0 -639"/>
<text stroke="none" fill="black" font-size="16" x="930" y="728">
10^9
</text>
<text stroke="none" fill="black" font-size="16" x="623" y="752">
Hz
</text>
<path stroke="black" stroke-dasharray="1,2" d="M95 704l855 0"/>
<text stroke="none" fill="black" font-size="16" x="43" y="712">
-60.0
</text>
<path stroke="black" stroke-dasharray="1,2" d="M95 633l855 0"/>
<text stroke="none" fill="black" font-size="16" x="43" y="641">
-40.0
</text>
<path stroke="black" stroke-dasharray="1,2" d="M95 562l855 0"/>
<text stroke="none" fill="black" font-size="16" x="43" y="570">
-20.0
</text>
<path stroke="black" d="M95 491l855 0"/>
<text stroke="none" fill="black" font-size="16" x="53" y="499">
-0.0
</text>
<path stroke="black" stroke-dasharray="1,2" d="M95 420l855 0"/>
<text stroke="none" fill="black" font-size="16" x="53" y="428">
20.0
</text>
<path stroke="black" stroke-dasharray="1,2" d="M95 349l855 0"/>
<text stroke="none" fill="black" font-size="16" x="53" y="357">
40.0
</text>
<path stroke="black" stroke-dasharray="1,2" d="M95 278l855 0"/>
<text stroke="none" fill="black" font-size="16" x="53" y="286">
60.0
</text>
<path stroke="black" stroke-dasharray="1,2" d="M95 207l855 0"/>
<text stroke="none" fill="black" font-size="16" x="53" y="215">
80.0
</text>
<path stroke="black" stroke-dasharray="1,2" d="M95 136l855 0"/>
<text stroke="none" fill="black" font-size="16" x="43" y="144">
100.0
</text>
<path stroke="black" stroke-dasharray="1,2" d="M95 65l855 0"/>
<text stroke="none" fill="black" font-size="16" x="43" y="73">
120.0
</text>
<text stroke="none" fill="black" font-size="16" x="10" y="32">
dB
</text>
<path stroke="red" d="M95 221l259 0 9 1 20 0 9 1 10 2 9 1 20 6 9 4 10 5 9 6 10 6 9 7 10 6 10 7 9 7 10 7 9 7 20 14 9 8 10 7 9 7 20 14 9 7 10 8 9 7 10 7 9 7 20 14 9 8 10 7 9 7 10 7 10 8 9 7 10 7 9 8 20 16 9 9 10 11 9 12 10 12 9 14 10 20 10 27 9 12"/>
<path stroke="red" d="M833 586l10 8 9 10 29 29 10 9 9 7"/>
<path stroke="blue" d="M95 205l230 0 10 1 28 0 20 2 9 2 10 2 9 2 10 4 10 5 9 5 10 6 9 6 10 6 9 7 20 14 9 7 10 7 9 7 20 14 9 8 10 7 9 7 20 14 9 7 10 8 9 7 10 7 9 7 20 14 9 8 10 7 9 7 10 7 10 8 9 7 10 7 9 8 10 7 10 8 19 19 9 13 10 14 9 12 10 14"/>
<path stroke="blue" d="M814 534l10 23 9 20 10 9 19 19 10 9 9 10 10 9 9 7"/>
<path stroke="#FFA500" d="M95 183l182 0 10 1 48 0 9 1 10 1 9 1 10 1 10 3 9 3 10 4 9 5 10 5 10 6 9 6 10 7 9 7 10 7 9 7 20 14 9 7 10 7 9 7 10 8 10 7 9 7 10 7 9 7 10 7 10 8 9 7 10 7 9 7 10 7 9 7 10 8 10 7 9 7 10 7 9 7 10 8 10 7 9 7 10 7 9 8 10 7"/>
<path stroke="#FFA500" d="M747 449l10 8 9 8 10 10 9 12 10 16 9 12 10 12 10 18 9 23 10 12 9 8 10 9 19 19 10 9 9 8"/>
<path stroke="green" d="M95 159l192 0 9 1 20 0 9 1 10 1 9 2 10 2 9 3 10 4 10 5 9 5 10 6 9 6 10 7 10 6 9 7 10 7 9 8 10 7 9 7 20 14 9 7 10 7 9 8 20 14 9 7 10 7 9 7 10 8 10 7 9 7 10 7 9 7 10 7 9 7 10 8 10 7 9 7 10 7 9 7 10 8 10 7 9 7 10 7 9 8 10 7"/>
<path stroke="green" d="M747 445l10 8 9 8 10 8 9 12 10 16 9 15 10 10 10 15 9 22 10 15 9 9 10 8 19 19 10 9 9 8"/>
<path stroke="#FFC0C5" d="M95 138l182 0 10 1 9 0 10 1 10 2 9 2 10 2 9 4 10 4 9 5 20 12 9 6 10 7 9 7 20 14 9 7 10 7 9 7 10 7 9 8 20 14 9 7 10 7 9 7 10 8 10 7 9 7 10 7 9 7 10 7 10 8 9 7 10 7 9 7 10 7 9 7 10 8 10 7 9 7 10 7 9 7 10 8 10 7 9 7 10 7"/>
<path stroke="#FFC0C5" d="M728 427l9 8 10 7 10 8 9 7 10 9 9 10 10 16 9 17 10 10 10 13 9 19 10 18 9 9 20 18 9 9 10 9 9 9"/>
<path stroke="#A52A2A" d="M95 122l153 0 10 1 10 0 9 1 10 0 9 2 20 4 9 3 10 5 9 5 10 5 9 6 10 7 10 6 9 7 10 7 9 7 20 14 9 8 10 7 9 7 10 7 9 7 10 7 10 8 9 7 10 7 9 7 20 14 9 8 10 7 9 7 20 14 9 7 10 8 9 7 10 7 9 7 20 14 9 8 10 7 9 7 20 14 9 8 10 7"/>
<path stroke="#A52A2A" d="M728 425l9 7 10 8 10 7 9 8 10 8 9 10 10 15 9 18 10 12 10 11 9 17 10 17 9 11 10 8 10 9 9 10 10 9 9 8"/>
<path stroke="#F0E68C" d="M95 112l153 0 10 1 10 0 9 1 10 2 9 2 10 2 10 4 9 4 10 5 9 6 10 6 9 7 10 6 10 7 9 7 10 7 9 7 10 7 10 8 9 7 10 7 9 7 10 7 9 7 10 8 10 7 9 7 10 7 9 7 10 7 10 8 9 7 10 7 9 7 20 14 9 8 10 7 9 7 10 7 9 7 10 7 10 8 9 7 10 7"/>
<path stroke="#F0E68C" d="M680 387l9 7 10 7 10 8 9 7 10 7 9 7 10 8 10 7 9 8 10 8 9 10 10 14 9 19 10 14 10 9 9 15 10 16 9 12 20 18 9 9 10 9 9 9"/>
</svg>
