<?xml version="1.0" standalone="yes"?>
<!DOCTYPE svg PUBLIC "-//W3C//DTD SVG 1.1//EN"
 "http://www.w3.org/Graphics/SVG/1.1/DTD/svg11.dtd">
<svg xmlns="http://www.w3.org/2000/svg" version="1.1"
  width="100%" height="100%" viewBox="0 0 1024 768"
  style="fill: none; font-family: Arial;
 font: Arial;
">

<!-- Creator: NGspice -->

<rect x="0" y="0" width="1024" height="768" fill="white" stroke="none"/>
<text stroke="none" fill="black" font-size="16" x="358" y="752">
Power(mW)
</text>
<text transform="rotate(-90, 20, 484)"  stroke="none" fill="black" font-size="16" x="20" y="484">
Integrated_Noise(uV)
</text>
<text stroke="none" fill="black" font-size="16" x="10" y="16">
noise26: Rail_to_Rail_Opamp (typical) Integrated_Noise
</text>
<path stroke="black" d="M75 704l0 -637"/>
<text stroke="none" fill="black" font-size="16" x="60" y="728">
0.0
</text>
<path stroke="black" stroke-dasharray="1,2" d="M174 704l0 -637"/>
<text stroke="none" fill="black" font-size="16" x="159" y="728">
1.0
</text>
<path stroke="black" stroke-dasharray="1,2" d="M273 704l0 -637"/>
<text stroke="none" fill="black" font-size="16" x="258" y="728">
2.0
</text>
<path stroke="black" stroke-dasharray="1,2" d="M372 704l0 -637"/>
<text stroke="none" fill="black" font-size="16" x="357" y="728">
3.0
</text>
<path stroke="black" stroke-dasharray="1,2" d="M471 704l0 -637"/>
<text stroke="none" fill="black" font-size="16" x="456" y="728">
4.0
</text>
<path stroke="black" stroke-dasharray="1,2" d="M570 704l0 -637"/>
<text stroke="none" fill="black" font-size="16" x="555" y="728">
5.0
</text>
<path stroke="black" stroke-dasharray="1,2" d="M669 704l0 -637"/>
<text stroke="none" fill="black" font-size="16" x="654" y="728">
6.0
</text>
<path stroke="black" stroke-dasharray="1,2" d="M768 704l0 -637"/>
<text stroke="none" fill="black" font-size="16" x="753" y="728">
7.0
</text>
<path stroke="black" stroke-dasharray="1,2" d="M867 704l0 -637"/>
<text stroke="none" fill="black" font-size="16" x="852" y="728">
8.0
</text>
<path stroke="black" stroke-dasharray="1,2" d="M966 704l0 -637"/>
<text stroke="none" fill="black" font-size="16" x="951" y="728">
9.0
</text>
<text stroke="none" fill="black" font-size="16" x="614" y="752">
m     
</text>
<path stroke="black" stroke-dasharray="1,2" d="M75 704l891 0"/>
<text stroke="none" fill="black" font-size="16" x="43" y="712">
4.4
</text>
<path stroke="black" stroke-dasharray="1,2" d="M75 655l891 0"/>
<text stroke="none" fill="black" font-size="16" x="43" y="663">
4.6
</text>
<path stroke="black" stroke-dasharray="1,2" d="M75 606l891 0"/>
<text stroke="none" fill="black" font-size="16" x="43" y="614">
4.8
</text>
<path stroke="black" stroke-dasharray="1,2" d="M75 557l891 0"/>
<text stroke="none" fill="black" font-size="16" x="43" y="565">
5.0
</text>
<path stroke="black" stroke-dasharray="1,2" d="M75 508l891 0"/>
<text stroke="none" fill="black" font-size="16" x="43" y="516">
5.2
</text>
<path stroke="black" stroke-dasharray="1,2" d="M75 459l891 0"/>
<text stroke="none" fill="black" font-size="16" x="43" y="467">
5.4
</text>
<path stroke="black" stroke-dasharray="1,2" d="M75 410l891 0"/>
<text stroke="none" fill="black" font-size="16" x="43" y="418">
5.6
</text>
<path stroke="black" stroke-dasharray="1,2" d="M75 361l891 0"/>
<text stroke="none" fill="black" font-size="16" x="43" y="369">
5.8
</text>
<path stroke="black" stroke-dasharray="1,2" d="M75 312l891 0"/>
<text stroke="none" fill="black" font-size="16" x="43" y="320">
6.0
</text>
<path stroke="black" stroke-dasharray="1,2" d="M75 263l891 0"/>
<text stroke="none" fill="black" font-size="16" x="43" y="271">
6.2
</text>
<path stroke="black" stroke-dasharray="1,2" d="M75 214l891 0"/>
<text stroke="none" fill="black" font-size="16" x="43" y="222">
6.4
</text>
<path stroke="black" stroke-dasharray="1,2" d="M75 165l891 0"/>
<text stroke="none" fill="black" font-size="16" x="43" y="173">
6.6
</text>
<path stroke="black" stroke-dasharray="1,2" d="M75 116l891 0"/>
<text stroke="none" fill="black" font-size="16" x="43" y="124">
6.8
</text>
<path stroke="black" stroke-dasharray="1,2" d="M75 67l891 0"/>
<text stroke="none" fill="black" font-size="16" x="43" y="75">
7.0
</text>
<text stroke="none" fill="black" font-size="16" x="10" y="32">
u     
</text>
<path stroke="red" d="M75 92l437 188 95 137 92 104 91 84 89 69"/>
</svg>
