<?xml version="1.0" standalone="yes"?>
<!DOCTYPE svg PUBLIC "-//W3C//DTD SVG 1.1//EN"
 "http://www.w3.org/Graphics/SVG/1.1/DTD/svg11.dtd">
<svg xmlns="http://www.w3.org/2000/svg" version="1.1"
  width="100%" height="100%" viewBox="0 0 1024 768"
  style="fill: none; font-family: Arial;
 font: Arial;
">

<!-- Creator: NGspice -->

<rect x="0" y="0" width="1024" height="768" fill="white" stroke="none"/>
<text stroke="none" fill="black" font-size="16" x="358" y="752">
time
</text>
<text stroke="none" fill="black" font-size="16" x="10" y="16">
tran1: ** sch_path: /home/lmadhu/openmpw/pdk_1/project_gf180_tp/xschem/amplifiers/cg_lna_wo_cmfb.sch
</text>
<path stroke="black" d="M50 720l0 -670"/>
<text stroke="none" fill="black" font-size="16" x="35" y="728">
0.0
</text>
<path stroke="black" stroke-dasharray="1,2" d="M165 720l0 -670"/>
<text stroke="none" fill="black" font-size="16" x="150" y="728">
0.2
</text>
<path stroke="black" stroke-dasharray="1,2" d="M280 720l0 -670"/>
<text stroke="none" fill="black" font-size="16" x="265" y="728">
0.4
</text>
<path stroke="black" stroke-dasharray="1,2" d="M395 720l0 -670"/>
<text stroke="none" fill="black" font-size="16" x="380" y="728">
0.6
</text>
<path stroke="black" stroke-dasharray="1,2" d="M510 720l0 -670"/>
<text stroke="none" fill="black" font-size="16" x="495" y="728">
0.8
</text>
<path stroke="black" stroke-dasharray="1,2" d="M625 720l0 -670"/>
<text stroke="none" fill="black" font-size="16" x="610" y="728">
1.0
</text>
<path stroke="black" stroke-dasharray="1,2" d="M740 720l0 -670"/>
<text stroke="none" fill="black" font-size="16" x="725" y="728">
1.2
</text>
<path stroke="black" stroke-dasharray="1,2" d="M855 720l0 -670"/>
<text stroke="none" fill="black" font-size="16" x="840" y="728">
1.4
</text>
<path stroke="black" stroke-dasharray="1,2" d="M970 720l0 -670"/>
<text stroke="none" fill="black" font-size="16" x="955" y="728">
1.6
</text>
<text stroke="none" fill="black" font-size="16" x="614" y="752">
us
</text>
<path stroke="black" stroke-dasharray="1,2" d="M50 720l920 0"/>
<text stroke="none" fill="black" font-size="16" x="8" y="728">
-0.8
</text>
<path stroke="black" stroke-dasharray="1,2" d="M50 653l920 0"/>
<text stroke="none" fill="black" font-size="16" x="8" y="661">
-0.6
</text>
<path stroke="black" stroke-dasharray="1,2" d="M50 586l920 0"/>
<text stroke="none" fill="black" font-size="16" x="8" y="594">
-0.4
</text>
<path stroke="black" stroke-dasharray="1,2" d="M50 519l920 0"/>
<text stroke="none" fill="black" font-size="16" x="8" y="527">
-0.2
</text>
<path stroke="black" d="M50 452l920 0"/>
<text stroke="none" fill="black" font-size="16" x="18" y="460">
0.0
</text>
<path stroke="black" stroke-dasharray="1,2" d="M50 385l920 0"/>
<text stroke="none" fill="black" font-size="16" x="18" y="393">
0.2
</text>
<path stroke="black" stroke-dasharray="1,2" d="M50 318l920 0"/>
<text stroke="none" fill="black" font-size="16" x="18" y="326">
0.4
</text>
<path stroke="black" stroke-dasharray="1,2" d="M50 251l920 0"/>
<text stroke="none" fill="black" font-size="16" x="18" y="259">
0.6
</text>
<path stroke="black" stroke-dasharray="1,2" d="M50 184l920 0"/>
<text stroke="none" fill="black" font-size="16" x="18" y="192">
0.8
</text>
<path stroke="black" stroke-dasharray="1,2" d="M50 117l920 0"/>
<text stroke="none" fill="black" font-size="16" x="18" y="125">
1.0
</text>
<path stroke="black" stroke-dasharray="1,2" d="M50 50l920 0"/>
<text stroke="none" fill="black" font-size="16" x="18" y="58">
1.2
</text>
<text stroke="none" fill="black" font-size="16" x="10" y="32">
     
</text>
<path stroke="red" d="M460 23l46 0"/>
<text stroke="none" fill="black" font-size="16" x="516" y="32">
vout
</text>
<path stroke="red" d="M50 452l1 0M51 453l0 -1M51 453l1 1M52 456l0 -2M52 456l1 2 1 3M54 464l0 -3M54 464l1 3M55 471l0 -4M55 471l1 4M56 479l0 -4M56 479l2 10M58 495l0 -6M58 495l1 6M59 507l0 -6M59 507l2 12M61 526l0 -7M61 526l1 7M62 540l0 -7M62 540l1 7"/>
<path stroke="red" d="M63 554l0 -7M63 554l2 14M65 575l0 -7M65 575l1 7M66 589l0 -7M66 589l1 7M67 602l0 -6M67 602l1 7 1 6M69 621l0 -6M69 621l1 6M70 633l0 -6M70 633l1 5M71 643l0 -5M71 643l1 5 1 4M73 656l0 -4M73 656l1 3M74 663l0 -4M74 663l1 2M75 668l0 -3"/>
<path stroke="red" d="M75 668l1 1 1 2M77 672l0 -1M77 672l2 0 0 -1 1 -1 1 -2 0 -2 1 -3 0 -3 2 -8 0 -4 1 -5 0 -5 1 -5 0 -6 1 -6 1 -7 0 -6 1 -7 0 -7 1 -7 0 -7 1 -8 1 -7 0 -8 1 -8 0 -7 1 -8 0 -7 1 -8 1 -7 0 -8 1 -7 0 -6 1 -7 0 -6 1 -7 1 -5 0 -6 1 -5"/>
<path stroke="red" d="M101 455l0 -5 1 -4 0 -5 1 -3 1 -4 0 -2 1 -3 0 -2 2 -2 0 -1 1 0M108 425l0 -1M108 425l1 0M109 427l0 -2M109 427l1 1 1 3M111 433l0 -2M111 433l1 3M112 440l0 -4M112 440l1 4M113 448l0 -4M113 448l1 4 1 5M115 463l0 -6M115 463l1 5"/>
<path stroke="red" d="M116 474l0 -6M116 474l1 6M117 486l0 -6M117 486l1 7 1 6M119 506l0 -7M119 506l1 7M120 520l0 -7M120 520l1 7M121 535l0 -8M121 535l2 14M123 556l0 -7M123 556l1 7M124 570l0 -7M124 570l1 6M125 583l0 -7M125 583l1 6 1 7M127 601l0 -5"/>
<path stroke="red" d="M127 601l1 6M128 613l0 -6M128 613l1 5 1 4M130 627l0 -5M130 627l1 4M131 634l0 -3M131 634l1 3M132 640l0 -3M132 640l1 3 1 2M134 646l0 -1M134 646l1 1M135 648l0 -1M135 648l1 0 0 -1 1 0 1 -2 0 -1 1 -3 0 -2 1 -3 0 -4 2 -8 0 -5"/>
<path stroke="red" d="M142 619l1 -5 0 -5 1 -6 0 -6 1 -6 1 -7 0 -6 1 -7 0 -7 1 -8 0 -7 1 -7 1 -8 0 -8 1 -7 0 -8 1 -7 1 -8 0 -7 1 -7 0 -7 1 -7 0 -6 1 -7 1 -6 0 -6 1 -5 0 -5 1 -5 0 -4 2 -8 0 -3 1 -3 0 -2 1 -2 0 -2 1 0 1 -1 1 0M166 404l0 -1M166 404l1 2"/>
<path stroke="red" d="M167 407l0 -1M167 407l1 3 1 2M169 415l0 -3M169 415l1 4M170 423l0 -4M170 423l1 4M171 432l0 -5M171 432l2 10M173 448l0 -6M173 448l1 5M174 460l0 -7M174 460l1 6 1 7M176 479l0 -6M176 479l1 7M177 493l0 -7M177 493l1 7M178 507l0 -7"/>
<path stroke="red" d="M178 507l1 8 1 7M180 529l0 -7M180 529l1 7M181 543l0 -7M181 543l1 7M182 557l0 -7M182 557l1 6 1 7M184 576l0 -6M184 576l1 6M185 588l0 -6M185 588l1 5M186 598l0 -5M186 598l1 5 1 4M188 611l0 -4M188 611l1 4M189 618l0 -3M189 618l1 3"/>
<path stroke="red" d="M190 624l0 -3M190 624l1 2 1 1M192 628l0 -1M192 628l1 1 1 0 0 -1 1 -1 1 -2 0 -2 1 -3 0 -3 1 -3 1 -4 0 -4 1 -5 0 -5 1 -5 0 -6 2 -12 0 -6 1 -7 0 -7 1 -7 0 -7 1 -8 1 -7 0 -7 1 -8 0 -7 1 -8 0 -7 1 -8 1 -7 0 -7 1 -7 0 -7 1 -6"/>
<path stroke="red" d="M213 445l0 -7 1 -6 1 -5 0 -6 1 -5 0 -5 1 -4 0 -4 1 -3 1 -4 0 -2 1 -3 0 -1 1 -2 1 -1 1 0 1 1M224 390l0 -2M224 390l1 1 1 3M226 396l0 -2M226 396l1 4M227 403l0 -3M227 403l1 4M228 411l0 -4M228 411l2 10M230 426l0 -5M230 426l1 6"/>
<path stroke="red" d="M231 438l0 -6M231 438l1 6M232 451l0 -7M232 451l1 6 1 7M234 471l0 -7M234 471l1 7M235 485l0 -7M235 485l1 7M236 499l0 -7M236 499l1 8 1 7M238 521l0 -7M238 521l1 7M239 535l0 -7M239 535l1 7M240 548l0 -6M240 548l1 7 1 6M242 567l0 -6"/>
<path stroke="red" d="M242 567l1 6M243 578l0 -5M243 578l2 10M245 593l0 -5M245 593l1 4M246 601l0 -4M246 601l1 3M247 607l0 -3M247 607l2 4M249 613l0 -2M249 613l2 2 0 -1 1 0 1 -2 0 -1 1 -2 0 -3 1 -3 0 -3 2 -8 0 -5 1 -5 0 -5 1 -6 0 -5 1 -7 1 -6 0 -7"/>
<path stroke="red" d="M261 546l1 -7 0 -7 1 -7 0 -7 1 -7 1 -8 0 -7 1 -8 0 -7 1 -8 1 -7 0 -7 1 -7 0 -7 1 -7 0 -6 2 -12 0 -6 1 -6 0 -5 1 -4 0 -5 1 -4 1 -3 0 -3 1 -3 0 -2 1 -2 0 -1 2 -2 1 1M281 376l0 -1M281 376l1 1M282 379l0 -2M282 379l1 3 1 2M284 387l0 -3"/>
<path stroke="red" d="M284 387l1 4M285 395l0 -4M285 395l1 4M286 404l0 -5M286 404l2 10M288 420l0 -6M288 420l1 6M289 432l0 -6M289 432l1 7 1 6M291 452l0 -7M291 452l1 7M292 466l0 -7M292 466l1 7M293 480l0 -7M293 480l1 8 1 7M295 502l0 -7M295 502l1 7"/>
<path stroke="red" d="M296 516l0 -7M296 516l1 7M297 530l0 -7M297 530l2 14M299 550l0 -6M299 550l1 6M300 562l0 -6M300 562l1 5M301 572l0 -5M301 572l2 10M303 586l0 -4M303 586l1 3M304 593l0 -4M304 593l1 3M305 598l0 -2M305 598l2 4M307 603l0 -1M307 603l1 1"/>
<path stroke="red" d="M308 604l1 0 0 -1 1 -1 1 -2 0 -2 1 -3 0 -3 1 -3 1 -4 0 -4 1 -4 0 -5 1 -6 0 -5 2 -12 0 -6 1 -7 0 -7 1 -7 0 -7 1 -7 1 -8 0 -7 1 -7 0 -8 1 -7 0 -8 2 -14 0 -7 1 -7 0 -7 1 -6 0 -6 2 -12 0 -5 1 -5 0 -5 1 -4 0 -4 1 -4 1 -3 0 -2"/>
<path stroke="red" d="M334 372l1 -3 0 -1 1 -2 1 -1 1 0M338 366l0 -1M338 366l1 1M339 368l0 -1M339 368l2 4M341 375l0 -3M341 375l1 3M342 382l0 -4M342 382l1 4M343 390l0 -4M343 390l2 10M345 405l0 -5M345 405l1 6M346 417l0 -6M346 417l1 6M347 430l0 -7"/>
<path stroke="red" d="M347 430l1 6 1 7M349 450l0 -7M349 450l1 7M350 464l0 -7M350 464l1 8M351 479l0 -7M351 479l2 14M353 501l0 -8M353 501l1 7M354 515l0 -7M354 515l1 7M355 528l0 -6M355 528l1 7 1 6M357 547l0 -6M357 547l1 6M358 558l0 -5M358 558l1 6"/>
<path stroke="red" d="M359 564l1 5M360 573l0 -4M360 573l1 4M361 581l0 -4M361 581l1 3M362 587l0 -3M362 587l1 3 1 2M364 593l0 -1M364 593l1 1M365 595l0 -1M365 595l2 0 1 -2 0 -1 1 -2 0 -3 1 -3 0 -3 2 -8 0 -4 1 -5 0 -6 1 -5 0 -6 2 -12 0 -7 1 -7 0 -7"/>
<path stroke="red" d="M377 514l1 -7 0 -7 1 -7 1 -8 0 -7 1 -8 0 -7 1 -7 1 -8 0 -7 1 -7 0 -7 1 -6 0 -7 2 -12 0 -5 1 -6 0 -5 1 -4 0 -5 1 -4 1 -3 0 -3 1 -3 0 -2 1 -2 0 -1 1 -1 2 0M396 359l0 -1M396 359l1 2M397 363l0 -2M397 363l1 2 1 3M399 371l0 -3"/>
<path stroke="red" d="M399 371l1 4M400 379l0 -4M400 379l1 4M401 388l0 -5M401 388l2 10M403 404l0 -6M403 404l1 6M404 416l0 -6M404 416l2 14M406 436l0 -6M406 436l1 7M407 450l0 -7M407 450l1 8M408 465l0 -7M408 465l2 14M410 487l0 -8M410 487l1 7M411 501l0 -7"/>
<path stroke="red" d="M411 501l1 7M412 515l0 -7M412 515l1 7 1 6M414 535l0 -7M414 535l1 6M415 546l0 -5M415 546l1 6M416 557l0 -5M416 557l1 5 1 4M418 571l0 -5M418 571l1 3M419 578l0 -4M419 578l1 3M420 583l0 -2M420 583l2 4M422 588l0 -1M422 588l1 1"/>
<path stroke="red" d="M423 589l1 0 0 -1 2 -2 0 -3 1 -2 0 -3 1 -3 1 -4 0 -4 1 -5 0 -4 1 -6 0 -5 2 -12 0 -6 1 -7 0 -7 1 -7 0 -7 2 -14 0 -8 1 -7 0 -7 1 -8 0 -7 1 -7 1 -8 0 -6 1 -7 0 -7 1 -6 0 -7 1 -5 1 -6 0 -5 1 -5 0 -5 1 -4 0 -4 1 -4 1 -3 0 -2"/>
<path stroke="red" d="M449 359l1 -2 0 -2 2 -2 0 -1 1 0M453 353l0 -1M453 353l1 1M454 356l0 -2M454 356l1 1 1 3M456 363l0 -3M456 363l1 3M457 370l0 -4M457 370l1 4M458 378l0 -4M458 378l2 10M460 393l0 -5M460 393l1 6M461 405l0 -6M461 405l1 6M462 418l0 -7"/>
<path stroke="red" d="M462 418l1 6 1 7M464 438l0 -7M464 438l1 7M465 452l0 -7M465 452l1 8M466 467l0 -7M466 467l1 7 1 8M468 489l0 -7M468 489l1 7M469 503l0 -7M469 503l1 7M470 517l0 -7M470 517l2 12M472 536l0 -7M472 536l1 5M473 547l0 -6M473 547l2 10"/>
<path stroke="red" d="M475 562l0 -5M475 562l1 4M476 569l0 -3M476 569l1 4M477 576l0 -3M477 576l2 4M479 582l0 -2M479 582l1 1M480 584l0 -1M480 584l1 0 2 -2 0 -1 1 -2 0 -3 1 -3 0 -3 2 -8 0 -4 1 -5 0 -5 1 -6 0 -6 2 -12 0 -7 1 -6 0 -7 1 -7 0 -8 2 -14"/>
<path stroke="red" d="M495 475l0 -8 1 -7 0 -7 1 -8 1 -7 0 -7 1 -7 0 -7 1 -6 0 -7 2 -12 0 -5 1 -6 0 -5 1 -4 0 -5 1 -3 1 -4 0 -3 1 -2 0 -3 1 -1 0 -2 1 0 1 -1 1 1M511 350l0 -1M511 350l1 1M512 353l0 -2M512 353l2 6M514 362l0 -3M514 362l1 3M515 370l0 -5"/>
<path stroke="red" d="M515 370l1 4M516 379l0 -5M516 379l2 10M518 395l0 -6M518 395l1 6M519 407l0 -6M519 407l1 7 1 6M521 427l0 -7M521 427l1 7M522 441l0 -7M522 441l1 8M523 456l0 -7M523 456l2 14M525 478l0 -8M525 478l1 7M526 492l0 -7M526 492l1 7M527 506l0 -7"/>
<path stroke="red" d="M527 506l1 7 1 6M529 526l0 -7M529 526l1 6M530 538l0 -6M530 538l1 5M531 548l0 -5M531 548l2 10M533 562l0 -4M533 562l1 4M534 569l0 -3M534 569l1 3M535 575l0 -3M535 575l1 2 1 1M537 580l0 -2M537 580l1 0M538 581l0 -1M538 581l2 -2"/>
<path stroke="red" d="M540 579l1 -2 0 -2 1 -2 0 -3 1 -4 1 -3 0 -4 1 -5 0 -5 1 -5 0 -5 2 -12 0 -7 1 -6 0 -7 1 -7 0 -7 2 -14 0 -8 1 -7 0 -7 1 -8 0 -7 2 -14 0 -7 1 -7 0 -7 1 -6 0 -6 2 -12 0 -5 1 -5 0 -5 1 -4 0 -4 2 -6 0 -3 1 -2 0 -2 2 -2 1 0M568 346l0 -1"/>
<path stroke="red" d="M568 346l1 1M569 348l0 -1M569 348l1 2 1 3M571 355l0 -2M571 355l1 4M572 362l0 -3M572 362l1 4M573 371l0 -5M573 371l2 10M575 386l0 -5M575 386l1 6M576 398l0 -6M576 398l1 6M577 411l0 -7M577 411l1 6 1 7M579 431l0 -7M579 431l1 7"/>
<path stroke="red" d="M580 446l0 -8M580 446l1 7M581 460l0 -7M581 460l1 7 1 8M583 482l0 -7M583 482l1 7M584 496l0 -7M584 496l1 7M585 510l0 -7M585 510l1 6 1 7M587 529l0 -6M587 529l1 6M588 540l0 -5M588 540l2 10M590 555l0 -5M590 555l1 4M591 563l0 -4"/>
<path stroke="red" d="M591 563l1 3M592 569l0 -3M592 569l1 3 1 2M594 576l0 -2M594 576l2 2 2 -2 0 -2 1 -2 0 -2 1 -3 0 -3 2 -8 0 -5 1 -4 0 -6 1 -5 0 -6 2 -12 0 -7 1 -6 0 -7 1 -7 0 -8 2 -14 0 -8 1 -7 0 -7 1 -8 1 -7 0 -7 1 -7 0 -7 1 -6 0 -7 2 -12"/>
<path stroke="red" d="M617 386l0 -5 1 -5 0 -5 1 -5 0 -4 1 -4 1 -3 0 -3 1 -3 0 -2 1 -2 0 -1 1 -1 2 0M626 344l0 -1M626 344l1 2M627 348l0 -2M627 348l1 2 1 3M629 356l0 -3M629 356l1 4M630 364l0 -4M630 364l1 5M631 373l0 -4M631 373l1 5 1 6M633 390l0 -6"/>
<path stroke="red" d="M633 390l1 6M634 402l0 -6M634 402l1 6 1 7M636 422l0 -7M636 422l1 7M637 436l0 -7M637 436l1 7M638 451l0 -8M638 451l2 14M640 473l0 -8M640 473l1 7M641 487l0 -7M641 487l1 7M642 501l0 -7M642 501l1 7 1 6M644 521l0 -7M644 521l1 6"/>
<path stroke="red" d="M645 532l0 -5M645 532l1 6M646 543l0 -5M646 543l2 10M648 557l0 -4M648 557l1 4M649 564l0 -3M649 564l1 3M650 570l0 -3M650 570l1 2 1 1M652 575l0 -2M652 575l1 0M653 576l0 -1M653 576l2 -2 1 -2 0 -2 1 -2 0 -3 1 -3 1 -4 0 -4 1 -5"/>
<path stroke="red" d="M660 549l0 -4 1 -6 0 -5 2 -12 0 -6 1 -7 0 -6 1 -7 0 -7 1 -8 1 -7 0 -7 1 -8 0 -7 1 -7 0 -8 2 -14 0 -7 1 -7 0 -6 1 -7 0 -6 1 -6 1 -5 0 -5 1 -5 0 -5 1 -4 0 -4 2 -6 0 -3 1 -2 0 -2 2 -2 1 0M683 342l0 -1M683 342l1 1M684 344l0 -1"/>
<path stroke="red" d="M684 344l1 2 1 3M686 351l0 -2M686 351l1 4M687 358l0 -3M687 358l1 4M688 367l0 -5M688 367l2 10M690 382l0 -5M690 382l1 6M691 394l0 -6M691 394l1 6M692 407l0 -7M692 407l1 6 1 7M694 427l0 -7M694 427l1 7M695 442l0 -8M695 442l1 7"/>
<path stroke="red" d="M696 456l0 -7M696 456l1 8 1 7M698 478l0 -7M698 478l1 7M699 492l0 -7M699 492l1 7M700 506l0 -7M700 506l1 7 1 6M702 525l0 -6M702 525l1 6M703 536l0 -5M703 536l1 6 1 4M705 551l0 -5M705 551l1 4M706 559l0 -4M706 559l1 3M707 565l0 -3"/>
<path stroke="red" d="M707 565l1 3 1 2M709 572l0 -2M709 572l1 1M710 574l0 -1M710 574l1 0 2 -2 0 -1 1 -2 0 -3 1 -3 0 -3 2 -8 0 -4 1 -5 0 -5 1 -6 0 -5 1 -6 1 -7 0 -6 1 -7 0 -7 1 -7 0 -7 1 -7 1 -8 0 -7 1 -7 0 -8 2 -14 0 -7 1 -7 0 -7 1 -7 0 -6 2 -12"/>
<path stroke="red" d="M732 383l0 -6 1 -5 0 -5 1 -4 0 -5 1 -3 1 -4 0 -3 1 -2 0 -2 1 -2 0 -1 2 -2M740 340l0 -1M740 340l1 0M741 341l0 -1M741 341l1 2M742 345l0 -2M742 345l1 2 1 3M744 353l0 -3M744 353l1 4M745 361l0 -4M745 361l1 4M746 370l0 -5M746 370l1 5"/>
<path stroke="red" d="M747 375l1 6M748 387l0 -6M748 387l1 6M749 399l0 -6M749 399l1 6 1 7M751 419l0 -7M751 419l1 7M752 433l0 -7M752 433l1 7M753 448l0 -8M753 448l2 14M755 470l0 -8M755 470l1 7M756 484l0 -7M756 484l1 7M757 498l0 -7M757 498l1 7 1 6"/>
<path stroke="red" d="M759 518l0 -7M759 518l1 6M760 530l0 -6M760 530l1 5M761 540l0 -5M761 540l2 10M763 554l0 -4M763 554l1 4M764 561l0 -3M764 561l1 3M765 567l0 -3M765 567l1 2 1 1M767 572l0 -2M767 572l1 0M768 573l0 -1M768 573l1 0 0 -1 1 -1 1 -2"/>
<path stroke="red" d="M771 569l0 -2 1 -2 0 -3 1 -3 1 -4 0 -4 1 -4 0 -5 1 -5 0 -6 2 -12 0 -6 1 -6 0 -7 1 -7 0 -7 1 -7 1 -8 0 -7 1 -7 0 -8 1 -7 0 -7 2 -14 0 -7 1 -7 0 -7 1 -6 0 -6 2 -12 0 -5 1 -5 0 -4 1 -5 0 -3 1 -4 1 -3 0 -2 1 -3 0 -1 2 -2 0 -1"/>
<path stroke="red" d="M797 338l2 2M799 342l0 -2M799 342l2 4M801 349l0 -3M801 349l1 3M802 356l0 -4M802 356l1 4M803 364l0 -4M803 364l2 10M805 380l0 -6M805 380l1 6M806 392l0 -6M806 392l1 6M807 404l0 -6M807 404l2 14M809 425l0 -7M809 425l1 7M810 439l0 -7"/>
<path stroke="red" d="M810 439l1 8M811 454l0 -7M811 454l1 7 1 8M813 476l0 -7M813 476l1 7M814 490l0 -7M814 490l1 7M815 504l0 -7M815 504l1 6 1 7M817 523l0 -6M817 523l1 6M818 534l0 -5M818 534l2 10M820 549l0 -5M820 549l1 4M821 557l0 -4M821 557l1 3"/>
<path stroke="red" d="M822 563l0 -3M822 563l1 3 1 2M824 570l0 -2M824 570l1 1M825 572l0 -1M825 572l1 0 2 -2 0 -2 1 -2 0 -2 1 -3 0 -3 2 -8 0 -4 1 -5 0 -5 1 -6 0 -6 2 -12 0 -6 1 -7 0 -7 1 -7 0 -7 1 -7 1 -8 0 -7 1 -7 0 -8 2 -14 0 -7 1 -7 0 -7 1 -7"/>
<path stroke="red" d="M845 399l0 -6 2 -12 0 -5 1 -6 0 -5 1 -4 0 -4 2 -8 0 -3 1 -2 0 -2 1 -2 0 -1 1 -1 2 0M856 339l0 -1M856 339l1 2M857 343l0 -2M857 343l1 2 1 3M859 351l0 -3M859 351l1 4M860 359l0 -4M860 359l1 5M861 368l0 -4M861 368l1 6 1 5M863 385l0 -6"/>
<path stroke="red" d="M863 385l1 6M864 397l0 -6M864 397l1 7 1 6M866 417l0 -7M866 417l1 7M867 431l0 -7M867 431l1 8M868 446l0 -7M868 446l2 14M870 468l0 -8M870 468l1 7M871 482l0 -7M871 482l1 7M872 496l0 -7M872 496l2 14M874 516l0 -6M874 516l1 6M875 528l0 -6"/>
<path stroke="red" d="M875 528l1 5M876 539l0 -6M876 539l1 5 1 4M878 552l0 -4M878 552l1 4M879 559l0 -3M879 559l1 3M880 565l0 -3M880 565l2 4M882 570l0 -1M882 570l1 1 1 0 0 -1 2 -2 0 -2 1 -3 0 -3 2 -6 0 -5 1 -4 0 -5 1 -5 0 -5 2 -12 0 -7 1 -6 0 -7"/>
<path stroke="red" d="M894 498l1 -7 0 -7 2 -14 0 -7 1 -8 0 -7 1 -7 0 -8 2 -14 0 -7 1 -7 0 -6 1 -7 0 -6 1 -6 1 -5 0 -5 1 -5 0 -5 1 -4 0 -4 2 -6 0 -3 1 -2 0 -2 2 -2 1 0"/>
<path stroke="blue" d="M50 23l46 0"/>
<text stroke="none" fill="black" font-size="16" x="106" y="32">
vin1
</text>
<path stroke="blue" d="M50 117l1 0 1 -1 2 0 1 -1 3 0 0 -1 13 0M71 115l0 -1M71 115l3 0 1 1 2 0 1 1 2 0 1 1 2 0 1 1 2 0 1 1 13 0 0 -1 3 0 1 -1 2 0 1 -1 2 0 0 -1 3 0 0 -1 3 0 1 -1 12 0 1 1 3 0M132 116l0 -1M132 116l3 0M135 117l0 -1M135 117l3 0M138 118l0 -1"/>
<path stroke="blue" d="M138 118l2 0 1 1 3 0M144 120l0 -1M144 120l13 0 1 -1 3 0 0 -1 2 0 1 -1 2 0 1 -1 2 0 1 -1 3 0 0 -1 13 0M186 115l0 -1M186 115l3 0 1 1 2 0 1 1 2 0 1 1 2 0 1 1 2 0 1 1 13 0 0 -1 3 0 1 -1 2 0 1 -1 2 0 0 -1 3 0 0 -1 3 0 1 -1 12 0"/>
<path stroke="blue" d="M243 114l1 1 3 0M247 116l0 -1M247 116l3 0M250 117l0 -1M250 117l3 0M253 118l0 -1M253 118l2 0 1 1 3 0M259 120l0 -1M259 120l13 0 1 -1 3 0 0 -1 2 0 1 -1 2 0 1 -1 2 0 1 -1 3 0 0 -1 13 0M301 115l0 -1M301 115l3 0 1 1 2 0 1 1 2 0"/>
<path stroke="blue" d="M310 117l1 1 2 0 1 1 2 0 1 1 13 0 0 -1 3 0 1 -1 2 0 1 -1 2 0 0 -1 3 0 0 -1 3 0 1 -1 12 0 1 1 3 0M362 116l0 -1M362 116l3 0M365 117l0 -1M365 117l3 0M368 118l0 -1M368 118l2 0 1 1 3 0M374 120l0 -1M374 120l13 0 1 -1 3 0 0 -1"/>
<path stroke="blue" d="M391 118l2 0 1 -1 2 0 1 -1 2 0 1 -1 3 0 0 -1 13 0M416 115l0 -1M416 115l3 0 1 1 2 0 1 1 2 0 1 1 2 0 1 1 2 0 1 1 13 0 0 -1 3 0 1 -1 2 0 1 -1 2 0 0 -1 3 0 0 -1 3 0 1 -1 12 0 1 1 3 0M477 116l0 -1M477 116l3 0M480 117l0 -1M480 117l3 0"/>
<path stroke="blue" d="M483 118l0 -1M483 118l2 0 1 1 3 0M489 120l0 -1M489 120l13 0 1 -1 3 0 0 -1 2 0 1 -1 2 0 1 -1 2 0 1 -1 3 0 0 -1 13 0M531 115l0 -1M531 115l3 0 1 1 2 0 1 1 2 0 1 1 2 0 1 1 2 0 1 1 13 0 0 -1 3 0 1 -1 2 0 1 -1 2 0 0 -1 3 0 0 -1"/>
<path stroke="blue" d="M572 115l3 0 1 -1 12 0 1 1 3 0M592 116l0 -1M592 116l3 0M595 117l0 -1M595 117l3 0M598 118l0 -1M598 118l2 0 1 1 3 0M604 120l0 -1M604 120l13 0 1 -1 3 0 0 -1 2 0 1 -1 2 0 1 -1 2 0 1 -1 3 0 0 -1 13 0M646 115l0 -1M646 115l3 0"/>
<path stroke="blue" d="M649 115l1 1 2 0 1 1 2 0 1 1 2 0 1 1 2 0 1 1 13 0 0 -1 3 0 1 -1 2 0 1 -1 2 0 0 -1 3 0 0 -1 3 0 1 -1 12 0 1 1 3 0M707 116l0 -1M707 116l3 0M710 117l0 -1M710 117l3 0M713 118l0 -1M713 118l2 0 1 1 3 0M719 120l0 -1M719 120l13 0"/>
<path stroke="blue" d="M732 120l1 -1 3 0 0 -1 2 0 1 -1 2 0 1 -1 2 0 1 -1 3 0 0 -1 13 0M761 115l0 -1M761 115l3 0 1 1 2 0 1 1 2 0 1 1 2 0 1 1 2 0 1 1 13 0 0 -1 3 0 1 -1 2 0 1 -1 2 0 0 -1 3 0 0 -1 3 0 1 -1 12 0 1 1 3 0M822 116l0 -1M822 116l3 0M825 117l0 -1"/>
<path stroke="blue" d="M825 117l3 0M828 118l0 -1M828 118l2 0 1 1 3 0M834 120l0 -1M834 120l13 0 1 -1 3 0 0 -1 2 0 1 -1 2 0 1 -1 2 0 1 -1 3 0 0 -1 13 0M876 115l0 -1M876 115l3 0 1 1 2 0 1 1 2 0 1 1 2 0 1 1 2 0 1 1 13 0 0 -1 3 0 1 -1 2 0 1 -1 1 0"/>
<path stroke="#FFA500" d="M460 39l46 0"/>
<text stroke="none" fill="black" font-size="16" x="516" y="48">
vin2
</text>
<path stroke="#FFA500" d="M50 117l1 0 1 1 2 0 1 1 3 0M58 120l0 -1M58 120l13 0 0 -1 3 0 1 -1 2 0 1 -1 2 0 1 -1 2 0 1 -1 2 0 1 -1 13 0M100 115l0 -1M100 115l3 0 1 1 2 0 1 1 2 0M109 118l0 -1M109 118l3 0M112 119l0 -1M112 119l3 0 1 1 12 0 1 -1 3 0"/>
<path stroke="#FFA500" d="M132 119l0 -1 3 0 0 -1 3 0 0 -1 2 0 1 -1 3 0 0 -1 13 0 1 1 3 0M161 116l0 -1M161 116l2 0 1 1 2 0 1 1 2 0 1 1 3 0M173 120l0 -1M173 120l13 0 0 -1 3 0 1 -1 2 0 1 -1 2 0 1 -1 2 0 1 -1 2 0 1 -1 13 0M215 115l0 -1M215 115l3 0"/>
<path stroke="#FFA500" d="M218 115l1 1 2 0 1 1 2 0M224 118l0 -1M224 118l3 0M227 119l0 -1M227 119l3 0 1 1 12 0 1 -1 3 0 0 -1 3 0 0 -1 3 0 0 -1 2 0 1 -1 3 0 0 -1 13 0 1 1 3 0M276 116l0 -1M276 116l2 0 1 1 2 0 1 1 2 0 1 1 3 0M288 120l0 -1M288 120l13 0"/>
<path stroke="#FFA500" d="M301 120l0 -1 3 0 1 -1 2 0 1 -1 2 0 1 -1 2 0 1 -1 2 0 1 -1 13 0M330 115l0 -1M330 115l3 0 1 1 2 0 1 1 2 0M339 118l0 -1M339 118l3 0M342 119l0 -1M342 119l3 0 1 1 12 0 1 -1 3 0 0 -1 3 0 0 -1 3 0 0 -1 2 0 1 -1 3 0 0 -1 13 0"/>
<path stroke="#FFA500" d="M387 114l1 1 3 0M391 116l0 -1M391 116l2 0 1 1 2 0 1 1 2 0 1 1 3 0M403 120l0 -1M403 120l13 0 0 -1 3 0 1 -1 2 0 1 -1 2 0 1 -1 2 0 1 -1 2 0 1 -1 13 0M445 115l0 -1M445 115l3 0 1 1 2 0 1 1 2 0M454 118l0 -1M454 118l3 0M457 119l0 -1"/>
<path stroke="#FFA500" d="M457 119l3 0 1 1 12 0 1 -1 3 0 0 -1 3 0 0 -1 3 0 0 -1 2 0 1 -1 3 0 0 -1 13 0 1 1 3 0M506 116l0 -1M506 116l2 0 1 1 2 0 1 1 2 0 1 1 3 0M518 120l0 -1M518 120l13 0 0 -1 3 0 1 -1 2 0 1 -1 2 0 1 -1 2 0 1 -1 2 0 1 -1 13 0M560 115l0 -1"/>
<path stroke="#FFA500" d="M560 115l3 0 1 1 2 0 1 1 2 0M569 118l0 -1M569 118l3 0M572 119l0 -1M572 119l3 0 1 1 12 0 1 -1 3 0 0 -1 3 0 0 -1 3 0 0 -1 2 0 1 -1 3 0 0 -1 13 0 1 1 3 0M621 116l0 -1M621 116l2 0 1 1 2 0 1 1 2 0 1 1 3 0M633 120l0 -1M633 120l13 0"/>
<path stroke="#FFA500" d="M646 120l0 -1 3 0 1 -1 2 0 1 -1 2 0 1 -1 2 0 1 -1 2 0 1 -1 13 0M675 115l0 -1M675 115l3 0 1 1 2 0 1 1 2 0M684 118l0 -1M684 118l3 0M687 119l0 -1M687 119l3 0 1 1 12 0 1 -1 3 0 0 -1 3 0 0 -1 3 0 0 -1 2 0 1 -1 3 0 0 -1 13 0"/>
<path stroke="#FFA500" d="M732 114l1 1 3 0M736 116l0 -1M736 116l2 0 1 1 2 0 1 1 2 0 1 1 3 0M748 120l0 -1M748 120l13 0 0 -1 3 0 1 -1 2 0 1 -1 2 0 1 -1 2 0 1 -1 2 0 1 -1 13 0M790 115l0 -1M790 115l3 0 1 1 2 0 1 1 2 0M799 118l0 -1M799 118l3 0M802 119l0 -1"/>
<path stroke="#FFA500" d="M802 119l3 0 1 1 12 0 1 -1 3 0 0 -1 3 0 0 -1 3 0 0 -1 2 0 1 -1 3 0 0 -1 13 0 1 1 3 0M851 116l0 -1M851 116l2 0 1 1 2 0 1 1 2 0 1 1 3 0M863 120l0 -1M863 120l13 0 0 -1 3 0 1 -1 2 0 1 -1 2 0 1 -1 2 0 1 -1 2 0 1 -1 13 0M905 115l0 -1"/>
<path stroke="#FFA500" d="M905 115l3 0 1 1 2 0 1 1 1 0"/>
</svg>
