<?xml version="1.0" standalone="yes"?>
<!DOCTYPE svg PUBLIC "-//W3C//DTD SVG 1.1//EN"
 "http://www.w3.org/Graphics/SVG/1.1/DTD/svg11.dtd">
<svg xmlns="http://www.w3.org/2000/svg" version="1.1"
  width="100%" height="100%" viewBox="0 0 1024 768"
  style="fill: none; font-family: Arial;
 font: Arial;
">

<!-- Creator: NGspice -->

<rect x="0" y="0" width="1024" height="768" fill="white" stroke="none"/>
<text stroke="none" fill="black" font-size="16" x="358" y="752">
time
</text>
<text stroke="none" fill="black" font-size="16" x="10" y="16">
tran1: ** sch_path: /home/lmadhu/openmpw/pdk_1/project_gf180_tp/xschem/amplifiers/cg_lna_wo_cmfb.sch
</text>
<path stroke="black" d="M50 720l0 -672"/>
<text stroke="none" fill="black" font-size="16" x="35" y="728">
0.0
</text>
<path stroke="black" stroke-dasharray="1,2" d="M165 720l0 -672"/>
<text stroke="none" fill="black" font-size="16" x="150" y="728">
0.2
</text>
<path stroke="black" stroke-dasharray="1,2" d="M280 720l0 -672"/>
<text stroke="none" fill="black" font-size="16" x="265" y="728">
0.4
</text>
<path stroke="black" stroke-dasharray="1,2" d="M395 720l0 -672"/>
<text stroke="none" fill="black" font-size="16" x="380" y="728">
0.6
</text>
<path stroke="black" stroke-dasharray="1,2" d="M510 720l0 -672"/>
<text stroke="none" fill="black" font-size="16" x="495" y="728">
0.8
</text>
<path stroke="black" stroke-dasharray="1,2" d="M625 720l0 -672"/>
<text stroke="none" fill="black" font-size="16" x="610" y="728">
1.0
</text>
<path stroke="black" stroke-dasharray="1,2" d="M740 720l0 -672"/>
<text stroke="none" fill="black" font-size="16" x="725" y="728">
1.2
</text>
<path stroke="black" stroke-dasharray="1,2" d="M855 720l0 -672"/>
<text stroke="none" fill="black" font-size="16" x="840" y="728">
1.4
</text>
<path stroke="black" stroke-dasharray="1,2" d="M970 720l0 -672"/>
<text stroke="none" fill="black" font-size="16" x="955" y="728">
1.6
</text>
<text stroke="none" fill="black" font-size="16" x="614" y="752">
us
</text>
<path stroke="black" stroke-dasharray="1,2" d="M50 720l920 0"/>
<text stroke="none" fill="black" font-size="16" x="8" y="728">
-1.2
</text>
<path stroke="black" stroke-dasharray="1,2" d="M50 664l920 0"/>
<text stroke="none" fill="black" font-size="16" x="8" y="672">
-1.0
</text>
<path stroke="black" stroke-dasharray="1,2" d="M50 608l920 0"/>
<text stroke="none" fill="black" font-size="16" x="8" y="616">
-0.8
</text>
<path stroke="black" stroke-dasharray="1,2" d="M50 552l920 0"/>
<text stroke="none" fill="black" font-size="16" x="8" y="560">
-0.6
</text>
<path stroke="black" stroke-dasharray="1,2" d="M50 496l920 0"/>
<text stroke="none" fill="black" font-size="16" x="8" y="504">
-0.4
</text>
<path stroke="black" stroke-dasharray="1,2" d="M50 440l920 0"/>
<text stroke="none" fill="black" font-size="16" x="8" y="448">
-0.2
</text>
<path stroke="black" d="M50 384l920 0"/>
<text stroke="none" fill="black" font-size="16" x="8" y="392">
-0.0
</text>
<path stroke="black" stroke-dasharray="1,2" d="M50 328l920 0"/>
<text stroke="none" fill="black" font-size="16" x="18" y="336">
0.2
</text>
<path stroke="black" stroke-dasharray="1,2" d="M50 272l920 0"/>
<text stroke="none" fill="black" font-size="16" x="18" y="280">
0.4
</text>
<path stroke="black" stroke-dasharray="1,2" d="M50 216l920 0"/>
<text stroke="none" fill="black" font-size="16" x="18" y="224">
0.6
</text>
<path stroke="black" stroke-dasharray="1,2" d="M50 160l920 0"/>
<text stroke="none" fill="black" font-size="16" x="18" y="168">
0.8
</text>
<path stroke="black" stroke-dasharray="1,2" d="M50 104l920 0"/>
<text stroke="none" fill="black" font-size="16" x="18" y="112">
1.0
</text>
<path stroke="black" stroke-dasharray="1,2" d="M50 48l920 0"/>
<text stroke="none" fill="black" font-size="16" x="18" y="56">
1.2
</text>
<text stroke="none" fill="black" font-size="16" x="10" y="32">
     
</text>
<path stroke="red" d="M460 23l46 0"/>
<text stroke="none" fill="black" font-size="16" x="516" y="32">
vout
</text>
<path stroke="red" d="M50 384l1 0M51 386l0 -2M51 386l1 2M52 390l0 -2M52 390l2 8M54 402l0 -4M54 402l1 5M55 413l0 -6M55 413l1 7M56 427l0 -7M56 427l1 7 1 8M58 451l0 -9M58 451l1 9M59 469l0 -9M59 469l1 9 1 10M61 498l0 -10M61 498l1 11M62 519l0 -10"/>
<path stroke="red" d="M62 519l1 11M63 541l0 -11M63 541l1 10 1 11M65 573l0 -11M65 573l1 10M66 593l0 -10M66 593l1 10M67 613l0 -10M67 613l1 10 1 9M69 641l0 -9M69 641l1 9M70 658l0 -8M70 658l1 7M71 672l0 -7M71 672l1 7 1 6M73 690l0 -5M73 690l1 5M74 699l0 -4"/>
<path stroke="red" d="M74 699l1 3M75 705l0 -3M75 705l1 2 1 1M77 709l0 -1M77 709l1 -1 0 -1 1 -1 0 -2 1 -3 1 -4 0 -5 1 -5 0 -6 1 -6 1 -7 0 -8 1 -8 0 -8 1 -10 0 -9 1 -10 1 -11 0 -11 1 -11 0 -11 1 -12 0 -12 2 -24 0 -12 1 -13 0 -12 1 -12 0 -12 1 -12"/>
<path stroke="red" d="M95 450l1 -11 0 -12 1 -11 0 -10 1 -11 0 -10 2 -18 0 -9 1 -8 0 -7 1 -7 0 -6 1 -6 1 -4 0 -5 1 -3 0 -3 1 -2 1 -1 0 -1 1 1 1 2M109 310l0 -2M109 310l1 3 1 4M111 321l0 -4M111 321l1 6M112 332l0 -5M112 332l1 6M113 345l0 -7M113 345l2 16"/>
<path stroke="red" d="M115 369l0 -8M115 369l1 9M116 387l0 -9M116 387l1 10M117 407l0 -10M117 407l2 20M119 438l0 -11M119 438l1 11M120 460l0 -11M120 460l1 11M121 482l0 -11M121 482l2 22M123 515l0 -11M123 515l1 10M124 536l0 -11M124 536l1 10M125 556l0 -10"/>
<path stroke="red" d="M125 556l1 10 1 9M127 584l0 -9M127 584l1 8M128 600l0 -8M128 600l1 8 1 7M130 621l0 -6M130 621l1 6M131 632l0 -5M131 632l1 4M132 640l0 -4M132 640l1 3 1 2M134 647l0 -2M134 647l1 1 1 0 0 -1 1 -2 1 -3 0 -3 1 -4 0 -5 1 -6 0 -6"/>
<path stroke="red" d="M140 618l1 -6 1 -7 0 -8 1 -9 0 -8 1 -10 0 -10 2 -20 0 -11 1 -11 0 -12 1 -11 0 -12 2 -24 0 -12 1 -12 0 -11 2 -24 0 -11 1 -11 0 -11 1 -10 0 -10 1 -10 1 -9 0 -9 1 -8 0 -8 1 -7 0 -7 1 -6 1 -5 0 -4 1 -4 0 -4 1 -2 0 -2 1 -1 1 0"/>
<path stroke="red" d="M165 261l1 1M166 264l0 -2M166 264l1 3M167 270l0 -3M167 270l1 4 1 5M169 284l0 -5M169 284l1 6M170 296l0 -6M170 296l1 7M171 311l0 -8M171 311l1 8 1 9M173 337l0 -9M173 337l1 9M174 356l0 -10M174 356l1 10 1 11M176 387l0 -10M176 387l1 11"/>
<path stroke="red" d="M177 409l0 -11M177 409l1 11M178 432l0 -12M178 432l2 22M180 465l0 -11M180 465l1 11M181 487l0 -11M181 487l1 11M182 508l0 -10M182 508l2 20M184 538l0 -10M184 538l1 9M185 555l0 -8M185 555l1 9M186 571l0 -7M186 571l2 14M188 591l0 -6"/>
<path stroke="red" d="M188 591l1 5M189 601l0 -5M189 601l1 4M190 608l0 -3M190 608l1 3 1 1M192 614l0 -2M192 614l1 0 1 -1 0 -2 1 -2 1 -4 0 -3 1 -5 0 -5 2 -12 0 -8 1 -7 0 -8 1 -9 0 -9 2 -20 0 -10 1 -11 0 -11 1 -11 0 -11 2 -24 0 -11 1 -12 0 -12 1 -11"/>
<path stroke="red" d="M209 395l0 -12 2 -22 0 -11 1 -11 0 -10 1 -10 0 -10 2 -18 0 -8 1 -7 0 -7 1 -7 0 -5 2 -10 0 -4 1 -3 0 -2 1 -2 1 -1 1 1M223 237l0 -1M223 237l1 2M224 242l0 -3M224 242l1 3 1 4M226 254l0 -5M226 254l1 5M227 265l0 -6M227 265l1 7"/>
<path stroke="red" d="M228 279l0 -7M228 279l2 16M230 304l0 -9M230 304l1 9M231 323l0 -10M231 323l1 10M232 343l0 -10M232 343l1 10 1 11M234 375l0 -11M234 375l1 11M235 398l0 -12M235 398l1 11M236 420l0 -11M236 420l1 12 1 11M238 454l0 -11M238 454l1 11"/>
<path stroke="red" d="M239 476l0 -11M239 476l1 11M240 497l0 -10M240 497l1 10 1 9M242 526l0 -10M242 526l1 8M243 543l0 -9M243 543l2 14M245 564l0 -7M245 564l1 6M246 576l0 -6M246 576l1 4M247 584l0 -4M247 584l1 4 1 2M249 592l0 -2M249 592l1 2 1 0 0 -1"/>
<path stroke="red" d="M251 593l1 -1 1 -3 0 -3 1 -3 0 -5 1 -5 0 -6 1 -6 1 -7 0 -8 1 -8 0 -8 1 -9 0 -10 2 -20 0 -10 1 -11 0 -11 1 -12 0 -11 1 -12 1 -11 0 -12 1 -12 0 -11 1 -12 1 -11 0 -11 1 -11 0 -10 1 -11 0 -9 1 -10 1 -9 0 -8 1 -8 0 -8 1 -7 0 -6"/>
<path stroke="red" d="M274 247l1 -6 1 -5 0 -4 1 -4 0 -3 1 -2 0 -2 2 0 1 2M281 225l0 -2M281 225l1 2M282 231l0 -4M282 231l1 4 1 5M284 245l0 -5M284 245l1 6M285 258l0 -7M285 258l1 7M286 273l0 -8M286 273l1 8 1 9M288 300l0 -10M288 300l1 9M289 319l0 -10"/>
<path stroke="red" d="M289 319l1 11 1 10M291 351l0 -11M291 351l1 11M292 373l0 -11M292 373l1 12M293 396l0 -11M293 396l1 12 1 11M295 430l0 -11M295 430l1 12M296 453l0 -11M296 453l1 10M297 474l0 -11M297 474l2 20M299 504l0 -10M299 504l1 9M300 522l0 -9"/>
<path stroke="red" d="M300 522l1 8M301 538l0 -8M301 538l2 14M303 558l0 -6M303 558l1 6M304 569l0 -5M304 569l1 4M305 576l0 -3M305 576l1 3 1 2M307 582l0 -1M307 582l1 1 1 -1 0 -2 1 -2 1 -3 0 -3 1 -5 0 -5 1 -5 1 -7 0 -7 1 -7 0 -8 1 -9 0 -9 1 -9 1 -10"/>
<path stroke="red" d="M318 491l0 -10 1 -11 0 -10 1 -11 0 -12 1 -11 1 -12 0 -11 1 -12 0 -11 1 -12 0 -11 2 -22 0 -11 1 -11 0 -10 1 -10 0 -9 2 -18 0 -7 1 -8 0 -7 1 -6 0 -6 1 -5 1 -4 0 -3 1 -3 0 -3 2 -2 1 1M338 214l0 -1M338 214l1 2M339 219l0 -3M339 219l2 8"/>
<path stroke="red" d="M341 232l0 -5M341 232l1 5M342 243l0 -6M342 243l1 7M343 257l0 -7M343 257l1 8 1 9M345 282l0 -8M345 282l1 10M346 301l0 -9M346 301l1 10M347 322l0 -11M347 322l1 11 1 10M349 355l0 -12M349 355l1 11M350 377l0 -11M350 377l1 12M351 400l0 -11"/>
<path stroke="red" d="M351 400l1 12 1 11M353 434l0 -11M353 434l1 11M354 456l0 -11M354 456l1 11M355 477l0 -10M355 477l2 20M357 506l0 -9M357 506l1 9M358 523l0 -8M358 523l2 16M360 545l0 -6M360 545l1 6M361 557l0 -6M361 557l1 5M362 566l0 -4M362 566l2 6"/>
<path stroke="red" d="M364 574l0 -2M364 574l1 2 1 0 2 -4 0 -3 1 -4 0 -4 1 -5 0 -6 1 -6 1 -7 0 -7 1 -8 0 -9 1 -9 0 -9 2 -20 0 -10 1 -11 0 -11 1 -11 0 -12 1 -11 1 -12 0 -11 1 -12 0 -11 1 -12 1 -11 0 -11 1 -11 0 -10 1 -10 0 -10 2 -18 0 -9 1 -8 0 -7"/>
<path stroke="red" d="M388 246l1 -7 0 -6 1 -6 1 -5 0 -4 1 -4 0 -2 1 -3 0 -1 1 -1 1 0M395 208l0 -1M395 208l1 1M396 211l0 -2M396 211l1 3M397 218l0 -4M397 218l1 4 1 5M399 233l0 -6M399 233l1 6M400 245l0 -6M400 245l1 8M401 261l0 -8M401 261l1 8 1 9"/>
<path stroke="red" d="M403 287l0 -9M403 287l1 10M404 307l0 -10M404 307l1 10 1 11M406 339l0 -11M406 339l1 11M407 361l0 -11M407 361l1 12M408 384l0 -11M408 384l1 12 1 11M410 419l0 -12M410 419l1 11M411 441l0 -11M411 441l1 11M412 463l0 -11M412 463l2 20"/>
<path stroke="red" d="M414 493l0 -10M414 493l1 9M415 511l0 -9M415 511l1 8M416 527l0 -8M416 527l1 8 1 6M418 547l0 -6M418 547l1 6M419 558l0 -5M419 558l1 4M420 566l0 -4M420 566l1 2 1 3M422 572l0 -1M422 572l1 1 1 -1 0 -2 1 -2 1 -3 0 -3 1 -5 0 -5"/>
<path stroke="red" d="M427 552l1 -5 1 -7 0 -6 1 -8 0 -8 1 -8 0 -9 1 -9 1 -10 0 -10 1 -11 0 -11 1 -11 0 -11 1 -11 1 -12 0 -11 1 -12 0 -11 1 -12 0 -11 2 -22 0 -11 1 -10 0 -10 1 -10 0 -9 2 -18 0 -8 1 -7 0 -7 1 -6 0 -6 1 -5 1 -4 0 -3 1 -3 0 -2 1 -2"/>
<path stroke="red" d="M451 205l1 -1 1 1M453 207l0 -2M453 207l1 2M454 212l0 -3M454 212l1 3 1 4M456 224l0 -5M456 224l1 6M457 236l0 -6M457 236l1 7M458 250l0 -7M458 250l2 16M460 275l0 -9M460 275l1 10M461 294l0 -9M461 294l1 10M462 315l0 -11M462 315l2 22"/>
<path stroke="red" d="M464 348l0 -11M464 348l1 11M465 370l0 -11M465 370l1 12M466 393l0 -11M466 393l1 12 1 11M468 428l0 -12M468 428l1 11M469 450l0 -11M469 450l1 10M470 471l0 -11M470 471l2 20M472 500l0 -9M472 500l1 9M473 517l0 -8M473 517l1 8 1 7"/>
<path stroke="red" d="M475 539l0 -7M475 539l1 6M476 551l0 -6M476 551l1 5M477 560l0 -4M477 560l2 6M479 568l0 -2M479 568l1 2 1 0 2 -4 0 -3 1 -4 0 -4 1 -5 0 -5 1 -7 1 -6 0 -8 1 -8 0 -8 1 -9 0 -9 2 -20 0 -11 1 -11 0 -10 1 -12 0 -11 1 -11 1 -12 0 -11"/>
<path stroke="red" d="M495 381l1 -12 0 -11 1 -12 1 -11 0 -11 1 -11 0 -10 1 -10 0 -10 2 -18 0 -9 1 -7 0 -8 1 -7 0 -6 2 -10 0 -5 1 -3 0 -3 1 -2 0 -2 2 0 1 2M511 207l0 -2M511 207l1 3M512 214l0 -4M512 214l1 4 1 5M514 228l0 -5M514 228l1 6M515 241l0 -7"/>
<path stroke="red" d="M515 241l1 8M516 257l0 -8M516 257l1 8 1 9M518 283l0 -9M518 283l1 10M519 303l0 -10M519 303l1 10 1 11M521 335l0 -11M521 335l1 11M522 358l0 -12M522 358l1 11M523 380l0 -11M523 380l1 12 1 11M525 415l0 -12M525 415l1 11M526 437l0 -11"/>
<path stroke="red" d="M526 437l1 11M527 459l0 -11M527 459l2 20M529 489l0 -10M529 489l1 9M530 507l0 -9M530 507l1 9M531 524l0 -8M531 524l2 14M533 544l0 -6M533 544l1 5M534 554l0 -5M534 554l1 5M535 562l0 -3M535 562l1 3 1 2M537 568l0 -1M537 568l1 1"/>
<path stroke="red" d="M538 569l1 -1 0 -1 1 -2 1 -3 0 -4 1 -4 0 -5 2 -12 0 -7 1 -7 0 -8 1 -8 0 -9 1 -10 1 -9 0 -10 1 -11 0 -11 1 -11 0 -11 1 -11 1 -12 0 -11 1 -12 0 -11 1 -12 0 -11 2 -22 0 -11 1 -10 0 -10 1 -10 0 -9 2 -18 0 -7 1 -8 0 -7 1 -6 0 -5"/>
<path stroke="red" d="M562 222l1 -5 1 -4 0 -4 1 -3 0 -2 1 -2 1 0 1 1M568 204l0 -1M568 204l1 2M569 209l0 -3M569 209l2 8M571 222l0 -5M571 222l1 5M572 234l0 -7M572 234l1 6M573 248l0 -8M573 248l2 16M575 273l0 -9M575 273l1 9M576 292l0 -10M576 292l1 10"/>
<path stroke="red" d="M577 313l0 -11M577 313l1 10 1 11M579 345l0 -11M579 345l1 12M580 368l0 -11M580 368l1 12M581 391l0 -11M581 391l1 12 1 11M583 425l0 -11M583 425l1 12M584 447l0 -10M584 447l1 11M585 469l0 -11M585 469l1 10 1 9M587 498l0 -10M587 498l1 9"/>
<path stroke="red" d="M588 515l0 -8M588 515l1 8 1 7M590 537l0 -7M590 537l1 6M591 549l0 -6M591 549l1 5M592 558l0 -4M592 558l2 6M594 566l0 -2M594 566l1 2 1 0 2 -4 0 -3 1 -3 0 -5 1 -5 0 -5 1 -6 1 -7 0 -8 1 -8 0 -8 1 -9 0 -9 2 -20 0 -11 1 -10 0 -11"/>
<path stroke="red" d="M607 436l1 -11 0 -12 1 -11 1 -12 0 -11 1 -12 0 -11 1 -11 1 -12 0 -11 1 -10 0 -11 1 -10 0 -10 2 -18 0 -8 1 -8 0 -7 1 -7 0 -6 1 -6 1 -5 0 -4 1 -4 0 -2 1 -3 0 -1 1 -1 1 0M625 202l0 -1M625 202l1 1M626 206l0 -3M626 206l1 3M627 212l0 -3"/>
<path stroke="red" d="M627 212l1 4 1 5M629 227l0 -6M629 227l1 6M630 240l0 -7M630 240l1 7M631 255l0 -8M631 255l1 9 1 8M633 282l0 -10M633 282l1 10M634 302l0 -10M634 302l1 10 1 11M636 334l0 -11M636 334l1 11M637 356l0 -11M637 356l1 12M638 379l0 -11"/>
<path stroke="red" d="M638 379l1 12 1 11M640 414l0 -12M640 414l1 11M641 436l0 -11M641 436l1 11M642 458l0 -11M642 458l2 20M644 488l0 -10M644 488l1 9M645 506l0 -9M645 506l1 9M646 522l0 -7M646 522l1 8 1 7M648 543l0 -6M648 543l1 5M649 553l0 -5M649 553l1 4"/>
<path stroke="red" d="M650 561l0 -4M650 561l1 3 1 2M652 567l0 -1M652 567l1 1 1 -1 0 -1 1 -2 1 -3 0 -4 1 -4 0 -5 2 -12 0 -7 1 -7 0 -8 1 -8 0 -9 1 -10 1 -9 0 -10 1 -11 0 -11 1 -11 0 -11 1 -11 1 -12 0 -11 1 -12 0 -11 1 -11 0 -12 2 -22 0 -11 1 -10"/>
<path stroke="red" d="M672 301l0 -10 1 -10 0 -9 1 -9 1 -8 0 -8 1 -8 0 -6 1 -7 0 -5 1 -5 1 -4 0 -4 1 -3 0 -2 2 -2 1 1M683 203l0 -1M683 203l1 2M684 208l0 -3M684 208l2 8M686 221l0 -5M686 221l1 6M687 233l0 -6M687 233l1 7M688 247l0 -7M688 247l2 16"/>
<path stroke="red" d="M690 272l0 -9M690 272l1 10M691 291l0 -9M691 291l1 10M692 312l0 -11M692 312l1 11 1 10M694 345l0 -12M694 345l1 11M695 367l0 -11M695 367l1 12M696 390l0 -11M696 390l1 12 1 11M698 425l0 -12M698 425l1 11M699 447l0 -11M699 447l1 10"/>
<path stroke="red" d="M700 468l0 -11M700 468l2 20M702 497l0 -9M702 497l1 9M703 514l0 -8M703 514l2 16M705 536l0 -6M705 536l1 6M706 548l0 -6M706 548l1 5M707 557l0 -4M707 557l1 4 1 3M709 566l0 -2M709 566l1 1M710 568l0 -1M710 568l1 0 0 -1 1 -1 1 -3"/>
<path stroke="red" d="M713 563l0 -3 1 -3 0 -4 1 -5 0 -6 1 -6 1 -7 0 -7 1 -8 0 -9 1 -8 0 -10 2 -20 0 -10 1 -11 0 -11 1 -11 0 -11 1 -12 1 -11 0 -12 1 -11 0 -12 2 -22 0 -11 1 -11 0 -10 1 -10 0 -10 2 -18 0 -9 1 -8 0 -7 1 -7 0 -6 2 -10 0 -5 1 -3 0 -3"/>
<path stroke="red" d="M737 205l1 -2 0 -2 2 0M740 202l0 -1M740 202l1 1M741 205l0 -2M741 205l1 3M742 212l0 -4M742 212l1 4 1 5M744 226l0 -5M744 226l1 7M745 239l0 -6M745 239l1 8M746 255l0 -8M746 255l1 8 1 9M748 281l0 -9M748 281l1 10M749 301l0 -10"/>
<path stroke="red" d="M749 301l1 11 1 10M751 333l0 -11M751 333l1 11M752 356l0 -12M752 356l1 11M753 379l0 -12M753 379l1 11 1 12M755 413l0 -11M755 413l1 11M756 436l0 -12M756 436l1 11M757 457l0 -10M757 457l1 11 1 10M759 488l0 -10M759 488l1 9M760 506l0 -9"/>
<path stroke="red" d="M760 506l1 8M761 522l0 -8M761 522l2 14M763 542l0 -6M763 542l1 6M764 553l0 -5M764 553l1 4M765 561l0 -4M765 561l1 2 1 3M767 567l0 -1M767 567l1 1 1 -1 0 -2 1 -2 1 -3 0 -3 1 -4 0 -5 2 -12 0 -7 1 -7 0 -8 1 -9 0 -9 1 -9 1 -10"/>
<path stroke="red" d="M778 477l0 -10 1 -10 0 -11 1 -11 0 -11 1 -11 1 -12 0 -11 1 -12 0 -11 1 -12 0 -11 2 -22 0 -11 1 -10 0 -10 1 -10 0 -10 1 -8 1 -9 0 -8 1 -7 0 -7 1 -6 0 -6 1 -4 1 -5 0 -3 1 -3 0 -2 1 -2 2 0M798 203l0 -2M798 203l1 2M799 208l0 -3"/>
<path stroke="red" d="M799 208l2 8M801 221l0 -5M801 221l1 5M802 233l0 -7M802 233l1 6M803 247l0 -8M803 247l2 16M805 272l0 -9M805 272l1 9M806 291l0 -10M806 291l1 10M807 312l0 -11M807 312l1 10 1 11M809 344l0 -11M809 344l1 12M810 367l0 -11M810 367l1 12"/>
<path stroke="red" d="M811 390l0 -11M811 390l1 12 1 11M813 424l0 -11M813 424l1 12M814 447l0 -11M814 447l1 10M815 468l0 -11M815 468l1 10 1 9M817 497l0 -10M817 497l1 9M818 514l0 -8M818 514l1 8 1 7M820 536l0 -7M820 536l1 6M821 548l0 -6M821 548l1 5"/>
<path stroke="red" d="M822 557l0 -4M822 557l2 6M824 565l0 -2M824 565l1 2M825 568l0 -1M825 568l1 0 0 -1 2 -4 0 -3 1 -3 0 -5 1 -5 0 -5 1 -6 1 -7 0 -7 1 -8 0 -9 1 -9 0 -9 2 -20 0 -10 1 -11 0 -11 1 -11 0 -11 1 -12 1 -11 0 -12 1 -11 0 -12 2 -22 0 -11"/>
<path stroke="red" d="M843 322l1 -11 0 -10 1 -11 0 -9 1 -10 1 -8 0 -9 1 -8 0 -7 1 -7 0 -6 1 -6 1 -4 0 -5 1 -3 0 -3 1 -2 0 -2 2 0 1 2M856 205l0 -2M856 205l1 3M857 211l0 -3M857 211l2 10M859 226l0 -5M859 226l1 6M860 239l0 -7M860 239l1 8M861 255l0 -8"/>
<path stroke="red" d="M861 255l1 8 1 9M863 281l0 -9M863 281l1 10M864 301l0 -10M864 301l1 10 1 11M866 333l0 -11M866 333l1 11M867 356l0 -12M867 356l1 11M868 379l0 -12M868 379l1 11 1 12M870 413l0 -11M870 413l1 11M871 435l0 -11M871 435l1 11M872 457l0 -11"/>
<path stroke="red" d="M872 457l1 11 1 10M874 487l0 -9M874 487l1 10M875 506l0 -9M875 506l1 8M876 522l0 -8M876 522l2 14M878 542l0 -6M878 542l1 6M879 553l0 -5M879 553l1 4M880 560l0 -3M880 560l1 3 1 2M882 567l0 -2M882 567l1 1 1 -1 0 -2 1 -2 1 -3"/>
<path stroke="red" d="M886 560l0 -3 1 -5 0 -5 1 -5 1 -6 0 -7 1 -8 0 -7 1 -9 0 -9 1 -9 1 -10 0 -10 1 -10 0 -11 1 -11 0 -11 1 -12 1 -11 0 -11 1 -12 0 -11 1 -12 0 -11 2 -22 0 -11 1 -10 0 -11 1 -9 0 -10 1 -8 1 -9 0 -8 1 -7 0 -7 1 -6 0 -6 1 -5 1 -4"/>
<path stroke="red" d="M909 211l0 -3 1 -3 0 -2 1 -2 2 0"/>
<path stroke="blue" d="M50 23l46 0"/>
<text stroke="none" fill="black" font-size="16" x="106" y="32">
vin1
</text>
<path stroke="blue" d="M50 104l1 0 1 -1 3 0 0 -1 5 0 1 -1 8 0M69 102l0 -1M69 102l4 0 1 1 3 0M77 104l0 -1M77 104l3 0 1 1 3 0M84 106l0 -1M84 106l5 0M89 107l0 -1M89 107l8 0 1 -1 4 0 0 -1 3 0 1 -1 3 0 0 -1 3 0 1 -1 4 0 1 -1 8 0 1 1 4 0M131 103l0 -1"/>
<path stroke="blue" d="M131 103l3 0 1 1 3 0M138 105l0 -1M138 105l3 0 1 1 4 0 1 1 8 0 0 -1 4 0 1 -1 3 0 0 -1 3 0 1 -1 3 0 0 -1 5 0 1 -1 8 0M184 102l0 -1M184 102l4 0 1 1 3 0M192 104l0 -1M192 104l3 0 1 1 3 0M199 106l0 -1M199 106l5 0M204 107l0 -1"/>
<path stroke="blue" d="M204 107l8 0 1 -1 4 0 0 -1 3 0 1 -1 3 0 0 -1 3 0 1 -1 4 0 1 -1 8 0 1 1 4 0M246 103l0 -1M246 103l3 0 1 1 3 0M253 105l0 -1M253 105l3 0 1 1 4 0 1 1 8 0 0 -1 4 0 1 -1 3 0 0 -1 3 0 1 -1 3 0 0 -1 5 0 1 -1 8 0M299 102l0 -1M299 102l4 0"/>
<path stroke="blue" d="M303 102l1 1 3 0M307 104l0 -1M307 104l3 0 1 1 3 0M314 106l0 -1M314 106l5 0M319 107l0 -1M319 107l8 0 1 -1 4 0 0 -1 3 0 1 -1 3 0 0 -1 3 0 1 -1 4 0 1 -1 8 0 1 1 4 0M361 103l0 -1M361 103l3 0 1 1 3 0M368 105l0 -1M368 105l3 0"/>
<path stroke="blue" d="M371 105l1 1 4 0 1 1 8 0 0 -1 4 0 1 -1 3 0 0 -1 3 0 1 -1 3 0 0 -1 5 0 1 -1 8 0M414 102l0 -1M414 102l4 0 1 1 3 0M422 104l0 -1M422 104l3 0 1 1 3 0M429 106l0 -1M429 106l5 0M434 107l0 -1M434 107l8 0 1 -1 4 0 0 -1 3 0 1 -1 3 0"/>
<path stroke="blue" d="M454 104l0 -1 3 0 1 -1 4 0 1 -1 8 0 1 1 4 0M476 103l0 -1M476 103l3 0 1 1 3 0M483 105l0 -1M483 105l3 0 1 1 4 0 1 1 8 0 0 -1 4 0 1 -1 3 0 0 -1 3 0 1 -1 3 0 0 -1 5 0 1 -1 8 0M529 102l0 -1M529 102l4 0 1 1 3 0M537 104l0 -1M537 104l3 0"/>
<path stroke="blue" d="M540 104l1 1 3 0M544 106l0 -1M544 106l5 0M549 107l0 -1M549 107l8 0 1 -1 4 0 0 -1 3 0 1 -1 3 0 0 -1 3 0 1 -1 4 0 1 -1 8 0 1 1 4 0M591 103l0 -1M591 103l3 0 1 1 3 0M598 105l0 -1M598 105l3 0 1 1 4 0 1 1 8 0 0 -1 4 0 1 -1 3 0"/>
<path stroke="blue" d="M623 105l0 -1 3 0 1 -1 3 0 0 -1 5 0 1 -1 8 0M644 102l0 -1M644 102l4 0 1 1 3 0M652 104l0 -1M652 104l3 0 1 1 3 0M659 106l0 -1M659 106l5 0M664 107l0 -1M664 107l8 0 1 -1 4 0 0 -1 3 0 1 -1 3 0 0 -1 3 0 1 -1 4 0 1 -1 8 0 1 1"/>
<path stroke="blue" d="M702 102l4 0M706 103l0 -1M706 103l3 0 1 1 3 0M713 105l0 -1M713 105l3 0 1 1 4 0 1 1 8 0 0 -1 4 0 1 -1 3 0 0 -1 3 0 1 -1 3 0 0 -1 5 0 1 -1 8 0M759 102l0 -1M759 102l4 0 1 1 3 0M767 104l0 -1M767 104l3 0 1 1 3 0M774 106l0 -1"/>
<path stroke="blue" d="M774 106l5 0M779 107l0 -1M779 107l8 0 1 -1 4 0 0 -1 3 0 1 -1 3 0 0 -1 3 0 1 -1 4 0 1 -1 8 0 1 1 4 0M821 103l0 -1M821 103l3 0 1 1 3 0M828 105l0 -1M828 105l3 0 1 1 4 0 1 1 8 0 0 -1 4 0 1 -1 3 0 0 -1 3 0 1 -1 3 0 0 -1 5 0"/>
<path stroke="blue" d="M865 102l1 -1 8 0M874 102l0 -1M874 102l4 0 1 1 3 0M882 104l0 -1M882 104l3 0 1 1 3 0M889 106l0 -1M889 106l5 0M894 107l0 -1M894 107l8 0 1 -1 4 0 0 -1 3 0 1 -1 2 0"/>
<path stroke="#FFA500" d="M460 39l46 0"/>
<text stroke="none" fill="black" font-size="16" x="516" y="48">
vin2
</text>
<path stroke="#FFA500" d="M50 104l1 0 1 1 3 0M55 106l0 -1M55 106l5 0 1 1 8 0 0 -1 4 0 1 -1 3 0 0 -1 3 0 1 -1 3 0 0 -1 5 0 0 -1 8 0 1 1 4 0M102 103l0 -1M102 103l3 0 1 1 3 0M109 105l0 -1M109 105l3 0 1 1 4 0 1 1 8 0 1 -1 4 0 0 -1 3 0 1 -1 3 0 0 -1"/>
<path stroke="#FFA500" d="M138 103l3 0 1 -1 4 0 1 -1 8 0M155 102l0 -1M155 102l4 0 1 1 3 0M163 104l0 -1M163 104l3 0 1 1 3 0M170 106l0 -1M170 106l5 0 1 1 8 0 0 -1 4 0 1 -1 3 0 0 -1 3 0 1 -1 3 0 0 -1 5 0 0 -1 8 0 1 1 4 0M217 103l0 -1M217 103l3 0"/>
<path stroke="#FFA500" d="M220 103l1 1 3 0M224 105l0 -1M224 105l3 0 1 1 4 0 1 1 8 0 1 -1 4 0 0 -1 3 0 1 -1 3 0 0 -1 3 0 1 -1 4 0 1 -1 8 0M270 102l0 -1M270 102l4 0 1 1 3 0M278 104l0 -1M278 104l3 0 1 1 3 0M285 106l0 -1M285 106l5 0 1 1 8 0 0 -1"/>
<path stroke="#FFA500" d="M299 106l4 0 1 -1 3 0 0 -1 3 0 1 -1 3 0 0 -1 5 0 0 -1 8 0 1 1 4 0M332 103l0 -1M332 103l3 0 1 1 3 0M339 105l0 -1M339 105l3 0 1 1 4 0 1 1 8 0 1 -1 4 0 0 -1 3 0 1 -1 3 0 0 -1 3 0 1 -1 4 0 1 -1 8 0M385 102l0 -1M385 102l4 0"/>
<path stroke="#FFA500" d="M389 102l1 1 3 0M393 104l0 -1M393 104l3 0 1 1 3 0M400 106l0 -1M400 106l5 0 1 1 8 0 0 -1 4 0 1 -1 3 0 0 -1 3 0 1 -1 3 0 0 -1 5 0 0 -1 8 0 1 1 4 0M447 103l0 -1M447 103l3 0 1 1 3 0M454 105l0 -1M454 105l3 0 1 1 4 0 1 1 8 0"/>
<path stroke="#FFA500" d="M471 107l1 -1 4 0 0 -1 3 0 1 -1 3 0 0 -1 3 0 1 -1 4 0 1 -1 8 0M500 102l0 -1M500 102l4 0 1 1 3 0M508 104l0 -1M508 104l3 0 1 1 3 0M515 106l0 -1M515 106l5 0 1 1 8 0 0 -1 4 0 1 -1 3 0 0 -1 3 0 1 -1 3 0 0 -1 5 0 0 -1 8 0"/>
<path stroke="#FFA500" d="M557 101l1 1 4 0M562 103l0 -1M562 103l3 0 1 1 3 0M569 105l0 -1M569 105l3 0 1 1 4 0 1 1 8 0 1 -1 4 0 0 -1 3 0 1 -1 3 0 0 -1 3 0 1 -1 4 0 1 -1 8 0M615 102l0 -1M615 102l4 0 1 1 3 0M623 104l0 -1M623 104l3 0 1 1 3 0M630 106l0 -1"/>
<path stroke="#FFA500" d="M630 106l5 0 1 1 8 0 0 -1 4 0 1 -1 3 0 0 -1 3 0 1 -1 3 0 0 -1 5 0 0 -1 8 0 1 1 4 0M677 103l0 -1M677 103l3 0 1 1 3 0M684 105l0 -1M684 105l3 0 1 1 4 0 1 1 8 0 1 -1 4 0 0 -1 3 0 1 -1 3 0 0 -1 3 0 1 -1 4 0 1 -1 8 0M730 102l0 -1"/>
<path stroke="#FFA500" d="M730 102l4 0 1 1 3 0M738 104l0 -1M738 104l3 0 1 1 3 0M745 106l0 -1M745 106l5 0 1 1 8 0 0 -1 4 0 1 -1 3 0 0 -1 3 0 1 -1 3 0 0 -1 5 0 0 -1 8 0 1 1 4 0M792 103l0 -1M792 103l3 0 1 1 3 0M799 105l0 -1M799 105l3 0 1 1 4 0 1 1"/>
<path stroke="#FFA500" d="M808 107l8 0 1 -1 4 0 0 -1 3 0 1 -1 3 0 0 -1 3 0 1 -1 4 0 1 -1 8 0M845 102l0 -1M845 102l4 0 1 1 3 0M853 104l0 -1M853 104l3 0 1 1 3 0M860 106l0 -1M860 106l5 0 1 1 8 0 0 -1 4 0 1 -1 3 0 0 -1 3 0 1 -1 3 0 0 -1 5 0 0 -1"/>
<path stroke="#FFA500" d="M894 101l8 0 1 1 4 0M907 103l0 -1M907 103l3 0 1 1 2 0"/>
</svg>
