<?xml version="1.0" standalone="yes"?>
<!DOCTYPE svg PUBLIC "-//W3C//DTD SVG 1.1//EN"
 "http://www.w3.org/Graphics/SVG/1.1/DTD/svg11.dtd">
<svg xmlns="http://www.w3.org/2000/svg" version="1.1"
  width="100%" height="100%" viewBox="0 0 1024 768"
  style="fill: none; font-family: Arial;
 font: Arial;
">

<!-- Creator: NGspice -->

<rect x="0" y="0" width="1024" height="768" fill="white" stroke="none"/>
<text stroke="none" fill="black" font-size="16" x="358" y="752">
Time(ns)
</text>
<text transform="rotate(-90, 20, 414)"  stroke="none" fill="black" font-size="16" x="20" y="414">
Output
</text>
<text stroke="none" fill="black" font-size="16" x="10" y="16">
tran21: OTA_2stage Transient Plot(typical)
</text>
<path stroke="black" d="M75 704l0 -637"/>
<text stroke="none" fill="black" font-size="16" x="60" y="728">
0.0
</text>
<path stroke="black" stroke-dasharray="1,2" d="M164 704l0 -637"/>
<text stroke="none" fill="black" font-size="16" x="144" y="728">
50.0
</text>
<path stroke="black" stroke-dasharray="1,2" d="M253 704l0 -637"/>
<text stroke="none" fill="black" font-size="16" x="228" y="728">
100.0
</text>
<path stroke="black" stroke-dasharray="1,2" d="M342 704l0 -637"/>
<text stroke="none" fill="black" font-size="16" x="317" y="728">
150.0
</text>
<path stroke="black" stroke-dasharray="1,2" d="M431 704l0 -637"/>
<text stroke="none" fill="black" font-size="16" x="406" y="728">
200.0
</text>
<path stroke="black" stroke-dasharray="1,2" d="M520 704l0 -637"/>
<text stroke="none" fill="black" font-size="16" x="495" y="728">
250.0
</text>
<path stroke="black" stroke-dasharray="1,2" d="M609 704l0 -637"/>
<text stroke="none" fill="black" font-size="16" x="584" y="728">
300.0
</text>
<path stroke="black" stroke-dasharray="1,2" d="M698 704l0 -637"/>
<text stroke="none" fill="black" font-size="16" x="673" y="728">
350.0
</text>
<path stroke="black" stroke-dasharray="1,2" d="M787 704l0 -637"/>
<text stroke="none" fill="black" font-size="16" x="762" y="728">
400.0
</text>
<path stroke="black" stroke-dasharray="1,2" d="M876 704l0 -637"/>
<text stroke="none" fill="black" font-size="16" x="851" y="728">
450.0
</text>
<path stroke="black" stroke-dasharray="1,2" d="M965 704l0 -637"/>
<text stroke="none" fill="black" font-size="16" x="940" y="728">
500.0
</text>
<text stroke="none" fill="black" font-size="16" x="614" y="752">
ns
</text>
<path stroke="black" d="M75 704l890 0"/>
<text stroke="none" fill="black" font-size="16" x="43" y="712">
0.0
</text>
<path stroke="black" stroke-dasharray="1,2" d="M75 655l890 0"/>
<text stroke="none" fill="black" font-size="16" x="43" y="663">
0.2
</text>
<path stroke="black" stroke-dasharray="1,2" d="M75 606l890 0"/>
<text stroke="none" fill="black" font-size="16" x="43" y="614">
0.4
</text>
<path stroke="black" stroke-dasharray="1,2" d="M75 557l890 0"/>
<text stroke="none" fill="black" font-size="16" x="43" y="565">
0.6
</text>
<path stroke="black" stroke-dasharray="1,2" d="M75 508l890 0"/>
<text stroke="none" fill="black" font-size="16" x="43" y="516">
0.8
</text>
<path stroke="black" stroke-dasharray="1,2" d="M75 459l890 0"/>
<text stroke="none" fill="black" font-size="16" x="43" y="467">
1.0
</text>
<path stroke="black" stroke-dasharray="1,2" d="M75 410l890 0"/>
<text stroke="none" fill="black" font-size="16" x="43" y="418">
1.2
</text>
<path stroke="black" stroke-dasharray="1,2" d="M75 361l890 0"/>
<text stroke="none" fill="black" font-size="16" x="43" y="369">
1.4
</text>
<path stroke="black" stroke-dasharray="1,2" d="M75 312l890 0"/>
<text stroke="none" fill="black" font-size="16" x="43" y="320">
1.6
</text>
<path stroke="black" stroke-dasharray="1,2" d="M75 263l890 0"/>
<text stroke="none" fill="black" font-size="16" x="43" y="271">
1.8
</text>
<path stroke="black" stroke-dasharray="1,2" d="M75 214l890 0"/>
<text stroke="none" fill="black" font-size="16" x="43" y="222">
2.0
</text>
<path stroke="black" stroke-dasharray="1,2" d="M75 165l890 0"/>
<text stroke="none" fill="black" font-size="16" x="43" y="173">
2.2
</text>
<path stroke="black" stroke-dasharray="1,2" d="M75 116l890 0"/>
<text stroke="none" fill="black" font-size="16" x="43" y="124">
2.4
</text>
<path stroke="black" stroke-dasharray="1,2" d="M75 67l890 0"/>
<text stroke="none" fill="black" font-size="16" x="43" y="75">
2.6
</text>
<text stroke="none" fill="black" font-size="16" x="10" y="32">
V
</text>
<path stroke="red" d="M75 360l2 0 4 2 2 3 5 10 2 6 2 5 1 7 2 7 2 8 2 9 1 9 2 10 6 33 1 12 4 24 2 13 1 13 4 26 4 24 1 11 2 10 2 8 2 6 1 6 2 5 6 12 1 3 2 3 2 2 2 3 1 2 2 1 2 2 4 2 1 1 4 2 9 0 2 -1 1 -1 6 -3 3 -3 2 -3 4 -4 1 -3 2 -4 2 -3 2 -4 2 -5"/>
<path stroke="red" d="M197 626l1 -5 2 -5 2 -7 2 -8 1 -9 2 -11 6 -39 1 -14 2 -13 2 -14 2 -13 1 -13 4 -26 4 -24 1 -11 2 -11 2 -10 2 -9 1 -9 4 -16 4 -12 1 -5 4 -8 2 -2 1 -2 2 -1 2 0 2 1 2 2 1 3 2 3 2 4 2 6 2 5 1 7 2 7 2 8 2 9 1 9 2 10 6 33 1 12"/>
<path stroke="red" d="M287 448l4 24 2 13 1 13 8 52 1 13 4 24 2 10 1 8 2 7 2 6 4 10 1 4 6 9 1 2 6 6 2 1 1 1 4 2 9 0 2 -1 1 -1 4 -2 2 -2 2 -1 1 -2 2 -3 2 -2 2 -3 1 -4 2 -3 2 -4 2 -5 2 -6 1 -6 2 -8 2 -9 2 -11 1 -12 4 -26 4 -28 1 -13 4 -28 2 -13"/>
<path stroke="red" d="M398 460l1 -13 4 -26 4 -24 1 -11 2 -11 2 -10 2 -9 1 -9 4 -16 4 -12 1 -5 2 -4 4 -6 1 -2 4 0 2 1 2 2 5 10 2 5 2 6 1 7 2 7 2 8 2 9 1 9 4 20 2 11 2 12 1 11 2 12 4 26 1 13 8 52 1 14 2 13 4 24 1 11 2 10 2 9 4 12 1 5 4 8 2 3 1 3"/>
<path stroke="red" d="M504 635l9 9 4 2 2 0 1 1 4 0 4 -2 1 0 2 -2 2 -1 4 -4 1 -2 2 -2 2 -3 2 -4 1 -4 2 -4 2 -5 2 -6 2 -7 1 -9 2 -10 2 -11 2 -13 1 -13 2 -13 2 -14 2 -13 2 -14 1 -14 2 -14 2 -13 2 -14 1 -13 2 -13 2 -12 2 -13 2 -11 1 -12 6 -30 1 -9"/>
<path stroke="red" d="M593 323l2 -8 4 -14 2 -5 1 -5 4 -8 2 -2 1 -2 2 -1 2 1 2 0 2 2 1 3 2 3 4 10 2 6 1 6 6 24 1 10 4 20 4 22 1 12 2 12 2 13 2 12 1 13 2 14 6 39 1 14 4 26 2 12 1 12 2 12 4 20 2 7 1 7 4 10 2 3 1 4 2 3 7 7 6 3 7 0 2 -1 1 -1 2 -1"/>
<path stroke="red" d="M709 637l2 -2 2 -1 2 -3 1 -2 2 -3 2 -4 2 -3 1 -5 2 -5 4 -14 2 -9 1 -11 2 -11 4 -26 1 -13 2 -13 6 -42 1 -13 4 -28 2 -13 1 -13 4 -26 4 -24 1 -11 2 -11 2 -10 2 -9 1 -9 2 -8 4 -14 2 -5 1 -5 4 -8 2 -2 1 -2 2 -1 6 3 1 3 2 3 4 10"/>
<path stroke="red" d="M802 277l2 6 1 6 6 24 1 10 4 20 4 22 1 12 2 12 2 13 2 12 1 13 2 14 6 39 1 14 6 39 1 12 4 24 4 20 1 8 2 7 2 6 2 4 1 4 2 4 2 3 4 4 1 2 6 3 7 0 2 -1 1 -1 2 -1 4 -4 2 -3 7 -14 1 -6 4 -14 4 -20 1 -12 4 -24 2 -13 1 -14 2 -13 4 -28"/>
<path stroke="red" d="M923 466l2 -13 1 -14 4 -28 2 -13 1 -13 4 -26 4 -24 1 -11 2 -11 2 -10 2 -9 1 -9 2 -8 2 -7 4 -12 1 -5 2 -4 4 -6 1 -1"/>
<path stroke="blue" d="M75 299l2 0 4 2 2 2 3 6 2 3 4 10 1 6 6 21 1 9 4 18 4 20 1 10 4 22 2 12 1 11 8 48 1 12 2 12 2 11 2 12 1 11 2 10 2 11 4 18 1 7 2 7 4 10 1 3 4 6 4 4 1 2 6 3 7 0 2 -1 1 -1 4 -2 4 -4 1 -3 2 -3 4 -8 1 -5 2 -5 2 -7 2 -8 2 -10"/>
<path stroke="blue" d="M197 581l1 -10 2 -10 2 -12 2 -11 1 -12 2 -12 2 -13 4 -24 1 -13 2 -12 2 -13 2 -12 1 -12 2 -11 2 -12 2 -11 2 -10 1 -10 2 -10 4 -18 1 -8 4 -14 2 -6 2 -5 1 -5 2 -3 2 -4 3 -3 2 -1 2 0 4 2 1 2 2 3 2 4 4 10 1 6 2 6 2 7 2 8 1 8"/>
<path stroke="blue" d="M278 340l4 18 4 20 1 11 6 33 1 12 4 24 2 11 2 12 1 12 4 24 2 11 1 12 2 11 6 30 1 8 2 8 2 7 2 6 1 4 2 4 4 6 2 2 1 2 2 2 4 2 7 0 2 -1 1 -1 2 -1 4 -4 2 -3 1 -3 2 -3 2 -4 2 -6 1 -6 2 -7 2 -8 2 -9 2 -10 1 -10 2 -11 2 -12 2 -11"/>
<path stroke="blue" d="M382 522l1 -12 2 -12 2 -13 2 -12 2 -13 1 -12 2 -12 2 -13 2 -12 1 -12 2 -11 2 -12 2 -11 2 -10 1 -11 6 -27 1 -8 4 -14 2 -6 2 -5 1 -5 6 -9 1 -1 2 -1 2 0 4 2 1 3 4 6 4 10 1 6 2 6 2 7 2 8 1 9 2 8 2 10 2 9 2 11 1 10 4 22 2 12"/>
<path stroke="blue" d="M471 407l1 11 8 48 1 12 2 11 4 24 1 11 4 22 4 20 1 9 2 9 4 14 1 6 2 5 2 4 4 6 1 2 2 2 4 2 1 1 4 0 2 -1 2 0 1 -2 2 -1 2 -2 2 -3 2 -2 1 -4 2 -4 2 -5 2 -6 1 -7 2 -8 2 -9 4 -20 1 -11 4 -22 2 -12 1 -12 4 -24 2 -13 2 -12 1 -13"/>
<path stroke="blue" d="M570 433l2 -12 2 -13 2 -12 1 -12 2 -11 2 -12 2 -11 2 -10 1 -10 2 -10 2 -9 2 -8 1 -8 2 -8 4 -12 2 -5 1 -5 2 -4 2 -3 2 -2 1 -2 2 0 2 -1 2 1 2 2 1 2 2 3 4 8 2 6 1 5 4 14 2 8 1 8 4 18 4 20 1 11 6 33 1 12 2 11 6 36 1 12 4 24"/>
<path stroke="blue" d="M663 487l2 11 1 12 2 11 2 10 2 11 2 10 1 9 2 9 4 16 1 7 4 10 5 10 4 4 2 1 1 1 6 0 2 -1 1 -2 2 -1 6 -9 1 -4 2 -5 2 -6 2 -7 1 -8 2 -8 2 -10 2 -9 2 -11 1 -10 2 -11 4 -24 1 -12 4 -24 2 -13 2 -12 1 -13 6 -36 1 -12 2 -12 6 -33"/>
<path stroke="blue" d="M763 326l1 -10 2 -10 2 -9 2 -8 1 -8 4 -14 2 -6 2 -5 1 -4 2 -4 4 -6 1 -1 2 -1 2 0 4 2 1 3 4 6 4 10 1 6 2 6 2 8 2 7 1 9 2 8 2 10 2 9 2 11 1 10 4 22 2 12 1 11 8 48 1 12 2 12 2 11 2 12 1 11 6 33 2 10 1 9 4 18 2 8 1 7 4 12 4 8"/>
<path stroke="blue" d="M868 601l1 4 6 6 1 0 2 1 2 0 4 -2 3 -3 4 -6 2 -5 1 -4 2 -6 4 -14 1 -8 4 -18 4 -20 1 -11 2 -11 4 -24 1 -12 4 -24 2 -13 2 -12 1 -13 6 -36 1 -12 2 -12 6 -33 1 -10 6 -27 1 -8 2 -7 6 -18 1 -4 2 -4 2 -3 3 -3"/>
<path stroke="#FFA500" d="M75 247l2 0 6 3 1 3 2 2 6 12 1 5 4 12 2 7 1 7 4 16 4 18 1 9 2 10 2 9 2 11 1 10 2 10 2 11 2 10 2 11 1 10 2 11 4 20 1 10 4 20 4 18 1 9 4 16 2 7 1 7 2 6 2 5 2 6 2 4 1 4 4 6 3 3 2 1 2 0 4 -2 1 -2 2 -2 2 -3 4 -8 1 -6 2 -5"/>
<path stroke="#FFA500" d="M184 558l2 -6 2 -7 1 -7 2 -8 2 -9 2 -8 2 -9 1 -10 6 -30 1 -11 8 -44 1 -11 4 -22 2 -10 1 -11 6 -30 2 -9 1 -9 2 -9 4 -16 1 -7 4 -12 4 -10 1 -4 2 -4 2 -2 2 -3 1 -1 2 -1 2 0 4 2 1 2 2 2 2 4 2 3 2 5 1 5 4 12 2 7 1 7 6 24"/>
<path stroke="#FFA500" d="M284 311l2 9 1 10 2 9 4 20 1 10 2 11 2 10 2 11 2 10 1 11 2 10 2 11 2 10 1 10 2 10 2 9 2 10 2 9 1 8 2 9 2 7 2 8 1 6 2 7 6 15 1 4 4 6 3 3 2 1 4 0 2 -2 1 -2 2 -2 2 -3 2 -4 2 -5 1 -5 2 -5 2 -6 2 -7 1 -8 2 -7 6 -27 1 -9 4 -20"/>
<path stroke="#FFA500" d="M380 463l2 -11 1 -10 8 -44 1 -11 6 -33 1 -10 2 -11 2 -10 2 -9 2 -10 1 -9 6 -24 1 -7 4 -12 4 -10 1 -4 2 -4 2 -2 2 -3 1 -1 2 -1 2 0 4 2 1 2 2 2 2 4 2 3 2 5 1 5 4 12 2 7 1 7 6 24 2 9 1 10 2 9 4 20 1 10 2 11 2 10 2 11 2 10"/>
<path stroke="#FFA500" d="M480 400l1 11 2 10 2 11 2 10 1 10 2 10 2 9 2 10 2 9 1 8 2 9 2 7 2 8 1 6 2 7 2 5 2 6 2 4 1 4 2 4 4 4 1 2 6 0 2 -1 1 -2 4 -6 4 -8 1 -5 4 -12 2 -7 1 -8 2 -7 6 -27 1 -9 4 -20 2 -11 1 -10 8 -44 1 -11 6 -33 1 -10 6 -30 2 -9"/>
<path stroke="#FFA500" d="M585 294l1 -9 2 -9 2 -8 2 -7 1 -7 2 -7 2 -6 4 -10 1 -4 4 -6 2 -2 1 -2 2 0 2 -1 4 2 1 2 4 6 4 8 1 5 4 12 2 7 1 7 4 16 4 18 1 9 2 9 4 20 1 11 4 20 4 22 1 10 2 11 4 20 1 10 4 20 4 18 1 9 4 16 2 7 1 7 4 12 4 10 1 4 4 6 3 3"/>
<path stroke="#FFA500" d="M698 553l2 1 2 0 4 -2 1 -2 2 -2 2 -3 2 -4 2 -5 1 -5 4 -12 2 -7 1 -7 4 -16 4 -18 1 -10 6 -30 1 -11 8 -44 1 -11 4 -22 2 -10 1 -11 6 -30 2 -9 1 -9 6 -24 1 -7 6 -18 2 -4 1 -4 2 -4 2 -3 3 -3 2 -1 2 0 4 2 1 2 2 2 2 4 2 3 2 5"/>
<path stroke="#FFA500" d="M804 224l1 5 4 12 2 7 1 7 6 24 2 9 1 9 6 30 1 10 2 11 2 10 2 11 2 10 1 11 2 10 2 11 2 10 1 10 2 10 2 9 2 10 2 9 1 8 6 24 1 6 2 7 2 6 2 5 2 4 1 4 2 4 2 2 2 3 1 1 2 1 2 0 4 -2 1 -2 4 -6 4 -8 1 -5 4 -12 2 -7 1 -8 2 -7 6 -27"/>
<path stroke="#FFA500" d="M909 460l1 -9 4 -20 2 -11 1 -10 8 -44 1 -11 6 -33 1 -10 6 -30 2 -9 1 -9 2 -9 2 -8 2 -7 1 -7 6 -18 2 -4 1 -4 2 -4 2 -3 3 -3"/>
<path stroke="green" d="M75 204l4 0 2 1 3 3 6 9 2 4 1 4 4 10 2 6 1 6 6 21 2 8 1 8 2 8 4 18 1 8 4 18 2 10 2 9 1 9 6 27 1 9 2 8 2 9 4 16 1 7 6 21 1 6 6 15 2 4 1 4 2 3 5 5 2 1 4 0 2 -1 1 -2 2 -2 4 -6 2 -4 1 -4 4 -10 2 -6 1 -7 2 -6 2 -8 2 -7 2 -8"/>
<path stroke="green" d="M197 428l1 -8 6 -27 1 -9 2 -9 2 -10 2 -9 2 -10 1 -9 2 -10 4 -18 1 -10 2 -8 4 -18 2 -8 1 -7 2 -8 2 -7 2 -6 1 -7 6 -15 2 -4 1 -4 4 -6 3 -3 2 -1 2 0 2 1 2 0 1 2 2 2 4 6 2 4 1 4 4 10 2 6 1 6 6 21 2 8 1 8 2 8 4 18 1 8 4 18"/>
<path stroke="green" d="M298 327l2 10 2 9 1 9 6 27 1 9 2 8 2 9 4 16 1 7 6 21 1 6 6 15 2 4 1 4 2 3 5 5 2 1 4 0 2 -1 1 -2 2 -2 4 -6 2 -4 1 -4 4 -10 2 -6 1 -7 2 -6 2 -8 2 -7 2 -8 1 -8 6 -27 1 -9 2 -9 2 -10 2 -9 2 -10 1 -9 2 -10 4 -18 1 -9 4 -18"/>
<path stroke="green" d="M403 273l4 -16 1 -8 2 -8 2 -7 2 -6 1 -6 2 -6 4 -10 2 -4 1 -4 2 -3 4 -4 1 -2 2 0 2 -1 4 2 3 3 4 6 2 4 1 5 2 4 2 6 2 5 1 7 2 6 2 7 2 8 2 7 1 8 2 9 2 8 2 9 1 9 8 36 1 9 6 27 1 9 2 9 6 24 1 7 2 8 2 6 2 7 1 6 6 15 2 4 1 4 2 3"/>
<path stroke="green" d="M515 475l4 4 1 2 2 0 2 1 4 -2 1 -1 2 -3 2 -2 2 -4 2 -3 1 -5 4 -10 2 -6 1 -6 4 -14 4 -16 1 -8 6 -27 1 -9 2 -9 2 -10 2 -9 2 -10 1 -9 2 -9 2 -10 2 -9 1 -9 4 -18 4 -16 1 -8 6 -21 1 -6 2 -6 4 -10 2 -4 1 -3 4 -6 3 -3 2 -1 4 0"/>
<path stroke="green" d="M615 180l2 1 1 2 2 2 4 6 2 4 1 4 4 10 2 6 1 6 6 21 2 8 1 8 4 16 2 9 1 9 8 36 1 10 6 27 1 8 2 9 6 24 1 8 4 14 2 6 1 6 2 6 4 10 2 4 1 3 4 6 3 3 2 1 4 0 2 -1 1 -2 2 -2 4 -6 2 -4 1 -4 2 -5 4 -12 1 -6 4 -14 4 -16 1 -8 2 -8"/>
<path stroke="green" d="M734 385l4 -18 1 -9 2 -10 2 -9 2 -10 2 -9 1 -10 4 -18 2 -10 1 -9 2 -8 2 -9 2 -8 2 -9 1 -7 2 -8 2 -7 2 -6 1 -6 2 -6 4 -10 2 -4 1 -4 2 -3 5 -5 2 -1 4 0 2 1 1 2 4 4 2 4 2 3 1 5 2 4 4 12 1 6 2 6 2 7 2 8 2 7 1 8 2 9 2 8 2 9"/>
<path stroke="green" d="M827 275l1 9 8 36 1 9 6 27 1 9 2 9 6 24 1 7 2 8 2 6 2 7 1 6 2 5 2 6 4 8 1 4 2 3 4 4 1 2 2 0 2 1 4 -2 1 -1 2 -3 2 -2 2 -4 2 -3 1 -5 4 -10 2 -6 1 -6 4 -14 4 -16 1 -8 6 -27 1 -9 4 -18 2 -10 2 -9 1 -10 2 -9 2 -10 2 -9 1 -9"/>
<path stroke="green" d="M933 265l2 -9 2 -8 2 -9 2 -8 1 -8 4 -14 2 -6 1 -7 6 -15 2 -4 1 -4 2 -3 5 -5"/>
<path stroke="#FFC0C5" d="M75 168l4 0 4 2 1 2 4 4 4 6 1 4 4 8 2 5 1 5 8 24 1 7 4 14 2 8 1 7 2 8 2 7 4 16 1 8 2 7 4 16 1 7 2 7 2 8 2 7 2 6 1 7 4 12 2 5 1 5 4 10 2 4 2 3 1 3 2 3 5 5 2 1 4 0 2 -1 5 -5 4 -6 1 -4 4 -8 2 -5 1 -6 2 -5 2 -6 2 -7 2 -6"/>
<path stroke="#FFC0C5" d="M197 360l1 -7 2 -8 4 -14 1 -8 8 -32 1 -8 6 -24 1 -7 2 -8 2 -7 2 -8 2 -6 1 -7 6 -18 1 -5 4 -10 2 -4 2 -3 1 -4 2 -2 2 -3 2 -1 1 -2 2 0 2 -1 2 1 2 0 1 2 2 1 2 2 4 6 1 4 4 8 2 5 1 5 8 24 1 7 6 21 1 8 2 8 2 7 4 16 1 8 2 7"/>
<path stroke="#FFC0C5" d="M305 303l4 16 1 7 2 7 2 8 2 6 2 7 1 7 4 12 2 5 1 5 4 10 2 3 2 4 1 3 2 3 5 5 2 1 4 0 2 -1 5 -5 4 -6 1 -4 4 -8 2 -5 1 -6 2 -5 2 -6 2 -7 2 -6 1 -7 2 -8 2 -7 2 -8 1 -7 8 -32 1 -8 6 -24 1 -7 2 -8 6 -21 1 -7 6 -18 1 -5 4 -10"/>
<path stroke="#FFC0C5" d="M419 176l2 -4 2 -3 1 -4 7 -7 2 -1 6 0 1 2 2 1 2 3 2 2 2 3 1 4 4 8 2 5 1 5 8 24 1 7 4 14 2 8 1 7 2 8 2 7 4 16 1 8 2 7 4 16 1 7 2 7 2 8 2 7 2 6 1 7 4 12 2 5 1 5 4 10 2 4 2 3 1 3 2 3 5 5 2 1 4 0 2 -1 5 -5 4 -6 1 -4 4 -8"/>
<path stroke="#FFC0C5" d="M542 381l2 -5 1 -6 2 -5 2 -6 2 -7 2 -6 1 -7 2 -8 4 -14 1 -8 8 -32 1 -8 6 -24 1 -7 2 -8 6 -21 1 -7 6 -18 1 -5 2 -5 6 -12 1 -3 2 -3 5 -5 2 -1 4 0 2 1 5 5 4 6 1 3 2 4 2 5 2 4 1 6 2 5 4 12 2 7 1 6 4 14 2 8 1 7 4 16 2 7 2 8"/>
<path stroke="#FFC0C5" d="M658 274l1 8 2 8 2 7 2 8 1 7 2 8 4 14 2 6 1 7 4 12 2 5 1 6 2 4 2 5 2 4 2 3 1 3 2 3 5 5 2 1 4 0 2 -1 5 -5 4 -6 1 -4 4 -8 2 -5 1 -6 2 -5 2 -6 2 -7 2 -6 1 -7 2 -7 2 -8 2 -7 1 -8 8 -32 1 -8 4 -16 2 -7 1 -8 2 -8 6 -21 1 -7"/>
<path stroke="#FFC0C5" d="M764 195l4 -12 2 -5 1 -6 2 -5 6 -12 1 -3 2 -3 5 -5 2 -1 4 0 2 1 5 5 4 6 1 4 4 8 2 5 1 5 2 5 4 12 2 7 1 7 6 21 1 8 2 7 4 16 2 7 1 8 4 16 2 7 1 8 8 28 1 6 6 18 1 5 2 5 6 12 1 3 2 2 2 3 2 1 1 1 2 1 4 0 2 -1 5 -5 4 -6 1 -3"/>
<path stroke="#FFC0C5" d="M894 376l2 -5 2 -4 2 -5 1 -5 6 -18 2 -7 1 -7 4 -14 2 -8 1 -8 2 -7 6 -24 1 -8 6 -24 1 -8 2 -7 2 -8 4 -14 1 -6 6 -18 1 -5 4 -10 2 -4 2 -3 1 -3 2 -3 5 -5"/>
<path stroke="#A52A2A" d="M75 140l4 0 4 2 1 1 2 1 4 4 2 3 1 3 2 3 4 8 1 4 2 4 4 10 2 6 1 5 6 18 1 6 4 12 2 7 2 6 1 7 4 12 2 7 1 6 6 18 2 5 1 6 4 10 2 4 1 5 2 4 2 3 2 4 2 3 1 2 2 3 2 2 2 1 1 1 2 1 4 0 2 -1 1 0 8 -8 1 -3 2 -3 4 -8 1 -4 8 -20 1 -6"/>
<path stroke="#A52A2A" d="M198 294l6 -18 1 -6 2 -7 2 -6 2 -7 2 -6 1 -7 2 -7 2 -6 2 -7 1 -6 8 -24 1 -6 6 -15 1 -4 4 -8 2 -3 3 -6 2 -3 2 -2 2 -1 1 -1 2 -1 6 0 1 1 2 1 4 4 2 3 1 3 4 6 2 4 1 4 8 20 1 6 2 5 4 12 1 6 2 6 2 7 2 6 2 7 1 6 2 6 2 7 2 6"/>
<path stroke="#A52A2A" d="M309 263l1 6 8 24 1 5 6 15 1 4 4 8 4 6 1 3 7 7 2 0 2 1 2 -1 2 0 1 -1 2 -1 4 -4 2 -3 1 -3 2 -3 4 -8 1 -4 2 -4 2 -5 2 -6 2 -5 1 -6 2 -5 2 -6 2 -7 1 -6 2 -6 2 -7 2 -6 2 -7 1 -7 2 -6 2 -7 2 -6 1 -6 2 -7 4 -12 2 -5 1 -6 6 -15"/>
<path stroke="#A52A2A" d="M414 161l1 -4 2 -5 2 -3 2 -4 2 -3 1 -3 4 -4 2 -1 1 -2 2 0 2 -1 2 0 2 1 1 1 2 1 6 6 1 3 2 3 4 8 1 4 2 4 4 10 2 6 1 5 6 18 1 6 4 12 2 7 2 6 1 7 4 12 2 7 1 6 6 18 2 5 1 6 4 10 2 4 1 5 2 4 2 3 2 4 2 3 1 2 2 3 2 2 2 1 1 1"/>
<path stroke="#A52A2A" d="M520 335l2 1 4 0 2 -1 1 0 8 -8 1 -3 2 -3 4 -8 1 -4 8 -20 1 -6 6 -18 1 -6 2 -7 2 -6 2 -7 2 -6 1 -7 2 -7 2 -6 2 -7 1 -6 8 -24 1 -5 2 -6 2 -5 2 -4 1 -5 4 -8 4 -6 1 -3 7 -7 2 -1 4 0 2 1 1 0 2 2 2 1 2 3 2 2 1 3 2 3 2 4 2 3"/>
<path stroke="#A52A2A" d="M633 148l1 5 2 4 6 15 1 6 2 5 4 12 1 6 2 7 4 12 2 7 1 6 2 7 4 12 1 6 8 24 1 5 6 15 1 4 4 8 4 6 1 3 7 7 2 0 2 1 2 0 2 -1 1 -1 2 -1 4 -4 2 -3 1 -3 2 -3 2 -4 2 -3 1 -5 2 -4 4 -10 2 -6 1 -5 6 -18 1 -7 2 -6 2 -7 2 -6 2 -7"/>
<path stroke="#A52A2A" d="M747 227l1 -6 2 -7 2 -6 2 -7 1 -6 2 -6 2 -7 2 -5 2 -6 1 -6 6 -15 1 -4 4 -8 2 -3 3 -6 2 -3 2 -2 2 -1 1 -1 2 -1 6 0 1 1 2 1 4 4 2 3 1 3 4 6 2 4 1 4 8 20 1 5 6 18 1 6 2 6 2 7 4 12 1 7 2 6 2 7 2 6 1 6 6 18 2 5 1 6 4 10 2 4"/>
<path stroke="#A52A2A" d="M859 296l1 5 4 8 4 6 1 3 4 4 2 1 1 1 2 1 6 0 3 -3 2 -1 2 -3 2 -2 1 -3 2 -3 4 -8 1 -4 8 -20 1 -6 6 -18 1 -6 2 -6 2 -7 2 -6 2 -7 1 -7 2 -6 2 -7 2 -6 1 -7 6 -18 2 -5 1 -6 6 -15 1 -4 6 -12 2 -3 1 -2 2 -3 2 -2 2 -1 1 -1"/>
<path stroke="#F0E68C" d="M75 120l6 0 2 1 1 1 2 1 2 2 2 1 2 2 1 2 6 9 1 3 2 4 2 3 4 8 1 5 2 4 4 10 1 5 8 20 1 5 6 15 1 5 4 10 2 4 2 5 1 4 6 12 1 4 6 9 2 2 1 2 4 4 2 1 1 1 2 1 6 0 1 -1 4 -2 2 -2 2 -1 1 -3 2 -2 4 -6 1 -3 8 -16 1 -4 6 -15 1 -5 8 -20"/>
<path stroke="#F0E68C" d="M213 205l1 -5 2 -6 4 -10 1 -5 6 -15 2 -4 1 -5 6 -12 1 -4 8 -12 1 -2 4 -4 2 -1 1 -1 2 -1 6 0 1 1 6 3 2 2 1 2 6 9 1 3 2 3 6 12 1 5 2 4 4 10 1 4 6 15 2 6 1 5 6 15 1 5 2 5 2 4 4 10 1 4 6 12 1 3 2 4 4 6 2 2 1 2 4 4 2 1 1 1"/>
<path stroke="#F0E68C" d="M342 280l2 1 6 0 1 -1 4 -2 4 -4 1 -2 2 -2 4 -6 1 -4 2 -3 6 -12 1 -5 2 -4 4 -10 1 -5 8 -20 1 -6 6 -15 1 -5 8 -20 1 -4 6 -12 1 -4 8 -12 1 -2 4 -4 2 -1 1 -1 2 -1 6 0 1 1 2 0 2 2 2 1 2 2 1 2 6 9 1 3 2 3 6 12 1 4 4 10 2 4"/>
<path stroke="#F0E68C" d="M471 167l1 5 8 20 1 5 2 6 4 10 1 5 2 5 2 4 2 5 2 4 1 5 6 12 1 3 2 3 2 4 2 2 2 3 1 2 4 4 2 1 1 1 2 0 2 1 4 0 1 -1 4 -2 4 -4 1 -2 2 -3 2 -2 2 -4 1 -3 2 -3 6 -12 1 -5 2 -4 4 -10 1 -5 6 -15 2 -6 1 -5 6 -15 1 -6 2 -5 2 -4"/>
<path stroke="#F0E68C" d="M581 161l4 -10 1 -4 2 -5 2 -4 2 -3 1 -4 2 -3 2 -4 2 -2 2 -3 1 -2 4 -4 2 -1 1 -1 2 -1 7 0 2 1 2 2 2 1 2 2 1 2 2 3 2 2 2 3 1 4 2 3 6 12 1 4 2 5 2 4 2 5 1 5 8 20 1 5 4 10 2 6 1 4 6 15 2 4 1 5 4 8 2 3 1 4 8 12 1 2 2 2 2 1"/>
<path stroke="#F0E68C" d="M695 269l3 3 2 0 2 1 2 0 2 -1 1 0 2 -1 2 -2 2 -1 2 -2 1 -2 6 -9 1 -3 2 -4 2 -3 2 -4 2 -5 1 -4 2 -5 2 -4 2 -5 1 -5 4 -10 2 -6 2 -5 1 -5 4 -10 2 -6 1 -5 4 -10 2 -4 2 -5 1 -4 2 -5 4 -8 1 -3 2 -4 4 -6 2 -2 1 -2 4 -4 2 -1"/>
<path stroke="#F0E68C" d="M786 108l1 -1 2 -1 2 0 2 -1 2 1 1 0 2 1 2 2 2 1 2 2 1 2 2 3 2 2 2 3 1 4 2 3 6 12 1 4 2 5 2 4 2 5 1 5 8 20 1 5 6 15 1 5 6 15 2 4 1 4 2 5 2 4 2 3 1 4 6 9 2 2 1 3 2 2 2 1 3 3 4 0 2 1 2 -1 1 0 2 -1 2 -2 2 -1 2 -2 1 -2 6 -9"/>
<path stroke="#F0E68C" d="M900 251l1 -3 8 -16 1 -4 2 -5 2 -4 2 -5 1 -5 4 -10 2 -6 2 -5 1 -5 2 -5 2 -6 2 -5 1 -5 4 -10 2 -4 2 -5 1 -4 2 -5 4 -8 1 -3 2 -4 4 -6 2 -2 1 -2 4 -4 2 -1 1 -1"/>
<path stroke="#DDA0DD" d="M75 110l6 0 2 1 1 0 4 2 2 2 2 1 1 2 6 6 1 2 8 12 1 3 2 3 2 4 2 3 1 4 6 12 2 3 1 4 6 12 1 4 2 4 2 3 2 4 2 3 1 4 6 9 1 3 2 2 2 3 4 4 1 2 2 1 2 2 2 1 1 1 4 0 2 1 2 -1 1 0 2 -1 2 0 2 -2 2 -1 5 -5 2 -3 1 -2 2 -3 2 -2 2 -3"/>
<path stroke="#DDA0DD" d="M195 214l2 -4 1 -3 2 -3 2 -4 2 -3 1 -4 8 -16 1 -4 6 -12 1 -3 6 -12 2 -3 1 -4 6 -9 1 -3 2 -3 2 -2 2 -3 2 -2 1 -2 2 -1 2 -2 2 -1 1 -1 2 0 2 -1 4 0 1 1 2 0 6 3 1 2 6 6 1 2 8 12 1 3 2 3 2 4 2 3 1 4 4 8 2 3 2 4 1 4 6 12 1 4"/>
<path stroke="#DDA0DD" d="M310 187l2 3 4 8 2 3 1 4 6 9 1 3 2 2 2 3 4 4 1 2 4 2 2 2 1 0 2 1 7 0 8 -4 1 -2 2 -1 2 -2 2 -3 1 -2 4 -6 2 -2 2 -4 1 -3 2 -3 4 -8 1 -3 8 -16 1 -4 6 -12 1 -4 2 -3 4 -8 2 -3 1 -4 6 -9 1 -3 2 -3 2 -2 2 -3 2 -2 1 -2 2 -1"/>
<path stroke="#DDA0DD" d="M426 111l2 -2 2 -1 1 -1 2 0 2 -1 4 0 1 1 2 0 6 3 1 2 6 6 1 2 8 12 1 3 2 3 2 4 2 3 1 4 4 8 2 3 2 4 1 4 6 12 1 4 2 3 4 8 2 3 1 3 2 4 4 6 1 2 2 3 2 2 2 3 5 5 4 2 1 1 2 1 7 0 8 -4 1 -2 2 -1 2 -2 2 -3 1 -2 8 -12 1 -3 2 -3"/>
<path stroke="#DDA0DD" d="M556 198l4 -8 1 -3 8 -16 1 -4 6 -12 1 -4 2 -3 4 -8 2 -3 1 -4 6 -9 1 -3 2 -3 2 -2 2 -3 2 -2 1 -2 2 -1 2 -2 2 -1 1 -1 2 0 2 -1 5 0 8 4 1 2 6 6 1 2 4 6 2 2 2 4 1 3 2 3 2 4 2 3 1 4 2 4 2 3 4 8 1 4 6 12 1 4 2 3 4 8 2 3 1 3"/>
<path stroke="#DDA0DD" d="M675 198l2 4 4 6 1 2 2 3 2 2 2 3 5 5 4 2 1 1 2 1 7 0 8 -4 1 -2 6 -6 1 -2 8 -12 1 -3 2 -3 4 -8 1 -3 8 -16 1 -4 6 -12 1 -4 2 -4 2 -3 4 -8 1 -3 6 -9 1 -3 2 -3 2 -2 2 -3 2 -2 1 -2 2 -1 2 -2 2 -1 1 -1 2 0 2 -1 5 0 8 4 1 2"/>
<path stroke="#DDA0DD" d="M805 106l6 6 1 2 4 6 2 2 2 4 1 3 2 3 2 4 2 3 1 4 2 4 2 3 4 8 1 4 6 12 1 3 4 8 2 3 2 4 1 3 2 4 4 6 1 2 2 3 2 2 2 3 5 5 4 2 1 1 2 1 7 0 8 -4 1 -2 6 -6 1 -2 8 -12 1 -3 2 -4 2 -3 2 -4 1 -3 8 -16 1 -4 6 -12 1 -4 2 -4 2 -3"/>
<path stroke="#DDA0DD" d="M937 138l4 -8 1 -3 4 -6 3 -6 4 -6 4 -4 1 -2 2 -1 2 -2 2 -1 1 -1"/>
<path stroke="#DA70D6" d="M75 116l6 0 2 1 1 0 2 1 2 0 4 2 3 3 2 1 11 11 1 2 2 3 2 2 2 3 1 2 6 9 2 2 1 3 4 6 2 2 1 3 4 6 2 2 2 3 1 2 2 3 4 4 1 2 4 4 2 1 5 5 2 1 2 0 1 1 2 1 9 0 2 -1 2 0 2 -1 1 -1 2 -1 2 -2 2 -1 1 -2 8 -8 1 -2 2 -2 2 -3 2 -2 1 -3"/>
<path stroke="#DA70D6" d="M205 178l2 -3 2 -2 4 -6 1 -3 4 -6 2 -2 1 -3 4 -6 2 -2 2 -3 1 -2 2 -3 4 -4 1 -3 2 -2 2 -1 5 -5 2 -1 2 -2 2 -1 1 0 2 -1 2 0 2 -1 2 0 1 1 4 0 4 2 1 1 4 2 11 11 1 2 2 3 2 2 2 3 1 2 4 6 2 2 2 3 1 3 4 6 2 2 1 3 2 3 2 2 4 6"/>
<path stroke="#DA70D6" d="M318 181l1 2 2 2 2 3 2 2 1 2 4 4 2 1 3 3 6 3 1 1 2 1 9 0 2 -1 2 0 2 -1 3 -3 4 -2 1 -2 8 -8 1 -2 2 -3 2 -2 2 -3 1 -2 4 -6 2 -2 2 -3 1 -3 4 -6 2 -2 1 -3 4 -6 2 -2 2 -3 1 -3 4 -4 2 -3 1 -2 4 -4 2 -1 5 -5 4 -2 1 0 2 -1 2 0"/>
<path stroke="#DA70D6" d="M435 115l2 -1 3 0 2 1 2 0 4 2 1 1 4 2 11 11 1 2 2 3 2 2 2 3 1 2 4 6 2 2 2 3 1 3 2 3 2 2 2 3 1 3 2 3 2 2 4 6 1 2 2 2 2 3 2 2 1 2 4 4 2 1 3 3 6 3 1 1 2 1 9 0 4 -2 2 0 3 -3 4 -2 1 -2 8 -8 1 -2 2 -3 2 -2 2 -3 1 -2 4 -6 2 -2"/>
<path stroke="#DA70D6" d="M567 166l2 -3 1 -3 6 -9 1 -2 6 -9 2 -2 1 -3 4 -4 2 -3 1 -2 4 -4 2 -1 5 -5 4 -2 1 0 2 -1 2 0 2 -1 3 0 2 1 2 0 4 2 1 1 4 2 11 11 1 2 2 3 2 2 2 3 1 2 4 6 2 2 2 3 1 3 2 3 2 2 2 3 1 3 2 3 2 2 2 3 2 2 1 3 2 2 2 3 2 2 1 2 2 2"/>
<path stroke="#DA70D6" d="M684 190l2 1 5 5 6 3 1 1 2 0 2 1 7 0 4 -2 2 0 1 -2 4 -2 11 -11 1 -2 2 -3 2 -2 2 -3 1 -2 6 -9 2 -2 1 -3 6 -9 1 -2 6 -9 2 -2 1 -3 4 -4 2 -3 1 -2 4 -4 2 -1 5 -5 4 -2 1 -1 2 0 2 -1 5 0 2 1 2 0 4 2 1 1 6 3 1 2 8 8 1 2 2 3"/>
<path stroke="#DA70D6" d="M823 132l2 2 2 3 1 2 2 3 2 2 4 6 1 3 2 3 2 2 2 3 1 3 2 3 2 2 2 3 2 2 1 3 4 4 2 3 1 2 2 2 2 1 5 5 6 3 1 1 2 0 2 1 5 0 2 -1 2 0 4 -2 1 -1 4 -2 11 -11 1 -2 2 -3 2 -2 2 -3 1 -2 6 -9 2 -2 1 -3 6 -9 1 -3 2 -2 4 -6 2 -2 1 -3"/>
<path stroke="#DA70D6" d="M942 131l2 -2 2 -3 2 -2 1 -2 4 -4 2 -1 2 -2 1 -2 6 -3 1 0"/>
<path stroke="#EE82EE" d="M75 151l4 0 2 1 5 0 2 1 2 0 2 1 1 0 6 3 1 1 4 2 2 2 2 1 3 3 2 1 2 2 1 2 2 1 6 6 1 2 2 1 4 4 1 2 2 2 2 1 9 9 2 1 3 3 6 3 1 1 6 3 1 0 2 1 13 0 2 -1 1 0 6 -3 1 -1 8 -4 1 -2 2 -1 2 -2 2 -1 1 -2 2 -2 2 -1 4 -4 1 -2 2 -2 2 -1"/>
<path stroke="#EE82EE" d="M218 182l2 -2 1 -2 4 -4 2 -1 2 -2 1 -2 2 -2 2 -1 3 -3 2 -1 2 -2 4 -2 1 -1 6 -3 1 0 2 -1 6 0 1 -1 2 1 6 0 1 1 2 1 2 0 2 1 1 1 4 2 2 2 2 1 3 3 2 1 2 2 1 2 2 1 13 13 1 2 2 1 9 9 2 1 5 5 6 3 1 1 4 2 2 0 1 1 2 0 2 1 9 0 2 -1"/>
<path stroke="#EE82EE" d="M357 209l2 0 1 -1 2 0 4 -2 1 -1 6 -3 5 -5 2 -1 7 -7 2 -1 2 -2 1 -2 13 -13 2 -1 1 -2 2 -2 2 -1 5 -5 6 -3 1 -1 6 -3 1 0 2 -1 2 0 2 -1 5 0 2 1 4 0 1 1 2 0 4 2 1 1 6 3 5 5 2 1 9 9 2 1 1 2 13 13 2 1 1 2 2 2 2 1 3 3 2 1 2 2"/>
<path stroke="#EE82EE" d="M508 202l4 2 1 1 2 1 2 0 2 1 1 1 2 0 2 1 9 0 2 -1 2 0 1 -1 2 0 4 -2 1 -1 4 -2 2 -2 2 -1 3 -3 2 -1 2 -2 1 -2 2 -1 4 -4 2 -1 1 -2 6 -6 1 -2 2 -1 11 -11 2 -1 1 -2 6 -3 3 -3 2 0 4 -2 1 -1 2 0 2 -1 9 0 2 1 2 0 1 1 2 0 4 2"/>
<path stroke="#EE82EE" d="M633 154l1 1 6 3 3 3 2 1 9 9 2 1 2 2 1 2 4 4 2 1 1 2 4 4 2 1 2 2 1 2 2 1 2 2 2 1 1 2 4 2 2 2 2 1 1 1 2 0 4 2 1 0 2 1 2 0 2 1 5 0 2 -1 4 0 1 -1 2 -1 2 0 2 -1 1 -1 2 -1 2 -2 4 -2 1 -2 2 -1 2 -2 2 -1 1 -2 2 -1 6 -6 1 -2"/>
<path stroke="#EE82EE" d="M748 181l2 -1 4 -4 1 -2 2 -2 2 -1 4 -4 1 -2 2 -1 2 -2 2 -1 1 -2 4 -2 2 -2 2 -1 1 -1 4 -2 2 0 1 -1 2 0 2 -1 11 0 2 1 1 0 6 3 1 1 8 4 1 2 2 1 2 2 2 1 1 2 2 2 2 1 4 4 1 2 2 1 4 4 1 2 2 2 2 1 4 4 1 2 2 1 2 2 2 1 1 2 8 4"/>
<path stroke="#EE82EE" d="M868 201l1 1 6 3 1 0 2 1 13 0 2 -1 1 0 6 -3 1 -1 8 -4 1 -2 2 -1 2 -2 2 -1 1 -2 2 -2 2 -1 4 -4 1 -2 2 -2 2 -1 2 -2 1 -2 4 -4 2 -1 2 -2 1 -2 2 -1 5 -5 2 -1 2 -2 4 -2 1 -1 4 -2 2 0 1 -1"/>
<path stroke="#B03060" d="M75 241l8 0 1 1 8 0 1 1 2 0 2 1 2 0 1 1 2 0 2 1 2 0 2 1 1 1 2 1 2 0 2 1 1 1 8 4 1 1 6 3 1 1 8 4 1 1 6 3 1 0 6 3 2 0 1 1 2 1 2 0 2 1 3 0 2 1 14 0 2 -1 4 0 1 -1 2 0 2 -1 2 0 2 -1 1 -1 2 0 4 -2 1 -1 8 -4 1 -1 6 -3 1 -1"/>
<path stroke="#B03060" d="M221 258l2 -1 2 0 4 -2 1 -1 6 -3 1 -1 4 -2 2 0 2 -1 1 -1 2 0 2 -1 2 0 1 -1 4 0 2 -1 12 0 2 1 4 0 1 1 2 0 2 1 2 0 2 1 1 1 2 0 4 2 1 1 8 4 1 1 6 3 1 1 6 3 2 0 1 1 6 3 1 1 4 2 2 0 2 1 1 1 2 0 2 1 3 0 2 1 4 0 2 1 7 0 2 -1"/>
<path stroke="#B03060" d="M359 274l5 0 2 -1 1 0 2 -1 2 0 4 -2 1 0 6 -3 1 0 8 -4 1 -1 6 -3 1 -1 8 -4 1 -1 6 -3 1 0 6 -3 2 0 1 -1 2 -1 2 0 2 -1 3 0 2 -1 18 0 2 1 1 0 2 1 2 0 4 2 1 0 6 3 1 0 8 4 1 1 6 3 1 1 8 4 1 1 6 3 1 0 6 3 2 0 1 1 2 1 2 0 2 1"/>
<path stroke="#B03060" d="M519 273l3 0 2 1 14 0 2 -1 4 0 1 -1 2 0 2 -1 2 0 2 -1 1 -1 2 -1 2 0 2 -1 1 -1 8 -4 1 -1 6 -3 1 -1 4 -2 2 0 2 -1 1 -1 6 -3 1 -1 4 -2 2 0 2 -1 1 -1 2 0 2 -1 2 0 1 -1 4 0 2 -1 12 0 2 1 4 0 1 1 2 0 2 1 2 0 2 1 1 1 2 0 4 2"/>
<path stroke="#B03060" d="M649 249l1 1 8 4 1 1 6 3 1 1 6 3 2 0 1 1 6 3 1 1 4 2 2 0 2 1 1 1 2 0 2 1 3 0 2 1 4 0 2 1 7 0 2 -1 5 0 2 -1 1 0 2 -1 2 0 4 -2 1 0 6 -3 1 0 8 -4 1 -1 6 -3 1 -1 8 -4 1 -1 6 -3 1 0 6 -3 2 0 1 -1 2 -1 2 0 2 -1 1 0 2 -1 20 0"/>
<path stroke="#B03060" d="M809 242l2 1 1 0 2 1 2 0 4 2 1 0 6 3 1 0 8 4 1 1 6 3 1 1 8 4 1 1 6 3 1 0 6 3 2 0 1 1 2 1 2 0 2 1 3 0 2 1 14 0 2 -1 4 0 1 -1 2 0 2 -1 2 0 2 -1 1 -1 2 -1 2 0 2 -1 1 -1 8 -4 1 -1 6 -3 1 -1 4 -2 2 0 2 -1 1 -1 6 -3 1 -1 4 -2"/>
<path stroke="#B03060" d="M953 246l2 0 2 -1 1 -1 2 0 2 -1 2 0 1 -1"/>
</svg>
