<?xml version="1.0" standalone="yes"?>
<!DOCTYPE svg PUBLIC "-//W3C//DTD SVG 1.1//EN"
 "http://www.w3.org/Graphics/SVG/1.1/DTD/svg11.dtd">
<svg xmlns="http://www.w3.org/2000/svg" version="1.1"
  width="100%" height="100%" viewBox="0 0 1024 768"
  style="fill: none; font-family: Arial;
 font: Arial;
">

<!-- Creator: NGspice -->

<rect x="0" y="0" width="1024" height="768" fill="white" stroke="none"/>
<text stroke="none" fill="black" font-size="16" x="358" y="752">
Frequency(Hz)
</text>
<text transform="rotate(-90, 20, 424)"  stroke="none" fill="black" font-size="16" x="20" y="424">
Gain(db)
</text>
<text stroke="none" fill="black" font-size="16" x="10" y="16">
ac7: Rail_to_Rail_Opamp (ff) Gain
</text>
<path stroke="black" d="M85 704l0 -637"/>
<text stroke="none" fill="black" font-size="16" x="80" y="728">
1
</text>
<path stroke="black" stroke-dasharray="1,2" d="M143 704l0 -637M160 704l0 -637M172 704l0 -637"/>
<path stroke="black" d="M182 704l0 -637"/>
<text stroke="none" fill="black" font-size="16" x="172" y="728">
10
</text>
<path stroke="black" stroke-dasharray="1,2" d="M240 704l0 -637M257 704l0 -637M269 704l0 -637"/>
<path stroke="black" d="M279 704l0 -637"/>
<text stroke="none" fill="black" font-size="16" x="264" y="728">
100
</text>
<path stroke="black" stroke-dasharray="1,2" d="M337 704l0 -637M354 704l0 -637M366 704l0 -637"/>
<path stroke="black" d="M376 704l0 -637"/>
<text stroke="none" fill="black" font-size="16" x="356" y="728">
10^3
</text>
<path stroke="black" stroke-dasharray="1,2" d="M434 704l0 -637M451 704l0 -637M463 704l0 -637"/>
<path stroke="black" d="M473 704l0 -637"/>
<text stroke="none" fill="black" font-size="16" x="453" y="728">
10^4
</text>
<path stroke="black" stroke-dasharray="1,2" d="M531 704l0 -637M548 704l0 -637M560 704l0 -637"/>
<path stroke="black" d="M570 704l0 -637"/>
<text stroke="none" fill="black" font-size="16" x="550" y="728">
10^5
</text>
<path stroke="black" stroke-dasharray="1,2" d="M628 704l0 -637M645 704l0 -637M657 704l0 -637"/>
<path stroke="black" d="M667 704l0 -637"/>
<text stroke="none" fill="black" font-size="16" x="647" y="728">
10^6
</text>
<path stroke="black" stroke-dasharray="1,2" d="M725 704l0 -637M742 704l0 -637M754 704l0 -637"/>
<path stroke="black" d="M764 704l0 -637"/>
<text stroke="none" fill="black" font-size="16" x="744" y="728">
10^7
</text>
<path stroke="black" stroke-dasharray="1,2" d="M822 704l0 -637M839 704l0 -637M851 704l0 -637"/>
<path stroke="black" d="M861 704l0 -637"/>
<text stroke="none" fill="black" font-size="16" x="841" y="728">
10^8
</text>
<path stroke="black" stroke-dasharray="1,2" d="M919 704l0 -637M936 704l0 -637M948 704l0 -637"/>
<path stroke="black" d="M958 704l0 -637"/>
<text stroke="none" fill="black" font-size="16" x="938" y="728">
10^9
</text>
<text stroke="none" fill="black" font-size="16" x="623" y="752">
Hz
</text>
<path stroke="black" stroke-dasharray="1,2" d="M85 704l873 0"/>
<text stroke="none" fill="black" font-size="16" x="33" y="712">
-60.0
</text>
<path stroke="black" stroke-dasharray="1,2" d="M85 613l873 0"/>
<text stroke="none" fill="black" font-size="16" x="33" y="621">
-40.0
</text>
<path stroke="black" stroke-dasharray="1,2" d="M85 522l873 0"/>
<text stroke="none" fill="black" font-size="16" x="33" y="530">
-20.0
</text>
<path stroke="black" d="M85 431l873 0"/>
<text stroke="none" fill="black" font-size="16" x="43" y="439">
-0.0
</text>
<path stroke="black" stroke-dasharray="1,2" d="M85 340l873 0"/>
<text stroke="none" fill="black" font-size="16" x="43" y="348">
20.0
</text>
<path stroke="black" stroke-dasharray="1,2" d="M85 249l873 0"/>
<text stroke="none" fill="black" font-size="16" x="43" y="257">
40.0
</text>
<path stroke="black" stroke-dasharray="1,2" d="M85 158l873 0"/>
<text stroke="none" fill="black" font-size="16" x="43" y="166">
60.0
</text>
<path stroke="black" stroke-dasharray="1,2" d="M85 67l873 0"/>
<text stroke="none" fill="black" font-size="16" x="43" y="75">
80.0
</text>
<text stroke="none" fill="black" font-size="16" x="10" y="32">
dB
</text>
<path stroke="red" d="M85 118l313 0 30 3 9 2 10 2 20 8 10 6 9 6 40 32 9 9 30 27 9 10 40 36 19 19 30 27 19 19 20 18 19 19 10 9 20 20 9 10 20 22 10 12 10 14 9 17 10 28 10 42 10 11 10 8 9 12 10 14 10 15 10 14 9 13 10 11"/>
<path stroke="blue" d="M85 117l303 0 10 1 10 0 10 1 10 0 9 2 20 4 10 4 10 5 9 6 10 6 30 24 9 9 30 27 9 9 40 36 9 10 40 36 9 10 30 27 9 10 20 18 20 20 9 10 30 33 10 13 9 15 10 21 10 37 10 29 10 6 9 10 10 13 10 15 10 14 9 13 10 12"/>
<path stroke="#FFA500" d="M85 116l313 0 10 1 10 0 10 1 9 1 10 1 20 6 10 4 9 5 10 6 10 7 20 16 9 9 30 27 9 9 40 36 19 19 30 27 19 19 20 18 19 19 10 9 10 10 10 9 9 10 30 33 10 13 9 14 10 17 10 29 10 39 10 11 9 8 10 12 20 28 9 13 10 12"/>
<path stroke="green" d="M85 114l303 0 10 1 20 0 10 1 9 1 10 1 10 2 10 3 10 4 9 4 10 6 10 7 20 16 9 8 30 27 9 9 40 36 19 19 30 27 19 19 20 18 19 19 20 18 10 10 9 10 10 10 10 11 20 24 9 14 10 16 10 23 10 37 10 22 9 7 10 11 20 26 9 14 10 12"/>
<path stroke="#FFC0C5" d="M85 112l323 0 10 1 10 0 9 1 10 1 10 2 20 6 9 5 20 12 10 8 10 7 9 9 10 9 10 8 10 9 9 9 10 9 10 10 20 18 9 9 20 18 10 10 10 9 9 9 20 18 19 19 10 9 10 10 10 9 19 19 10 11 10 10 20 24 9 14 10 15 10 20 10 33 10 30 9 8 10 10"/>
<path stroke="#FFC0C5" d="M868 550l10 12 10 13 9 13 10 12"/>
<path stroke="#A52A2A" d="M85 109l323 0 10 1 10 0 9 1 10 1 10 2 20 6 9 5 10 5 20 14 10 8 9 8 30 27 9 9 40 36 9 9 10 9 10 10 20 18 9 9 10 9 10 10 10 9 9 9 10 9 10 10 10 9 19 19 10 11 10 10 20 24 9 14 10 15 10 18 10 27 10 35 9 12 10 8 20 24 9 13"/>
<path stroke="#A52A2A" d="M897 582l10 12"/>
<path stroke="#F0E68C" d="M85 105l323 0 10 1 10 0 9 1 10 1 10 2 20 6 9 5 20 12 10 8 10 7 9 9 10 8 20 18 9 9 10 9 10 10 20 18 9 9 20 18 10 10 10 9 9 9 20 18 19 19 20 18 10 10 10 9 9 10 20 20 10 12 10 13 9 14 10 15 10 16 10 24 10 34 9 17 10 9 10 10"/>
<path stroke="#F0E68C" d="M878 552l10 13 9 12 10 12"/>
</svg>
