<?xml version="1.0" standalone="yes"?>
<!DOCTYPE svg PUBLIC "-//W3C//DTD SVG 1.1//EN"
 "http://www.w3.org/Graphics/SVG/1.1/DTD/svg11.dtd">
<svg xmlns="http://www.w3.org/2000/svg" version="1.1"
  width="100%" height="100%" viewBox="0 0 1024 768"
  style="fill: none; font-family: Arial;
 font: Arial;
">

<!-- Creator: NGspice -->

<rect x="0" y="0" width="1024" height="768" fill="white" stroke="none"/>
<text stroke="none" fill="black" font-size="16" x="358" y="752">
Power(mW)
</text>
<text transform="rotate(-90, 20, 484)"  stroke="none" fill="black" font-size="16" x="20" y="484">
Integrated_Noise(uV)
</text>
<text stroke="none" fill="black" font-size="16" x="10" y="16">
noise26: Rail_to_Rail_Opamp (ff) Integrated_Noise
</text>
<path stroke="black" d="M75 704l0 -636"/>
<text stroke="none" fill="black" font-size="16" x="60" y="728">
0.0
</text>
<path stroke="black" stroke-dasharray="1,2" d="M174 704l0 -636"/>
<text stroke="none" fill="black" font-size="16" x="159" y="728">
1.0
</text>
<path stroke="black" stroke-dasharray="1,2" d="M273 704l0 -636"/>
<text stroke="none" fill="black" font-size="16" x="258" y="728">
2.0
</text>
<path stroke="black" stroke-dasharray="1,2" d="M372 704l0 -636"/>
<text stroke="none" fill="black" font-size="16" x="357" y="728">
3.0
</text>
<path stroke="black" stroke-dasharray="1,2" d="M471 704l0 -636"/>
<text stroke="none" fill="black" font-size="16" x="456" y="728">
4.0
</text>
<path stroke="black" stroke-dasharray="1,2" d="M570 704l0 -636"/>
<text stroke="none" fill="black" font-size="16" x="555" y="728">
5.0
</text>
<path stroke="black" stroke-dasharray="1,2" d="M669 704l0 -636"/>
<text stroke="none" fill="black" font-size="16" x="654" y="728">
6.0
</text>
<path stroke="black" stroke-dasharray="1,2" d="M768 704l0 -636"/>
<text stroke="none" fill="black" font-size="16" x="753" y="728">
7.0
</text>
<path stroke="black" stroke-dasharray="1,2" d="M867 704l0 -636"/>
<text stroke="none" fill="black" font-size="16" x="852" y="728">
8.0
</text>
<path stroke="black" stroke-dasharray="1,2" d="M966 704l0 -636"/>
<text stroke="none" fill="black" font-size="16" x="951" y="728">
9.0
</text>
<text stroke="none" fill="black" font-size="16" x="614" y="752">
m     
</text>
<path stroke="black" stroke-dasharray="1,2" d="M75 704l891 0"/>
<text stroke="none" fill="black" font-size="16" x="43" y="712">
4.4
</text>
<path stroke="black" stroke-dasharray="1,2" d="M75 651l891 0"/>
<text stroke="none" fill="black" font-size="16" x="43" y="659">
4.6
</text>
<path stroke="black" stroke-dasharray="1,2" d="M75 598l891 0"/>
<text stroke="none" fill="black" font-size="16" x="43" y="606">
4.8
</text>
<path stroke="black" stroke-dasharray="1,2" d="M75 545l891 0"/>
<text stroke="none" fill="black" font-size="16" x="43" y="553">
5.0
</text>
<path stroke="black" stroke-dasharray="1,2" d="M75 492l891 0"/>
<text stroke="none" fill="black" font-size="16" x="43" y="500">
5.2
</text>
<path stroke="black" stroke-dasharray="1,2" d="M75 439l891 0"/>
<text stroke="none" fill="black" font-size="16" x="43" y="447">
5.4
</text>
<path stroke="black" stroke-dasharray="1,2" d="M75 386l891 0"/>
<text stroke="none" fill="black" font-size="16" x="43" y="394">
5.6
</text>
<path stroke="black" stroke-dasharray="1,2" d="M75 333l891 0"/>
<text stroke="none" fill="black" font-size="16" x="43" y="341">
5.8
</text>
<path stroke="black" stroke-dasharray="1,2" d="M75 280l891 0"/>
<text stroke="none" fill="black" font-size="16" x="43" y="288">
6.0
</text>
<path stroke="black" stroke-dasharray="1,2" d="M75 227l891 0"/>
<text stroke="none" fill="black" font-size="16" x="43" y="235">
6.2
</text>
<path stroke="black" stroke-dasharray="1,2" d="M75 174l891 0"/>
<text stroke="none" fill="black" font-size="16" x="43" y="182">
6.4
</text>
<path stroke="black" stroke-dasharray="1,2" d="M75 121l891 0"/>
<text stroke="none" fill="black" font-size="16" x="43" y="129">
6.6
</text>
<path stroke="black" stroke-dasharray="1,2" d="M75 68l891 0"/>
<text stroke="none" fill="black" font-size="16" x="43" y="76">
6.8
</text>
<text stroke="none" fill="black" font-size="16" x="10" y="32">
u     
</text>
<path stroke="red" d="M75 84l450 193 97 139 96 106 93 84 92 69"/>
</svg>
