<?xml version="1.0" standalone="yes"?>
<!DOCTYPE svg PUBLIC "-//W3C//DTD SVG 1.1//EN"
 "http://www.w3.org/Graphics/SVG/1.1/DTD/svg11.dtd">
<svg xmlns="http://www.w3.org/2000/svg" version="1.1"
  width="100%" height="100%" viewBox="0 0 1024 768"
  style="fill: none; font-family: Arial;
 font: Arial;
">

<!-- Creator: NGspice -->

<rect x="0" y="0" width="1024" height="768" fill="white" stroke="none"/>
<text stroke="none" fill="black" font-size="16" x="358" y="752">
Time(ns)
</text>
<text transform="rotate(-90, 20, 414)"  stroke="none" fill="black" font-size="16" x="20" y="414">
Output
</text>
<text stroke="none" fill="black" font-size="16" x="10" y="16">
tran13: Rail_to_Rail_Opamp (ss) Transient Plot
</text>
<path stroke="black" d="M85 704l0 -639"/>
<text stroke="none" fill="black" font-size="16" x="70" y="728">
0.0
</text>
<path stroke="black" stroke-dasharray="1,2" d="M172 704l0 -639"/>
<text stroke="none" fill="black" font-size="16" x="157" y="728">
0.5
</text>
<path stroke="black" stroke-dasharray="1,2" d="M259 704l0 -639"/>
<text stroke="none" fill="black" font-size="16" x="244" y="728">
1.0
</text>
<path stroke="black" stroke-dasharray="1,2" d="M346 704l0 -639"/>
<text stroke="none" fill="black" font-size="16" x="331" y="728">
1.5
</text>
<path stroke="black" stroke-dasharray="1,2" d="M433 704l0 -639"/>
<text stroke="none" fill="black" font-size="16" x="418" y="728">
2.0
</text>
<path stroke="black" stroke-dasharray="1,2" d="M520 704l0 -639"/>
<text stroke="none" fill="black" font-size="16" x="505" y="728">
2.5
</text>
<path stroke="black" stroke-dasharray="1,2" d="M607 704l0 -639"/>
<text stroke="none" fill="black" font-size="16" x="592" y="728">
3.0
</text>
<path stroke="black" stroke-dasharray="1,2" d="M694 704l0 -639"/>
<text stroke="none" fill="black" font-size="16" x="679" y="728">
3.5
</text>
<path stroke="black" stroke-dasharray="1,2" d="M781 704l0 -639"/>
<text stroke="none" fill="black" font-size="16" x="766" y="728">
4.0
</text>
<path stroke="black" stroke-dasharray="1,2" d="M868 704l0 -639"/>
<text stroke="none" fill="black" font-size="16" x="853" y="728">
4.5
</text>
<path stroke="black" stroke-dasharray="1,2" d="M955 704l0 -639"/>
<text stroke="none" fill="black" font-size="16" x="940" y="728">
5.0
</text>
<text stroke="none" fill="black" font-size="16" x="614" y="752">
us
</text>
<path stroke="black" stroke-dasharray="1,2" d="M85 704l870 0"/>
<text stroke="none" fill="black" font-size="16" x="43" y="712">
1.00
</text>
<path stroke="black" stroke-dasharray="1,2" d="M85 633l870 0"/>
<text stroke="none" fill="black" font-size="16" x="43" y="641">
1.10
</text>
<path stroke="black" stroke-dasharray="1,2" d="M85 562l870 0"/>
<text stroke="none" fill="black" font-size="16" x="43" y="570">
1.20
</text>
<path stroke="black" stroke-dasharray="1,2" d="M85 491l870 0"/>
<text stroke="none" fill="black" font-size="16" x="43" y="499">
1.30
</text>
<path stroke="black" stroke-dasharray="1,2" d="M85 420l870 0"/>
<text stroke="none" fill="black" font-size="16" x="43" y="428">
1.40
</text>
<path stroke="black" stroke-dasharray="1,2" d="M85 349l870 0"/>
<text stroke="none" fill="black" font-size="16" x="43" y="357">
1.50
</text>
<path stroke="black" stroke-dasharray="1,2" d="M85 278l870 0"/>
<text stroke="none" fill="black" font-size="16" x="43" y="286">
1.60
</text>
<path stroke="black" stroke-dasharray="1,2" d="M85 207l870 0"/>
<text stroke="none" fill="black" font-size="16" x="43" y="215">
1.70
</text>
<path stroke="black" stroke-dasharray="1,2" d="M85 136l870 0"/>
<text stroke="none" fill="black" font-size="16" x="43" y="144">
1.80
</text>
<path stroke="black" stroke-dasharray="1,2" d="M85 65l870 0"/>
<text stroke="none" fill="black" font-size="16" x="43" y="73">
1.90
</text>
<text stroke="none" fill="black" font-size="16" x="10" y="32">
V
</text>
<path stroke="red" d="M85 513l6 0 1 1 4 0M96 515l0 -1M96 515l3 0M99 516l0 -1M99 516l2 0M101 517l0 -1M101 517l2 0M103 518l0 -1M103 518l2 0M105 519l0 -1M105 519l2 0M107 520l0 -1M107 520l1 0M108 521l0 -1M108 521l2 0M110 522l0 -1M110 522l1 0M111 523l0 -1"/>
<path stroke="red" d="M111 523l1 0 1 1 1 0M114 525l0 -1M114 525l1 0M115 526l0 -1M115 526l1 0M116 527l0 -1M116 527l1 0M117 528l0 -1M117 528l1 0 1 1 1 0M120 530l0 -1M120 530l1 0M121 531l0 -1M121 531l1 0M122 532l0 -1M122 532l1 0M123 533l0 -1M123 533l1 0"/>
<path stroke="red" d="M124 534l0 -1M124 534l1 0M125 535l0 -1M125 535l1 0M126 536l0 -1M126 536l1 0M127 537l0 -1M127 537l1 0M128 538l0 -1M128 538l1 0M129 539l0 -1M129 539l1 0M130 540l0 -1M130 540l1 0M131 541l0 -1M131 541l1 0M132 542l0 -1M132 542l1 0"/>
<path stroke="red" d="M133 543l0 -1M133 543l1 0M134 544l0 -1M134 544l1 0M135 545l0 -1M135 545l1 0M136 546l0 -1M136 546l1 0M137 547l0 -1M137 547l1 0M138 548l0 -1M138 548l1 0M139 549l0 -1M139 549l1 0M140 550l0 -1M140 550l1 0M141 551l0 -1M141 551l1 0"/>
<path stroke="red" d="M142 552l0 -1M142 552l1 0 1 1 1 0M145 554l0 -1M145 554l1 0M146 555l0 -1M146 555l1 0M147 556l0 -1M147 556l1 0M148 557l0 -1M148 557l1 0M149 558l0 -1M149 558l2 0M151 559l0 -1M151 559l1 0M152 560l0 -1M152 560l1 0 1 1 1 0M155 562l0 -1"/>
<path stroke="red" d="M155 562l2 0M157 563l0 -1M157 563l1 0M158 564l0 -1M158 564l2 0M160 565l0 -1M160 565l2 0M162 566l0 -1M162 566l3 0M165 567l0 -1M165 567l4 0M169 568l0 -1M169 568l11 0 1 -1 3 0 0 -1 3 0 0 -1 2 0 0 -1 2 0 0 -1 2 0 0 -1 1 0 0 -1"/>
<path stroke="red" d="M194 561l2 0 0 -1 1 0 0 -1 2 0 0 -1 1 0 0 -1 1 0 0 -1 1 0 1 -1 1 0 0 -1 1 0 0 -1 1 0 0 -1 1 0 0 -1 1 0 0 -1 1 0 0 -1 1 0 4 -4 1 0 0 -1 1 0 0 -1 1 0 0 -1 1 0 0 -1 1 0 0 -1 1 0 0 -1 1 0 0 -1 1 0 0 -1 1 0 0 -1 1 0 0 -1 1 0"/>
<path stroke="red" d="M225 535l0 -1 1 0 0 -1 1 0 0 -1 1 0 0 -1 1 0 0 -1 1 0 1 -1 1 0 0 -1 1 0 0 -1 1 0 0 -1 1 0 0 -1 1 0 1 -1 1 0 0 -1 1 0 0 -1 2 0 0 -1 1 0 0 -1 2 0 0 -1 1 0 1 -1 1 0 1 -1 2 0 0 -1 2 0 1 -1 3 0 0 -1 11 0M267 515l0 -1M267 515l4 0"/>
<path stroke="red" d="M271 516l0 -1M271 516l2 0 1 1 2 0M276 518l0 -1M276 518l2 0M278 519l0 -1M278 519l1 0 1 1 1 0M281 521l0 -1M281 521l2 0M283 522l0 -1M283 522l1 0M284 523l0 -1M284 523l1 0M285 524l0 -1M285 524l2 0M287 525l0 -1M287 525l1 0M288 526l0 -1"/>
<path stroke="red" d="M288 526l1 0M289 527l0 -1M289 527l1 0 2 2 1 0M293 530l0 -1M293 530l1 0M294 531l0 -1M294 531l1 0M295 532l0 -1M295 532l1 0M296 533l0 -1M296 533l1 0M297 534l0 -1M297 534l1 0M298 535l0 -1M298 535l1 0M299 536l0 -1M299 536l1 0"/>
<path stroke="red" d="M300 537l0 -1M300 537l1 0M301 538l0 -1M301 538l1 0M302 539l0 -1M302 539l1 0M303 540l0 -1M303 540l1 0M304 541l0 -1M304 541l1 0M305 542l0 -1M305 542l1 0M306 543l0 -1M306 543l1 0M307 544l0 -1M307 544l1 0M308 545l0 -1M308 545l1 0"/>
<path stroke="red" d="M309 546l0 -1M309 546l1 0M310 547l0 -1M310 547l1 0M311 548l0 -1M311 548l1 0M312 549l0 -1M312 549l1 0 4 4 1 0M318 554l0 -1M318 554l1 0M319 555l0 -1M319 555l1 0M320 556l0 -1M320 556l1 0M321 557l0 -1M321 557l1 0 1 1 1 0M324 559l0 -1"/>
<path stroke="red" d="M324 559l1 0M325 560l0 -1M325 560l1 0 1 1 1 0M328 562l0 -1M328 562l1 0 1 1 1 0M331 564l0 -1M331 564l2 0M333 565l0 -1M333 565l2 0M335 566l0 -1M335 566l2 0M337 567l0 -1M337 567l3 0M340 568l0 -1M340 568l4 0M344 569l0 -1M344 569l9 0"/>
<path stroke="red" d="M353 569l0 -1 4 0 1 -1 2 0 0 -1 3 0 0 -1 1 0 1 -1 1 0 0 -1 2 0 0 -1 2 0 0 -1 1 0 0 -1 1 0 0 -1 2 0 0 -1 1 0 0 -1 1 0 0 -1 1 0 1 -1 1 0 0 -1 1 0 0 -1 1 0 0 -1 1 0 0 -1 1 0 0 -1 1 0 0 -1 1 0 0 -1 1 0 0 -1 1 0 0 -1 1 0 4 -4"/>
<path stroke="red" d="M392 542l1 0 0 -1 3 -3 1 0 0 -1 1 0 0 -1 1 0 0 -1 1 0 0 -1 1 0 0 -1 1 0 0 -1 1 0 0 -1 1 0 0 -1 1 0 0 -1 1 0 1 -1 1 0 0 -1 1 0 0 -1 1 0 0 -1 1 0 1 -1 1 0 0 -1 1 0 0 -1 2 0 0 -1 1 0 0 -1 2 0 0 -1 2 0 0 -1 2 0 0 -1 3 0 0 -1"/>
<path stroke="red" d="M426 516l3 0 0 -1 13 0M442 516l0 -1M442 516l3 0 1 1 2 0M448 518l0 -1M448 518l2 0M450 519l0 -1M450 519l2 0M452 520l0 -1M452 520l2 0M454 521l0 -1M454 521l1 0 1 1 1 0M457 523l0 -1M457 523l1 0M458 524l0 -1M458 524l2 0M460 525l0 -1"/>
<path stroke="red" d="M460 525l1 0M461 526l0 -1M461 526l1 0M462 527l0 -1M462 527l1 0 1 1 1 0M465 529l0 -1M465 529l1 0M466 530l0 -1M466 530l1 0M467 531l0 -1M467 531l1 0M468 532l0 -1M468 532l1 0M469 533l0 -1M469 533l1 0M470 534l0 -1M470 534l1 0"/>
<path stroke="red" d="M471 535l0 -1M471 535l1 0M472 536l0 -1M472 536l1 0M473 537l0 -1M473 537l1 0M474 538l0 -1M474 538l1 0 3 3M478 542l0 -1M478 542l1 0 8 8 1 0M488 551l0 -1M488 551l1 0M489 552l0 -1M489 552l1 0M490 553l0 -1M490 553l1 0M491 554l0 -1"/>
<path stroke="red" d="M491 554l1 0M492 555l0 -1M492 555l1 0M493 556l0 -1M493 556l1 0M494 557l0 -1M494 557l1 0 1 1 1 0M497 559l0 -1M497 559l1 0M498 560l0 -1M498 560l1 0M499 561l0 -1M499 561l2 0M501 562l0 -1M501 562l1 0M502 563l0 -1M502 563l2 0"/>
<path stroke="red" d="M504 564l0 -1M504 564l1 0M505 565l0 -1M505 565l2 0M507 566l0 -1M507 566l2 0M509 567l0 -1M509 567l3 0M512 568l0 -1M512 568l2 0 1 1 5 0M520 570l0 -1M520 570l5 0 1 -1 5 0 0 -1 3 0 0 -1 2 0 0 -1 2 0 0 -1 2 0 0 -1 2 0 0 -1 1 0"/>
<path stroke="red" d="M543 563l0 -1 2 0 0 -1 1 0 0 -1 1 0 1 -1 1 0 0 -1 1 0 0 -1 1 0 0 -1 1 0 0 -1 1 0 1 -1 1 0 0 -1 1 0 0 -1 1 0 0 -1 1 0 0 -1 1 0 0 -1 1 0 0 -1 1 0 0 -1 1 0 0 -1 1 0 0 -1 1 0 0 -1 1 0 0 -1 1 0 0 -1 1 0 0 -1 1 0 0 -1 1 0 0 -1"/>
<path stroke="red" d="M569 539l1 0 4 -4 1 0 0 -1 1 0 0 -1 1 0 0 -1 1 0 0 -1 1 0 0 -1 1 0 0 -1 1 0 0 -1 2 0 0 -1 1 0 0 -1 1 0 0 -1 2 0 0 -1 1 0 0 -1 1 0 0 -1 2 0 0 -1 2 0 0 -1 2 0 0 -1 2 0 0 -1 2 0 0 -1 3 0 0 -1 15 0M617 517l0 -1M617 517l3 0M620 518l0 -1"/>
<path stroke="red" d="M620 518l3 0M623 519l0 -1M623 519l2 0M625 520l0 -1M625 520l2 0M627 521l0 -1M627 521l1 0M628 522l0 -1M628 522l2 0M630 523l0 -1M630 523l1 0M631 524l0 -1M631 524l2 0M633 525l0 -1M633 525l1 0M634 526l0 -1M634 526l1 0M635 527l0 -1"/>
<path stroke="red" d="M635 527l1 0 1 1 1 0M638 529l0 -1M638 529l1 0M639 530l0 -1M639 530l1 0M640 531l0 -1M640 531l1 0M641 532l0 -1M641 532l1 0M642 533l0 -1M642 533l1 0 2 2 1 0M646 536l0 -1M646 536l1 0M647 537l0 -1M647 537l1 0M648 538l0 -1M648 538l1 0"/>
<path stroke="red" d="M649 539l0 -1M649 539l1 0M650 540l0 -1M650 540l1 0M651 541l0 -1M651 541l1 0M652 542l0 -1M652 542l1 0M653 543l0 -1M653 543l1 0M654 544l0 -1M654 544l1 0M655 545l0 -1M655 545l1 0M656 546l0 -1M656 546l1 0M657 547l0 -1M657 547l1 0"/>
<path stroke="red" d="M658 548l0 -1M658 548l1 0M659 549l0 -1M659 549l1 0M660 550l0 -1M660 550l1 0M661 551l0 -1M661 551l1 0M662 552l0 -1M662 552l1 0M663 553l0 -1M663 553l1 0M664 554l0 -1M664 554l1 0M665 555l0 -1M665 555l1 0M666 556l0 -1M666 556l1 0"/>
<path stroke="red" d="M667 557l0 -1M667 557l1 0 1 1 1 0M670 559l0 -1M670 559l1 0M671 560l0 -1M671 560l1 0M672 561l0 -1M672 561l2 0M674 562l0 -1M674 562l1 0M675 563l0 -1M675 563l1 0 1 1 1 0M678 565l0 -1M678 565l2 0M680 566l0 -1M680 566l2 0M682 567l0 -1"/>
<path stroke="red" d="M682 567l2 0M684 568l0 -1M684 568l2 0M686 569l0 -1M686 569l3 0 1 1 14 0 0 -1 3 0 0 -1 3 0 0 -1 2 0 0 -1 2 0 0 -1 1 0 0 -1 2 0 0 -1 1 0 0 -1 2 0 0 -1 1 0 0 -1 1 0 1 -1 1 0 0 -1 1 0 0 -1 1 0 0 -1 1 0 0 -1 1 0 2 -2 1 0 0 -1"/>
<path stroke="red" d="M731 552l1 0 0 -1 1 0 0 -1 1 0 0 -1 1 0 0 -1 1 0 0 -1 1 0 0 -1 1 0 0 -1 1 0 0 -1 1 0 0 -1 1 0 0 -1 1 0 0 -1 1 0 0 -1 1 0 0 -1 1 0 0 -1 1 0 0 -1 1 0 0 -1 1 0 3 -3 1 0 0 -1 1 0 0 -1 1 0 0 -1 1 0 0 -1 1 0 0 -1 2 0 0 -1 1 0"/>
<path stroke="red" d="M759 527l0 -1 1 0 0 -1 2 0 0 -1 1 0 0 -1 2 0 0 -1 1 0 0 -1 2 0 0 -1 2 0 0 -1 2 0 1 -1 2 0 1 -1 4 0 1 -1 6 0M787 517l0 -1M787 517l5 0M792 518l0 -1M792 518l3 0M795 519l0 -1M795 519l2 0M797 520l0 -1M797 520l2 0M799 521l0 -1"/>
<path stroke="red" d="M799 521l2 0M801 522l0 -1M801 522l2 0M803 523l0 -1M803 523l1 0M804 524l0 -1M804 524l2 0M806 525l0 -1M806 525l1 0M807 526l0 -1M807 526l1 0 1 1 1 0M810 528l0 -1M810 528l1 0M811 529l0 -1M811 529l1 0M812 530l0 -1M812 530l1 0"/>
<path stroke="red" d="M813 531l0 -1M813 531l1 0M814 532l0 -1M814 532l1 0 1 1 1 0M817 534l0 -1M817 534l1 0M818 535l0 -1M818 535l1 0M819 536l0 -1M819 536l1 0M820 537l0 -1M820 537l1 0M821 538l0 -1M821 538l1 0M822 539l0 -1M822 539l1 0M823 540l0 -1"/>
<path stroke="red" d="M823 540l1 0M824 541l0 -1M824 541l1 0M825 542l0 -1M825 542l1 0M826 543l0 -1M826 543l1 0M827 544l0 -1M827 544l1 0M828 545l0 -1M828 545l1 0M829 546l0 -1M829 546l1 0M830 547l0 -1M830 547l1 0M831 548l0 -1M831 548l1 0M832 549l0 -1"/>
<path stroke="red" d="M832 549l1 0M833 550l0 -1M833 550l1 0M834 551l0 -1M834 551l1 0M835 552l0 -1M835 552l1 0M836 553l0 -1M836 553l1 0M837 554l0 -1M837 554l1 0M838 555l0 -1M838 555l1 0 2 2 1 0M842 558l0 -1M842 558l1 0M843 559l0 -1M843 559l1 0"/>
<path stroke="red" d="M844 560l0 -1M844 560l1 0M845 561l0 -1M845 561l1 0 1 1 1 0M848 563l0 -1M848 563l1 0M849 564l0 -1M849 564l2 0M851 565l0 -1M851 565l1 0 1 1 1 0M854 567l0 -1M854 567l2 0M856 568l0 -1M856 568l2 0M858 569l0 -1M858 569l3 0M861 570l0 -1"/>
<path stroke="red" d="M861 570l3 0 1 1 12 0 0 -1 3 0 1 -1 2 0 0 -1 2 0 0 -1 2 0 0 -1 2 0 0 -1 1 0 1 -1 1 0 0 -1 1 0 1 -1 1 0 0 -1 1 0 0 -1 1 0 0 -1 1 0 1 -1 1 0 0 -1 1 0 0 -1 1 0 0 -1 1 0 0 -1 1 0 0 -1 1 0 0 -1 2 0 0 -1 1 0 0 -1 1 0 0 -1 1 0"/>
<path stroke="red" d="M910 549l0 -1 1 0 0 -1 1 0 0 -1 1 0 0 -1 1 0 0 -1 1 0 0 -1 1 0 0 -1 1 0 0 -1 1 0 0 -1 1 0 0 -1 1 0 0 -1 1 0 0 -1 1 0 0 -1 1 0 0 -1 1 0 0 -1 1 0 0 -1 2 0 0 -1 1 0 0 -1 1 0 0 -1 1 0 0 -1 1 0 0 -1 1 0 1 -1 1 0 0 -1 1 0 0 -1"/>
<path stroke="red" d="M935 525l2 0 0 -1 1 0 0 -1 2 0 0 -1 2 0 0 -1 2 0 0 -1 2 0 0 -1 3 0 0 -1 4 0 0 -1 2 0"/>
<path stroke="blue" d="M85 527l8 0M93 528l0 -1M93 528l3 0 1 1 2 0M99 530l0 -1M99 530l2 0M101 531l0 -1M101 531l2 0M103 532l0 -1M103 532l1 0M104 533l0 -1M104 533l2 0M106 534l0 -1M106 534l1 0M107 535l0 -1M107 535l1 0 1 1 1 0M110 537l0 -1M110 537l1 0"/>
<path stroke="blue" d="M111 538l0 -1M111 538l1 0M112 539l0 -1M112 539l1 0M113 540l0 -1M113 540l1 0M114 541l0 -1M114 541l1 0M115 542l0 -1M115 542l1 0M116 543l0 -1M116 543l1 0M117 544l0 -1M117 544l1 0M118 545l0 -1M118 545l1 0M119 546l0 -1M119 546l1 0"/>
<path stroke="blue" d="M120 547l0 -1M120 547l1 0M121 548l0 -1M121 548l1 0M122 549l0 -1M122 549l1 0M123 550l0 -1M123 550l1 0M124 551l0 -1M124 551l1 0M125 552l0 -1M125 552l1 0M126 553l0 -1M126 553l2 2M128 556l0 -1M128 556l1 0M129 557l0 -1M129 557l1 0"/>
<path stroke="blue" d="M130 558l0 -1M130 558l1 0M131 559l0 -1M131 559l1 0M132 560l0 -1M132 560l1 0M133 561l0 -1M133 561l1 0M134 562l0 -1M134 562l2 2M136 565l0 -1M136 565l1 0M137 566l0 -1M137 566l1 0M138 567l0 -1M138 567l1 0M139 568l0 -1M139 568l1 0"/>
<path stroke="blue" d="M140 569l0 -1M140 569l1 0M141 570l0 -1M141 570l1 0M142 571l0 -1M142 571l1 0M143 572l0 -1M143 572l1 0M144 573l0 -1M144 573l1 0M145 574l0 -1M145 574l1 0M146 575l0 -1M146 575l1 0M147 576l0 -1M147 576l1 0M148 577l0 -1M148 577l1 0"/>
<path stroke="blue" d="M149 578l0 -1M149 578l1 0M150 579l0 -1M150 579l1 0M151 580l0 -1M151 580l1 0M152 581l0 -1M152 581l1 0 1 1 1 0M155 583l0 -1M155 583l1 0M156 584l0 -1M156 584l2 0M158 585l0 -1M158 585l1 0M159 586l0 -1M159 586l2 0M161 587l0 -1"/>
<path stroke="blue" d="M161 587l2 0M163 588l0 -1M163 588l2 0 1 1 3 0M169 590l0 -1M169 590l11 0 0 -1 4 0 0 -1 2 0 0 -1 2 0 0 -1 2 0 0 -1 1 0 1 -1 1 0 0 -1 1 0 0 -1 2 0 0 -1 1 0 0 -1 1 0 0 -1 1 0 0 -1 1 0 3 -3 1 0 0 -1 1 0 0 -1 1 0 0 -1 1 0 0 -1"/>
<path stroke="blue" d="M207 571l1 0 0 -1 1 0 0 -1 1 -1 1 0 0 -1 1 -1 0 -1 1 0 0 -1 1 0 0 -1 1 0 0 -1 1 0 0 -1 1 0 0 -1 1 0 0 -1 1 0 0 -1 1 0 0 -1 1 -1 0 -1 1 0 0 -1 1 0 0 -1 1 0 0 -1 1 0 0 -1 1 0 0 -1 1 0 0 -1 1 0 0 -1 1 0 0 -1 1 0 0 -1 1 0 0 -1"/>
<path stroke="blue" d="M231 545l1 0 0 -1 1 0 0 -1 1 0 0 -1 1 0 0 -1 1 0 0 -1 1 0 0 -1 1 0 1 -1 1 0 0 -1 1 0 0 -1 1 0 0 -1 2 0 0 -1 1 0 0 -1 2 0 0 -1 2 0 0 -1 2 0 0 -1 3 0 0 -1 4 0 0 -1 7 0M265 529l0 -1M265 529l4 0M269 530l0 -1M269 530l3 0M272 531l0 -1"/>
<path stroke="blue" d="M272 531l2 0M274 532l0 -1M274 532l2 0M276 533l0 -1M276 533l2 0M278 534l0 -1M278 534l1 0M279 535l0 -1M279 535l2 0M281 536l0 -1M281 536l1 0M282 537l0 -1M282 537l1 0M283 538l0 -1M283 538l1 0 1 1 1 0M286 540l0 -1M286 540l1 0"/>
<path stroke="blue" d="M287 541l0 -1M287 541l1 0M288 542l0 -1M288 542l1 0M289 543l0 -1M289 543l1 0M290 544l0 -1M290 544l1 0M291 545l0 -1M291 545l1 0M292 546l0 -1M292 546l1 0M293 547l0 -1M293 547l1 0M294 548l0 -1M294 548l1 0M295 549l0 -1M295 549l1 0"/>
<path stroke="blue" d="M296 550l0 -1M296 550l1 0M297 551l0 -1M297 551l1 0M298 552l0 -1M298 552l1 1M299 554l0 -1M299 554l1 0M300 555l0 -1M300 555l1 0M301 556l0 -1M301 556l1 0M302 557l0 -1M302 557l1 0M303 558l0 -1M303 558l1 0M304 559l0 -1M304 559l1 0"/>
<path stroke="blue" d="M305 560l0 -1M305 560l1 0M306 561l0 -1M306 561l1 1M307 563l0 -1M307 563l1 0M308 564l0 -1M308 564l1 0M309 565l0 -1M309 565l1 0M310 566l0 -1M310 566l1 0M311 567l0 -1M311 567l1 0M312 568l0 -1M312 568l1 0M313 569l0 -1M313 569l1 0"/>
<path stroke="blue" d="M314 570l0 -1M314 570l1 1M315 572l0 -1M315 572l1 0M316 573l0 -1M316 573l1 0M317 574l0 -1M317 574l1 0M318 575l0 -1M318 575l1 0M319 576l0 -1M319 576l1 0M320 577l0 -1M320 577l1 0 3 3 1 0M325 581l0 -1M325 581l1 0M326 582l0 -1"/>
<path stroke="blue" d="M326 582l1 0M327 583l0 -1M327 583l1 0M328 584l0 -1M328 584l2 0M330 585l0 -1M330 585l1 0M331 586l0 -1M331 586l2 0M333 587l0 -1M333 587l1 0 1 1 1 0M336 589l0 -1M336 589l3 0M339 590l0 -1M339 590l3 0M342 591l0 -1M342 591l13 0"/>
<path stroke="blue" d="M355 591l1 -1 2 0 1 -1 2 0 0 -1 2 0 0 -1 1 0 0 -1 2 0 0 -1 1 0 1 -1 1 0 0 -1 1 0 0 -1 1 0 0 -1 1 0 1 -1 1 0 0 -1 1 0 0 -1 1 0 0 -1 1 0 0 -1 1 0 0 -1 1 0 0 -1 1 0 0 -1 1 0 0 -1 1 0 0 -1 1 0 0 -1 1 0 0 -1 1 0 0 -1 1 0 0 -1"/>
<path stroke="blue" d="M386 567l1 0 0 -1 3 -3 0 -1 1 0 0 -1 1 0 0 -1 1 0 0 -1 1 0 0 -1 1 0 0 -1 1 0 0 -1 1 0 0 -1 2 -2 0 -1 1 0 0 -1 1 0 0 -1 1 0 0 -1 1 0 0 -1 1 0 0 -1 1 0 0 -1 1 0 0 -1 1 0 0 -1 1 0 0 -1 1 0 0 -1 1 0 2 -2 1 0 0 -1 1 0 0 -1 1 0"/>
<path stroke="blue" d="M415 538l0 -1 2 0 0 -1 1 0 0 -1 2 0 0 -1 1 0 1 -1 1 0 1 -1 2 0 0 -1 3 0 0 -1 13 0M442 531l0 -1M442 531l3 0M445 532l0 -1M445 532l2 0 1 1 1 0 1 1 1 0M451 535l0 -1M451 535l2 0M453 536l0 -1M453 536l1 0M454 537l0 -1M454 537l1 0"/>
<path stroke="blue" d="M455 537l1 1 1 0M457 539l0 -1M457 539l1 0M458 540l0 -1M458 540l1 0M459 541l0 -1M459 541l1 0 4 4 1 0M465 546l0 -1M465 546l1 0M466 547l0 -1M466 547l1 1 1 0M468 549l0 -1M468 549l2 2M470 552l0 -1M470 552l1 0M471 553l0 -1M471 553l1 0"/>
<path stroke="blue" d="M472 554l0 -1M472 554l1 0M473 555l0 -1M473 555l1 0M474 556l0 -1M474 556l1 0M475 557l0 -1M475 557l1 0M476 558l0 -1M476 558l1 0M477 559l0 -1M477 559l1 1M478 561l0 -1M478 561l1 0M479 562l0 -1M479 562l1 0M480 563l0 -1M480 563l1 0"/>
<path stroke="blue" d="M481 564l0 -1M481 564l1 0M482 565l0 -1M482 565l1 0M483 566l0 -1M483 566l1 0M484 567l0 -1M484 567l2 2M486 570l0 -1M486 570l1 0M487 571l0 -1M487 571l1 0M488 572l0 -1M488 572l1 0M489 573l0 -1M489 573l1 0M490 574l0 -1M490 574l1 0"/>
<path stroke="blue" d="M491 575l0 -1M491 575l1 0M492 576l0 -1M492 576l1 0M493 577l0 -1M493 577l1 0M494 578l0 -1M494 578l1 0M495 579l0 -1M495 579l1 0M496 580l0 -1M496 580l1 0M497 581l0 -1M497 581l1 0M498 582l0 -1M498 582l1 0 1 1 1 0M501 584l0 -1"/>
<path stroke="blue" d="M501 584l1 0M502 585l0 -1M502 585l1 0M503 586l0 -1M503 586l2 0M505 587l0 -1M505 587l1 0M506 588l0 -1M506 588l2 0M508 589l0 -1M508 589l2 0M510 590l0 -1M510 590l2 0M512 591l0 -1M512 591l2 0M514 592l0 -1M514 592l4 0 1 1 7 0"/>
<path stroke="blue" d="M526 593l1 -1 3 0 1 -1 2 0 0 -1 2 0 1 -1 1 0 0 -1 2 0 0 -1 1 0 1 -1 1 0 0 -1 1 0 0 -1 1 0 1 -1 1 0 0 -1 1 0 0 -1 1 0 0 -1 1 0 0 -1 1 0 0 -1 1 0 0 -1 1 0 0 -1 1 0 0 -1 1 0 1 -1 0 -1 1 0 0 -1 1 0 0 -1 1 0 0 -1 1 0 0 -1 1 0"/>
<path stroke="blue" d="M560 569l0 -1 1 0 0 -1 1 0 0 -1 1 0 0 -1 1 0 0 -1 1 0 0 -1 2 -2 0 -1 1 0 0 -1 1 0 0 -1 1 0 0 -1 1 0 0 -1 1 0 0 -1 1 0 0 -1 1 0 0 -1 1 0 0 -1 1 0 0 -1 6 -6 1 0 0 -1 1 0 0 -1 1 0 0 -1 1 0 0 -1 1 0 0 -1 1 0 1 -1 1 0 0 -1 1 0"/>
<path stroke="blue" d="M591 538l0 -1 2 0 0 -1 1 0 1 -1 1 0 0 -1 2 0 0 -1 3 0 0 -1 3 0 0 -1 11 0M615 532l0 -1M615 532l3 0M618 533l0 -1M618 533l3 0M621 534l0 -1M621 534l2 0M623 535l0 -1M623 535l2 0M625 536l0 -1M625 536l1 0M626 537l0 -1M626 537l2 0"/>
<path stroke="blue" d="M628 538l0 -1M628 538l1 0M629 539l0 -1M629 539l1 0 1 1 1 0M632 541l0 -1M632 541l1 0M633 542l0 -1M633 542l1 0M634 543l0 -1M634 543l1 0M635 544l0 -1M635 544l1 0M636 545l0 -1M636 545l1 0M637 546l0 -1M637 546l1 0M638 547l0 -1"/>
<path stroke="blue" d="M638 547l1 0M639 548l0 -1M639 548l1 0M640 549l0 -1M640 549l1 0M641 550l0 -1M641 550l1 0M642 551l0 -1M642 551l1 0M643 552l0 -1M643 552l1 0M644 553l0 -1M644 553l1 0M645 554l0 -1M645 554l1 0M646 555l0 -1M646 555l1 0M647 556l0 -1"/>
<path stroke="blue" d="M647 556l1 0M648 557l0 -1M648 557l2 2M650 560l0 -1M650 560l1 0M651 561l0 -1M651 561l1 0M652 562l0 -1M652 562l1 0M653 563l0 -1M653 563l1 0M654 564l0 -1M654 564l1 0M655 565l0 -1M655 565l1 1M656 567l0 -1M656 567l1 0 1 1M658 569l0 -1"/>
<path stroke="blue" d="M658 569l1 0M659 570l0 -1M659 570l1 0M660 571l0 -1M660 571l1 0M661 572l0 -1M661 572l1 0M662 573l0 -1M662 573l1 0M663 574l0 -1M663 574l1 0M664 575l0 -1M664 575l1 0M665 576l0 -1M665 576l1 0M666 577l0 -1M666 577l1 0M667 578l0 -1"/>
<path stroke="blue" d="M667 578l1 0M668 579l0 -1M668 579l1 1 1 0M670 581l0 -1M670 581l1 0M671 582l0 -1M671 582l1 0M672 583l0 -1M672 583l1 0M673 584l0 -1M673 584l1 0M674 585l0 -1M674 585l1 0 1 1 1 0M677 587l0 -1M677 587l1 0M678 588l0 -1M678 588l2 0"/>
<path stroke="blue" d="M680 589l0 -1M680 589l1 0M681 590l0 -1M681 590l2 0M683 591l0 -1M683 591l2 0M685 592l0 -1M685 592l2 0M687 593l0 -1M687 593l4 0M691 594l0 -1M691 594l11 0 0 -1 4 0 0 -1 2 0 0 -1 2 0 0 -1 2 0 0 -1 1 0 1 -1 1 0 0 -1 1 0 0 -1"/>
<path stroke="blue" d="M716 586l2 0 0 -1 1 0 0 -1 1 0 0 -1 1 0 4 -4 1 0 0 -1 1 0 0 -1 1 0 0 -1 1 0 0 -1 1 0 0 -1 1 0 0 -1 1 -1 1 0 0 -1 1 -1 0 -1 1 0 0 -1 1 0 0 -1 1 0 0 -1 1 0 0 -1 1 0 0 -1 1 0 0 -1 1 0 0 -1 1 0 0 -1 1 -1 0 -1 1 0 0 -1 1 0 0 -1"/>
<path stroke="blue" d="M745 557l1 0 0 -1 1 0 0 -1 1 0 0 -1 1 0 0 -1 1 0 0 -1 1 0 0 -1 1 0 0 -1 1 0 0 -1 1 0 0 -1 1 0 0 -1 1 0 0 -1 1 0 0 -1 1 0 0 -1 1 0 0 -1 1 0 1 -1 1 0 0 -1 1 0 0 -1 1 0 0 -1 2 0 0 -1 1 0 0 -1 2 0 0 -1 2 0 0 -1 2 0 0 -1 3 0"/>
<path stroke="blue" d="M776 534l0 -1 4 0 0 -1 7 0M787 533l0 -1M787 533l4 0M791 534l0 -1M791 534l3 0M794 535l0 -1M794 535l2 0M796 536l0 -1M796 536l2 0M798 537l0 -1M798 537l2 0M800 538l0 -1M800 538l1 0M801 539l0 -1M801 539l2 0M803 540l0 -1M803 540l1 0"/>
<path stroke="blue" d="M804 541l0 -1M804 541l1 0M805 542l0 -1M805 542l1 0 2 2 1 0M809 545l0 -1M809 545l1 0M810 546l0 -1M810 546l1 0M811 547l0 -1M811 547l1 0M812 548l0 -1M812 548l1 0M813 549l0 -1M813 549l1 0M814 550l0 -1M814 550l1 0M815 551l0 -1"/>
<path stroke="blue" d="M815 551l1 0M816 552l0 -1M816 552l1 0M817 553l0 -1M817 553l1 0M818 554l0 -1M818 554l1 0M819 555l0 -1M819 555l1 0M820 556l0 -1M820 556l1 1M821 558l0 -1M821 558l1 0M822 559l0 -1M822 559l1 0M823 560l0 -1M823 560l1 0M824 561l0 -1"/>
<path stroke="blue" d="M824 561l1 0M825 562l0 -1M825 562l1 0M826 563l0 -1M826 563l1 0M827 564l0 -1M827 564l1 0M828 565l0 -1M828 565l1 1M829 567l0 -1M829 567l1 0M830 568l0 -1M830 568l1 0M831 569l0 -1M831 569l1 0M832 570l0 -1M832 570l1 0M833 571l0 -1"/>
<path stroke="blue" d="M833 571l1 0M834 572l0 -1M834 572l1 1 1 0M836 574l0 -1M836 574l1 1M837 576l0 -1M837 576l1 0M838 577l0 -1M838 577l1 0M839 578l0 -1M839 578l1 0M840 579l0 -1M840 579l1 0M841 580l0 -1M841 580l1 0M842 581l0 -1M842 581l1 0M843 582l0 -1"/>
<path stroke="blue" d="M843 582l1 0M844 583l0 -1M844 583l1 0 2 2 1 0M848 586l0 -1M848 586l1 0M849 587l0 -1M849 587l1 0M850 588l0 -1M850 588l2 0M852 589l0 -1M852 589l1 0M853 590l0 -1M853 590l1 0 1 1 1 0M856 592l0 -1M856 592l2 0M858 593l0 -1M858 593l2 0"/>
<path stroke="blue" d="M860 593l1 1 2 0 1 1 6 0M870 596l0 -1M870 596l1 0 0 -1 6 0 1 -1 2 0 1 -1 2 0 0 -1 2 0 0 -1 1 0 0 -1 2 0 0 -1 1 0 1 -1 1 0 0 -1 1 0 0 -1 1 0 0 -1 1 0 1 -1 1 0 0 -1 1 0 0 -1 1 0 0 -1 1 0 0 -1 1 0 0 -1 1 0 0 -1 1 0 0 -1 1 0"/>
<path stroke="blue" d="M903 577l0 -1 1 0 0 -1 1 0 0 -1 1 0 0 -1 1 0 0 -1 1 0 0 -1 1 0 0 -1 1 -1 1 0 0 -1 1 -1 0 -1 1 0 0 -1 1 0 0 -1 1 0 0 -1 1 0 0 -1 1 0 0 -1 1 0 0 -1 1 0 0 -1 2 -2 0 -1 1 0 0 -1 1 0 0 -1 1 0 0 -1 1 0 0 -1 1 0 0 -1 1 0 0 -1"/>
<path stroke="blue" d="M927 550l1 0 0 -1 1 0 0 -1 1 0 0 -1 1 0 0 -1 1 0 1 -1 1 0 0 -1 1 0 0 -1 1 0 0 -1 1 0 0 -1 2 0 0 -1 1 0 0 -1 2 0 0 -1 2 0 0 -1 1 0 1 -1 2 0 0 -1 3 0 0 -1 4 0"/>
<path stroke="#FFA500" d="M85 561l8 0M93 562l0 -1M93 562l3 0M96 563l0 -1M96 563l2 0M98 564l0 -1M98 564l2 0M100 565l0 -1M100 565l2 0M102 566l0 -1M102 566l1 0M103 567l0 -1M103 567l2 0M105 568l0 -1M105 568l1 0M106 569l0 -1M106 569l1 0M107 570l0 -1"/>
<path stroke="#FFA500" d="M107 570l2 0M109 571l0 -1M109 571l1 0M110 572l0 -1M110 572l1 0M111 573l0 -1M111 573l1 0M112 574l0 -1M112 574l1 0M113 575l0 -1M113 575l1 0M114 576l0 -1M114 576l1 0M115 577l0 -1M115 577l1 0M116 578l0 -1M116 578l1 0M117 579l0 -1"/>
<path stroke="#FFA500" d="M117 579l1 1M118 581l0 -1M118 581l1 0 1 1M120 583l0 -1M120 583l1 0M121 584l0 -1M121 584l1 0M122 585l0 -1M122 585l1 0M123 586l0 -1M123 586l1 0M124 587l0 -1M124 587l1 1M125 589l0 -1M125 589l1 0M126 590l0 -1M126 590l1 0"/>
<path stroke="#FFA500" d="M127 591l0 -1M127 591l1 0M128 592l0 -1M128 592l1 1M129 594l0 -1M129 594l1 0M130 595l0 -1M130 595l1 0M131 596l0 -1M131 596l1 0M132 598l0 -2M132 598l1 0M133 599l0 -1M133 599l1 0M134 600l0 -1M134 600l1 0M135 601l0 -1M135 601l1 0"/>
<path stroke="#FFA500" d="M136 603l0 -2M136 603l1 0M137 604l0 -1M137 604l1 0M138 605l0 -1M138 605l1 0M139 606l0 -1M139 606l1 0M140 607l0 -1M140 607l1 1M141 609l0 -1M141 609l1 0M142 610l0 -1M142 610l1 0M143 611l0 -1M143 611l1 0M144 612l0 -1M144 612l1 0"/>
<path stroke="#FFA500" d="M145 613l0 -1M145 613l1 0M146 614l0 -1M146 614l1 0M147 615l0 -1M147 615l1 0M148 616l0 -1M148 616l1 0M149 617l0 -1M149 617l1 0M150 618l0 -1M150 618l1 0M151 619l0 -1M151 619l1 0M152 620l0 -1M152 620l1 0M153 621l0 -1M153 621l1 0"/>
<path stroke="#FFA500" d="M154 622l0 -1M154 622l1 0M155 623l0 -1M155 623l1 0 1 1 1 0M158 625l0 -1M158 625l1 0 1 1 1 0M161 627l0 -1M161 627l2 0M163 628l0 -1M163 628l2 0M165 629l0 -1M165 629l3 0M168 630l0 -1M168 630l13 0 0 -1 3 0 0 -1 2 0 0 -1"/>
<path stroke="#FFA500" d="M186 627l2 0 0 -1 2 0 0 -1 1 0 0 -1 1 0 1 -1 1 0 0 -1 1 0 0 -1 1 0 0 -1 1 0 0 -1 1 0 0 -1 1 0 3 -3 0 -1 1 0 1 -1 0 -1 1 0 0 -1 1 0 0 -1 1 0 0 -1 1 0 0 -1 1 0 0 -1 1 0 0 -1 1 0 0 -2 1 0 0 -1 1 0 0 -1 1 0 0 -1 1 0 0 -1"/>
<path stroke="#FFA500" d="M215 600l1 -1 0 -1 1 0 0 -1 1 0 0 -1 1 0 0 -1 1 0 0 -2 1 0 0 -1 1 0 0 -1 1 0 0 -1 1 0 0 -1 1 -1 0 -1 1 0 0 -1 1 0 0 -1 1 0 0 -1 1 0 0 -1 1 0 0 -1 1 0 0 -1 2 -2 0 -1 1 0 1 -1 0 -1 1 0 0 -1 1 0 0 -1 1 0 1 -1 1 0 0 -1 1 0"/>
<path stroke="#FFA500" d="M241 572l0 -1 1 0 0 -1 1 0 0 -1 2 0 0 -1 1 0 0 -1 2 0 0 -1 1 0 1 -1 2 0 0 -1 2 0 1 -1 4 0 0 -1 5 0M264 563l0 -1M264 563l4 0 1 1 2 0M271 565l0 -1M271 565l2 0M273 566l0 -1M273 566l2 0M275 567l0 -1M275 567l2 0M277 568l0 -1"/>
<path stroke="#FFA500" d="M277 568l1 0M278 569l0 -1M278 569l1 0 1 1 1 0M281 571l0 -1M281 571l1 0M282 572l0 -1M282 572l1 0M283 573l0 -1M283 573l1 0M284 574l0 -1M284 574l1 0M285 575l0 -1M285 575l1 0 1 1M287 577l0 -1M287 577l1 0M288 578l0 -1M288 578l1 0"/>
<path stroke="#FFA500" d="M289 579l0 -1M289 579l1 0M290 580l0 -1M290 580l1 0M291 581l0 -1M291 581l1 0M292 582l0 -1M292 582l1 0M293 583l0 -1M293 583l1 0M294 584l0 -1M294 584l1 0M295 585l0 -1M295 585l1 1M296 587l0 -1M296 587l1 0M297 588l0 -1M297 588l1 0"/>
<path stroke="#FFA500" d="M298 589l0 -1M298 589l1 0M299 590l0 -1M299 590l1 0M300 592l0 -2M300 592l1 0M301 593l0 -1M301 593l1 0M302 594l0 -1M302 594l1 0M303 595l0 -1M303 595l1 0M304 597l0 -2M304 597l1 0M305 598l0 -1M305 598l1 0M306 599l0 -1M306 599l1 0"/>
<path stroke="#FFA500" d="M307 600l0 -1M307 600l1 0M308 602l0 -2M308 602l1 0M309 603l0 -1M309 603l1 0M310 604l0 -1M310 604l1 0M311 605l0 -1M311 605l1 0M312 606l0 -1M312 606l1 1M313 608l0 -1M313 608l1 0M314 609l0 -1M314 609l1 0M315 610l0 -1M315 610l1 0"/>
<path stroke="#FFA500" d="M316 611l0 -1M316 611l1 0M317 612l0 -1M317 612l1 0M318 613l0 -1M318 613l1 1M319 615l0 -1M319 615l1 0M320 616l0 -1M320 616l1 0M321 617l0 -1M321 617l1 0M322 618l0 -1M322 618l1 0M323 619l0 -1M323 619l1 0M324 620l0 -1M324 620l1 0"/>
<path stroke="#FFA500" d="M325 621l0 -1M325 621l1 0 2 2 1 0M329 624l0 -1M329 624l1 0M330 625l0 -1M330 625l1 0M331 626l0 -1M331 626l2 0M333 627l0 -1M333 627l1 0M334 628l0 -1M334 628l2 0M336 629l0 -1M336 629l2 0M338 630l0 -1M338 630l2 0 1 1 3 0"/>
<path stroke="#FFA500" d="M344 632l0 -1M344 632l9 0 0 -1 3 0 0 -1 3 0 0 -1 2 0 0 -1 2 0 0 -1 1 0 0 -1 2 0 0 -1 1 0 0 -1 1 0 0 -1 2 0 0 -1 1 0 0 -1 1 0 0 -1 1 0 0 -1 1 0 0 -1 1 0 0 -1 1 0 0 -1 1 0 0 -1 1 0 0 -1 1 0 0 -1 1 0 0 -1 1 0 0 -1 1 -1"/>
<path stroke="#FFA500" d="M382 610l0 -1 1 0 0 -1 1 0 0 -1 1 0 0 -1 1 0 0 -1 1 -1 0 -1 1 0 0 -1 1 0 0 -1 1 0 0 -1 1 0 0 -1 1 -1 0 -1 1 0 0 -1 1 0 0 -1 1 0 0 -1 2 -2 0 -1 1 0 0 -1 1 0 0 -1 1 0 0 -1 1 0 0 -1 1 -1 0 -1 1 0 0 -1 1 0 0 -1 1 0 0 -1"/>
<path stroke="#FFA500" d="M405 582l1 0 0 -1 1 0 0 -1 1 0 0 -1 1 0 0 -1 1 0 0 -1 1 0 0 -1 1 0 0 -1 1 0 0 -1 1 0 0 -1 1 0 0 -1 2 0 0 -1 1 0 0 -1 1 0 0 -1 2 0 0 -1 1 0 1 -1 1 0 1 -1 2 0 0 -1 3 0 0 -1 11 0M441 565l0 -1M441 565l3 0M444 566l0 -1M444 566l2 0"/>
<path stroke="#FFA500" d="M446 566l1 1 1 0 1 1 1 0M450 569l0 -1M450 569l1 0 1 1 1 0M453 571l0 -1M453 571l1 0M454 572l0 -1M454 572l1 0 1 1 1 0M457 574l0 -1M457 574l1 0M458 575l0 -1M458 575l1 0M459 576l0 -1M459 576l1 0M460 577l0 -1M460 577l1 0"/>
<path stroke="#FFA500" d="M461 578l0 -1M461 578l1 0M462 579l0 -1M462 579l1 0M463 580l0 -1M463 580l1 0M464 581l0 -1M464 581l1 0M465 582l0 -1M465 582l1 0M466 583l0 -1M466 583l2 2M468 586l0 -1M468 586l1 0M469 587l0 -1M469 587l1 0M470 588l0 -1M470 588l1 0"/>
<path stroke="#FFA500" d="M471 589l0 -1M471 589l1 0M472 590l0 -1M472 590l1 1M473 592l0 -1M473 592l1 0M474 593l0 -1M474 593l1 0M475 594l0 -1M475 594l1 0M476 595l0 -1M476 595l1 1M477 597l0 -1M477 597l1 0M478 598l0 -1M478 598l1 0M479 599l0 -1M479 599l1 0"/>
<path stroke="#FFA500" d="M480 600l0 -1M480 600l1 1M481 602l0 -1M481 602l1 0M482 603l0 -1M482 603l1 0M483 604l0 -1M483 604l1 0M484 605l0 -1M484 605l1 1M485 607l0 -1M485 607l1 0M486 608l0 -1M486 608l1 0M487 609l0 -1M487 609l1 0M488 610l0 -1M488 610l1 0"/>
<path stroke="#FFA500" d="M489 611l0 -1M489 611l1 1M490 613l0 -1M490 613l1 0M491 614l0 -1M491 614l1 0M492 615l0 -1M492 615l1 0M493 616l0 -1M493 616l1 0M494 617l0 -1M494 617l1 0M495 618l0 -1M495 618l1 0M496 619l0 -1M496 619l1 0M497 620l0 -1M497 620l1 0"/>
<path stroke="#FFA500" d="M498 621l0 -1M498 621l1 0M499 622l0 -1M499 622l1 0M500 623l0 -1M500 623l1 0M501 624l0 -1M501 624l1 0M502 625l0 -1M502 625l1 0 1 1 1 0M505 627l0 -1M505 627l1 0M506 628l0 -1M506 628l2 0M508 629l0 -1M508 629l1 0M509 630l0 -1"/>
<path stroke="#FFA500" d="M509 630l2 0M511 631l0 -1M511 631l2 0M513 632l0 -1M513 632l3 0M516 633l0 -1M516 633l13 0 0 -1 3 0 0 -1 2 0 0 -1 2 0 0 -1 1 0 0 -1 2 0 0 -1 1 0 0 -1 2 0 0 -1 1 0 0 -1 1 0 0 -1 1 0 0 -1 1 0 0 -1 1 0 0 -1 1 0 0 -1 1 0 0 -1"/>
<path stroke="#FFA500" d="M549 618l1 0 0 -1 1 0 0 -1 1 0 0 -1 1 0 0 -1 1 0 0 -1 1 0 0 -1 1 0 0 -1 1 0 0 -1 2 -2 0 -1 1 0 0 -1 1 0 0 -1 1 0 0 -1 1 0 0 -1 1 -1 0 -1 1 0 0 -1 1 0 0 -1 1 0 0 -1 1 -1 0 -1 1 0 0 -1 1 0 0 -1 1 0 0 -1 1 0 0 -1 1 -1 0 -1"/>
<path stroke="#FFA500" d="M573 590l1 0 0 -1 1 0 0 -1 1 0 0 -1 1 0 0 -1 3 -3 0 -1 1 0 0 -1 1 0 0 -1 1 0 0 -1 1 0 0 -1 1 0 0 -1 1 0 2 -2 1 0 0 -1 1 0 0 -1 1 0 0 -1 1 0 1 -1 1 0 0 -1 1 0 1 -1 1 0 0 -1 2 0 0 -1 3 0 0 -1 4 0 0 -1 7 0M613 566l0 -1"/>
<path stroke="#FFA500" d="M613 566l4 0M617 567l0 -1M617 567l3 0M620 568l0 -1M620 568l1 0 1 1 1 0M623 570l0 -1M623 570l2 0M625 571l0 -1M625 571l1 0 1 1 1 0M628 573l0 -1M628 573l1 0M629 574l0 -1M629 574l1 0M630 575l0 -1M630 575l1 0M631 576l0 -1"/>
<path stroke="#FFA500" d="M631 576l1 0 2 2 1 0M635 579l0 -1M635 579l2 2M637 582l0 -1M637 582l1 0 1 1M639 584l0 -1M639 584l1 0M640 585l0 -1M640 585l1 0M641 586l0 -1M641 586l1 0M642 587l0 -1M642 587l1 0M643 588l0 -1M643 588l1 0M644 589l0 -1M644 589l1 1"/>
<path stroke="#FFA500" d="M645 591l0 -1M645 591l1 0M646 592l0 -1M646 592l1 0M647 593l0 -1M647 593l1 0M648 594l0 -1M648 594l2 2M650 597l0 -1M650 597l1 0M651 598l0 -1M651 598l1 0M652 599l0 -1M652 599l2 2M654 602l0 -1M654 602l1 0M655 603l0 -1M655 603l1 0"/>
<path stroke="#FFA500" d="M656 604l0 -1M656 604l2 2M658 607l0 -1M658 607l1 0M659 608l0 -1M659 608l1 0M660 609l0 -1M660 609l2 2M662 612l0 -1M662 612l1 0M663 613l0 -1M663 613l1 0M664 614l0 -1M664 614l1 0M665 615l0 -1M665 615l1 0M666 616l0 -1M666 616l1 0"/>
<path stroke="#FFA500" d="M667 617l0 -1M667 617l1 1M668 619l0 -1M668 619l1 0 1 1M670 621l0 -1M670 621l1 0M671 622l0 -1M671 622l1 0M672 623l0 -1M672 623l1 0 2 2 1 0M676 626l0 -1M676 626l1 0M677 627l0 -1M677 627l1 0M678 628l0 -1M678 628l1 0 1 1"/>
<path stroke="#FFA500" d="M680 629l1 0M681 630l0 -1M681 630l1 0 1 1 1 0M684 632l0 -1M684 632l2 0M686 633l0 -1M686 633l3 0M689 634l0 -1M689 634l4 0M693 635l0 -1M693 635l7 0 0 -1 4 0 0 -1 3 0 0 -1 2 0 0 -1 1 0 1 -1 1 0 0 -1 1 0 1 -1 1 0 0 -1 1 0"/>
<path stroke="#FFA500" d="M716 627l0 -1 1 0 2 -2 1 0 0 -1 1 0 0 -1 1 0 0 -1 1 0 0 -1 1 0 0 -1 1 0 0 -1 1 0 0 -1 1 0 0 -1 2 -2 0 -1 1 0 0 -1 1 0 0 -1 1 0 0 -1 1 0 0 -1 1 0 0 -1 1 -1 0 -1 1 0 0 -1 1 0 0 -1 1 0 0 -1 1 -1 0 -1 1 0 0 -1 1 0 0 -1 1 0"/>
<path stroke="#FFA500" d="M742 599l0 -1 1 0 0 -1 1 -1 0 -1 1 0 0 -1 1 0 0 -1 1 0 0 -1 2 -2 0 -1 1 0 0 -1 1 0 0 -1 1 0 0 -1 1 0 0 -1 1 0 0 -1 1 0 0 -1 1 0 0 -1 1 0 0 -1 1 0 0 -1 1 0 0 -1 1 0 0 -1 1 0 0 -1 1 0 0 -1 1 0 0 -1 1 0 1 -1 1 0 0 -1 1 0"/>
<path stroke="#FFA500" d="M767 573l0 -1 2 0 0 -1 1 0 0 -1 2 0 0 -1 2 0 0 -1 3 0 0 -1 13 0M790 568l0 -1M790 568l3 0M793 569l0 -1M793 569l2 0M795 570l0 -1M795 570l2 0M797 571l0 -1M797 571l1 0M798 572l0 -1M798 572l2 0M800 573l0 -1M800 573l1 0M801 574l0 -1"/>
<path stroke="#FFA500" d="M801 574l1 0 1 1 1 0M804 576l0 -1M804 576l1 0M805 577l0 -1M805 577l1 0M806 578l0 -1M806 578l1 0M807 579l0 -1M807 579l1 0M808 580l0 -1M808 580l1 0M809 581l0 -1M809 581l1 0M810 582l0 -1M810 582l1 0M811 583l0 -1M811 583l1 0"/>
<path stroke="#FFA500" d="M812 584l0 -1M812 584l1 0M813 585l0 -1M813 585l1 0M814 586l0 -1M814 586l1 0M815 587l0 -1M815 587l1 0M816 588l0 -1M816 588l1 1M817 590l0 -1M817 590l1 0M818 591l0 -1M818 591l1 0M819 592l0 -1M819 592l1 0M820 593l0 -1M820 593l1 0"/>
<path stroke="#FFA500" d="M821 595l0 -2M821 595l1 0M822 596l0 -1M822 596l1 0M823 597l0 -1M823 597l1 0M824 598l0 -1M824 598l1 0M825 599l0 -1M825 599l1 1M826 601l0 -1M826 601l1 0M827 602l0 -1M827 602l1 0M828 603l0 -1M828 603l1 0M829 605l0 -2M829 605l1 0"/>
<path stroke="#FFA500" d="M830 606l0 -1M830 606l1 0M831 607l0 -1M831 607l1 0M832 608l0 -1M832 608l1 0M833 610l0 -2M833 610l1 0M834 611l0 -1M834 611l1 0M835 612l0 -1M835 612l1 0M836 613l0 -1M836 613l1 0M837 614l0 -1M837 614l1 1M838 616l0 -1M838 616l1 0"/>
<path stroke="#FFA500" d="M839 617l0 -1M839 617l1 0M840 618l0 -1M840 618l1 0M841 619l0 -1M841 619l1 0M842 620l0 -1M842 620l1 0M843 621l0 -1M843 621l1 0M844 622l0 -1M844 622l1 0M845 623l0 -1M845 623l1 0M846 624l0 -1M846 624l1 0M847 625l0 -1M847 625l1 0"/>
<path stroke="#FFA500" d="M848 626l0 -1M848 626l1 0M849 627l0 -1M849 627l1 0M850 628l0 -1M850 628l2 0M852 629l0 -1M852 629l1 0M853 630l0 -1M853 630l1 0M854 631l0 -1M854 631l2 0M856 632l0 -1M856 632l1 0 1 1 1 0 1 1 2 0M862 635l0 -1M862 635l3 0"/>
<path stroke="#FFA500" d="M865 636l0 -1M865 636l11 0 0 -1 3 0 0 -1 2 0 1 -1 1 0 1 -1 1 0 0 -1 2 0 0 -1 1 0 0 -1 1 0 1 -1 1 0 0 -1 1 0 0 -1 1 0 0 -1 1 0 0 -1 1 0 0 -1 1 0 0 -1 1 0 0 -1 1 0 0 -1 1 0 0 -1 1 0 0 -1 1 0 0 -1 1 0 0 -1 1 0 0 -1 1 0"/>
<path stroke="#FFA500" d="M904 615l0 -1 1 -1 0 -1 1 0 0 -1 1 0 0 -1 1 0 0 -1 1 0 0 -1 1 0 0 -1 1 -1 0 -1 1 0 0 -1 1 0 0 -1 1 0 0 -1 1 0 0 -2 1 0 0 -1 1 0 0 -1 1 0 0 -1 1 0 0 -1 1 -1 0 -1 1 0 0 -1 1 0 0 -1 1 0 0 -1 1 0 0 -1 3 -3 0 -1 1 0 0 -1"/>
<path stroke="#FFA500" d="M928 585l1 0 0 -1 1 0 0 -1 1 0 0 -1 1 0 0 -1 1 0 0 -1 1 0 0 -1 1 0 0 -1 1 0 1 -1 1 0 0 -1 1 0 0 -1 1 0 0 -1 2 0 0 -1 1 0 0 -1 2 0 0 -1 2 0 0 -1 2 0 1 -1 3 0 0 -1 2 0"/>
<path stroke="green" d="M85 524l8 0M93 525l0 -1M93 525l3 0M96 526l0 -1M96 526l2 0M98 527l0 -1M98 527l2 0M100 528l0 -1M100 528l1 0 1 1 1 0M103 530l0 -1M103 530l1 0M104 531l0 -1M104 531l1 0 1 1 1 0M107 533l0 -1M107 533l1 0M108 534l0 -1M108 534l1 0"/>
<path stroke="green" d="M109 535l0 -1M109 535l1 0M110 536l0 -1M110 536l1 0M111 537l0 -1M111 537l1 0M112 538l0 -1M112 538l1 0M113 539l0 -1M113 539l1 0M114 540l0 -1M114 540l1 0M115 541l0 -1M115 541l2 2M117 544l0 -1M117 544l1 0M118 545l0 -1M118 545l1 0"/>
<path stroke="green" d="M119 546l0 -1M119 546l1 0M120 547l0 -1M120 547l1 1M121 549l0 -1M121 549l1 0M122 550l0 -1M122 550l1 0M123 551l0 -1M123 551l1 0M124 552l0 -1M124 552l1 1M125 554l0 -1M125 554l1 0M126 555l0 -1M126 555l2 2M128 558l0 -1M128 558l1 0"/>
<path stroke="green" d="M129 559l0 -1M129 559l1 1M130 561l0 -1M130 561l1 0M131 562l0 -1M131 562l1 0M132 563l0 -1M132 563l1 1M133 565l0 -1M133 565l1 0M134 566l0 -1M134 566l1 0M135 567l0 -1M135 567l1 1M136 569l0 -1M136 569l1 0M137 570l0 -1M137 570l1 0"/>
<path stroke="green" d="M138 571l0 -1M138 571l1 1M139 573l0 -1M139 573l1 0M140 574l0 -1M140 574l1 0M141 575l0 -1M141 575l1 0M142 577l0 -2M142 577l1 0M143 578l0 -1M143 578l1 0M144 579l0 -1M144 579l1 0M145 580l0 -1M145 580l1 0M146 581l0 -1M146 581l2 2"/>
<path stroke="green" d="M148 584l0 -1M148 584l1 0M149 585l0 -1M149 585l1 0M150 586l0 -1M150 586l1 0M151 587l0 -1M151 587l1 0M152 588l0 -1M152 588l1 0M153 589l0 -1M153 589l1 0M154 590l0 -1M154 590l1 0 1 1 1 0M157 592l0 -1M157 592l1 0M158 593l0 -1"/>
<path stroke="green" d="M158 593l1 0 1 1 1 0M161 595l0 -1M161 595l1 0 1 1 1 0 1 1 2 0M167 598l0 -1M167 598l3 0M170 599l0 -1M170 599l8 0 1 -1 3 0 0 -1 2 0 1 -1 1 0 0 -1 2 0 0 -1 2 0 0 -1 1 0 0 -1 1 0 0 -1 1 0 1 -1 1 0 0 -1 1 0 0 -1 1 0 0 -1 1 0"/>
<path stroke="green" d="M198 587l0 -1 1 0 0 -1 1 0 0 -1 1 0 0 -1 1 0 0 -1 2 -2 0 -1 1 0 0 -1 1 0 0 -1 1 0 0 -1 1 0 0 -1 1 -1 0 -1 1 0 0 -1 1 0 0 -1 1 0 0 -2 1 0 0 -1 1 0 0 -1 1 0 0 -1 1 -1 0 -1 1 0 0 -1 1 0 0 -1 1 -1 0 -1 1 0 0 -1 1 0 0 -2 1 0"/>
<path stroke="green" d="M222 557l0 -1 1 0 0 -1 1 0 0 -1 1 -1 0 -1 1 0 0 -1 1 0 0 -1 1 0 0 -1 1 -1 0 -1 1 0 0 -1 1 0 0 -1 1 0 0 -1 1 0 0 -1 2 -2 0 -1 1 0 0 -1 1 0 0 -1 1 0 0 -1 1 0 0 -1 1 0 0 -1 1 0 0 -1 2 0 0 -1 1 0 0 -1 1 0 0 -1 1 0 1 -1 1 0"/>
<path stroke="green" d="M248 530l0 -1 2 0 0 -1 2 0 0 -1 2 0 0 -1 4 0 0 -1 7 0M265 526l0 -1M265 526l4 0M269 527l0 -1M269 527l2 0M271 528l0 -1M271 528l2 0M273 529l0 -1M273 529l2 0M275 530l0 -1M275 530l1 0M276 531l0 -1M276 531l2 0M278 532l0 -1M278 532l1 0"/>
<path stroke="green" d="M279 533l0 -1M279 533l1 0M280 534l0 -1M280 534l1 0M281 535l0 -1M281 535l1 0 6 6M288 542l0 -1M288 542l1 0M289 543l0 -1M289 543l1 0M290 544l0 -1M290 544l1 0M291 545l0 -1M291 545l1 0M292 546l0 -1M292 546l2 2M294 549l0 -1"/>
<path stroke="green" d="M294 549l1 0M295 550l0 -1M295 550l1 0M296 551l0 -1M296 551l1 1M297 553l0 -1M297 553l1 0M298 554l0 -1M298 554l1 0M299 555l0 -1M299 555l1 1M300 557l0 -1M300 557l1 0M301 558l0 -1M301 558l1 0M302 559l0 -1M302 559l1 1M303 561l0 -1"/>
<path stroke="green" d="M303 561l1 0M304 562l0 -1M304 562l1 0M305 563l0 -1M305 563l1 1M306 565l0 -1M306 565l1 0M307 566l0 -1M307 566l1 0M308 568l0 -2M308 568l1 0M309 569l0 -1M309 569l1 0M310 570l0 -1M310 570l1 0M311 571l0 -1M311 571l1 1M312 573l0 -1"/>
<path stroke="green" d="M312 573l1 0M313 574l0 -1M313 574l1 0M314 575l0 -1M314 575l1 1M315 577l0 -1M315 577l1 0M316 578l0 -1M316 578l1 0M317 579l0 -1M317 579l1 0M318 580l0 -1M318 580l1 1M319 582l0 -1M319 582l1 0M320 583l0 -1M320 583l1 0M321 584l0 -1"/>
<path stroke="green" d="M321 584l1 0M322 585l0 -1M322 585l1 0M323 586l0 -1M323 586l1 0M324 587l0 -1M324 587l1 0M325 588l0 -1M325 588l1 0M326 589l0 -1M326 589l1 0M327 590l0 -1M327 590l1 0M328 591l0 -1M328 591l1 0M329 592l0 -1M329 592l1 0M330 593l0 -1"/>
<path stroke="green" d="M330 593l1 0 1 1 1 0M333 595l0 -1M333 595l1 0M334 596l0 -1M334 596l2 0M336 597l0 -1M336 597l2 0M338 598l0 -1M338 598l2 0M340 599l0 -1M340 599l3 0M343 600l0 -1M343 600l11 0 0 -1 3 0 0 -1 2 0 0 -1 2 0 0 -1 2 0 0 -1 1 0 0 -1"/>
<path stroke="green" d="M364 594l2 0 0 -1 1 0 0 -1 1 0 0 -1 1 0 0 -1 1 0 0 -1 1 0 0 -1 1 0 0 -1 1 0 0 -1 1 0 0 -1 1 0 0 -1 1 0 0 -1 1 0 0 -1 1 0 0 -1 1 0 0 -1 1 -1 0 -1 1 0 0 -1 1 0 0 -1 1 0 0 -1 2 -2 0 -1 1 0 0 -1 1 0 0 -2 1 0 0 -1 1 0 0 -1"/>
<path stroke="green" d="M389 567l1 0 0 -1 1 -1 0 -1 1 0 0 -1 1 0 0 -1 1 -1 0 -1 1 0 0 -1 1 0 0 -1 1 -1 0 -1 1 0 0 -1 1 0 0 -1 2 -2 0 -1 1 0 0 -1 1 0 0 -1 2 -2 0 -1 1 0 0 -1 1 0 0 -1 1 0 0 -1 1 0 0 -1 1 0 0 -1 1 0 0 -1 1 -1 1 0 0 -1 1 0 0 -1 1 0"/>
<path stroke="green" d="M415 537l0 -1 1 0 0 -1 1 0 0 -1 1 0 0 -1 1 0 1 -1 1 0 0 -1 2 0 0 -1 1 0 1 -1 1 0 1 -1 2 0 0 -1 13 0M442 528l0 -1M442 528l2 0 1 1 1 0 1 1 1 0M448 531l0 -1M448 531l2 0M450 532l0 -1M450 532l1 0M451 533l0 -1M451 533l2 0M453 534l0 -1"/>
<path stroke="green" d="M453 534l1 0M454 535l0 -1M454 535l1 0M455 536l0 -1M455 536l1 0M456 537l0 -1M456 537l1 0M457 538l0 -1M457 538l1 0M458 539l0 -1M458 539l1 0M459 540l0 -1M459 540l1 0M460 541l0 -1M460 541l1 0M461 542l0 -1M461 542l1 0M462 543l0 -1"/>
<path stroke="green" d="M462 543l1 0M463 544l0 -1M463 544l1 0M464 545l0 -1M464 545l1 0M465 546l0 -1M465 546l1 1M466 548l0 -1M466 548l1 0M467 549l0 -1M467 549l1 0M468 550l0 -1M468 550l1 0M469 551l0 -1M469 551l1 1M470 553l0 -1M470 553l1 0M471 554l0 -1"/>
<path stroke="green" d="M471 554l1 0M472 555l0 -1M472 555l1 1M473 557l0 -1M473 557l1 0M474 558l0 -1M474 558l1 0M475 559l0 -1M475 559l1 1M476 561l0 -1M476 561l1 0M477 562l0 -1M477 562l1 0M478 564l0 -2M478 564l1 0M479 565l0 -1M479 565l1 0M480 566l0 -1"/>
<path stroke="green" d="M480 566l1 0M481 568l0 -2M481 568l1 0M482 569l0 -1M482 569l1 0M483 570l0 -1M483 570l1 0M484 572l0 -2M484 572l1 0M485 573l0 -1M485 573l1 0M486 574l0 -1M486 574l2 2M488 577l0 -1M488 577l1 0M489 578l0 -1M489 578l1 0M490 579l0 -1"/>
<path stroke="green" d="M490 579l2 2M492 582l0 -1M492 582l1 0M493 583l0 -1M493 583l1 0M494 584l0 -1M494 584l1 0M495 585l0 -1M495 585l1 0M496 586l0 -1M496 586l2 2M498 589l0 -1M498 589l1 0 4 4 1 0M504 594l0 -1M504 594l1 0M505 595l0 -1M505 595l1 0"/>
<path stroke="green" d="M506 596l0 -1M506 596l2 0M508 597l0 -1M508 597l1 0M509 598l0 -1M509 598l2 0M511 599l0 -1M511 599l2 0M513 600l0 -1M513 600l2 0M515 601l0 -1M515 601l4 0 1 1 5 0 1 -1 3 0 1 -1 2 0 0 -1 2 0 0 -1 2 0 0 -1 1 0 0 -1 2 0 0 -1"/>
<path stroke="green" d="M539 595l1 0 0 -1 1 0 0 -1 1 0 0 -1 2 0 0 -1 1 0 0 -1 1 0 0 -1 1 0 0 -1 1 0 0 -1 2 -2 0 -1 1 0 0 -1 1 0 0 -1 1 0 0 -1 1 0 0 -1 1 0 0 -1 1 -1 0 -1 1 0 0 -1 1 0 0 -1 1 0 0 -1 1 -1 0 -1 1 0 0 -1 1 0 0 -1 1 -1 0 -1 1 0 0 -1"/>
<path stroke="green" d="M564 567l1 0 0 -1 1 -1 0 -1 1 0 0 -1 1 0 0 -1 1 -1 0 -1 1 0 0 -1 1 0 0 -1 1 0 0 -2 1 0 0 -1 1 0 0 -1 1 0 0 -1 1 -1 0 -1 1 0 0 -1 1 0 0 -1 1 0 0 -1 1 0 0 -1 1 -1 0 -1 1 0 0 -1 1 0 0 -1 1 0 0 -1 1 0 0 -1 1 0 0 -1 1 0 0 -1"/>
<path stroke="green" d="M587 539l1 0 0 -1 1 0 0 -1 1 0 2 -2 1 0 0 -1 1 0 0 -1 2 0 0 -1 1 0 0 -1 2 0 0 -1 2 0 1 -1 3 0 0 -1 9 0M614 529l0 -1M614 529l3 0M617 530l0 -1M617 530l3 0M620 531l0 -1M620 531l1 0 1 1 1 0M623 533l0 -1M623 533l2 0M625 534l0 -1"/>
<path stroke="green" d="M625 534l1 0M626 535l0 -1M626 535l1 0M627 536l0 -1M627 536l1 0 2 2 1 0M631 539l0 -1M631 539l1 0M632 540l0 -1M632 540l1 0M633 541l0 -1M633 541l1 0M634 542l0 -1M634 542l1 0M635 543l0 -1M635 543l1 0M636 544l0 -1M636 544l1 1"/>
<path stroke="green" d="M637 546l0 -1M637 546l1 0M638 547l0 -1M638 547l1 0M639 548l0 -1M639 548l1 0M640 549l0 -1M640 549l1 0M641 550l0 -1M641 550l1 0M642 552l0 -2M642 552l1 0M643 553l0 -1M643 553l1 0M644 554l0 -1M644 554l1 0M645 555l0 -1M645 555l1 1"/>
<path stroke="green" d="M646 557l0 -1M646 557l1 0M647 558l0 -1M647 558l1 0M648 560l0 -2M648 560l1 0M649 561l0 -1M649 561l1 0M650 562l0 -1M650 562l1 0M651 564l0 -2M651 564l1 0M652 565l0 -1M652 565l1 0M653 566l0 -1M653 566l1 0M654 568l0 -2M654 568l1 0"/>
<path stroke="green" d="M655 569l0 -1M655 569l1 0M656 570l0 -1M656 570l1 1M657 572l0 -1M657 572l1 0M658 573l0 -1M658 573l1 0M659 574l0 -1M659 574l1 1M660 576l0 -1M660 576l1 0M661 577l0 -1M661 577l1 0M662 578l0 -1M662 578l1 0M663 579l0 -1M663 579l1 1"/>
<path stroke="green" d="M664 581l0 -1M664 581l1 0M665 582l0 -1M665 582l1 0M666 583l0 -1M666 583l1 0M667 584l0 -1M667 584l1 1M668 586l0 -1M668 586l1 0M669 587l0 -1M669 587l1 0M670 588l0 -1M670 588l1 0M671 589l0 -1M671 589l1 0M672 590l0 -1M672 590l1 0"/>
<path stroke="green" d="M673 591l0 -1M673 591l1 0M674 592l0 -1M674 592l1 0M675 593l0 -1M675 593l1 0M676 594l0 -1M676 594l1 0M677 595l0 -1M677 595l1 0 1 1 1 0M680 597l0 -1M680 597l1 0M681 598l0 -1M681 598l1 0 1 1 1 0M684 600l0 -1M684 600l2 0M686 601l0 -1"/>
<path stroke="green" d="M686 601l2 0M688 602l0 -1M688 602l3 0M691 603l0 -1M691 603l11 0 0 -1 3 0 0 -1 2 0 0 -1 2 0 0 -1 1 0 1 -1 1 0 0 -1 1 0 0 -1 2 0 0 -1 1 0 0 -1 1 0 0 -1 1 0 0 -1 1 0 0 -1 1 0 0 -1 1 0 0 -1 1 0 0 -1 1 0 0 -1 1 0 0 -1 1 0 0 -1"/>
<path stroke="green" d="M725 585l1 0 0 -1 1 -1 0 -1 1 0 0 -1 1 0 0 -1 1 0 0 -1 1 0 0 -2 1 0 0 -1 1 0 0 -1 1 0 0 -1 1 -1 0 -1 1 0 0 -1 1 0 0 -1 1 0 0 -2 1 0 0 -1 1 0 0 -1 1 0 0 -2 1 0 0 -1 1 0 0 -1 2 -2 0 -1 1 0 0 -1 1 0 0 -2 1 0 0 -1 1 0 0 -1"/>
<path stroke="green" d="M749 554l1 0 0 -1 1 0 0 -2 1 0 0 -1 1 0 0 -1 1 0 0 -1 1 0 0 -1 1 0 0 -1 1 0 0 -1 2 -2 0 -1 1 0 3 -3 1 0 0 -1 1 0 0 -1 1 0 0 -1 1 0 0 -1 2 0 0 -1 1 0 0 -1 2 0 0 -1 2 0 0 -1 3 0 0 -1 4 0 1 -1 3 0 1 1 4 0M790 531l0 -1M790 531l3 0"/>
<path stroke="green" d="M793 532l0 -1M793 532l2 0M795 533l0 -1M795 533l2 0M797 534l0 -1M797 534l1 0M798 535l0 -1M798 535l1 0 1 1 1 0M801 537l0 -1M801 537l1 0M802 538l0 -1M802 538l1 0M803 539l0 -1M803 539l1 0M804 540l0 -1M804 540l1 0M805 541l0 -1"/>
<path stroke="green" d="M805 541l1 0M806 542l0 -1M806 542l1 0M807 543l0 -1M807 543l1 0M808 544l0 -1M808 544l1 0M809 545l0 -1M809 545l1 0M810 546l0 -1M810 546l1 0M811 547l0 -1M811 547l1 0M812 548l0 -1M812 548l1 0M813 549l0 -1M813 549l1 1M814 551l0 -1"/>
<path stroke="green" d="M814 551l1 0M815 552l0 -1M815 552l1 0M816 553l0 -1M816 553l1 0M817 554l0 -1M817 554l1 0M818 556l0 -2M818 556l1 0M819 557l0 -1M819 557l1 0M820 558l0 -1M820 558l1 0M821 560l0 -2M821 560l1 0M822 561l0 -1M822 561l1 0M823 562l0 -1"/>
<path stroke="green" d="M823 562l1 0M824 563l0 -1M824 563l1 1M825 565l0 -1M825 565l1 0M826 566l0 -1M826 566l1 1M827 568l0 -1M827 568l1 0M828 569l0 -1M828 569l1 0M829 570l0 -1M829 570l1 1M830 572l0 -1M830 572l1 0M831 573l0 -1M831 573l1 0M832 574l0 -1"/>
<path stroke="green" d="M832 574l1 1M833 576l0 -1M833 576l1 0M834 577l0 -1M834 577l1 0M835 578l0 -1M835 578l1 0M836 580l0 -2M836 580l1 0M837 581l0 -1M837 581l1 0M838 582l0 -1M838 582l1 0M839 583l0 -1M839 583l1 0M840 585l0 -2M840 585l1 0M841 586l0 -1"/>
<path stroke="green" d="M841 586l1 0M842 587l0 -1M842 587l1 0M843 588l0 -1M843 588l1 0M844 589l0 -1M844 589l1 0M845 590l0 -1M845 590l1 0M846 591l0 -1M846 591l1 1 1 0M848 593l0 -1M848 593l1 0M849 594l0 -1M849 594l1 0M850 595l0 -1M850 595l1 0M851 596l0 -1"/>
<path stroke="green" d="M851 596l1 0M852 597l0 -1M852 597l1 0M853 598l0 -1M853 598l1 0M854 599l0 -1M854 599l2 0M856 600l0 -1M856 600l1 0 1 1 1 0M859 602l0 -1M859 602l2 0M861 603l0 -1M861 603l3 0M864 604l0 -1M864 604l5 0M869 605l0 -1M869 605l3 0"/>
<path stroke="green" d="M872 605l0 -1 5 0 0 -1 3 0 0 -1 2 0 0 -1 1 0 1 -1 1 0 0 -1 1 0 1 -1 1 0 0 -1 1 0 0 -1 1 0 0 -1 1 0 3 -3 0 -1 1 0 1 -1 0 -1 1 0 0 -1 1 0 0 -1 1 0 0 -1 1 0 0 -1 1 0 0 -1 1 0 0 -1 1 0 0 -2 1 0 0 -1 1 0 0 -1 1 0 0 -1 1 0 0 -2"/>
<path stroke="green" d="M907 576l1 0 0 -1 1 0 0 -1 2 -2 0 -1 1 0 0 -1 1 0 0 -2 1 0 0 -1 1 0 0 -1 1 0 0 -2 1 0 0 -1 1 0 0 -1 1 0 0 -1 1 -1 0 -1 1 0 0 -1 1 0 0 -1 1 0 0 -2 1 0 0 -1 1 0 0 -1 1 0 0 -1 1 0 0 -1 1 -1 0 -1 1 0 0 -1 1 0 0 -1 1 0 0 -1"/>
<path stroke="green" d="M931 546l1 0 0 -1 1 0 0 -1 1 0 0 -1 1 0 0 -1 1 0 0 -1 1 0 0 -1 1 0 0 -1 1 0 0 -1 1 0 1 -1 1 0 0 -1 1 0 1 -1 1 0 0 -1 2 0 0 -1 2 0 0 -1 3 0 0 -1 3 0"/>
<path stroke="#FFC0C5" d="M85 397l2 0M87 398l0 -1M87 398l6 0 1 1 2 0M96 400l0 -1M96 400l2 0M98 401l0 -1M98 401l2 0M100 402l0 -1M100 402l1 0M101 403l0 -1M101 403l2 0M103 404l0 -1M103 404l1 0M104 405l0 -1M104 405l1 0M105 406l0 -1M105 406l1 0M106 407l0 -1"/>
<path stroke="#FFC0C5" d="M106 407l1 0M107 408l0 -1M107 408l1 0M108 409l0 -1M108 409l1 0M109 410l0 -1M109 410l1 0M110 411l0 -1M110 411l1 0M111 412l0 -1M111 412l1 0M112 413l0 -1M112 413l1 0M113 414l0 -1M113 414l1 0M114 415l0 -1M114 415l1 0M115 417l0 -2"/>
<path stroke="#FFC0C5" d="M115 417l1 0M116 418l0 -1M116 418l1 0M117 419l0 -1M117 419l1 0M118 420l0 -1M118 420l2 2M120 423l0 -1M120 423l1 0M121 424l0 -1M121 424l1 0M122 426l0 -2M122 426l1 0M123 427l0 -1M123 427l1 0M124 428l0 -1M124 428l1 1M125 430l0 -1"/>
<path stroke="#FFC0C5" d="M125 430l1 0M126 431l0 -1M126 431l1 1M127 433l0 -1M127 433l1 0M128 434l0 -1M128 434l1 0M129 436l0 -2M129 436l1 0M130 437l0 -1M130 437l1 0M131 438l0 -1M131 438l1 1M132 440l0 -1M132 440l1 0M133 441l0 -1M133 441l1 1M134 443l0 -1"/>
<path stroke="#FFC0C5" d="M134 443l1 0M135 444l0 -1M135 444l1 0M136 446l0 -2M136 446l1 0M137 447l0 -1M137 447l1 0M138 449l0 -2M138 449l1 0M139 450l0 -1M139 450l1 0M140 451l0 -1M140 451l1 1M141 453l0 -1M141 453l1 0M142 454l0 -1M142 454l1 0M143 455l0 -1"/>
<path stroke="#FFC0C5" d="M143 455l1 1M144 457l0 -1M144 457l1 0M145 458l0 -1M145 458l1 0M146 459l0 -1M146 459l1 0M147 460l0 -1M147 460l1 1M148 462l0 -1M148 462l1 0M149 463l0 -1M149 463l1 0M150 464l0 -1M150 464l1 0M151 465l0 -1M151 465l1 0M152 466l0 -1"/>
<path stroke="#FFC0C5" d="M152 466l1 0M153 467l0 -1M153 467l1 0M154 468l0 -1M154 468l1 0M155 469l0 -1M155 469l1 0M156 470l0 -1M156 470l1 0M157 471l0 -1M157 471l1 0M158 472l0 -1M158 472l2 0M160 473l0 -1M160 473l1 0M161 474l0 -1M161 474l2 0M163 475l0 -1"/>
<path stroke="#FFC0C5" d="M163 475l1 0 1 1 2 0M167 477l0 -1M167 477l3 0M170 478l0 -1M170 478l9 0 0 -1 3 0 0 -1 2 0 0 -1 2 0 0 -1 2 0 0 -1 1 0 0 -1 1 0 1 -1 1 0 0 -1 1 0 0 -1 1 0 0 -1 1 0 0 -1 1 0 0 -1 1 0 0 -1 1 0 0 -1 1 0 0 -1 1 0 0 -1 1 0 0 -1"/>
<path stroke="#FFC0C5" d="M201 461l1 -1 0 -1 1 0 0 -1 1 0 0 -1 1 0 0 -1 1 0 0 -1 1 -1 0 -1 1 0 0 -1 1 0 0 -2 1 0 0 -1 1 0 0 -1 1 0 0 -2 1 0 0 -1 1 0 0 -1 1 -1 0 -1 1 0 0 -1 1 0 0 -2 1 0 0 -1 1 0 0 -1 1 -1 0 -1 1 0 0 -1 1 -1 0 -1 1 0 0 -1 1 0"/>
<path stroke="#FFC0C5" d="M224 431l0 -2 1 0 0 -1 1 0 0 -1 1 0 0 -2 1 0 0 -1 1 0 0 -1 2 -2 0 -1 1 0 0 -1 1 0 0 -1 2 -2 0 -1 1 0 0 -1 1 0 0 -1 1 0 0 -1 1 0 0 -1 1 0 0 -1 1 0 0 -1 1 0 0 -1 1 0 0 -1 1 0 0 -1 1 0 0 -1 2 0 0 -1 1 0 0 -1 2 0 0 -1 2 0"/>
<path stroke="#FFC0C5" d="M252 402l0 -1 2 0 0 -1 3 0 0 -1 8 0 1 1 3 0M269 401l0 -1M269 401l2 0M271 402l0 -1M271 402l2 0M273 403l0 -1M273 403l2 0M275 404l0 -1M275 404l1 0M276 405l0 -1M276 405l1 0M277 406l0 -1M277 406l2 0M279 407l0 -1M279 407l1 0"/>
<path stroke="#FFC0C5" d="M280 408l0 -1M280 408l1 0M281 409l0 -1M281 409l1 0M282 410l0 -1M282 410l1 0M283 411l0 -1M283 411l1 0M284 412l0 -1M284 412l1 0M285 413l0 -1M285 413l1 0M286 414l0 -1M286 414l1 0M287 415l0 -1M287 415l1 1M288 417l0 -1M288 417l1 0"/>
<path stroke="#FFC0C5" d="M289 418l0 -1M289 418l1 0M290 419l0 -1M290 419l1 0M291 420l0 -1M291 420l1 1M292 422l0 -1M292 422l1 0M293 423l0 -1M293 423l1 0M294 424l0 -1M294 424l1 1M295 426l0 -1M295 426l1 0M296 427l0 -1M296 427l1 0M297 428l0 -1M297 428l1 1"/>
<path stroke="#FFC0C5" d="M298 430l0 -1M298 430l1 0M299 431l0 -1M299 431l1 1M300 433l0 -1M300 433l1 0M301 434l0 -1M301 434l1 0M302 436l0 -2M302 436l1 0M303 437l0 -1M303 437l1 0M304 439l0 -2M304 439l1 0M305 440l0 -1M305 440l1 0M306 441l0 -1M306 441l1 1"/>
<path stroke="#FFC0C5" d="M307 443l0 -1M307 443l1 0M308 444l0 -1M308 444l1 1M309 446l0 -1M309 446l1 0M310 447l0 -1M310 447l1 0M311 449l0 -2M311 449l1 0M312 450l0 -1M312 450l1 0M313 451l0 -1M313 451l1 1M314 453l0 -1M314 453l1 0M315 454l0 -1M315 454l1 0"/>
<path stroke="#FFC0C5" d="M316 456l0 -2M316 456l1 0M317 457l0 -1M317 457l1 0M318 458l0 -1M318 458l1 0M319 459l0 -1M319 459l1 1M320 461l0 -1M320 461l1 0M321 462l0 -1M321 462l1 0M322 463l0 -1M322 463l1 0M323 464l0 -1M323 464l1 0M324 465l0 -1M324 465l4 4"/>
<path stroke="#FFC0C5" d="M328 470l0 -1M328 470l2 0M330 471l0 -1M330 471l1 0M331 472l0 -1M331 472l1 0M332 473l0 -1M332 473l1 0M333 474l0 -1M333 474l1 0 1 1 1 0M336 476l0 -1M336 476l2 0M338 477l0 -1M338 477l2 0M340 478l0 -1M340 478l2 0M342 479l0 -1"/>
<path stroke="#FFC0C5" d="M342 479l13 0 0 -1 2 0 0 -1 2 0 0 -1 2 0 0 -1 1 0 1 -1 1 0 0 -1 1 0 0 -1 1 0 0 -1 1 0 2 -2 1 0 0 -1 2 -2 0 -1 1 0 1 -1 0 -1 1 0 0 -1 1 0 0 -1 1 0 0 -1 1 0 0 -1 1 -1 0 -1 1 0 0 -1 1 0 0 -1 1 -1 0 -1 1 0 0 -1 1 0 0 -1"/>
<path stroke="#FFC0C5" d="M384 451l1 -1 0 -1 1 0 0 -1 1 0 0 -2 1 0 0 -1 1 0 0 -1 1 -1 0 -1 1 0 0 -1 1 -1 0 -1 1 0 0 -1 1 0 0 -1 1 -1 0 -1 1 0 0 -1 1 0 0 -2 1 0 0 -1 1 0 0 -2 1 0 0 -1 1 0 0 -1 1 0 0 -2 1 0 0 -1 1 0 0 -1 1 0 0 -1 1 -1 0 -1 1 0"/>
<path stroke="#FFC0C5" d="M407 420l0 -1 1 0 0 -1 1 0 0 -1 1 0 0 -1 1 -1 0 -1 1 0 1 -1 0 -1 1 0 0 -1 1 0 0 -1 1 0 1 -1 1 0 0 -1 1 0 0 -1 1 0 0 -1 1 0 1 -1 1 0 0 -1 2 0 0 -1 2 0 0 -1 2 0 0 -1 6 0 0 -1 1 0M436 401l0 -1M436 401l6 0M442 402l0 -1M442 402l2 0"/>
<path stroke="#FFC0C5" d="M444 403l0 -1M444 403l2 0M446 404l0 -1M446 404l2 0M448 405l0 -1M448 405l1 0 1 1 1 0M451 407l0 -1M451 407l1 0M452 408l0 -1M452 408l1 0M453 409l0 -1M453 409l1 0M454 410l0 -1M454 410l1 0M455 411l0 -1M455 411l1 0 2 2M458 414l0 -1"/>
<path stroke="#FFC0C5" d="M458 414l1 0M459 415l0 -1M459 415l1 0M460 416l0 -1M460 416l1 0M461 417l0 -1M461 417l1 0M462 418l0 -1M462 418l1 0M463 419l0 -1M463 419l2 2M465 422l0 -1M465 422l1 0M466 423l0 -1M466 423l1 0M467 424l0 -1M467 424l1 1M468 426l0 -1"/>
<path stroke="#FFC0C5" d="M468 426l1 0M469 427l0 -1M469 427l1 0M470 429l0 -2M470 429l1 0M471 430l0 -1M471 430l1 0M472 431l0 -1M472 431l1 1M473 433l0 -1M473 433l1 0M474 434l0 -1M474 434l1 0M475 435l0 -1M475 435l1 1M476 437l0 -1M476 437l1 0M477 439l0 -2"/>
<path stroke="#FFC0C5" d="M477 439l1 0M478 440l0 -1M478 440l1 0M479 441l0 -1M479 441l1 1M480 443l0 -1M480 443l1 0M481 444l0 -1M481 444l1 1M482 446l0 -1M482 446l1 0M483 447l0 -1M483 447l1 0M484 449l0 -2M484 449l1 0M485 450l0 -1M485 450l1 0M486 452l0 -2"/>
<path stroke="#FFC0C5" d="M486 452l1 0M487 453l0 -1M487 453l1 0M488 454l0 -1M488 454l1 0M489 456l0 -2M489 456l1 0M490 457l0 -1M490 457l1 0M491 458l0 -1M491 458l1 0M492 460l0 -2M492 460l1 0M493 461l0 -1M493 461l1 0M494 462l0 -1M494 462l1 0M495 463l0 -1"/>
<path stroke="#FFC0C5" d="M495 463l1 0M496 464l0 -1M496 464l1 1M497 466l0 -1M497 466l1 0M498 467l0 -1M498 467l1 0M499 468l0 -1M499 468l1 0M500 469l0 -1M500 469l1 0M501 470l0 -1M501 470l1 0M502 471l0 -1M502 471l1 0M503 472l0 -1M503 472l1 0M504 473l0 -1"/>
<path stroke="#FFC0C5" d="M504 473l1 0M505 474l0 -1M505 474l1 0 1 1 1 0M508 476l0 -1M508 476l1 0M509 477l0 -1M509 477l2 0M511 478l0 -1M511 478l2 0M513 479l0 -1M513 479l2 0M515 480l0 -1M515 480l3 0M518 481l0 -1M518 481l8 0 0 -1 4 0 0 -1 2 0 0 -1"/>
<path stroke="#FFC0C5" d="M532 478l2 0 0 -1 2 0 0 -1 1 0 0 -1 1 0 0 -1 2 0 0 -1 1 0 0 -1 1 0 0 -1 1 0 0 -1 1 0 0 -1 1 0 0 -1 1 0 0 -1 1 0 0 -1 1 0 0 -1 1 0 0 -1 1 -1 0 -1 1 0 0 -1 1 0 0 -1 1 0 0 -1 2 -2 0 -1 1 0 0 -1 1 0 0 -2 1 0 0 -1 1 0 0 -1"/>
<path stroke="#FFC0C5" d="M559 451l1 -1 0 -1 1 0 0 -1 1 0 0 -1 1 -1 0 -1 1 0 0 -1 1 -1 0 -1 1 0 0 -1 1 0 0 -2 1 0 0 -1 1 0 0 -2 1 0 0 -1 1 0 0 -1 1 0 0 -2 1 0 0 -1 1 0 0 -1 1 -1 0 -1 1 0 0 -1 1 0 0 -1 1 -1 0 -1 1 0 0 -1 1 0 0 -1 1 0 0 -1 1 -1"/>
<path stroke="#FFC0C5" d="M582 420l0 -1 1 0 0 -1 1 0 0 -1 1 0 0 -1 1 0 0 -1 1 0 0 -1 1 0 0 -1 1 0 0 -1 1 0 0 -1 1 0 0 -1 1 0 0 -1 1 0 0 -1 2 0 0 -1 1 0 0 -1 2 0 0 -1 1 0 1 -1 2 0 0 -1 3 0 0 -1 9 0M614 403l0 -1M614 403l3 0M617 404l0 -1M617 404l2 0"/>
<path stroke="#FFC0C5" d="M619 404l1 1 1 0M621 406l0 -1M621 406l2 0M623 407l0 -1M623 407l1 0M624 408l0 -1M624 408l1 0 1 1 1 0M627 410l0 -1M627 410l1 0M628 411l0 -1M628 411l1 0M629 412l0 -1M629 412l1 0M630 413l0 -1M630 413l1 0M631 414l0 -1M631 414l1 0"/>
<path stroke="#FFC0C5" d="M632 415l0 -1M632 415l1 0M633 416l0 -1M633 416l1 0M634 417l0 -1M634 417l1 0M635 418l0 -1M635 418l1 1M636 420l0 -1M636 420l1 0M637 421l0 -1M637 421l1 0M638 422l0 -1M638 422l1 0M639 423l0 -1M639 423l1 0M640 425l0 -2M640 425l1 0"/>
<path stroke="#FFC0C5" d="M641 426l0 -1M641 426l1 0M642 427l0 -1M642 427l1 0M643 429l0 -2M643 429l1 0M644 430l0 -1M644 430l1 0M645 431l0 -1M645 431l1 0M646 433l0 -2M646 433l1 0M647 434l0 -1M647 434l1 0M648 436l0 -2M648 436l1 0M649 437l0 -1M649 437l1 0"/>
<path stroke="#FFC0C5" d="M650 438l0 -1M650 438l1 1M651 440l0 -1M651 440l1 0M652 441l0 -1M652 441l1 1M653 443l0 -1M653 443l1 0M654 444l0 -1M654 444l1 1M655 446l0 -1M655 446l1 0M656 447l0 -1M656 447l1 1M657 449l0 -1M657 449l1 0M658 450l0 -1M658 450l1 0"/>
<path stroke="#FFC0C5" d="M659 452l0 -2M659 452l1 0M660 453l0 -1M660 453l1 0M661 454l0 -1M661 454l1 0M662 456l0 -2M662 456l1 0M663 457l0 -1M663 457l1 0M664 458l0 -1M664 458l1 1M665 460l0 -1M665 460l1 0M666 461l0 -1M666 461l1 0M667 462l0 -1M667 462l1 1"/>
<path stroke="#FFC0C5" d="M668 464l0 -1M668 464l1 0M669 465l0 -1M669 465l1 0M670 466l0 -1M670 466l1 0M671 467l0 -1M671 467l1 0M672 468l0 -1M672 468l1 0M673 469l0 -1M673 469l1 0M674 470l0 -1M674 470l3 3 1 0M678 474l0 -1M678 474l1 0M679 475l0 -1"/>
<path stroke="#FFC0C5" d="M679 475l1 0M680 476l0 -1M680 476l1 0M681 477l0 -1M681 477l2 0M683 478l0 -1M683 478l1 0M684 479l0 -1M684 479l2 0M686 480l0 -1M686 480l2 0M688 481l0 -1M688 481l3 0M691 482l0 -1M691 482l11 0 0 -1 3 0 0 -1 2 0 0 -1 2 0"/>
<path stroke="#FFC0C5" d="M709 479l0 -1 1 0 0 -1 2 0 0 -1 1 0 0 -1 1 0 0 -1 1 0 0 -1 1 0 0 -1 1 0 2 -2 0 -1 1 0 0 -1 1 0 0 -1 1 0 0 -1 1 0 0 -1 1 0 0 -1 1 0 0 -1 1 -1 0 -1 1 0 0 -1 1 0 0 -1 1 0 0 -1 1 -1 0 -1 1 0 0 -1 1 0 0 -1 1 -1 0 -1 1 0 0 -1"/>
<path stroke="#FFC0C5" d="M734 451l1 -1 0 -1 1 0 0 -1 1 0 0 -1 1 -1 0 -1 1 0 0 -1 1 -1 0 -1 1 0 0 -1 1 0 0 -2 1 0 0 -1 1 0 0 -1 1 -1 0 -1 1 0 0 -1 1 0 0 -2 1 0 0 -1 1 0 0 -1 1 0 0 -2 1 0 0 -1 1 0 0 -1 1 0 0 -1 1 -1 0 -1 1 0 0 -1 1 0 0 -1 1 0"/>
<path stroke="#FFC0C5" d="M757 421l0 -1 1 0 0 -1 1 -1 0 -1 1 0 0 -1 1 0 0 -1 1 0 0 -1 1 0 0 -1 1 0 0 -1 1 0 1 -1 1 0 0 -1 1 0 0 -1 1 0 0 -1 2 0 0 -1 1 0 1 -1 1 0 0 -1 3 0 0 -1 4 0 0 -1 4 0 1 1 4 0M790 405l0 -1M790 405l2 0 1 1 1 0 1 1 1 0M796 408l0 -1"/>
<path stroke="#FFC0C5" d="M796 408l2 0M798 409l0 -1M798 409l1 0M799 410l0 -1M799 410l1 0M800 411l0 -1M800 411l1 0M801 412l0 -1M801 412l1 0 2 2 1 0M805 415l0 -1M805 415l2 2M807 418l0 -1M807 418l1 0M808 419l0 -1M808 419l1 0M809 420l0 -1M809 420l1 0"/>
<path stroke="#FFC0C5" d="M810 421l0 -1M810 421l1 0M811 422l0 -1M811 422l2 2M813 425l0 -1M813 425l1 0M814 426l0 -1M814 426l1 0M815 427l0 -1M815 427l1 0M816 429l0 -2M816 429l1 0M817 430l0 -1M817 430l1 0M818 431l0 -1M818 431l1 1M819 433l0 -1M819 433l1 0"/>
<path stroke="#FFC0C5" d="M820 434l0 -1M820 434l1 0M821 436l0 -2M821 436l1 0M822 437l0 -1M822 437l1 0M823 438l0 -1M823 438l1 1M824 440l0 -1M824 440l1 0M825 441l0 -1M825 441l1 1M826 443l0 -1M826 443l1 0M827 444l0 -1M827 444l1 0M828 446l0 -2M828 446l1 0"/>
<path stroke="#FFC0C5" d="M829 447l0 -1M829 447l1 0M830 449l0 -2M830 449l1 0M831 450l0 -1M831 450l1 0M832 451l0 -1M832 451l1 1M833 453l0 -1M833 453l1 0M834 454l0 -1M834 454l1 1M835 456l0 -1M835 456l1 0M836 457l0 -1M836 457l1 0M837 459l0 -2M837 459l1 0"/>
<path stroke="#FFC0C5" d="M838 460l0 -1M838 460l1 0M839 461l0 -1M839 461l1 0M840 462l0 -1M840 462l1 1M841 464l0 -1M841 464l1 0M842 465l0 -1M842 465l1 0M843 466l0 -1M843 466l1 0M844 467l0 -1M844 467l1 1M845 469l0 -1M845 469l1 0M846 470l0 -1M846 470l1 0"/>
<path stroke="#FFC0C5" d="M847 471l0 -1M847 471l1 0M848 472l0 -1M848 472l1 0M849 473l0 -1M849 473l1 0M850 474l0 -1M850 474l1 0M851 475l0 -1M851 475l1 0M852 476l0 -1M852 476l1 0M853 477l0 -1M853 477l2 0M855 478l0 -1M855 478l1 0M856 479l0 -1M856 479l1 0"/>
<path stroke="#FFC0C5" d="M857 479l1 1 1 0M859 481l0 -1M859 481l2 0M861 482l0 -1M861 482l2 0M863 483l0 -1M863 483l4 0M867 484l0 -1M867 484l7 0 0 -1 3 0 1 -1 2 0 0 -1 2 0 0 -1 1 0 1 -1 1 0 0 -1 1 0 0 -1 2 0 0 -1 1 0 0 -1 1 0 0 -1 1 0 0 -1 1 0"/>
<path stroke="#FFC0C5" d="M892 473l0 -1 1 0 0 -1 1 0 0 -1 1 0 0 -1 1 0 0 -1 1 -1 0 -1 1 0 0 -1 1 0 0 -1 1 0 0 -1 1 0 0 -1 1 -1 0 -1 1 0 0 -1 1 0 0 -1 1 -1 0 -1 1 0 0 -1 1 0 0 -1 1 -1 0 -1 1 0 0 -1 1 -1 0 -1 1 0 0 -1 1 0 0 -1 1 -1 0 -1 1 0 0 -1"/>
<path stroke="#FFC0C5" d="M914 444l1 0 0 -2 1 0 0 -1 1 0 0 -2 1 0 0 -1 1 0 0 -1 1 -1 0 -1 1 0 0 -1 1 0 0 -1 1 -1 0 -1 1 0 0 -1 1 0 0 -2 1 0 0 -1 1 0 0 -1 1 0 0 -1 1 -1 0 -1 1 0 0 -1 1 0 0 -1 1 0 0 -1 1 0 0 -1 1 0 0 -1 1 0 0 -1 1 0 0 -1 1 0 0 -1"/>
<path stroke="#FFC0C5" d="M937 415l1 0 0 -1 1 0 0 -1 1 0 0 -1 1 0 0 -1 1 0 1 -1 1 0 0 -1 1 0 0 -1 2 0 0 -1 2 0 0 -1 3 0 0 -1 3 0"/>
<path stroke="#A52A2A" d="M85 256l8 0M93 257l0 -1M93 257l2 0 1 1 2 0M98 259l0 -1M98 259l1 0M99 260l0 -1M99 260l2 0M101 261l0 -1M101 261l1 0M102 262l0 -1M102 262l1 0M103 263l0 -1M103 263l1 0 1 1 1 0M106 265l0 -1M106 265l1 0M107 266l0 -1M107 266l1 1"/>
<path stroke="#A52A2A" d="M108 267l1 0M109 268l0 -1M109 268l1 1M110 270l0 -1M110 270l1 0M111 271l0 -1M111 271l1 0M112 272l0 -1M112 272l1 0M113 273l0 -1M113 273l1 0M114 274l0 -1M114 274l1 1M115 276l0 -1M115 276l1 0M116 277l0 -1M116 277l1 0M117 278l0 -1"/>
<path stroke="#A52A2A" d="M117 278l1 1M118 280l0 -1M118 280l1 0M119 281l0 -1M119 281l1 0M120 282l0 -1M120 282l1 1M121 284l0 -1M121 284l1 0M122 286l0 -2M122 286l1 0M123 287l0 -1M123 287l1 0M124 288l0 -1M124 288l1 1M125 290l0 -1M125 290l1 0M126 292l0 -2"/>
<path stroke="#A52A2A" d="M126 292l1 0M127 293l0 -1M127 293l1 0M128 295l0 -2M128 295l1 0M129 296l0 -1M129 296l1 0M130 298l0 -2M130 298l1 0M131 299l0 -1M131 299l1 0M132 301l0 -2M132 301l1 0M133 302l0 -1M133 302l1 1M134 304l0 -1M134 304l1 0M135 305l0 -1"/>
<path stroke="#A52A2A" d="M135 305l1 1M136 307l0 -1M136 307l1 0M137 308l0 -1M137 308l1 1M138 310l0 -1M138 310l1 0M139 311l0 -1M139 311l1 1M140 313l0 -1M140 313l1 0M141 314l0 -1M141 314l1 1M142 316l0 -1M142 316l1 0M143 317l0 -1M143 317l1 0M144 318l0 -1"/>
<path stroke="#A52A2A" d="M144 318l1 1M145 320l0 -1M145 320l1 0M146 321l0 -1M146 321l1 0M147 322l0 -1M147 322l1 1M148 324l0 -1M148 324l1 0M149 325l0 -1M149 325l1 0M150 326l0 -1M150 326l1 0M151 327l0 -1M151 327l1 0M152 328l0 -1M152 328l1 1M153 330l0 -1"/>
<path stroke="#A52A2A" d="M153 330l1 0M154 331l0 -1M154 331l1 0 3 3 1 0M159 335l0 -1M159 335l1 0M160 336l0 -1M160 336l1 0M161 337l0 -1M161 337l2 0M163 338l0 -1M163 338l1 0 1 1 1 0 1 1 2 0 1 1 9 0 0 -1 3 0 0 -1 2 0 0 -1 2 0 0 -1 2 0 0 -1 1 0 0 -1"/>
<path stroke="#A52A2A" d="M189 335l1 0 0 -1 1 0 4 -4 1 0 0 -1 1 -1 0 -1 1 0 0 -1 1 0 0 -1 1 0 0 -1 1 0 0 -1 1 -1 0 -1 1 0 0 -1 1 0 0 -1 1 0 0 -2 1 0 0 -1 1 0 0 -1 1 0 0 -2 1 0 0 -1 1 0 0 -1 1 -1 0 -1 1 0 0 -1 1 -1 0 -1 1 0 0 -1 1 -1 0 -1 1 0"/>
<path stroke="#A52A2A" d="M216 303l0 -1 1 -1 0 -1 1 0 0 -1 1 -1 0 -1 1 0 0 -2 1 0 0 -1 1 0 0 -1 1 -1 0 -1 1 0 0 -2 1 0 0 -1 1 0 0 -1 1 -1 0 -1 1 0 0 -1 1 -1 0 -1 1 0 0 -1 1 0 0 -1 1 -1 0 -1 1 0 0 -1 1 0 0 -1 1 0 0 -1 1 -1 0 -1 1 0 0 -1 1 0 0 -1"/>
<path stroke="#A52A2A" d="M238 271l1 0 0 -1 1 0 0 -1 1 0 0 -1 1 0 0 -1 1 0 0 -1 1 0 0 -1 1 0 0 -1 1 0 0 -1 1 0 1 -1 1 0 0 -1 1 0 1 -1 1 0 0 -1 2 0 1 -1 3 0 0 -1 7 0M265 258l0 -1M265 258l3 0M268 259l0 -1M268 259l3 0M271 260l0 -1M271 260l1 0 1 1"/>
<path stroke="#A52A2A" d="M273 261l1 0M274 262l0 -1M274 262l1 0 1 1 1 0M277 264l0 -1M277 264l1 0M278 265l0 -1M278 265l1 0M279 266l0 -1M279 266l1 0M280 267l0 -1M280 267l1 0M281 268l0 -1M281 268l1 0M282 269l0 -1M282 269l1 0M283 270l0 -1M283 270l1 0"/>
<path stroke="#A52A2A" d="M284 271l0 -1M284 271l1 0M285 272l0 -1M285 272l2 2M287 275l0 -1M287 275l1 0M288 276l0 -1M288 276l1 0M289 277l0 -1M289 277l2 2M291 280l0 -1M291 280l1 0M292 281l0 -1M292 281l1 1M293 283l0 -1M293 283l1 0M294 284l0 -1M294 284l1 0"/>
<path stroke="#A52A2A" d="M295 286l0 -2M295 286l1 0M296 287l0 -1M296 287l1 0M297 288l0 -1M297 288l1 1M298 290l0 -1M298 290l1 0M299 291l0 -1M299 291l1 1M300 293l0 -1M300 293l1 0M301 294l0 -1M301 294l1 1M302 296l0 -1M302 296l1 0M303 298l0 -2M303 298l1 0"/>
<path stroke="#A52A2A" d="M304 299l0 -1M304 299l1 1M305 301l0 -1M305 301l1 0M306 302l0 -1M306 302l1 0M307 304l0 -2M307 304l1 0M308 305l0 -1M308 305l1 1M309 307l0 -1M309 307l1 0M310 308l0 -1M310 308l1 1M311 310l0 -1M311 310l1 0M312 311l0 -1M312 311l1 1"/>
<path stroke="#A52A2A" d="M313 313l0 -1M313 313l1 0M314 314l0 -1M314 314l1 1M315 316l0 -1M315 316l1 0M316 317l0 -1M316 317l1 1M317 319l0 -1M317 319l1 0M318 320l0 -1M318 320l1 0M319 321l0 -1M319 321l1 1M320 323l0 -1M320 323l1 0M321 324l0 -1M321 324l1 0"/>
<path stroke="#A52A2A" d="M322 325l0 -1M322 325l1 0M323 326l0 -1M323 326l1 1M324 328l0 -1M324 328l1 0M325 329l0 -1M325 329l1 0M326 330l0 -1M326 330l1 0M327 331l0 -1M327 331l1 0M328 332l0 -1M328 332l1 0M329 333l0 -1M329 333l1 0M330 334l0 -1M330 334l1 0"/>
<path stroke="#A52A2A" d="M331 335l0 -1M331 335l1 0M332 336l0 -1M332 336l1 0M333 337l0 -1M333 337l2 0M335 338l0 -1M335 338l1 0M336 339l0 -1M336 339l2 0M338 340l0 -1M338 340l1 0 1 1 2 0M342 342l0 -1M342 342l4 0M346 343l0 -1M346 343l5 0 0 -1 4 0"/>
<path stroke="#A52A2A" d="M355 342l0 -1 2 0 1 -1 1 0 0 -1 2 0 0 -1 1 0 0 -1 1 0 1 -1 1 0 0 -1 1 0 0 -1 1 0 0 -1 1 0 0 -1 1 0 0 -1 1 0 0 -1 1 0 0 -1 1 0 0 -1 1 0 0 -1 1 0 0 -2 1 0 0 -1 1 0 0 -1 1 0 0 -1 1 0 0 -2 1 0 0 -1 1 0 0 -1 1 0 0 -2 1 0"/>
<path stroke="#A52A2A" d="M382 316l0 -1 1 0 0 -2 1 0 0 -1 1 0 0 -1 1 -1 0 -1 1 0 0 -2 1 0 0 -1 1 0 0 -1 1 -1 0 -1 1 0 0 -2 1 0 0 -1 1 0 0 -1 1 -1 0 -1 1 0 0 -2 1 0 0 -1 1 0 0 -1 1 -1 0 -1 1 0 0 -2 1 0 0 -1 1 0 0 -1 1 -1 0 -1 1 0 0 -1 1 0 0 -1"/>
<path stroke="#A52A2A" d="M404 283l1 -1 0 -1 1 0 0 -1 1 0 0 -2 1 0 0 -1 1 0 0 -1 1 0 0 -1 1 0 0 -1 2 -2 0 -1 1 0 0 -1 1 0 0 -1 1 0 0 -1 1 0 0 -1 1 0 0 -1 1 0 1 -1 1 0 0 -1 1 0 0 -1 1 0 1 -1 1 0 0 -1 2 0 0 -1 3 0 0 -1 11 0M441 260l0 -1M441 260l2 0"/>
<path stroke="#A52A2A" d="M443 260l1 1 1 0 1 1 1 0M447 263l0 -1M447 263l2 0M449 264l0 -1M449 264l1 0M450 265l0 -1M450 265l1 0M451 266l0 -1M451 266l1 0 4 4 1 0M457 271l0 -1M457 271l1 1M458 273l0 -1M458 273l1 0M459 274l0 -1M459 274l1 0M460 275l0 -1"/>
<path stroke="#A52A2A" d="M460 275l1 0M461 276l0 -1M461 276l1 0M462 277l0 -1M462 277l1 1M463 279l0 -1M463 279l1 0M464 280l0 -1M464 280l1 0M465 281l0 -1M465 281l1 1M466 283l0 -1M466 283l1 0M467 284l0 -1M467 284l1 0M468 286l0 -2M468 286l1 0M469 287l0 -1"/>
<path stroke="#A52A2A" d="M469 287l1 0M470 289l0 -2M470 289l1 0M471 290l0 -1M471 290l1 0M472 291l0 -1M472 291l1 1M473 293l0 -1M473 293l1 0M474 295l0 -2M474 295l1 0M475 296l0 -1M475 296l1 0M476 298l0 -2M476 298l1 0M477 299l0 -1M477 299l1 0M478 301l0 -2"/>
<path stroke="#A52A2A" d="M478 301l1 0M479 302l0 -1M479 302l1 0M480 304l0 -2M480 304l1 0M481 305l0 -1M481 305l1 1M482 307l0 -1M482 307l1 0M483 308l0 -1M483 308l1 1M484 310l0 -1M484 310l1 0M485 311l0 -1M485 311l1 1M486 313l0 -1M486 313l1 0M487 314l0 -1"/>
<path stroke="#A52A2A" d="M487 314l1 1M488 316l0 -1M488 316l1 0M489 317l0 -1M489 317l1 1M490 319l0 -1M490 319l1 0M491 320l0 -1M491 320l1 0M492 321l0 -1M492 321l1 1M493 323l0 -1M493 323l1 0M494 324l0 -1M494 324l1 0M495 325l0 -1M495 325l1 1M496 327l0 -1"/>
<path stroke="#A52A2A" d="M496 327l1 0M497 328l0 -1M497 328l1 0M498 329l0 -1M498 329l1 0M499 330l0 -1M499 330l1 0M500 331l0 -1M500 331l1 1M501 333l0 -1M501 333l1 0M502 334l0 -1M502 334l1 0 3 3 1 0M507 338l0 -1M507 338l1 0M508 339l0 -1M508 339l1 0"/>
<path stroke="#A52A2A" d="M509 340l0 -1M509 340l2 0M511 341l0 -1M511 341l1 0 1 1 1 0 1 1 2 0M517 344l0 -1M517 344l10 0 1 -1 2 0 0 -1 2 0 0 -1 2 0 0 -1 2 0 0 -1 1 0 0 -1 1 0 0 -1 1 0 4 -4 1 0 0 -1 1 -1 0 -1 1 0 0 -1 1 0 0 -1 1 0 0 -1 1 0 0 -1"/>
<path stroke="#A52A2A" d="M549 326l1 0 0 -2 1 0 0 -1 1 0 0 -1 1 0 0 -2 1 0 0 -1 1 0 0 -1 1 0 0 -2 1 0 0 -1 1 0 0 -1 1 -1 0 -1 1 0 0 -1 1 -1 0 -1 1 0 0 -1 1 -1 0 -1 1 0 0 -1 1 -1 0 -1 1 0 0 -1 1 -1 0 -1 1 0 0 -2 1 0 0 -1 1 0 0 -1 1 -1 0 -1 1 0"/>
<path stroke="#A52A2A" d="M572 294l0 -1 1 -1 0 -1 1 0 0 -1 1 -1 0 -1 1 0 0 -1 1 0 0 -2 1 0 0 -1 1 0 0 -1 1 -1 0 -1 1 0 0 -1 1 0 0 -1 1 0 0 -1 1 -1 0 -1 1 0 0 -1 1 0 0 -1 1 0 0 -1 1 0 0 -1 1 0 0 -1 1 0 0 -1 1 0 0 -1 1 0 0 -1 1 0 0 -1 1 0 0 -1"/>
<path stroke="#A52A2A" d="M594 266l1 0 1 -1 1 0 0 -1 1 0 1 -1 1 0 0 -1 3 0 0 -1 3 0 0 -1 7 0M613 261l0 -1M613 261l3 0M616 262l0 -1M616 262l3 0M619 263l0 -1M619 263l1 0M620 264l0 -1M620 264l2 0M622 265l0 -1M622 265l1 0M623 266l0 -1M623 266l2 0"/>
<path stroke="#A52A2A" d="M625 267l0 -1M625 267l1 0M626 268l0 -1M626 268l1 0M627 269l0 -1M627 269l1 0M628 270l0 -1M628 270l1 0M629 271l0 -1M629 271l1 0M630 272l0 -1M630 272l1 0M631 273l0 -1M631 273l1 0M632 274l0 -1M632 274l1 0M633 275l0 -1M633 275l2 2"/>
<path stroke="#A52A2A" d="M635 278l0 -1M635 278l1 0M636 279l0 -1M636 279l1 0M637 280l0 -1M637 280l2 2M639 283l0 -1M639 283l1 0M640 284l0 -1M640 284l1 1M641 286l0 -1M641 286l1 0M642 287l0 -1M642 287l1 0M643 289l0 -2M643 289l1 0M644 290l0 -1M644 290l1 0"/>
<path stroke="#A52A2A" d="M645 291l0 -1M645 291l1 1M646 293l0 -1M646 293l1 0M647 295l0 -2M647 295l1 0M648 296l0 -1M648 296l1 0M649 297l0 -1M649 297l1 1M650 299l0 -1M650 299l1 0M651 301l0 -2M651 301l1 0M652 302l0 -1M652 302l1 1M653 304l0 -1M653 304l1 0"/>
<path stroke="#A52A2A" d="M654 305l0 -1M654 305l1 1M655 307l0 -1M655 307l1 0M656 308l0 -1M656 308l1 1M657 310l0 -1M657 310l1 0M658 311l0 -1M658 311l1 1M659 313l0 -1M659 313l1 0M660 315l0 -2M660 315l1 0M661 316l0 -1M661 316l1 0M662 317l0 -1M662 317l1 1"/>
<path stroke="#A52A2A" d="M663 319l0 -1M663 319l1 0M664 320l0 -1M664 320l1 1M665 322l0 -1M665 322l1 0M666 323l0 -1M666 323l1 0M667 324l0 -1M667 324l1 1M668 326l0 -1M668 326l1 0M669 327l0 -1M669 327l1 0M670 328l0 -1M670 328l1 0M671 330l0 -2M671 330l1 0"/>
<path stroke="#A52A2A" d="M672 331l0 -1M672 331l1 0M673 332l0 -1M673 332l1 0M674 333l0 -1M674 333l1 0M675 334l0 -1M675 334l1 0M676 335l0 -1M676 335l1 0M677 336l0 -1M677 336l1 0M678 337l0 -1M678 337l1 0M679 338l0 -1M679 338l1 0M680 339l0 -1M680 339l1 0"/>
<path stroke="#A52A2A" d="M681 340l0 -1M681 340l1 0 1 1 1 0M684 342l0 -1M684 342l2 0M686 343l0 -1M686 343l1 0 1 1 2 0M690 345l0 -1M690 345l4 0M694 346l0 -1M694 346l5 0 0 -1 4 0 0 -1 2 0 1 -1 1 0 0 -1 2 0 0 -1 1 0 0 -1 2 0 0 -1 1 0 0 -1 1 0 0 -1"/>
<path stroke="#A52A2A" d="M714 337l1 0 0 -1 1 0 0 -1 1 0 0 -1 1 0 0 -1 1 0 0 -1 1 0 0 -1 1 0 0 -1 1 0 0 -1 1 -1 0 -1 1 0 0 -1 1 0 0 -1 1 0 0 -2 1 0 0 -1 1 0 0 -1 1 0 0 -2 1 0 0 -1 1 0 0 -2 1 0 0 -1 1 0 0 -1 1 -1 0 -1 1 0 0 -2 1 0 0 -1 1 0 0 -1"/>
<path stroke="#A52A2A" d="M737 308l1 -1 0 -1 1 0 0 -2 1 0 0 -1 1 0 0 -1 1 -1 0 -1 1 0 0 -2 1 0 0 -1 1 0 0 -1 1 -1 0 -1 1 0 0 -1 1 -1 0 -1 1 0 0 -1 1 -1 0 -1 1 0 0 -1 1 0 0 -1 1 -1 0 -1 1 0 0 -1 1 0 0 -2 1 0 0 -1 1 0 0 -1 1 0 0 -1 1 0 0 -1 2 -2"/>
<path stroke="#A52A2A" d="M761 275l0 -1 1 0 0 -1 1 0 0 -1 1 0 0 -1 1 0 0 -1 1 0 0 -1 1 0 1 -1 1 0 0 -1 1 0 0 -1 1 0 1 -1 1 0 0 -1 2 0 0 -1 3 0 0 -1 11 0M789 263l0 -1M789 263l2 0M791 264l0 -1M791 264l2 0 1 1 1 0M795 266l0 -1M795 266l2 0M797 267l0 -1"/>
<path stroke="#A52A2A" d="M797 267l1 0M798 268l0 -1M798 268l1 0M799 269l0 -1M799 269l1 0 6 6M806 276l0 -1M806 276l1 0M807 277l0 -1M807 277l1 0M808 278l0 -1M808 278l1 0M809 279l0 -1M809 279l1 0M810 280l0 -1M810 280l1 1M811 282l0 -1M811 282l1 0"/>
<path stroke="#A52A2A" d="M812 283l0 -1M812 283l1 0M813 284l0 -1M813 284l1 1M814 286l0 -1M814 286l1 0M815 287l0 -1M815 287l1 0M816 289l0 -2M816 289l1 0M817 290l0 -1M817 290l1 0M818 292l0 -2M818 292l1 0M819 293l0 -1M819 293l1 0M820 294l0 -1M820 294l1 1"/>
<path stroke="#A52A2A" d="M821 296l0 -1M821 296l1 0M822 298l0 -2M822 298l1 0M823 299l0 -1M823 299l1 0M824 301l0 -2M824 301l1 0M825 302l0 -1M825 302l1 0M826 304l0 -2M826 304l1 0M827 305l0 -1M827 305l1 0M828 307l0 -2M828 307l1 0M829 308l0 -1M829 308l1 1"/>
<path stroke="#A52A2A" d="M830 310l0 -1M830 310l1 0M831 311l0 -1M831 311l1 1M832 313l0 -1M832 313l1 0M833 314l0 -1M833 314l1 1M834 316l0 -1M834 316l1 0M835 317l0 -1M835 317l1 1M836 319l0 -1M836 319l1 0M837 320l0 -1M837 320l1 1M838 322l0 -1M838 322l1 0"/>
<path stroke="#A52A2A" d="M839 323l0 -1M839 323l1 0M840 325l0 -2M840 325l1 0M841 326l0 -1M841 326l1 0M842 327l0 -1M842 327l2 2M844 330l0 -1M844 330l1 0M845 331l0 -1M845 331l1 0M846 332l0 -1M846 332l1 0M847 333l0 -1M847 333l1 0M848 334l0 -1M848 334l1 1"/>
<path stroke="#A52A2A" d="M849 336l0 -1M849 336l1 0M850 337l0 -1M850 337l1 0M851 338l0 -1M851 338l1 0M852 339l0 -1M852 339l1 0 2 2 1 0M856 342l0 -1M856 342l1 0M857 343l0 -1M857 343l2 0M859 344l0 -1M859 344l1 0 1 1 1 0 1 1 2 0M865 347l0 -1M865 347l11 0"/>
<path stroke="#A52A2A" d="M876 347l0 -1 2 0 0 -1 2 0 1 -1 1 0 0 -1 2 0 0 -1 1 0 0 -1 1 0 0 -1 1 0 2 -2 1 0 0 -1 1 -1 1 0 0 -1 2 -2 0 -1 1 0 0 -1 1 0 0 -1 1 0 0 -1 1 0 0 -2 1 0 0 -1 1 0 0 -1 1 0 0 -1 1 -1 0 -1 1 0 0 -1 1 0 0 -2 1 0 0 -1 1 0 0 -1"/>
<path stroke="#A52A2A" d="M906 317l1 -1 0 -1 1 0 0 -1 1 -1 0 -1 1 0 0 -1 1 -1 0 -1 1 0 0 -1 1 -1 0 -1 1 0 0 -1 1 -1 0 -1 1 0 0 -1 1 -1 0 -1 1 0 0 -1 1 -1 0 -1 1 0 0 -1 1 -1 0 -1 1 0 0 -1 1 0 0 -2 1 0 0 -1 1 0 0 -2 1 0 0 -1 1 0 0 -1 1 -1 0 -1"/>
<path stroke="#A52A2A" d="M928 284l1 0 0 -1 1 0 0 -1 1 0 0 -1 1 -1 0 -1 1 0 0 -1 1 0 0 -1 1 0 0 -1 1 0 0 -1 1 0 0 -1 1 0 0 -1 1 0 0 -1 1 0 0 -1 1 0 0 -1 1 0 0 -1 1 0 1 -1 1 0 0 -1 1 0 1 -1 1 0 0 -1 3 0 0 -1 3 0 0 -1 1 0"/>
<path stroke="#F0E68C" d="M85 118l6 0 1 1 2 0 1 1 2 0M97 121l0 -1M97 121l1 0M98 122l0 -1M98 122l2 0M100 123l0 -1M100 123l1 0M101 124l0 -1M101 124l1 0 2 2 1 0M105 127l0 -1M105 127l1 0M106 128l0 -1M106 128l1 0M107 129l0 -1M107 129l2 2M109 132l0 -1"/>
<path stroke="#F0E68C" d="M109 132l1 0M110 133l0 -1M110 133l1 0M111 134l0 -1M111 134l1 0M112 135l0 -1M112 135l1 0M113 136l0 -1M113 136l1 1M114 138l0 -1M114 138l1 0M115 139l0 -1M115 139l1 1M116 141l0 -1M116 141l1 0M117 142l0 -1M117 142l1 0M118 144l0 -2"/>
<path stroke="#F0E68C" d="M118 144l1 0M119 145l0 -1M119 145l1 0M120 146l0 -1M120 146l1 1M121 148l0 -1M121 148l1 0M122 150l0 -2M122 150l1 0M123 151l0 -1M123 151l1 0M124 153l0 -2M124 153l1 0M125 154l0 -1M125 154l1 1M126 156l0 -1M126 156l1 0M127 157l0 -1"/>
<path stroke="#F0E68C" d="M127 157l1 1M128 159l0 -1M128 159l1 0M129 161l0 -2M129 161l1 0M130 163l0 -2M130 163l1 0M131 164l0 -1M131 164l1 0M132 166l0 -2M132 166l1 0M133 167l0 -1M133 167l1 1M134 169l0 -1M134 169l1 0M135 170l0 -1M135 170l1 1M136 172l0 -1"/>
<path stroke="#F0E68C" d="M136 172l1 0M137 174l0 -2M137 174l1 0M138 175l0 -1M138 175l1 1M139 177l0 -1M139 177l1 0M140 178l0 -1M140 178l1 1M141 180l0 -1M141 180l1 0M142 182l0 -2M142 182l1 0M143 183l0 -1M143 183l1 0M144 184l0 -1M144 184l1 1M145 186l0 -1"/>
<path stroke="#F0E68C" d="M145 186l1 0M146 187l0 -1M146 187l1 1M147 189l0 -1M147 189l1 0M148 190l0 -1M148 190l1 0M149 191l0 -1M149 191l1 1M150 193l0 -1M150 193l1 0M151 194l0 -1M151 194l1 0M152 195l0 -1M152 195l1 0M153 196l0 -1M153 196l1 0M154 197l0 -1"/>
<path stroke="#F0E68C" d="M154 197l1 0M155 198l0 -1M155 198l1 0M156 199l0 -1M156 199l1 0M157 200l0 -1M157 200l1 0M158 201l0 -1M158 201l1 0M159 202l0 -1M159 202l1 0M160 203l0 -1M160 203l1 0M161 204l0 -1M161 204l2 0M163 205l0 -1M163 205l1 0M164 206l0 -1"/>
<path stroke="#F0E68C" d="M164 206l2 0M166 207l0 -1M166 207l3 0M169 208l0 -1M169 208l11 0 0 -1 2 0 1 -1 1 0 1 -1 1 0 0 -1 2 0 0 -1 1 0 0 -1 1 0 0 -1 1 0 0 -1 1 0 0 -1 1 0 0 -1 1 0 0 -1 1 0 0 -1 1 0 0 -1 1 0 0 -1 1 0 0 -1 2 -2 0 -1 1 0 0 -1 1 0"/>
<path stroke="#F0E68C" d="M202 189l0 -2 1 0 0 -1 1 0 0 -1 1 0 0 -2 1 0 0 -1 1 0 0 -1 1 -1 0 -1 1 0 0 -2 1 0 0 -1 1 0 0 -2 1 0 0 -1 1 0 0 -2 1 0 0 -1 1 0 0 -2 1 0 0 -2 1 0 0 -1 1 0 0 -2 1 0 0 -1 1 -1 0 -1 1 0 0 -2 1 0 0 -1 1 0 0 -2 1 0 0 -1 1 -1"/>
<path stroke="#F0E68C" d="M225 153l0 -1 1 0 0 -1 1 0 0 -2 1 0 0 -1 1 -1 0 -1 1 0 0 -1 1 0 0 -2 1 0 0 -1 1 0 0 -2 1 0 0 -1 1 0 0 -1 1 0 0 -1 1 -1 0 -1 1 0 0 -1 1 0 0 -1 1 0 0 -1 1 0 0 -1 1 0 0 -1 1 0 0 -1 1 0 0 -1 1 0 0 -1 1 0 0 -1 1 0 0 -1 1 0"/>
<path stroke="#F0E68C" d="M248 125l0 -1 2 0 0 -1 1 0 1 -1 1 0 0 -1 3 0 0 -1 11 0M267 121l0 -1M267 121l2 0M269 122l0 -1M269 122l2 0M271 123l0 -1M271 123l2 0M273 124l0 -1M273 124l1 0 1 1 1 0M276 126l0 -1M276 126l1 0M277 127l0 -1M277 127l1 0M278 128l0 -1"/>
<path stroke="#F0E68C" d="M278 128l1 0M279 129l0 -1M279 129l1 0M280 130l0 -1M280 130l1 0M281 131l0 -1M281 131l1 0M282 132l0 -1M282 132l1 0M283 133l0 -1M283 133l1 0M284 134l0 -1M284 134l1 1M285 136l0 -1M285 136l1 0M286 137l0 -1M286 137l1 0M287 138l0 -1"/>
<path stroke="#F0E68C" d="M287 138l1 0M288 139l0 -1M288 139l1 1M289 141l0 -1M289 141l1 0M290 142l0 -1M290 142l1 0M291 144l0 -2M291 144l1 0M292 145l0 -1M292 145l1 0M293 146l0 -1M293 146l1 1M294 148l0 -1M294 148l1 0M295 150l0 -2M295 150l1 0M296 151l0 -1"/>
<path stroke="#F0E68C" d="M296 151l1 1M297 153l0 -1M297 153l1 0M298 154l0 -1M298 154l1 1M299 156l0 -1M299 156l1 0M300 158l0 -2M300 158l1 0M301 159l0 -1M301 159l1 0M302 161l0 -2M302 161l1 0M303 162l0 -1M303 162l1 1M304 164l0 -1M304 164l1 0M305 166l0 -2"/>
<path stroke="#F0E68C" d="M305 166l1 0M306 167l0 -1M306 167l1 1M307 169l0 -1M307 169l1 0M308 171l0 -2M308 171l1 0M309 172l0 -1M309 172l1 0M310 174l0 -2M310 174l1 0M311 175l0 -1M311 175l1 1M312 177l0 -1M312 177l1 0M313 178l0 -1M313 178l1 1M314 180l0 -1"/>
<path stroke="#F0E68C" d="M314 180l1 0M315 182l0 -2M315 182l1 0M316 183l0 -1M316 183l1 0M317 185l0 -2M317 185l1 0M318 186l0 -1M318 186l1 0M319 188l0 -2M319 188l1 0M320 189l0 -1M320 189l1 0M321 190l0 -1M321 190l1 0M322 192l0 -2M322 192l1 0M323 193l0 -1"/>
<path stroke="#F0E68C" d="M323 193l1 0M324 194l0 -1M324 194l1 0M325 195l0 -1M325 195l1 1M326 197l0 -1M326 197l1 0M327 198l0 -1M327 198l1 0M328 199l0 -1M328 199l1 0M329 200l0 -1M329 200l1 0M330 201l0 -1M330 201l1 0M331 202l0 -1M331 202l1 0M332 203l0 -1"/>
<path stroke="#F0E68C" d="M332 203l1 0M333 204l0 -1M333 204l1 0 1 1 1 0M336 206l0 -1M336 206l1 0 1 1 1 0M339 208l0 -1M339 208l2 0M341 209l0 -1M341 209l3 0M344 210l0 -1M344 210l9 0 0 -1 3 0 0 -1 2 0 0 -1 1 0 1 -1 1 0 0 -1 1 0 0 -1 1 0 1 -1 1 0"/>
<path stroke="#F0E68C" d="M365 203l0 -1 1 0 0 -1 1 0 0 -1 1 0 0 -1 1 0 0 -1 1 0 0 -1 1 0 0 -2 1 0 0 -1 1 0 0 -1 1 0 0 -1 1 0 0 -2 1 0 0 -1 1 0 0 -1 1 0 0 -2 1 0 0 -1 1 0 0 -1 1 -1 0 -1 1 0 0 -1 1 -1 0 -1 1 0 0 -1 1 -1 0 -1 1 0 0 -2 1 0 0 -1 1 -1"/>
<path stroke="#F0E68C" d="M388 172l0 -1 1 0 0 -1 1 -1 0 -1 1 0 0 -2 1 0 0 -1 1 0 0 -2 1 0 0 -1 1 -1 0 -1 1 0 0 -1 1 -1 0 -1 1 0 0 -2 1 0 0 -1 1 -1 0 -1 1 0 0 -1 1 0 0 -2 1 0 0 -1 1 -1 0 -1 1 0 0 -1 1 0 0 -2 1 0 0 -1 1 0 0 -1 1 0 0 -1 1 -1 0 -1"/>
<path stroke="#F0E68C" d="M410 138l1 0 0 -1 1 0 0 -1 1 0 0 -1 1 -1 0 -1 1 0 0 -1 1 0 0 -1 1 0 0 -1 1 0 0 -1 1 0 0 -1 2 0 0 -1 1 0 0 -1 1 0 0 -1 2 0 0 -1 1 0 1 -1 2 0 0 -1 3 0 0 -1 6 0 1 1 3 0M442 123l0 -1M442 123l2 0M444 124l0 -1M444 124l2 0"/>
<path stroke="#F0E68C" d="M446 125l0 -1M446 125l1 0 1 1 1 0M449 127l0 -1M449 127l1 0M450 128l0 -1M450 128l1 0M451 129l0 -1M451 129l1 0 3 3M455 133l0 -1M455 133l1 0M456 134l0 -1M456 134l1 0M457 135l0 -1M457 135l1 0M458 136l0 -1M458 136l1 0M459 137l0 -1"/>
<path stroke="#F0E68C" d="M459 137l1 0M460 138l0 -1M460 138l1 1M461 140l0 -1M461 140l1 0M462 141l0 -1M462 141l1 0M463 143l0 -2M463 143l1 0M464 144l0 -1M464 144l1 0M465 145l0 -1M465 145l1 0M466 147l0 -2M466 147l1 0M467 148l0 -1M467 148l1 0M468 150l0 -2"/>
<path stroke="#F0E68C" d="M468 150l1 0M469 151l0 -1M469 151l1 0M470 153l0 -2M470 153l1 0M471 154l0 -1M471 154l1 0M472 156l0 -2M472 156l1 0M473 158l0 -2M473 158l1 0M474 159l0 -1M474 159l1 0M475 161l0 -2M475 161l1 0M476 162l0 -1M476 162l1 1M477 164l0 -1"/>
<path stroke="#F0E68C" d="M477 164l1 0M478 166l0 -2M478 166l1 0M479 167l0 -1M479 167l1 0M480 169l0 -2M480 169l1 0M481 171l0 -2M481 171l1 0M482 172l0 -1M482 172l1 1M483 174l0 -1M483 174l1 0M484 175l0 -1M484 175l1 1M485 177l0 -1M485 177l1 0M486 179l0 -2"/>
<path stroke="#F0E68C" d="M486 179l1 0M487 180l0 -1M487 180l1 0M488 182l0 -2M488 182l1 0M489 183l0 -1M489 183l1 1M490 185l0 -1M490 185l1 0M491 186l0 -1M491 186l1 0M492 188l0 -2M492 188l1 0M493 189l0 -1M493 189l1 0M494 191l0 -2M494 191l1 0M495 192l0 -1"/>
<path stroke="#F0E68C" d="M495 192l1 0M496 193l0 -1M496 193l1 0M497 195l0 -2M497 195l1 0M498 196l0 -1M498 196l1 0M499 197l0 -1M499 197l1 0M500 198l0 -1M500 198l1 0M501 199l0 -1M501 199l6 6 1 0M508 206l0 -1M508 206l1 0M509 207l0 -1M509 207l1 0"/>
<path stroke="#F0E68C" d="M510 208l0 -1M510 208l2 0M512 209l0 -1M512 209l2 0M514 210l0 -1M514 210l2 0M516 211l0 -1M516 211l4 0M520 212l0 -1M520 212l4 0 1 -1 4 0 0 -1 2 0 0 -1 2 0 0 -1 1 0 0 -1 2 0 0 -1 1 0 0 -1 1 0 0 -1 1 0 3 -3 0 -1 1 0 0 -1"/>
<path stroke="#F0E68C" d="M543 199l1 0 0 -1 1 0 0 -1 1 0 0 -1 1 0 0 -1 1 0 0 -2 1 0 0 -1 1 0 0 -1 1 -1 0 -1 1 0 0 -1 1 0 0 -1 1 -1 0 -1 1 0 0 -1 1 -1 0 -1 1 0 0 -1 1 -1 0 -1 1 0 0 -1 1 -1 0 -1 1 0 0 -2 1 0 0 -1 1 0 0 -2 1 0 0 -1 1 -1 0 -1 1 0"/>
<path stroke="#F0E68C" d="M566 168l0 -1 1 -1 0 -1 1 0 0 -2 1 0 0 -1 1 -1 0 -1 1 0 0 -1 1 -1 0 -1 1 0 0 -2 1 0 0 -1 1 0 0 -2 1 0 0 -1 1 0 0 -2 1 0 0 -1 1 0 0 -1 1 -1 0 -1 1 0 0 -1 1 -1 0 -1 1 0 0 -1 1 0 0 -1 1 0 0 -2 1 0 0 -1 1 0 0 -1 1 0 0 -1"/>
<path stroke="#F0E68C" d="M588 135l1 0 0 -1 1 0 0 -1 1 0 0 -1 1 0 0 -1 1 0 0 -1 1 0 0 -1 1 0 0 -1 2 0 0 -1 1 0 0 -1 2 0 0 -1 2 0 0 -1 2 0 1 -1 9 0M614 124l0 -1M614 124l3 0M617 125l0 -1M617 125l2 0M619 126l0 -1M619 126l2 0M621 127l0 -1M621 127l1 0"/>
<path stroke="#F0E68C" d="M622 128l0 -1M622 128l1 0 1 1 1 0M625 130l0 -1M625 130l1 0M626 131l0 -1M626 131l1 0M627 132l0 -1M627 132l1 0M628 133l0 -1M628 133l1 0M629 134l0 -1M629 134l1 0M630 135l0 -1M630 135l1 0M631 136l0 -1M631 136l1 1M632 138l0 -1"/>
<path stroke="#F0E68C" d="M632 138l1 0M633 139l0 -1M633 139l1 0M634 140l0 -1M634 140l1 0M635 141l0 -1M635 141l1 1M636 143l0 -1M636 143l1 0M637 144l0 -1M637 144l1 0M638 145l0 -1M638 145l1 1M639 147l0 -1M639 147l1 0M640 148l0 -1M640 148l1 1M641 150l0 -1"/>
<path stroke="#F0E68C" d="M641 150l1 0M642 151l0 -1M642 151l1 0M643 153l0 -2M643 153l1 0M644 154l0 -1M644 154l1 1M645 156l0 -1M645 156l1 0M646 157l0 -1M646 157l1 1M647 159l0 -1M647 159l1 0M648 161l0 -2M648 161l1 0M649 162l0 -1M649 162l1 0M650 164l0 -2"/>
<path stroke="#F0E68C" d="M650 164l1 0M651 166l0 -2M651 166l1 0M652 167l0 -1M652 167l1 1M653 169l0 -1M653 169l1 0M654 170l0 -1M654 170l1 1M655 172l0 -1M655 172l1 0M656 174l0 -2M656 174l1 0M657 175l0 -1M657 175l1 1M658 177l0 -1M658 177l1 0M659 179l0 -2"/>
<path stroke="#F0E68C" d="M659 179l1 0M660 180l0 -1M660 180l1 1M661 182l0 -1M661 182l1 0M662 183l0 -1M662 183l1 1M663 185l0 -1M663 185l1 0M664 186l0 -1M664 186l1 1M665 188l0 -1M665 188l1 0M666 189l0 -1M666 189l1 0M667 191l0 -2M667 191l1 0M668 192l0 -1"/>
<path stroke="#F0E68C" d="M668 192l1 0M669 193l0 -1M669 193l1 1M670 195l0 -1M670 195l1 0M671 196l0 -1M671 196l1 0M672 197l0 -1M672 197l2 2M674 200l0 -1M674 200l1 0M675 201l0 -1M675 201l1 0M676 202l0 -1M676 202l1 0M677 203l0 -1M677 203l1 0M678 204l0 -1"/>
<path stroke="#F0E68C" d="M678 204l1 0M679 205l0 -1M679 205l1 0M680 206l0 -1M680 206l1 0M681 207l0 -1M681 207l1 0M682 208l0 -1M682 208l1 0 1 1 1 0M685 210l0 -1M685 210l2 0M687 211l0 -1M687 211l2 0M689 212l0 -1M689 212l2 0M691 213l0 -1M691 213l10 0"/>
<path stroke="#F0E68C" d="M701 213l1 -1 2 0 0 -1 2 0 0 -1 2 0 0 -1 1 0 0 -1 2 0 0 -1 1 0 0 -1 1 0 0 -1 1 0 0 -1 1 0 0 -1 1 0 0 -1 1 0 0 -1 1 0 0 -1 1 0 0 -1 1 -1 0 -1 1 0 0 -1 1 0 0 -1 1 0 0 -1 1 -1 0 -1 1 0 0 -1 1 0 0 -1 1 -1 0 -1 1 0 0 -1 1 0"/>
<path stroke="#F0E68C" d="M729 187l0 -2 1 0 0 -1 1 -1 0 -1 1 0 0 -1 1 0 0 -2 1 0 0 -1 1 -1 0 -1 1 0 0 -1 1 -1 0 -1 1 0 0 -2 1 0 0 -1 1 -1 0 -1 1 0 0 -1 1 -1 0 -1 1 0 0 -2 1 0 0 -1 1 0 0 -2 1 0 0 -1 1 -1 0 -1 1 0 0 -1 1 -1 0 -1 1 0 0 -2 1 0 0 -1"/>
<path stroke="#F0E68C" d="M751 151l1 0 0 -1 1 -1 0 -1 1 0 0 -1 1 -1 0 -1 1 0 0 -1 1 0 0 -1 1 -1 0 -1 1 0 0 -1 1 0 0 -1 1 0 0 -1 1 0 0 -1 1 -1 0 -1 1 0 4 -4 1 0 0 -1 1 0 0 -1 1 0 1 -1 1 0 0 -1 2 0 0 -1 2 0 0 -1 5 0 0 -1 3 0M785 125l0 -1M785 125l4 0"/>
<path stroke="#F0E68C" d="M789 125l1 1 2 0M792 127l0 -1M792 127l2 0M794 128l0 -1M794 128l1 0M795 129l0 -1M795 129l2 0M797 130l0 -1M797 130l1 0M798 131l0 -1M798 131l1 0M799 132l0 -1M799 132l1 0M800 133l0 -1M800 133l1 0M801 134l0 -1M801 134l1 0"/>
<path stroke="#F0E68C" d="M802 135l0 -1M802 135l1 0M803 136l0 -1M803 136l1 0M804 137l0 -1M804 137l1 0M805 138l0 -1M805 138l1 0M806 139l0 -1M806 139l1 0M807 140l0 -1M807 140l1 1M808 142l0 -1M808 142l1 0M809 143l0 -1M809 143l1 0M810 144l0 -1M810 144l1 1"/>
<path stroke="#F0E68C" d="M811 146l0 -1M811 146l1 0M812 147l0 -1M812 147l1 0M813 148l0 -1M813 148l1 1M814 150l0 -1M814 150l1 0M815 151l0 -1M815 151l1 0M816 153l0 -2M816 153l1 0M817 154l0 -1M817 154l1 1M818 156l0 -1M818 156l1 0M819 157l0 -1M819 157l1 1"/>
<path stroke="#F0E68C" d="M820 159l0 -1M820 159l1 0M821 161l0 -2M821 161l1 0M822 162l0 -1M822 162l1 1M823 164l0 -1M823 164l1 0M824 165l0 -1M824 165l1 1M825 167l0 -1M825 167l1 0M826 169l0 -2M826 169l1 0M827 170l0 -1M827 170l1 1M828 172l0 -1M828 172l1 0"/>
<path stroke="#F0E68C" d="M829 174l0 -2M829 174l1 0M830 175l0 -1M830 175l1 1M831 177l0 -1M831 177l1 0M832 179l0 -2M832 179l1 0M833 180l0 -1M833 180l1 0M834 182l0 -2M834 182l1 0M835 183l0 -1M835 183l1 0M836 185l0 -2M836 185l1 0M837 186l0 -1M837 186l1 1"/>
<path stroke="#F0E68C" d="M838 188l0 -1M838 188l1 0M839 189l0 -1M839 189l1 1M840 191l0 -1M840 191l1 0M841 192l0 -1M841 192l1 1M842 194l0 -1M842 194l1 0M843 195l0 -1M843 195l1 0M844 196l0 -1M844 196l1 1M845 198l0 -1M845 198l1 0M846 199l0 -1M846 199l1 0"/>
<path stroke="#F0E68C" d="M847 200l0 -1M847 200l1 0M848 201l0 -1M848 201l1 1M849 203l0 -1M849 203l1 0M850 204l0 -1M850 204l1 0M851 205l0 -1M851 205l1 0M852 206l0 -1M852 206l1 0M853 207l0 -1M853 207l1 0M854 208l0 -1M854 208l2 0M856 209l0 -1M856 209l1 0"/>
<path stroke="#F0E68C" d="M857 210l0 -1M857 210l1 0M858 211l0 -1M858 211l2 0M860 212l0 -1M860 212l1 0 1 1 2 0M864 214l0 -1M864 214l3 0M867 215l0 -1M867 215l7 0 0 -1 3 0 0 -1 2 0 1 -1 1 0 0 -1 2 0 0 -1 1 0 0 -1 1 0 0 -1 1 0 1 -1 1 0 0 -1 1 0 0 -1"/>
<path stroke="#F0E68C" d="M889 205l1 0 0 -1 2 -2 0 -1 1 0 0 -1 1 0 0 -1 1 0 0 -1 1 0 0 -1 1 -1 0 -1 1 0 0 -1 1 0 0 -1 1 -1 0 -1 1 0 0 -1 1 -1 0 -1 1 0 0 -1 1 0 0 -2 1 0 0 -1 1 -1 0 -1 1 0 0 -1 1 0 0 -2 1 0 0 -1 1 -1 0 -1 1 0 0 -1 1 -1 0 -1 1 0"/>
<path stroke="#F0E68C" d="M913 173l0 -2 1 0 0 -1 1 0 0 -2 1 0 0 -2 1 0 0 -1 1 0 0 -2 1 0 0 -1 1 -1 0 -1 1 0 0 -1 1 -1 0 -1 1 0 0 -1 1 -1 0 -1 1 0 0 -2 1 0 0 -1 1 0 0 -1 1 -1 0 -1 1 0 0 -1 1 0 0 -1 1 -1 0 -1 1 0 0 -1 1 0 0 -1 2 -2 0 -1 1 0 0 -1"/>
<path stroke="#F0E68C" d="M936 138l1 0 0 -1 1 0 0 -1 1 0 0 -1 1 0 0 -1 1 0 0 -1 1 0 0 -1 1 0 1 -1 1 0 0 -1 1 0 1 -1 1 0 0 -1 2 0 0 -1 3 0 0 -1 2 0"/>
</svg>
