<?xml version='1.0' encoding='ASCII' standalone='yes'?>
<svg xmlns="http://www.w3.org/2000/svg" xmlns:xlink="http://www.w3.org/1999/xlink" width="295.95000000000005" height="602.25" viewBox="-52.825 -69.675 98.65 200.75">
<defs>
<style type="text/css">
.l64d44 {stroke: #E25822; fill: #E25822; fill-opacity: 0.5;}
.l67d44 {stroke: #875692; fill: #875692; fill-opacity: 0.5;}
.l66d44 {stroke: #F3C300; fill: #F3C300; fill-opacity: 0.5;}
.l68d44 {stroke: #F38400; fill: #F38400; fill-opacity: 0.5;}
.l95d20 {stroke: #654522; fill: #654522; fill-opacity: 0.5;}
.l94d20 {stroke: #8DB600; fill: #8DB600; fill-opacity: 0.5;}
.l65d20 {stroke: #008856; fill: #008856; fill-opacity: 0.5;}
.l64d20 {stroke: #848482; fill: #848482; fill-opacity: 0.5;}
.l67d20 {stroke: #0067A5; fill: #0067A5; fill-opacity: 0.5;}
.l66d20 {stroke: #E68FAC; fill: #E68FAC; fill-opacity: 0.5;}
.l93d44 {stroke: #008856; fill: #008856; fill-opacity: 0.5;}
.l68d20 {stroke: #F99379; fill: #F99379; fill-opacity: 0.5;}
.l69d20 {stroke: #604E97; fill: #604E97; fill-opacity: 0.5;}
</style>
<g id="straight_route_a300cee3$1">
<polygon id="0x3ff0e410" class="l68d20" points="4.7,17.15 17.55,17.15 17.55,20.05 4.7,20.05"/>
</g>
<g id="straight_route_d26e7eb0">
<polygon id="0x3f884240" class="l68d20" points="-39.4,21.45 -4.7,21.45 -4.7,24.35 -39.4,24.35"/>
</g>
<g id="straight_route_a300cee3">
<polygon id="0x3ff9d0c0" class="l68d20" points="4.7,17.15 17.55,17.15 17.55,20.05 4.7,20.05"/>
</g>
<g id="Unnamed_615fdc9f">
<polygon id="0x3f83d3a0" class="l64d20" points="-35.4,-35.55 35.4,-35.55 35.4,35.55 -35.4,35.55"/>
<polygon id="0x3fef4350" class="l66d20" points="-0.75,-16.8 -0.75,18.2 0.75,18.2 0.75,-16.8"/>
<polygon id="0x3fac99e0" class="l66d44" points="2.4,-10.35 2.4,-8.65 4.1,-8.65 4.1,-10.35"/>
<polygon id="0x3fa408c0" class="l67d20" points="1.6,-11.15 1.6,-7.85 4.9,-7.85 4.9,-11.15"/>
<polygon id="0x3dcb86c0" class="l67d20" points="1.6,-7.75 1.6,-4.45 4.9,-4.45 4.9,-7.75"/>
<polygon id="0x3febcbf0" class="l66d44" points="2.4,10.05 2.4,11.75 4.1,11.75 4.1,10.05"/>
<polygon id="0x3f81b4a0" class="l67d20" points="1.6,9.25 1.6,12.55 4.9,12.55 4.9,9.25"/>
<polygon id="0x3f8e0490" class="l66d44" points="2.4,-6.95 2.4,-5.25 4.1,-5.25 4.1,-6.95"/>
<polygon id="0x3fd01cc0" class="l66d44" points="2.4,6.65 2.4,8.35 4.1,8.35 4.1,6.65"/>
<polygon id="0x3fb2e330" class="l67d20" points="1.6,5.85 1.6,9.15 4.9,9.15 4.9,5.85"/>
<polygon id="0x3f901700" class="l67d20" points="1.6,-4.35 1.6,-1.05 4.9,-1.05 4.9,-4.35"/>
<polygon id="0x3fc29160" class="l66d44" points="2.4,3.25 2.4,4.95 4.1,4.95 4.1,3.25"/>
<polygon id="0x3faeefb0" class="l67d20" points="1.6,2.45 1.6,5.75 4.9,5.75 4.9,2.45"/>
<polygon id="0x3faef020" class="l66d44" points="2.4,-3.55 2.4,-1.85 4.1,-1.85 4.1,-3.55"/>
<polygon id="0x3fc171b0" class="l66d44" points="2.4,-0.15 2.4,1.55 4.1,1.55 4.1,-0.15"/>
<polygon id="0x3f96ffe0" class="l67d20" points="1.6,-0.95 1.6,2.35 4.9,2.35 4.9,-0.95"/>
<polygon id="0x3ffcf0a0" class="l67d20" points="1.6,-14.3 1.6,15.7 4.9,15.7 4.9,-14.3"/>
<polygon id="0x3fb2e2a0" class="l67d44" points="2.4,-12.75 2.4,-11.05 4.1,-11.05 4.1,-12.75"/>
<polygon id="0x3fb0fbb0" class="l68d20" points="1.8,-13.35 1.8,-10.45 4.7,-10.45 4.7,-13.35"/>
<polygon id="0x3fb0fc20" class="l67d20" points="2.4,-12.75 2.4,-11.05 4.1,-11.05 4.1,-12.75"/>
<polygon id="0x3fc682c0" class="l67d44" points="2.4,12.45 2.4,14.15 4.1,14.15 4.1,12.45"/>
<polygon id="0x3fb5cba0" class="l68d20" points="1.8,11.85 1.8,14.75 4.7,14.75 4.7,11.85"/>
<polygon id="0x3fca7ce0" class="l67d20" points="2.4,12.45 2.4,14.15 4.1,14.15 4.1,12.45"/>
<polygon id="0x3fca7d50" class="l67d44" points="2.4,8.85 2.4,10.55 4.1,10.55 4.1,8.85"/>
<polygon id="0x3fb12680" class="l68d20" points="1.8,8.25 1.8,11.15 4.7,11.15 4.7,8.25"/>
<polygon id="0x3fab1540" class="l67d20" points="2.4,8.85 2.4,10.55 4.1,10.55 4.1,8.85"/>
<polygon id="0x3fab1610" class="l67d44" points="2.4,5.25 2.4,6.95 4.1,6.95 4.1,5.25"/>
<polygon id="0x3faae040" class="l68d20" points="1.8,4.65 1.8,7.55 4.7,7.55 4.7,4.65"/>
<polygon id="0x3fce5ae0" class="l67d20" points="2.4,5.25 2.4,6.95 4.1,6.95 4.1,5.25"/>
<polygon id="0x3fce5bb0" class="l67d44" points="2.4,1.65 2.4,3.35 4.1,3.35 4.1,1.65"/>
<polygon id="0x3f925380" class="l68d20" points="1.8,1.05 1.8,3.95 4.7,3.95 4.7,1.05"/>
<polygon id="0x3fbe22b0" class="l67d20" points="2.4,1.65 2.4,3.35 4.1,3.35 4.1,1.65"/>
<polygon id="0x3fbe2380" class="l67d44" points="2.4,-1.95 2.4,-0.25 4.1,-0.25 4.1,-1.95"/>
<polygon id="0x3f9f95e0" class="l68d20" points="1.8,-2.55 1.8,0.35 4.7,0.35 4.7,-2.55"/>
<polygon id="0x3ff562a0" class="l67d20" points="2.4,-1.95 2.4,-0.25 4.1,-0.25 4.1,-1.95"/>
<polygon id="0x3ff56370" class="l67d44" points="2.4,-5.55 2.4,-3.85 4.1,-3.85 4.1,-5.55"/>
<polygon id="0x3fa66700" class="l68d20" points="1.8,-6.15 1.8,-3.25 4.7,-3.25 4.7,-6.15"/>
<polygon id="0x3ff2b820" class="l67d20" points="2.4,-5.55 2.4,-3.85 4.1,-3.85 4.1,-5.55"/>
<polygon id="0x3ff2b8f0" class="l67d44" points="2.4,-9.15 2.4,-7.45 4.1,-7.45 4.1,-9.15"/>
<polygon id="0x3fc46e70" class="l68d20" points="1.8,-9.75 1.8,-6.85 4.7,-6.85 4.7,-9.75"/>
<polygon id="0x3f85a300" class="l67d20" points="2.4,-9.15 2.4,-7.45 4.1,-7.45 4.1,-9.15"/>
<polygon id="0x3f85a3d0" class="l68d20" points="1.8,-14.3 1.8,15.7 4.7,15.7 4.7,-14.3"/>
<polygon id="0x3f88dfd0" class="l67d20" points="2.4,-12.75 2.4,14.15 4.1,14.15 4.1,-12.75"/>
<polygon id="0x3fb72630" class="l66d44" points="-4.1,-10.35 -4.1,-8.65 -2.4,-8.65 -2.4,-10.35"/>
<polygon id="0x3fb72700" class="l67d20" points="-4.9,-11.15 -4.9,-7.85 -1.6,-7.85 -1.6,-11.15"/>
<polygon id="0x3f9f34f0" class="l67d20" points="-4.9,-7.75 -4.9,-4.45 -1.6,-4.45 -1.6,-7.75"/>
<polygon id="0x3fae4e40" class="l66d44" points="-4.1,10.05 -4.1,11.75 -2.4,11.75 -2.4,10.05"/>
<polygon id="0x3fae4f10" class="l67d20" points="-4.9,9.25 -4.9,12.55 -1.6,12.55 -1.6,9.25"/>
<polygon id="0x3fa683b0" class="l66d44" points="-4.1,-6.95 -4.1,-5.25 -2.4,-5.25 -2.4,-6.95"/>
<polygon id="0x3fb03a20" class="l66d44" points="-4.1,6.65 -4.1,8.35 -2.4,8.35 -2.4,6.65"/>
<polygon id="0x3fb03af0" class="l67d20" points="-4.9,5.85 -4.9,9.15 -1.6,9.15 -1.6,5.85"/>
<polygon id="0x3f970b50" class="l67d20" points="-4.9,-4.35 -4.9,-1.05 -1.6,-1.05 -1.6,-4.35"/>
<polygon id="0x3ffa3840" class="l66d44" points="-4.1,3.25 -4.1,4.95 -2.4,4.95 -2.4,3.25"/>
<polygon id="0x3ffa3910" class="l67d20" points="-4.9,2.45 -4.9,5.75 -1.6,5.75 -1.6,2.45"/>
<polygon id="0x3ff9f370" class="l66d44" points="-4.1,-3.55 -4.1,-1.85 -2.4,-1.85 -2.4,-3.55"/>
<polygon id="0x3fc9dba0" class="l66d44" points="-4.1,-0.15 -4.1,1.55 -2.4,1.55 -2.4,-0.15"/>
<polygon id="0x3fc9dc70" class="l67d20" points="-4.9,-0.95 -4.9,2.35 -1.6,2.35 -1.6,-0.95"/>
<polygon id="0x3fc916e0" class="l67d20" points="-4.9,-14.3 -4.9,15.7 -1.6,15.7 -1.6,-14.3"/>
<polygon id="0x3f9e3600" class="l67d44" points="-4.1,-12.75 -4.1,-11.05 -2.4,-11.05 -2.4,-12.75"/>
<polygon id="0x3f9e36d0" class="l68d20" points="-4.7,-13.35 -4.7,-10.45 -1.8,-10.45 -1.8,-13.35"/>
<polygon id="0x3fa3d9a0" class="l67d20" points="-4.1,-12.75 -4.1,-11.05 -2.4,-11.05 -2.4,-12.75"/>
<polygon id="0x3fb53670" class="l67d44" points="-4.1,12.45 -4.1,14.15 -2.4,14.15 -2.4,12.45"/>
<polygon id="0x3fb53740" class="l68d20" points="-4.7,11.85 -4.7,14.75 -1.8,14.75 -1.8,11.85"/>
<polygon id="0x3fcdb1f0" class="l67d20" points="-4.1,12.45 -4.1,14.15 -2.4,14.15 -2.4,12.45"/>
<polygon id="0x3f80fb10" class="l67d44" points="-4.1,8.85 -4.1,10.55 -2.4,10.55 -2.4,8.85"/>
<polygon id="0x3f80fbe0" class="l68d20" points="-4.7,8.25 -4.7,11.15 -1.8,11.15 -1.8,8.25"/>
<polygon id="0x3f8dee70" class="l67d20" points="-4.1,8.85 -4.1,10.55 -2.4,10.55 -2.4,8.85"/>
<polygon id="0x3f894350" class="l67d44" points="-4.1,5.25 -4.1,6.95 -2.4,6.95 -2.4,5.25"/>
<polygon id="0x3f894420" class="l68d20" points="-4.7,4.65 -4.7,7.55 -1.8,7.55 -1.8,4.65"/>
<polygon id="0x3f8f4440" class="l67d20" points="-4.1,5.25 -4.1,6.95 -2.4,6.95 -2.4,5.25"/>
<polygon id="0x3ff25000" class="l67d44" points="-4.1,1.65 -4.1,3.35 -2.4,3.35 -2.4,1.65"/>
<polygon id="0x3ff250d0" class="l68d20" points="-4.7,1.05 -4.7,3.95 -1.8,3.95 -1.8,1.05"/>
<polygon id="0x3fccf4a0" class="l67d20" points="-4.1,1.65 -4.1,3.35 -2.4,3.35 -2.4,1.65"/>
<polygon id="0x3fd240e0" class="l67d44" points="-4.1,-1.95 -4.1,-0.25 -2.4,-0.25 -2.4,-1.95"/>
<polygon id="0x3fd241b0" class="l68d20" points="-4.7,-2.55 -4.7,0.35 -1.8,0.35 -1.8,-2.55"/>
<polygon id="0x3f884d70" class="l67d20" points="-4.1,-1.95 -4.1,-0.25 -2.4,-0.25 -2.4,-1.95"/>
<polygon id="0x3fcf7440" class="l67d44" points="-4.1,-5.55 -4.1,-3.85 -2.4,-3.85 -2.4,-5.55"/>
<polygon id="0x3fcf7510" class="l68d20" points="-4.7,-6.15 -4.7,-3.25 -1.8,-3.25 -1.8,-6.15"/>
<polygon id="0x3ffb3d20" class="l67d20" points="-4.1,-5.55 -4.1,-3.85 -2.4,-3.85 -2.4,-5.55"/>
<polygon id="0x3fd9ac60" class="l67d44" points="-4.1,-9.15 -4.1,-7.45 -2.4,-7.45 -2.4,-9.15"/>
<polygon id="0x3fd9ad30" class="l68d20" points="-4.7,-9.75 -4.7,-6.85 -1.8,-6.85 -1.8,-9.75"/>
<polygon id="0x3ff4d4e0" class="l67d20" points="-4.1,-9.15 -4.1,-7.45 -2.4,-7.45 -2.4,-9.15"/>
<polygon id="0x3fb00db0" class="l68d20" points="-4.7,-14.3 -4.7,15.7 -1.8,15.7 -1.8,-14.3"/>
<polygon id="0x3fb00e80" class="l67d20" points="-4.1,-12.75 -4.1,14.15 -2.4,14.15 -2.4,-12.75"/>
<polygon id="0x3f974550" class="l94d20" points="-6.8,-15.6 -6.8,17 6.8,17 6.8,-15.6"/>
<polygon id="0x3facc960" class="l65d20" points="-5.5,-14.3 -5.5,15.7 5.5,15.7 5.5,-14.3"/>
<polygon id="0x3facca30" class="l67d44" points="-4.1,17.75 -4.1,19.45 -2.4,19.45 -2.4,17.75"/>
<polygon id="0x3f8a1960" class="l68d20" points="-4.7,17.15 -4.7,20.05 -1.8,20.05 -1.8,17.15"/>
<polygon id="0x3fce74c0" class="l67d20" points="-4.1,17.75 -4.1,19.45 -2.4,19.45 -2.4,17.75"/>
<polygon id="0x3fce7590" class="l66d20" points="16.65,-16.8 16.65,18.2 18.15,18.2 18.15,-16.8"/>
<polygon id="0x3fc84e90" class="l66d44" points="19.8,-10.35 19.8,-8.65 21.5,-8.65 21.5,-10.35"/>
<polygon id="0x3ff98850" class="l67d20" points="19,-11.15 19,-7.85 22.3,-7.85 22.3,-11.15"/>
<polygon id="0x3ff98920" class="l67d20" points="19,-7.75 19,-4.45 22.3,-4.45 22.3,-7.75"/>
<polygon id="0x3f869c10" class="l66d44" points="19.8,10.05 19.8,11.75 21.5,11.75 21.5,10.05"/>
<polygon id="0x3fc9d580" class="l67d20" points="19,9.25 19,12.55 22.3,12.55 22.3,9.25"/>
<polygon id="0x3fc9d650" class="l66d44" points="19.8,-6.95 19.8,-5.25 21.5,-5.25 21.5,-6.95"/>
<polygon id="0x3fa69ce0" class="l66d44" points="19.8,6.65 19.8,8.35 21.5,8.35 21.5,6.65"/>
<polygon id="0x3f87fe70" class="l67d20" points="19,5.85 19,9.15 22.3,9.15 22.3,5.85"/>
<polygon id="0x3f87ff40" class="l67d20" points="19,-4.35 19,-1.05 22.3,-1.05 22.3,-4.35"/>
<polygon id="0x3f887680" class="l66d44" points="19.8,3.25 19.8,4.95 21.5,4.95 21.5,3.25"/>
<polygon id="0x3e0a3c30" class="l67d20" points="19,2.45 19,5.75 22.3,5.75 22.3,2.45"/>
<polygon id="0x3e0a3d00" class="l66d44" points="19.8,-3.55 19.8,-1.85 21.5,-1.85 21.5,-3.55"/>
<polygon id="0x3fc595b0" class="l66d44" points="19.8,-0.15 19.8,1.55 21.5,1.55 21.5,-0.15"/>
<polygon id="0x3f90fe90" class="l67d20" points="19,-0.95 19,2.35 22.3,2.35 22.3,-0.95"/>
<polygon id="0x3f90ff00" class="l67d20" points="19,-14.3 19,15.7 22.3,15.7 22.3,-14.3"/>
<polygon id="0x3fd1fba0" class="l66d44" points="13.3,-10.35 13.3,-8.65 15,-8.65 15,-10.35"/>
<polygon id="0x3fd1fc70" class="l67d20" points="12.5,-11.15 12.5,-7.85 15.8,-7.85 15.8,-11.15"/>
<polygon id="0x3f928910" class="l67d20" points="12.5,-7.75 12.5,-4.45 15.8,-4.45 15.8,-7.75"/>
<polygon id="0x3f913f70" class="l66d44" points="13.3,10.05 13.3,11.75 15,11.75 15,10.05"/>
<polygon id="0x3f913fe0" class="l67d20" points="12.5,9.25 12.5,12.55 15.8,12.55 15.8,9.25"/>
<polygon id="0x3fc357a0" class="l66d44" points="13.3,-6.95 13.3,-5.25 15,-5.25 15,-6.95"/>
<polygon id="0x3fc35870" class="l66d44" points="13.3,6.65 13.3,8.35 15,8.35 15,6.65"/>
<polygon id="0x3f86b960" class="l67d20" points="12.5,5.85 12.5,9.15 15.8,9.15 15.8,5.85"/>
<polygon id="0x3f9f8bf0" class="l67d20" points="12.5,-4.35 12.5,-1.05 15.8,-1.05 15.8,-4.35"/>
<polygon id="0x3f9f8c60" class="l66d44" points="13.3,3.25 13.3,4.95 15,4.95 15,3.25"/>
<polygon id="0x3fa832c0" class="l67d20" points="12.5,2.45 12.5,5.75 15.8,5.75 15.8,2.45"/>
<polygon id="0x3fa83390" class="l66d44" points="13.3,-3.55 13.3,-1.85 15,-1.85 15,-3.55"/>
<polygon id="0x3feb8790" class="l66d44" points="13.3,-0.15 13.3,1.55 15,1.55 15,-0.15"/>
<polygon id="0x3ff14dc0" class="l67d20" points="12.5,-0.95 12.5,2.35 15.8,2.35 15.8,-0.95"/>
<polygon id="0x3ff14e30" class="l67d20" points="12.5,-14.3 12.5,15.7 15.8,15.7 15.8,-14.3"/>
<polygon id="0x3f93f090" class="l94d20" points="10.6,-15.6 10.6,17 24.2,17 24.2,-15.6"/>
<polygon id="0x3f93f160" class="l65d20" points="11.9,-14.3 11.9,15.7 22.9,15.7 22.9,-14.3"/>
<polygon id="0x3f920850" class="l66d44" points="16.55,-19.3 16.55,-17.6 18.25,-17.6 18.25,-19.3"/>
<polygon id="0x3f920920" class="l66d20" points="15.75,-20.1 15.75,-16.8 19.05,-16.8 19.05,-20.1"/>
<polygon id="0x3fa55b70" class="l67d20" points="15.75,-20.1 15.75,-16.8 19.05,-16.8 19.05,-20.1"/>
<polygon id="0x3fa55c40" class="l66d20" points="15.75,-20.1 15.75,-16.8 19.05,-16.8 19.05,-20.1"/>
<polygon id="0x3f9a00d0" class="l95d20" points="15.55,-20.3 19.25,-20.3 19.25,-16.6 15.55,-16.6"/>
<polygon id="0x3f9a01a0" class="l67d20" points="12.5,-20.1 15.75,-20.1 15.75,-16.8 12.5,-16.8"/>
<polygon id="0x3f9a1540" class="l67d20" points="12.5,-20.1 15.8,-20.1 15.8,-14.3 12.5,-14.3"/>
<polygon id="0x3f9a1610" class="l67d20" points="19.05,-20.1 22.3,-20.1 22.3,-16.8 19.05,-16.8"/>
<polygon id="0x3f943e90" class="l67d20" points="19,-20.1 22.3,-20.1 22.3,-14.3 19,-14.3"/>
<polygon id="0x3f943f60" class="l66d20" points="-18.15,-16.8 -18.15,18.2 -16.65,18.2 -16.65,-16.8"/>
<polygon id="0x3ffca730" class="l66d44" points="-15,-10.35 -15,-8.65 -13.3,-8.65 -13.3,-10.35"/>
<polygon id="0x3ffca800" class="l67d20" points="-15.8,-11.15 -15.8,-7.85 -12.5,-7.85 -12.5,-11.15"/>
<polygon id="0x3fdbf230" class="l67d20" points="-15.8,-7.75 -15.8,-4.45 -12.5,-4.45 -12.5,-7.75"/>
<polygon id="0x3fdbf300" class="l66d44" points="-15,10.05 -15,11.75 -13.3,11.75 -13.3,10.05"/>
<polygon id="0x3fc1a310" class="l67d20" points="-15.8,9.25 -15.8,12.55 -12.5,12.55 -12.5,9.25"/>
<polygon id="0x3fc1a3e0" class="l66d44" points="-15,-6.95 -15,-5.25 -13.3,-5.25 -13.3,-6.95"/>
<polygon id="0x3ff223f0" class="l66d44" points="-15,6.65 -15,8.35 -13.3,8.35 -13.3,6.65"/>
<polygon id="0x3ff224c0" class="l67d20" points="-15.8,5.85 -15.8,9.15 -12.5,9.15 -12.5,5.85"/>
<polygon id="0x3fc68fb0" class="l67d20" points="-15.8,-4.35 -15.8,-1.05 -12.5,-1.05 -12.5,-4.35"/>
<polygon id="0x3fc69080" class="l66d44" points="-15,3.25 -15,4.95 -13.3,4.95 -13.3,3.25"/>
<polygon id="0x3fc18a30" class="l67d20" points="-15.8,2.45 -15.8,5.75 -12.5,5.75 -12.5,2.45"/>
<polygon id="0x3fc18b00" class="l66d44" points="-15,-3.55 -15,-1.85 -13.3,-1.85 -13.3,-3.55"/>
<polygon id="0x3fda52d0" class="l66d44" points="-15,-0.15 -15,1.55 -13.3,1.55 -13.3,-0.15"/>
<polygon id="0x3fda53a0" class="l67d20" points="-15.8,-0.95 -15.8,2.35 -12.5,2.35 -12.5,-0.95"/>
<polygon id="0x3fc901e0" class="l67d20" points="-15.8,-14.3 -15.8,15.7 -12.5,15.7 -12.5,-14.3"/>
<polygon id="0x3fc902b0" class="l66d44" points="-21.5,-10.35 -21.5,-8.65 -19.8,-8.65 -19.8,-10.35"/>
<polygon id="0x3fd25ec0" class="l67d20" points="-22.3,-11.15 -22.3,-7.85 -19,-7.85 -19,-11.15"/>
<polygon id="0x3fd25f90" class="l67d20" points="-22.3,-7.75 -22.3,-4.45 -19,-4.45 -19,-7.75"/>
<polygon id="0x3ff0e930" class="l66d44" points="-21.5,10.05 -21.5,11.75 -19.8,11.75 -19.8,10.05"/>
<polygon id="0x3ff0ea00" class="l67d20" points="-22.3,9.25 -22.3,12.55 -19,12.55 -19,9.25"/>
<polygon id="0x3ffcd040" class="l66d44" points="-21.5,-6.95 -21.5,-5.25 -19.8,-5.25 -19.8,-6.95"/>
<polygon id="0x3ffcd110" class="l66d44" points="-21.5,6.65 -21.5,8.35 -19.8,8.35 -19.8,6.65"/>
<polygon id="0x3fa65bf0" class="l67d20" points="-22.3,5.85 -22.3,9.15 -19,9.15 -19,5.85"/>
<polygon id="0x3fa65cc0" class="l67d20" points="-22.3,-4.35 -22.3,-1.05 -19,-1.05 -19,-4.35"/>
<polygon id="0x3ffc8df0" class="l66d44" points="-21.5,3.25 -21.5,4.95 -19.8,4.95 -19.8,3.25"/>
<polygon id="0x3ffc8ec0" class="l67d20" points="-22.3,2.45 -22.3,5.75 -19,5.75 -19,2.45"/>
<polygon id="0x400532f0" class="l66d44" points="-21.5,-3.55 -21.5,-1.85 -19.8,-1.85 -19.8,-3.55"/>
<polygon id="0x400533c0" class="l66d44" points="-21.5,-0.15 -21.5,1.55 -19.8,1.55 -19.8,-0.15"/>
<polygon id="0x3fd97500" class="l67d20" points="-22.3,-0.95 -22.3,2.35 -19,2.35 -19,-0.95"/>
<polygon id="0x3fd975d0" class="l67d20" points="-22.3,-14.3 -22.3,15.7 -19,15.7 -19,-14.3"/>
<polygon id="0x3f9021b0" class="l94d20" points="-24.2,-15.6 -24.2,17 -10.6,17 -10.6,-15.6"/>
<polygon id="0x3f902280" class="l65d20" points="-22.9,-14.3 -22.9,15.7 -11.9,15.7 -11.9,-14.3"/>
<polygon id="0x3fc17f30" class="l66d44" points="-18.25,-19.3 -18.25,-17.6 -16.55,-17.6 -16.55,-19.3"/>
<polygon id="0x3fc18000" class="l66d20" points="-19.05,-20.1 -19.05,-16.8 -15.75,-16.8 -15.75,-20.1"/>
<polygon id="0x3f7e3230" class="l67d20" points="-19.05,-20.1 -19.05,-16.8 -15.75,-16.8 -15.75,-20.1"/>
<polygon id="0x3f7e3300" class="l66d20" points="-19.05,-20.1 -19.05,-16.8 -15.75,-16.8 -15.75,-20.1"/>
<polygon id="0x3f7e8d80" class="l95d20" points="-19.25,-20.3 -15.55,-20.3 -15.55,-16.6 -19.25,-16.6"/>
<polygon id="0x3f7e8e50" class="l67d20" points="-22.3,-20.1 -19.05,-20.1 -19.05,-16.8 -22.3,-16.8"/>
<polygon id="0x3fbe0830" class="l67d20" points="-22.3,-20.1 -19,-20.1 -19,-14.3 -22.3,-14.3"/>
<polygon id="0x3fbe0900" class="l67d20" points="-15.75,-20.1 -12.5,-20.1 -12.5,-16.8 -15.75,-16.8"/>
<polygon id="0x3fbe6ec0" class="l67d20" points="-15.8,-20.1 -12.5,-20.1 -12.5,-14.3 -15.8,-14.3"/>
<polygon id="0x3fbe6f90" class="l68d20" points="-4.7,21.45 -4.7,24.35 4.7,24.35 4.7,21.45"/>
<polygon id="0x3fc2bf90" class="l68d20" points="-4.7,17.15 -4.7,20.05 4.7,20.05 4.7,17.15"/>
<polygon id="0x3fc2c060" class="l66d44" points="-0.85,-23.3 -0.85,-21.6 0.85,-21.6 0.85,-23.3"/>
<polygon id="0x3ffa2ec0" class="l68d20" points="-1.45,-23.9 -1.45,-21 1.45,-21 1.45,-23.9"/>
<polygon id="0x3ffa2f90" class="l67d20" points="-1.65,-24.1 -1.65,-20.8 1.65,-20.8 1.65,-24.1"/>
<polygon id="0x3fa3f910" class="l67d44" points="-0.85,-23.3 -0.85,-21.6 0.85,-21.6 0.85,-23.3"/>
<polygon id="0x3fa3f9e0" class="l66d20" points="-1.65,-24.1 -1.65,-20.8 1.65,-20.8 1.65,-24.1"/>
<polygon id="0x3febc300" class="l68d20" points="-1.65,-24.1 -1.65,-20.8 1.65,-20.8 1.65,-24.1"/>
<polygon id="0x3febc3d0" class="l66d20" points="-1.65,-24.1 -1.65,-20.8 1.65,-20.8 1.65,-24.1"/>
<polygon id="0x3fb11c90" class="l95d20" points="-1.85,-24.3 1.85,-24.3 1.85,-20.6 -1.85,-20.6"/>
<polygon id="0x3fb11d60" class="l67d20" points="1.6,15.7 4.9,15.7 4.9,23.75 1.6,23.75"/>
<polygon id="0x3fcb4fb0" class="l67d44" points="2.4,22.05 2.4,23.75 4.1,23.75 4.1,22.05"/>
<polygon id="0x3fcb5080" class="l68d20" points="1.8,21.45 1.8,24.35 4.7,24.35 4.7,21.45"/>
<polygon id="0x3f865920" class="l67d20" points="2.4,22.05 2.4,23.75 4.1,23.75 4.1,22.05"/>
<polygon id="0x3f8659f0" class="l66d20" points="-0.75,-20.8 0.75,-20.8 0.75,-16.8 -0.75,-16.8"/>
<polygon id="0x3f908c20" class="l67d20" points="-4.9,15.7 -1.6,15.7 -1.6,19.45 -4.9,19.45"/>
<polygon id="0x3f908cf0" class="l67d20" points="15.75,-20.1 32.3,-20.1 32.3,-16.8 15.75,-16.8"/>
<polygon id="0x3fd40920" class="l67d20" points="-32.3,-20.1 -19.05,-20.1 -19.05,-16.8 -32.3,-16.8"/>
<polygon id="0x3fd409f0" class="l65d20" points="32.3,32.45 -32.3,32.45 -32.3,-28.35 -28.2,-28.35 -28.2,28.35 28.2,28.35 28.2,-28.35 -28.2,-28.35 -32.3,-28.35 -32.3,-32.45 32.3,-32.45"/>
<polygon id="0x3f895840" class="l68d20" points="28.2,-32.45 32.3,-32.45 32.3,-28.35 28.2,-28.35"/>
<polygon id="0x3f895910" class="l67d44" points="29.4,-31.25 29.4,-29.55 31.1,-29.55 31.1,-31.25"/>
<polygon id="0x3fc8ab80" class="l68d20" points="28.8,-31.85 28.8,-28.95 31.7,-28.95 31.7,-31.85"/>
<polygon id="0x3fc8ac50" class="l67d20" points="29.4,-31.25 29.4,-29.55 31.1,-29.55 31.1,-31.25"/>
<polygon id="0x3ffa8a10" class="l68d20" points="28.2,-32.45 28.2,-28.35 32.3,-28.35 32.3,-32.45"/>
<polygon id="0x3ffa8ae0" class="l67d20" points="29.4,-31.25 29.4,-29.55 31.1,-29.55 31.1,-31.25"/>
<polygon id="0x3f9e3a90" class="l67d20" points="28.2,-32.45 32.3,-32.45 32.3,-28.35 28.2,-28.35"/>
<polygon id="0x3f9e3b60" class="l68d20" points="-32.3,-32.45 -28.2,-32.45 -28.2,-28.35 -32.3,-28.35"/>
<polygon id="0x3f906b40" class="l67d44" points="-31.1,-31.25 -31.1,-29.55 -29.4,-29.55 -29.4,-31.25"/>
<polygon id="0x3f906c10" class="l68d20" points="-31.7,-31.85 -31.7,-28.95 -28.8,-28.95 -28.8,-31.85"/>
<polygon id="0x3fa89200" class="l67d20" points="-31.1,-31.25 -31.1,-29.55 -29.4,-29.55 -29.4,-31.25"/>
<polygon id="0x3fa892d0" class="l68d20" points="-32.3,-32.45 -32.3,-28.35 -28.2,-28.35 -28.2,-32.45"/>
<polygon id="0x3f8d6f20" class="l67d20" points="-31.1,-31.25 -31.1,-29.55 -29.4,-29.55 -29.4,-31.25"/>
<polygon id="0x3f8d6ff0" class="l67d20" points="-32.3,-32.45 -28.2,-32.45 -28.2,-28.35 -32.3,-28.35"/>
<polygon id="0x3fbd5ef0" class="l68d20" points="28.2,28.35 32.3,28.35 32.3,32.45 28.2,32.45"/>
<polygon id="0x3fbd5fc0" class="l67d44" points="29.4,29.55 29.4,31.25 31.1,31.25 31.1,29.55"/>
<polygon id="0x3fbfb0c0" class="l68d20" points="28.8,28.95 28.8,31.85 31.7,31.85 31.7,28.95"/>
<polygon id="0x3fbfb190" class="l67d20" points="29.4,29.55 29.4,31.25 31.1,31.25 31.1,29.55"/>
<polygon id="0x3ffacd90" class="l68d20" points="28.2,28.35 28.2,32.45 32.3,32.45 32.3,28.35"/>
<polygon id="0x3fface60" class="l67d20" points="29.4,29.55 29.4,31.25 31.1,31.25 31.1,29.55"/>
<polygon id="0x3fa63410" class="l67d20" points="28.2,28.35 32.3,28.35 32.3,32.45 28.2,32.45"/>
<polygon id="0x3fa634e0" class="l68d20" points="-32.3,28.35 -28.2,28.35 -28.2,32.45 -32.3,32.45"/>
<polygon id="0x3ff15410" class="l67d44" points="-31.1,29.55 -31.1,31.25 -29.4,31.25 -29.4,29.55"/>
<polygon id="0x3ff154e0" class="l68d20" points="-31.7,28.95 -31.7,31.85 -28.8,31.85 -28.8,28.95"/>
<polygon id="0x3fa12410" class="l67d20" points="-31.1,29.55 -31.1,31.25 -29.4,31.25 -29.4,29.55"/>
<polygon id="0x3fa124e0" class="l68d20" points="-32.3,28.35 -32.3,32.45 -28.2,32.45 -28.2,28.35"/>
<polygon id="0x3faa6ae0" class="l67d20" points="-31.1,29.55 -31.1,31.25 -29.4,31.25 -29.4,29.55"/>
<polygon id="0x3faa6bb0" class="l67d20" points="-32.3,28.35 -28.2,28.35 -28.2,32.45 -32.3,32.45"/>
<polygon id="0x3fa4e0e0" class="l66d44" points="-31.1,-24.65 -31.1,-22.95 -29.4,-22.95 -29.4,-24.65"/>
<polygon id="0x3fa4e1b0" class="l67d20" points="-31.9,-25.45 -31.9,-22.15 -28.6,-22.15 -28.6,-25.45"/>
<polygon id="0x3f999650" class="l65d20" points="-32.3,-25.85 -32.3,-21.75 -28.2,-21.75 -28.2,-25.85"/>
<polygon id="0x3f999720" class="l66d44" points="-31.1,22.95 -31.1,24.65 -29.4,24.65 -29.4,22.95"/>
<polygon id="0x3fb0eb00" class="l67d20" points="-31.9,22.15 -31.9,25.45 -28.6,25.45 -28.6,22.15"/>
<polygon id="0x3fb0ebd0" class="l65d20" points="-32.3,21.75 -32.3,25.85 -28.2,25.85 -28.2,21.75"/>
<polygon id="0x3fe56880" class="l66d44" points="-31.1,19.55 -31.1,21.25 -29.4,21.25 -29.4,19.55"/>
<polygon id="0x3fe56950" class="l67d20" points="-31.9,18.75 -31.9,22.05 -28.6,22.05 -28.6,18.75"/>
<polygon id="0x3feb9160" class="l65d20" points="-32.3,18.35 -32.3,22.45 -28.2,22.45 -28.2,18.35"/>
<polygon id="0x3feb9230" class="l66d44" points="-31.1,16.15 -31.1,17.85 -29.4,17.85 -29.4,16.15"/>
<polygon id="0x3fe15410" class="l67d20" points="-31.9,15.35 -31.9,18.65 -28.6,18.65 -28.6,15.35"/>
<polygon id="0x3fe154e0" class="l65d20" points="-32.3,14.95 -32.3,19.05 -28.2,19.05 -28.2,14.95"/>
<polygon id="0x3fdc5540" class="l66d44" points="-31.1,12.75 -31.1,14.45 -29.4,14.45 -29.4,12.75"/>
<polygon id="0x3fdc5610" class="l67d20" points="-31.9,11.95 -31.9,15.25 -28.6,15.25 -28.6,11.95"/>
<polygon id="0x3ffa1f80" class="l65d20" points="-32.3,11.55 -32.3,15.65 -28.2,15.65 -28.2,11.55"/>
<polygon id="0x3ffa2050" class="l66d44" points="-31.1,9.35 -31.1,11.05 -29.4,11.05 -29.4,9.35"/>
<polygon id="0x3fca5580" class="l67d20" points="-31.9,8.55 -31.9,11.85 -28.6,11.85 -28.6,8.55"/>
<polygon id="0x3fca5650" class="l65d20" points="-32.3,8.15 -32.3,12.25 -28.2,12.25 -28.2,8.15"/>
<polygon id="0x3f844020" class="l66d44" points="-31.1,5.95 -31.1,7.65 -29.4,7.65 -29.4,5.95"/>
<polygon id="0x3f8440f0" class="l67d20" points="-31.9,5.15 -31.9,8.45 -28.6,8.45 -28.6,5.15"/>
<polygon id="0x3fbf3fb0" class="l65d20" points="-32.3,4.75 -32.3,8.85 -28.2,8.85 -28.2,4.75"/>
<polygon id="0x3fbf4020" class="l66d44" points="-31.1,2.55 -31.1,4.25 -29.4,4.25 -29.4,2.55"/>
<polygon id="0x3fbf40f0" class="l67d20" points="-31.9,1.75 -31.9,5.05 -28.6,5.05 -28.6,1.75"/>
<polygon id="0x3fc3a0d0" class="l65d20" points="-32.3,1.35 -32.3,5.45 -28.2,5.45 -28.2,1.35"/>
<polygon id="0x3fc3a1a0" class="l66d44" points="-31.1,-0.85 -31.1,0.85 -29.4,0.85 -29.4,-0.85"/>
<polygon id="0x3f894e00" class="l67d20" points="-31.9,-1.65 -31.9,1.65 -28.6,1.65 -28.6,-1.65"/>
<polygon id="0x3f894ed0" class="l65d20" points="-32.3,-2.05 -32.3,2.05 -28.2,2.05 -28.2,-2.05"/>
<polygon id="0x3f9e9800" class="l66d44" points="-31.1,-4.25 -31.1,-2.55 -29.4,-2.55 -29.4,-4.25"/>
<polygon id="0x3f9e9870" class="l67d20" points="-31.9,-5.05 -31.9,-1.75 -28.6,-1.75 -28.6,-5.05"/>
<polygon id="0x3f9e9940" class="l65d20" points="-32.3,-5.45 -32.3,-1.35 -28.2,-1.35 -28.2,-5.45"/>
<polygon id="0x3f83e190" class="l66d44" points="-31.1,-7.65 -31.1,-5.95 -29.4,-5.95 -29.4,-7.65"/>
<polygon id="0x3f83e260" class="l67d20" points="-31.9,-8.45 -31.9,-5.15 -28.6,-5.15 -28.6,-8.45"/>
<polygon id="0x3fc9fe20" class="l65d20" points="-32.3,-8.85 -32.3,-4.75 -28.2,-4.75 -28.2,-8.85"/>
<polygon id="0x3fc9fef0" class="l66d44" points="-31.1,-11.05 -31.1,-9.35 -29.4,-9.35 -29.4,-11.05"/>
<polygon id="0x3fdb8670" class="l67d20" points="-31.9,-11.85 -31.9,-8.55 -28.6,-8.55 -28.6,-11.85"/>
<polygon id="0x3fdb86e0" class="l65d20" points="-32.3,-12.25 -32.3,-8.15 -28.2,-8.15 -28.2,-12.25"/>
<polygon id="0x3fdb87b0" class="l66d44" points="-31.1,-14.45 -31.1,-12.75 -29.4,-12.75 -29.4,-14.45"/>
<polygon id="0x3f9309e0" class="l67d20" points="-31.9,-15.25 -31.9,-11.95 -28.6,-11.95 -28.6,-15.25"/>
<polygon id="0x3f930ab0" class="l65d20" points="-32.3,-15.65 -32.3,-11.55 -28.2,-11.55 -28.2,-15.65"/>
<polygon id="0x3f986e40" class="l66d44" points="-31.1,-17.85 -31.1,-16.15 -29.4,-16.15 -29.4,-17.85"/>
<polygon id="0x3f986f10" class="l67d20" points="-31.9,-18.65 -31.9,-15.35 -28.6,-15.35 -28.6,-18.65"/>
<polygon id="0x3f986fe0" class="l65d20" points="-32.3,-19.05 -32.3,-14.95 -28.2,-14.95 -28.2,-19.05"/>
<polygon id="0x3f923400" class="l66d44" points="-31.1,-21.25 -31.1,-19.55 -29.4,-19.55 -29.4,-21.25"/>
<polygon id="0x3f9234d0" class="l67d20" points="-31.9,-22.05 -31.9,-18.75 -28.6,-18.75 -28.6,-22.05"/>
<polygon id="0x3fa09460" class="l65d20" points="-32.3,-22.45 -32.3,-18.35 -28.2,-18.35 -28.2,-22.45"/>
<polygon id="0x3fa09530" class="l67d20" points="-32.3,-28.35 -32.3,28.35 -28.2,28.35 -28.2,-28.35"/>
<polygon id="0x3fa09600" class="l65d20" points="-32.3,-25.85 -32.3,25.85 -28.2,25.85 -28.2,-25.85"/>
<polygon id="0x3f833800" class="l66d44" points="-23.35,-31.25 -23.35,-29.55 -21.65,-29.55 -21.65,-31.25"/>
<polygon id="0x3f8338d0" class="l68d20" points="-23.95,-31.85 -23.95,-28.95 -21.05,-28.95 -21.05,-31.85"/>
<polygon id="0x3ff45270" class="l67d20" points="-24.15,-32.05 -24.15,-28.75 -20.85,-28.75 -20.85,-32.05"/>
<polygon id="0x3ff45340" class="l67d44" points="-23.35,-31.25 -23.35,-29.55 -21.65,-29.55 -21.65,-31.25"/>
<polygon id="0x3ff45410" class="l65d20" points="-24.55,-32.45 -24.55,-28.35 -20.45,-28.35 -20.45,-32.45"/>
<polygon id="0x3f9f7040" class="l66d44" points="21.65,-31.25 21.65,-29.55 23.35,-29.55 23.35,-31.25"/>
<polygon id="0x3f9f7110" class="l68d20" points="21.05,-31.85 21.05,-28.95 23.95,-28.95 23.95,-31.85"/>
<polygon id="0x3ff1b1d0" class="l67d20" points="20.85,-32.05 20.85,-28.75 24.15,-28.75 24.15,-32.05"/>
<polygon id="0x3ff1b2a0" class="l67d44" points="21.65,-31.25 21.65,-29.55 23.35,-29.55 23.35,-31.25"/>
<polygon id="0x3ff1b370" class="l65d20" points="20.45,-32.45 20.45,-28.35 24.55,-28.35 24.55,-32.45"/>
<polygon id="0x3faf9490" class="l66d44" points="16.65,-31.25 16.65,-29.55 18.35,-29.55 18.35,-31.25"/>
<polygon id="0x3faf9560" class="l68d20" points="16.05,-31.85 16.05,-28.95 18.95,-28.95 18.95,-31.85"/>
<polygon id="0x3f88aa80" class="l67d20" points="15.85,-32.05 15.85,-28.75 19.15,-28.75 19.15,-32.05"/>
<polygon id="0x3f88ab50" class="l67d44" points="16.65,-31.25 16.65,-29.55 18.35,-29.55 18.35,-31.25"/>
<polygon id="0x3f88ac20" class="l65d20" points="15.45,-32.45 15.45,-28.35 19.55,-28.35 19.55,-32.45"/>
<polygon id="0x3f872570" class="l66d44" points="11.65,-31.25 11.65,-29.55 13.35,-29.55 13.35,-31.25"/>
<polygon id="0x3f872640" class="l68d20" points="11.05,-31.85 11.05,-28.95 13.95,-28.95 13.95,-31.85"/>
<polygon id="0x3fd121f0" class="l67d20" points="10.85,-32.05 10.85,-28.75 14.15,-28.75 14.15,-32.05"/>
<polygon id="0x3fd122c0" class="l67d44" points="11.65,-31.25 11.65,-29.55 13.35,-29.55 13.35,-31.25"/>
<polygon id="0x3fd12390" class="l65d20" points="10.45,-32.45 10.45,-28.35 14.55,-28.35 14.55,-32.45"/>
<polygon id="0x3f995a60" class="l66d44" points="6.65,-31.25 6.65,-29.55 8.35,-29.55 8.35,-31.25"/>
<polygon id="0x3f995b30" class="l68d20" points="6.05,-31.85 6.05,-28.95 8.95,-28.95 8.95,-31.85"/>
<polygon id="0x3fc96950" class="l67d20" points="5.85,-32.05 5.85,-28.75 9.15,-28.75 9.15,-32.05"/>
<polygon id="0x3fc96a20" class="l67d44" points="6.65,-31.25 6.65,-29.55 8.35,-29.55 8.35,-31.25"/>
<polygon id="0x3fc96af0" class="l65d20" points="5.45,-32.45 5.45,-28.35 9.55,-28.35 9.55,-32.45"/>
<polygon id="0x3f8a6500" class="l66d44" points="1.65,-31.25 1.65,-29.55 3.35,-29.55 3.35,-31.25"/>
<polygon id="0x3f8a65d0" class="l68d20" points="1.05,-31.85 1.05,-28.95 3.95,-28.95 3.95,-31.85"/>
<polygon id="0x3f8a9050" class="l67d20" points="0.85,-32.05 0.85,-28.75 4.15,-28.75 4.15,-32.05"/>
<polygon id="0x3f8a9120" class="l67d44" points="1.65,-31.25 1.65,-29.55 3.35,-29.55 3.35,-31.25"/>
<polygon id="0x3f8a91f0" class="l65d20" points="0.45,-32.45 0.45,-28.35 4.55,-28.35 4.55,-32.45"/>
<polygon id="0x3f9a0510" class="l66d44" points="-3.35,-31.25 -3.35,-29.55 -1.65,-29.55 -1.65,-31.25"/>
<polygon id="0x3f9a05e0" class="l68d20" points="-3.95,-31.85 -3.95,-28.95 -1.05,-28.95 -1.05,-31.85"/>
<polygon id="0x3fc8fc40" class="l67d20" points="-4.15,-32.05 -4.15,-28.75 -0.85,-28.75 -0.85,-32.05"/>
<polygon id="0x3fc8fd10" class="l67d44" points="-3.35,-31.25 -3.35,-29.55 -1.65,-29.55 -1.65,-31.25"/>
<polygon id="0x3fc8fde0" class="l65d20" points="-4.55,-32.45 -4.55,-28.35 -0.45,-28.35 -0.45,-32.45"/>
<polygon id="0x3ffa6840" class="l66d44" points="-8.35,-31.25 -8.35,-29.55 -6.65,-29.55 -6.65,-31.25"/>
<polygon id="0x3ffa6910" class="l68d20" points="-8.95,-31.85 -8.95,-28.95 -6.05,-28.95 -6.05,-31.85"/>
<polygon id="0x3f99f4c0" class="l67d20" points="-9.15,-32.05 -9.15,-28.75 -5.85,-28.75 -5.85,-32.05"/>
<polygon id="0x3f99f590" class="l67d44" points="-8.35,-31.25 -8.35,-29.55 -6.65,-29.55 -6.65,-31.25"/>
<polygon id="0x3f99f660" class="l65d20" points="-9.55,-32.45 -9.55,-28.35 -5.45,-28.35 -5.45,-32.45"/>
<polygon id="0x3ffa8170" class="l66d44" points="-13.35,-31.25 -13.35,-29.55 -11.65,-29.55 -11.65,-31.25"/>
<polygon id="0x3ffa8240" class="l68d20" points="-13.95,-31.85 -13.95,-28.95 -11.05,-28.95 -11.05,-31.85"/>
<polygon id="0x3fc8d040" class="l67d20" points="-14.15,-32.05 -14.15,-28.75 -10.85,-28.75 -10.85,-32.05"/>
<polygon id="0x3fc8d110" class="l67d44" points="-13.35,-31.25 -13.35,-29.55 -11.65,-29.55 -11.65,-31.25"/>
<polygon id="0x3fc8d1e0" class="l65d20" points="-14.55,-32.45 -14.55,-28.35 -10.45,-28.35 -10.45,-32.45"/>
<polygon id="0x3fa675d0" class="l66d44" points="-18.35,-31.25 -18.35,-29.55 -16.65,-29.55 -16.65,-31.25"/>
<polygon id="0x3fa676a0" class="l68d20" points="-18.95,-31.85 -18.95,-28.95 -16.05,-28.95 -16.05,-31.85"/>
<polygon id="0x3fdc4720" class="l67d20" points="-19.15,-32.05 -19.15,-28.75 -15.85,-28.75 -15.85,-32.05"/>
<polygon id="0x3fdc47f0" class="l67d44" points="-18.35,-31.25 -18.35,-29.55 -16.65,-29.55 -16.65,-31.25"/>
<polygon id="0x3fdc48c0" class="l65d20" points="-19.55,-32.45 -19.55,-28.35 -15.45,-28.35 -15.45,-32.45"/>
<polygon id="0x3f884370" class="l67d20" points="-24.15,-32.05 -24.15,-28.75 24.15,-28.75 24.15,-32.05"/>
<polygon id="0x3f884440" class="l68d20" points="-28.2,-32.45 -28.2,-28.35 28.2,-28.35 28.2,-32.45"/>
<polygon id="0x3fb1a460" class="l65d20" points="-24.55,-32.45 -24.55,-28.35 24.55,-28.35 24.55,-32.45"/>
<polygon id="0x3fb1a530" class="l66d44" points="29.4,-24.65 29.4,-22.95 31.1,-22.95 31.1,-24.65"/>
<polygon id="0x3fb1a600" class="l67d20" points="28.6,-25.45 28.6,-22.15 31.9,-22.15 31.9,-25.45"/>
<polygon id="0x3fca0c60" class="l65d20" points="28.2,-25.85 28.2,-21.75 32.3,-21.75 32.3,-25.85"/>
<polygon id="0x3fca0d30" class="l66d44" points="29.4,22.95 29.4,24.65 31.1,24.65 31.1,22.95"/>
<polygon id="0x3fca5120" class="l67d20" points="28.6,22.15 28.6,25.45 31.9,25.45 31.9,22.15"/>
<polygon id="0x3fca51f0" class="l65d20" points="28.2,21.75 28.2,25.85 32.3,25.85 32.3,21.75"/>
<polygon id="0x3fca52c0" class="l66d44" points="29.4,19.55 29.4,21.25 31.1,21.25 31.1,19.55"/>
<polygon id="0x3fc9f0e0" class="l67d20" points="28.6,18.75 28.6,22.05 31.9,22.05 31.9,18.75"/>
<polygon id="0x3fc9f1b0" class="l65d20" points="28.2,18.35 28.2,22.45 32.3,22.45 32.3,18.35"/>
<polygon id="0x3fef9290" class="l66d44" points="29.4,16.15 29.4,17.85 31.1,17.85 31.1,16.15"/>
<polygon id="0x3fef9360" class="l67d20" points="28.6,15.35 28.6,18.65 31.9,18.65 31.9,15.35"/>
<polygon id="0x3fef9430" class="l65d20" points="28.2,14.95 28.2,19.05 32.3,19.05 32.3,14.95"/>
<polygon id="0x3fc7d780" class="l66d44" points="29.4,12.75 29.4,14.45 31.1,14.45 31.1,12.75"/>
<polygon id="0x3fc7d850" class="l67d20" points="28.6,11.95 28.6,15.25 31.9,15.25 31.9,11.95"/>
<polygon id="0x3f905d40" class="l65d20" points="28.2,11.55 28.2,15.65 32.3,15.65 32.3,11.55"/>
<polygon id="0x3f905e10" class="l66d44" points="29.4,9.35 29.4,11.05 31.1,11.05 31.1,9.35"/>
<polygon id="0x3f905ee0" class="l67d20" points="28.6,8.55 28.6,11.85 31.9,11.85 31.9,8.55"/>
<polygon id="0x3fc8d600" class="l65d20" points="28.2,8.15 28.2,12.25 32.3,12.25 32.3,8.15"/>
<polygon id="0x3fc8d6d0" class="l66d44" points="29.4,5.95 29.4,7.65 31.1,7.65 31.1,5.95"/>
<polygon id="0x3f883d40" class="l67d20" points="28.6,5.15 28.6,8.45 31.9,8.45 31.9,5.15"/>
<polygon id="0x3f883e10" class="l65d20" points="28.2,4.75 28.2,8.85 32.3,8.85 32.3,4.75"/>
<polygon id="0x3f883ee0" class="l66d44" points="29.4,2.55 29.4,4.25 31.1,4.25 31.1,2.55"/>
<polygon id="0x3ff0df70" class="l67d20" points="28.6,1.75 28.6,5.05 31.9,5.05 31.9,1.75"/>
<polygon id="0x3ff0e040" class="l65d20" points="28.2,1.35 28.2,5.45 32.3,5.45 32.3,1.35"/>
<polygon id="0x3fc9b790" class="l66d44" points="29.4,-0.85 29.4,0.85 31.1,0.85 31.1,-0.85"/>
<polygon id="0x3fc9b860" class="l67d20" points="28.6,-1.65 28.6,1.65 31.9,1.65 31.9,-1.65"/>
<polygon id="0x3fc9b930" class="l65d20" points="28.2,-2.05 28.2,2.05 32.3,2.05 32.3,-2.05"/>
<polygon id="0x3fdb4af0" class="l66d44" points="29.4,-4.25 29.4,-2.55 31.1,-2.55 31.1,-4.25"/>
<polygon id="0x3fdb4bc0" class="l67d20" points="28.6,-5.05 28.6,-1.75 31.9,-1.75 31.9,-5.05"/>
<polygon id="0x3ff18b10" class="l65d20" points="28.2,-5.45 28.2,-1.35 32.3,-1.35 32.3,-5.45"/>
<polygon id="0x3ff18be0" class="l66d44" points="29.4,-7.65 29.4,-5.95 31.1,-5.95 31.1,-7.65"/>
<polygon id="0x3ff18cb0" class="l67d20" points="28.6,-8.45 28.6,-5.15 31.9,-5.15 31.9,-8.45"/>
<polygon id="0x3fdb5430" class="l65d20" points="28.2,-8.85 28.2,-4.75 32.3,-4.75 32.3,-8.85"/>
<polygon id="0x3fdb5500" class="l66d44" points="29.4,-11.05 29.4,-9.35 31.1,-9.35 31.1,-11.05"/>
<polygon id="0x3ff13f90" class="l67d20" points="28.6,-11.85 28.6,-8.55 31.9,-8.55 31.9,-11.85"/>
<polygon id="0x3ff14060" class="l65d20" points="28.2,-12.25 28.2,-8.15 32.3,-8.15 32.3,-12.25"/>
<polygon id="0x3ff14130" class="l66d44" points="29.4,-14.45 29.4,-12.75 31.1,-12.75 31.1,-14.45"/>
<polygon id="0x3fdb0b00" class="l67d20" points="28.6,-15.25 28.6,-11.95 31.9,-11.95 31.9,-15.25"/>
<polygon id="0x3fdb0bd0" class="l65d20" points="28.2,-15.65 28.2,-11.55 32.3,-11.55 32.3,-15.65"/>
<polygon id="0x3fdb0ca0" class="l66d44" points="29.4,-17.85 29.4,-16.15 31.1,-16.15 31.1,-17.85"/>
<polygon id="0x3fc8b340" class="l67d20" points="28.6,-18.65 28.6,-15.35 31.9,-15.35 31.9,-18.65"/>
<polygon id="0x3fc8b410" class="l65d20" points="28.2,-19.05 28.2,-14.95 32.3,-14.95 32.3,-19.05"/>
<polygon id="0x3fc8b4e0" class="l66d44" points="29.4,-21.25 29.4,-19.55 31.1,-19.55 31.1,-21.25"/>
<polygon id="0x3febabc0" class="l67d20" points="28.6,-22.05 28.6,-18.75 31.9,-18.75 31.9,-22.05"/>
<polygon id="0x3febac90" class="l65d20" points="28.2,-22.45 28.2,-18.35 32.3,-18.35 32.3,-22.45"/>
<polygon id="0x3febad60" class="l67d20" points="28.2,-28.35 28.2,28.35 32.3,28.35 32.3,-28.35"/>
<polygon id="0x3febae30" class="l65d20" points="28.2,-25.85 28.2,25.85 32.3,25.85 32.3,-25.85"/>
<polygon id="0x3febaf00" class="l66d44" points="-23.35,29.55 -23.35,31.25 -21.65,31.25 -21.65,29.55"/>
<polygon id="0x3fca1060" class="l68d20" points="-23.95,28.95 -23.95,31.85 -21.05,31.85 -21.05,28.95"/>
<polygon id="0x3fca1130" class="l67d20" points="-24.15,28.75 -24.15,32.05 -20.85,32.05 -20.85,28.75"/>
<polygon id="0x3fca1200" class="l67d44" points="-23.35,29.55 -23.35,31.25 -21.65,31.25 -21.65,29.55"/>
<polygon id="0x3fca12d0" class="l65d20" points="-24.55,28.35 -24.55,32.45 -20.45,32.45 -20.45,28.35"/>
<polygon id="0x3fca13a0" class="l66d44" points="21.65,29.55 21.65,31.25 23.35,31.25 23.35,29.55"/>
<polygon id="0x3fca1470" class="l68d20" points="21.05,28.95 21.05,31.85 23.95,31.85 23.95,28.95"/>
<polygon id="0x3f885cc0" class="l67d20" points="20.85,28.75 20.85,32.05 24.15,32.05 24.15,28.75"/>
<polygon id="0x3f885d90" class="l67d44" points="21.65,29.55 21.65,31.25 23.35,31.25 23.35,29.55"/>
<polygon id="0x3f885e60" class="l65d20" points="20.45,28.35 20.45,32.45 24.55,32.45 24.55,28.35"/>
<polygon id="0x3f885f30" class="l66d44" points="16.65,29.55 16.65,31.25 18.35,31.25 18.35,29.55"/>
<polygon id="0x3f886000" class="l68d20" points="16.05,28.95 16.05,31.85 18.95,31.85 18.95,28.95"/>
<polygon id="0x3f8860d0" class="l67d20" points="15.85,28.75 15.85,32.05 19.15,32.05 19.15,28.75"/>
<polygon id="0x3f8847d0" class="l67d44" points="16.65,29.55 16.65,31.25 18.35,31.25 18.35,29.55"/>
<polygon id="0x3f8848a0" class="l65d20" points="15.45,28.35 15.45,32.45 19.55,32.45 19.55,28.35"/>
<polygon id="0x3f884970" class="l66d44" points="11.65,29.55 11.65,31.25 13.35,31.25 13.35,29.55"/>
<polygon id="0x3f884a40" class="l68d20" points="11.05,28.95 11.05,31.85 13.95,31.85 13.95,28.95"/>
<polygon id="0x3f884b10" class="l67d20" points="10.85,28.75 10.85,32.05 14.15,32.05 14.15,28.75"/>
<polygon id="0x3f884be0" class="l67d44" points="11.65,29.55 11.65,31.25 13.35,31.25 13.35,29.55"/>
<polygon id="0x3ffc6d90" class="l65d20" points="10.45,28.35 10.45,32.45 14.55,32.45 14.55,28.35"/>
<polygon id="0x3ffc6e60" class="l66d44" points="6.65,29.55 6.65,31.25 8.35,31.25 8.35,29.55"/>
<polygon id="0x3ffc6f30" class="l68d20" points="6.05,28.95 6.05,31.85 8.95,31.85 8.95,28.95"/>
<polygon id="0x3ffc7000" class="l67d20" points="5.85,28.75 5.85,32.05 9.15,32.05 9.15,28.75"/>
<polygon id="0x3ffc70d0" class="l67d44" points="6.65,29.55 6.65,31.25 8.35,31.25 8.35,29.55"/>
<polygon id="0x3ffc71a0" class="l65d20" points="5.45,28.35 5.45,32.45 9.55,32.45 9.55,28.35"/>
<polygon id="0x3ffc7270" class="l66d44" points="1.65,29.55 1.65,31.25 3.35,31.25 3.35,29.55"/>
<polygon id="0x3ffc7340" class="l68d20" points="1.05,28.95 1.05,31.85 3.95,31.85 3.95,28.95"/>
<polygon id="0x3ffc7410" class="l67d20" points="0.85,28.75 0.85,32.05 4.15,32.05 4.15,28.75"/>
<polygon id="0x3ffc74e0" class="l67d44" points="1.65,29.55 1.65,31.25 3.35,31.25 3.35,29.55"/>
<polygon id="0x3ffc75b0" class="l65d20" points="0.45,28.35 0.45,32.45 4.55,32.45 4.55,28.35"/>
<polygon id="0x3ffc7680" class="l66d44" points="-3.35,29.55 -3.35,31.25 -1.65,31.25 -1.65,29.55"/>
<polygon id="0x3ffc7750" class="l68d20" points="-3.95,28.95 -3.95,31.85 -1.05,31.85 -1.05,28.95"/>
<polygon id="0x3ff12550" class="l67d20" points="-4.15,28.75 -4.15,32.05 -0.85,32.05 -0.85,28.75"/>
<polygon id="0x3ff125c0" class="l67d44" points="-3.35,29.55 -3.35,31.25 -1.65,31.25 -1.65,29.55"/>
<polygon id="0x3ff12690" class="l65d20" points="-4.55,28.35 -4.55,32.45 -0.45,32.45 -0.45,28.35"/>
<polygon id="0x3ff12760" class="l66d44" points="-8.35,29.55 -8.35,31.25 -6.65,31.25 -6.65,29.55"/>
<polygon id="0x3ff12830" class="l68d20" points="-8.95,28.95 -8.95,31.85 -6.05,31.85 -6.05,28.95"/>
<polygon id="0x3ff12900" class="l67d20" points="-9.15,28.75 -9.15,32.05 -5.85,32.05 -5.85,28.75"/>
<polygon id="0x3ff129d0" class="l67d44" points="-8.35,29.55 -8.35,31.25 -6.65,31.25 -6.65,29.55"/>
<polygon id="0x3ff12aa0" class="l65d20" points="-9.55,28.35 -9.55,32.45 -5.45,32.45 -5.45,28.35"/>
<polygon id="0x3ff12b70" class="l66d44" points="-13.35,29.55 -13.35,31.25 -11.65,31.25 -11.65,29.55"/>
<polygon id="0x3ff12c40" class="l68d20" points="-13.95,28.95 -13.95,31.85 -11.05,31.85 -11.05,28.95"/>
<polygon id="0x3ff12d10" class="l67d20" points="-14.15,28.75 -14.15,32.05 -10.85,32.05 -10.85,28.75"/>
<polygon id="0x3ff12de0" class="l67d44" points="-13.35,29.55 -13.35,31.25 -11.65,31.25 -11.65,29.55"/>
<polygon id="0x3ff12eb0" class="l65d20" points="-14.55,28.35 -14.55,32.45 -10.45,32.45 -10.45,28.35"/>
<polygon id="0x3ff12f80" class="l66d44" points="-18.35,29.55 -18.35,31.25 -16.65,31.25 -16.65,29.55"/>
<polygon id="0x3ff13050" class="l68d20" points="-18.95,28.95 -18.95,31.85 -16.05,31.85 -16.05,28.95"/>
<polygon id="0x3ff13120" class="l67d20" points="-19.15,28.75 -19.15,32.05 -15.85,32.05 -15.85,28.75"/>
<polygon id="0x3ff131f0" class="l67d44" points="-18.35,29.55 -18.35,31.25 -16.65,31.25 -16.65,29.55"/>
<polygon id="0x3ff132c0" class="l65d20" points="-19.55,28.35 -19.55,32.45 -15.45,32.45 -15.45,28.35"/>
<polygon id="0x3ff13390" class="l67d20" points="-24.15,28.75 -24.15,32.05 24.15,32.05 24.15,28.75"/>
<polygon id="0x3ff13460" class="l68d20" points="-28.2,28.35 -28.2,32.45 28.2,32.45 28.2,28.35"/>
<polygon id="0x3ff13530" class="l65d20" points="-24.55,28.35 -24.55,32.45 24.55,32.45 24.55,28.35"/>
<polygon id="0x3fdb0fc0" class="l93d44" points="33.6,33.75 -33.6,33.75 -33.6,-27.05 -26.9,-27.05 -26.9,27.05 26.9,27.05 26.9,-27.05 -26.9,-27.05 -33.6,-27.05 -33.6,-33.75 33.6,-33.75"/>
</g>
<g id="straight_route_478a13ba">
<polygon id="0x3fdb10d0" class="l68d20" points="-17.55,-64.95 -4.7,-64.95 -4.7,-62.05 -17.55,-62.05"/>
</g>
<g id="straight_route_478a13ba$1">
<polygon id="0x3fdb1240" class="l68d20" points="-17.55,-64.95 -4.7,-64.95 -4.7,-62.05 -17.55,-62.05"/>
</g>
<g id="c_route_d74593a0">
<polygon id="0x3fdb13b0" class="l69d20" points="18.1,20.25 21.3,20.25 21.3,60.55 18.1,60.55"/>
<polygon id="0x3fdb1480" class="l68d44" points="18.4,57.65 18.4,59.15 19.9,59.15 19.9,57.65"/>
<polygon id="0x3fdb1550" class="l69d20" points="17.5,56.75 17.5,60.05 20.8,60.05 20.8,56.75"/>
<polygon id="0x3fdb1620" class="l68d20" points="17,56.25 17,60.55 21.3,60.55 21.3,56.25"/>
<polygon id="0x3fdb16f0" class="l68d20" points="-20.8,60 -17.5,60 -17.5,60.05 -20.8,60.05"/>
<polygon id="0x3fdb17c0" class="l68d20" points="17.5,60 20.8,60 20.8,60.05 17.5,60.05"/>
<polygon id="0x3fdb1890" class="l68d20" points="-20.8,56.8 20.8,56.8 20.8,60 -20.8,60"/>
<polygon id="0x3fdb1960" class="l69d20" points="-21.3,-61.85 -18.1,-61.85 -18.1,60.55 -21.3,60.55"/>
<polygon id="0x3fdb1a30" class="l68d44" points="-19.9,57.65 -19.9,59.15 -18.4,59.15 -18.4,57.65"/>
<polygon id="0x3fdb1b90" class="l69d20" points="-20.8,56.75 -20.8,60.05 -17.5,60.05 -17.5,56.75"/>
<polygon id="0x3fdb1c60" class="l68d20" points="-21.3,56.25 -21.3,60.55 -17,60.55 -17,56.25"/>
</g>
<g id="via_stack_02bf065d">
<polygon id="0x3fdb1e60" class="l68d44" points="-0.75,-0.75 -0.75,0.75 0.75,0.75 0.75,-0.75"/>
<polygon id="0x3fdb1f30" class="l69d20" points="-1.65,-1.65 -1.65,1.65 1.65,1.65 1.65,-1.65"/>
<polygon id="0x3fdb2000" class="l68d20" points="-2.15,-2.15 -2.15,2.15 2.15,2.15 2.15,-2.15"/>
</g>
<g id="Unnamed_1caa847b">
<polygon id="0x3fdb2170" class="l64d44" points="-36.7,-36.85 36.7,-36.85 36.7,36.85 -36.7,36.85"/>
<polygon id="0x3fdb2240" class="l66d20" points="-0.75,-16.8 -0.75,18.2 0.75,18.2 0.75,-16.8"/>
<polygon id="0x3fdb2310" class="l66d44" points="2.4,-10.35 2.4,-8.65 4.1,-8.65 4.1,-10.35"/>
<polygon id="0x3fdb23e0" class="l67d20" points="1.6,-11.15 1.6,-7.85 4.9,-7.85 4.9,-11.15"/>
<polygon id="0x3fdb24b0" class="l67d20" points="1.6,-7.75 1.6,-4.45 4.9,-4.45 4.9,-7.75"/>
<polygon id="0x3fdb2580" class="l66d44" points="2.4,10.05 2.4,11.75 4.1,11.75 4.1,10.05"/>
<polygon id="0x3fdb2650" class="l67d20" points="1.6,9.25 1.6,12.55 4.9,12.55 4.9,9.25"/>
<polygon id="0x3fdb2720" class="l66d44" points="2.4,-6.95 2.4,-5.25 4.1,-5.25 4.1,-6.95"/>
<polygon id="0x3fdb27f0" class="l66d44" points="2.4,6.65 2.4,8.35 4.1,8.35 4.1,6.65"/>
<polygon id="0x3fdb2950" class="l67d20" points="1.6,5.85 1.6,9.15 4.9,9.15 4.9,5.85"/>
<polygon id="0x3fdb2a20" class="l67d20" points="1.6,-4.35 1.6,-1.05 4.9,-1.05 4.9,-4.35"/>
<polygon id="0x3fdb2af0" class="l66d44" points="2.4,3.25 2.4,4.95 4.1,4.95 4.1,3.25"/>
<polygon id="0x3fdb2bc0" class="l67d20" points="1.6,2.45 1.6,5.75 4.9,5.75 4.9,2.45"/>
<polygon id="0x3fdb2c90" class="l66d44" points="2.4,-3.55 2.4,-1.85 4.1,-1.85 4.1,-3.55"/>
<polygon id="0x3fdb2d60" class="l66d44" points="2.4,-0.15 2.4,1.55 4.1,1.55 4.1,-0.15"/>
<polygon id="0x3fdb2e30" class="l67d20" points="1.6,-0.95 1.6,2.35 4.9,2.35 4.9,-0.95"/>
<polygon id="0x3fdb2f00" class="l67d20" points="1.6,-14.3 1.6,15.7 4.9,15.7 4.9,-14.3"/>
<polygon id="0x3fdb3080" class="l67d44" points="2.4,-12.75 2.4,-11.05 4.1,-11.05 4.1,-12.75"/>
<polygon id="0x3fa41730" class="l68d20" points="1.8,-13.35 1.8,-10.45 4.7,-10.45 4.7,-13.35"/>
<polygon id="0x3fa41800" class="l67d20" points="2.4,-12.75 2.4,-11.05 4.1,-11.05 4.1,-12.75"/>
<polygon id="0x3fa418d0" class="l67d44" points="2.4,12.45 2.4,14.15 4.1,14.15 4.1,12.45"/>
<polygon id="0x3fa419a0" class="l68d20" points="1.8,11.85 1.8,14.75 4.7,14.75 4.7,11.85"/>
<polygon id="0x3fa41a70" class="l67d20" points="2.4,12.45 2.4,14.15 4.1,14.15 4.1,12.45"/>
<polygon id="0x3fa41b40" class="l67d44" points="2.4,8.85 2.4,10.55 4.1,10.55 4.1,8.85"/>
<polygon id="0x3fa41c10" class="l68d20" points="1.8,8.25 1.8,11.15 4.7,11.15 4.7,8.25"/>
<polygon id="0x3fa41ce0" class="l67d20" points="2.4,8.85 2.4,10.55 4.1,10.55 4.1,8.85"/>
<polygon id="0x3fa41db0" class="l67d44" points="2.4,5.25 2.4,6.95 4.1,6.95 4.1,5.25"/>
<polygon id="0x3fa41e80" class="l68d20" points="1.8,4.65 1.8,7.55 4.7,7.55 4.7,4.65"/>
<polygon id="0x3fa41f50" class="l67d20" points="2.4,5.25 2.4,6.95 4.1,6.95 4.1,5.25"/>
<polygon id="0x3fa42020" class="l67d44" points="2.4,1.65 2.4,3.35 4.1,3.35 4.1,1.65"/>
<polygon id="0x3fa420f0" class="l68d20" points="1.8,1.05 1.8,3.95 4.7,3.95 4.7,1.05"/>
<polygon id="0x3fa421c0" class="l67d20" points="2.4,1.65 2.4,3.35 4.1,3.35 4.1,1.65"/>
<polygon id="0x3fa42290" class="l67d44" points="2.4,-1.95 2.4,-0.25 4.1,-0.25 4.1,-1.95"/>
<polygon id="0x3fdb2fd0" class="l68d20" points="1.8,-2.55 1.8,0.35 4.7,0.35 4.7,-2.55"/>
<polygon id="0x3fa42570" class="l67d20" points="2.4,-1.95 2.4,-0.25 4.1,-0.25 4.1,-1.95"/>
<polygon id="0x3fa42640" class="l67d44" points="2.4,-5.55 2.4,-3.85 4.1,-3.85 4.1,-5.55"/>
<polygon id="0x3fa42710" class="l68d20" points="1.8,-6.15 1.8,-3.25 4.7,-3.25 4.7,-6.15"/>
<polygon id="0x3fa427e0" class="l67d20" points="2.4,-5.55 2.4,-3.85 4.1,-3.85 4.1,-5.55"/>
<polygon id="0x3fa428b0" class="l67d44" points="2.4,-9.15 2.4,-7.45 4.1,-7.45 4.1,-9.15"/>
<polygon id="0x3fa42980" class="l68d20" points="1.8,-9.75 1.8,-6.85 4.7,-6.85 4.7,-9.75"/>
<polygon id="0x3fa42a50" class="l67d20" points="2.4,-9.15 2.4,-7.45 4.1,-7.45 4.1,-9.15"/>
<polygon id="0x3fa42b20" class="l68d20" points="1.8,-14.3 1.8,15.7 4.7,15.7 4.7,-14.3"/>
<polygon id="0x3fa42bf0" class="l67d20" points="2.4,-12.75 2.4,14.15 4.1,14.15 4.1,-12.75"/>
<polygon id="0x3fa42cc0" class="l66d44" points="-4.1,-10.35 -4.1,-8.65 -2.4,-8.65 -2.4,-10.35"/>
<polygon id="0x3fa42d90" class="l67d20" points="-4.9,-11.15 -4.9,-7.85 -1.6,-7.85 -1.6,-11.15"/>
<polygon id="0x3fa42e60" class="l67d20" points="-4.9,-7.75 -4.9,-4.45 -1.6,-4.45 -1.6,-7.75"/>
<polygon id="0x3fa42f30" class="l66d44" points="-4.1,10.05 -4.1,11.75 -2.4,11.75 -2.4,10.05"/>
<polygon id="0x3fa43000" class="l67d20" points="-4.9,9.25 -4.9,12.55 -1.6,12.55 -1.6,9.25"/>
<polygon id="0x3fa430d0" class="l66d44" points="-4.1,-6.95 -4.1,-5.25 -2.4,-5.25 -2.4,-6.95"/>
<polygon id="0x3fa431a0" class="l66d44" points="-4.1,6.65 -4.1,8.35 -2.4,8.35 -2.4,6.65"/>
<polygon id="0x3fa43270" class="l67d20" points="-4.9,5.85 -4.9,9.15 -1.6,9.15 -1.6,5.85"/>
<polygon id="0x3fa43340" class="l67d20" points="-4.9,-4.35 -4.9,-1.05 -1.6,-1.05 -1.6,-4.35"/>
<polygon id="0x3fa43410" class="l66d44" points="-4.1,3.25 -4.1,4.95 -2.4,4.95 -2.4,3.25"/>
<polygon id="0x3fa434e0" class="l67d20" points="-4.9,2.45 -4.9,5.75 -1.6,5.75 -1.6,2.45"/>
<polygon id="0x3fa435b0" class="l66d44" points="-4.1,-3.55 -4.1,-1.85 -2.4,-1.85 -2.4,-3.55"/>
<polygon id="0x3fa43680" class="l66d44" points="-4.1,-0.15 -4.1,1.55 -2.4,1.55 -2.4,-0.15"/>
<polygon id="0x3fa43750" class="l67d20" points="-4.9,-0.95 -4.9,2.35 -1.6,2.35 -1.6,-0.95"/>
<polygon id="0x3fa43820" class="l67d20" points="-4.9,-14.3 -4.9,15.7 -1.6,15.7 -1.6,-14.3"/>
<polygon id="0x3fa438f0" class="l67d44" points="-4.1,-12.75 -4.1,-11.05 -2.4,-11.05 -2.4,-12.75"/>
<polygon id="0x3fa439c0" class="l68d20" points="-4.7,-13.35 -4.7,-10.45 -1.8,-10.45 -1.8,-13.35"/>
<polygon id="0x3fa43a90" class="l67d20" points="-4.1,-12.75 -4.1,-11.05 -2.4,-11.05 -2.4,-12.75"/>
<polygon id="0x3fa43b60" class="l67d44" points="-4.1,12.45 -4.1,14.15 -2.4,14.15 -2.4,12.45"/>
<polygon id="0x3fa43c30" class="l68d20" points="-4.7,11.85 -4.7,14.75 -1.8,14.75 -1.8,11.85"/>
<polygon id="0x3fa43d00" class="l67d20" points="-4.1,12.45 -4.1,14.15 -2.4,14.15 -2.4,12.45"/>
<polygon id="0x3fa43dd0" class="l67d44" points="-4.1,8.85 -4.1,10.55 -2.4,10.55 -2.4,8.85"/>
<polygon id="0x3fa42360" class="l68d20" points="-4.7,8.25 -4.7,11.15 -1.8,11.15 -1.8,8.25"/>
<polygon id="0x3fa42430" class="l67d20" points="-4.1,8.85 -4.1,10.55 -2.4,10.55 -2.4,8.85"/>
<polygon id="0x3fa44250" class="l67d44" points="-4.1,5.25 -4.1,6.95 -2.4,6.95 -2.4,5.25"/>
<polygon id="0x3fa44320" class="l68d20" points="-4.7,4.65 -4.7,7.55 -1.8,7.55 -1.8,4.65"/>
<polygon id="0x3fa443f0" class="l67d20" points="-4.1,5.25 -4.1,6.95 -2.4,6.95 -2.4,5.25"/>
<polygon id="0x3fa444c0" class="l67d44" points="-4.1,1.65 -4.1,3.35 -2.4,3.35 -2.4,1.65"/>
<polygon id="0x3fa44590" class="l68d20" points="-4.7,1.05 -4.7,3.95 -1.8,3.95 -1.8,1.05"/>
<polygon id="0x3fa44660" class="l67d20" points="-4.1,1.65 -4.1,3.35 -2.4,3.35 -2.4,1.65"/>
<polygon id="0x3fa44730" class="l67d44" points="-4.1,-1.95 -4.1,-0.25 -2.4,-0.25 -2.4,-1.95"/>
<polygon id="0x3fa44800" class="l68d20" points="-4.7,-2.55 -4.7,0.35 -1.8,0.35 -1.8,-2.55"/>
<polygon id="0x3fa448d0" class="l67d20" points="-4.1,-1.95 -4.1,-0.25 -2.4,-0.25 -2.4,-1.95"/>
<polygon id="0x3fa449a0" class="l67d44" points="-4.1,-5.55 -4.1,-3.85 -2.4,-3.85 -2.4,-5.55"/>
<polygon id="0x3fa44a70" class="l68d20" points="-4.7,-6.15 -4.7,-3.25 -1.8,-3.25 -1.8,-6.15"/>
<polygon id="0x3fa44b40" class="l67d20" points="-4.1,-5.55 -4.1,-3.85 -2.4,-3.85 -2.4,-5.55"/>
<polygon id="0x3fa44c10" class="l67d44" points="-4.1,-9.15 -4.1,-7.45 -2.4,-7.45 -2.4,-9.15"/>
<polygon id="0x3fa44ce0" class="l68d20" points="-4.7,-9.75 -4.7,-6.85 -1.8,-6.85 -1.8,-9.75"/>
<polygon id="0x3fa44db0" class="l67d20" points="-4.1,-9.15 -4.1,-7.45 -2.4,-7.45 -2.4,-9.15"/>
<polygon id="0x3fa44e80" class="l68d20" points="-4.7,-14.3 -4.7,15.7 -1.8,15.7 -1.8,-14.3"/>
<polygon id="0x3fa44f50" class="l67d20" points="-4.1,-12.75 -4.1,14.15 -2.4,14.15 -2.4,-12.75"/>
<polygon id="0x3fa45020" class="l93d44" points="-6.8,-15.6 -6.8,17 6.8,17 6.8,-15.6"/>
<polygon id="0x3fa450f0" class="l65d20" points="-5.5,-14.3 -5.5,15.7 5.5,15.7 5.5,-14.3"/>
<polygon id="0x3fa451c0" class="l67d44" points="-4.1,17.75 -4.1,19.45 -2.4,19.45 -2.4,17.75"/>
<polygon id="0x3fa45290" class="l68d20" points="-4.7,17.15 -4.7,20.05 -1.8,20.05 -1.8,17.15"/>
<polygon id="0x3fa45360" class="l67d20" points="-4.1,17.75 -4.1,19.45 -2.4,19.45 -2.4,17.75"/>
<polygon id="0x3fa45430" class="l66d20" points="16.65,-16.8 16.65,18.2 18.15,18.2 18.15,-16.8"/>
<polygon id="0x3fa45500" class="l66d44" points="19.8,-10.35 19.8,-8.65 21.5,-8.65 21.5,-10.35"/>
<polygon id="0x3fa455d0" class="l67d20" points="19,-11.15 19,-7.85 22.3,-7.85 22.3,-11.15"/>
<polygon id="0x3fa456a0" class="l67d20" points="19,-7.75 19,-4.45 22.3,-4.45 22.3,-7.75"/>
<polygon id="0x3fa45770" class="l66d44" points="19.8,10.05 19.8,11.75 21.5,11.75 21.5,10.05"/>
<polygon id="0x3fa45840" class="l67d20" points="19,9.25 19,12.55 22.3,12.55 22.3,9.25"/>
<polygon id="0x3fa45910" class="l66d44" points="19.8,-6.95 19.8,-5.25 21.5,-5.25 21.5,-6.95"/>
<polygon id="0x3fa459e0" class="l66d44" points="19.8,6.65 19.8,8.35 21.5,8.35 21.5,6.65"/>
<polygon id="0x3fa45ab0" class="l67d20" points="19,5.85 19,9.15 22.3,9.15 22.3,5.85"/>
<polygon id="0x3fa45b80" class="l67d20" points="19,-4.35 19,-1.05 22.3,-1.05 22.3,-4.35"/>
<polygon id="0x3fa45c50" class="l66d44" points="19.8,3.25 19.8,4.95 21.5,4.95 21.5,3.25"/>
<polygon id="0x3fa45d20" class="l67d20" points="19,2.45 19,5.75 22.3,5.75 22.3,2.45"/>
<polygon id="0x3fa45df0" class="l66d44" points="19.8,-3.55 19.8,-1.85 21.5,-1.85 21.5,-3.55"/>
<polygon id="0x3fa45ec0" class="l66d44" points="19.8,-0.15 19.8,1.55 21.5,1.55 21.5,-0.15"/>
<polygon id="0x3fa45f90" class="l67d20" points="19,-0.95 19,2.35 22.3,2.35 22.3,-0.95"/>
<polygon id="0x3fa46060" class="l67d20" points="19,-14.3 19,15.7 22.3,15.7 22.3,-14.3"/>
<polygon id="0x3fa46130" class="l66d44" points="13.3,-10.35 13.3,-8.65 15,-8.65 15,-10.35"/>
<polygon id="0x3fa46200" class="l67d20" points="12.5,-11.15 12.5,-7.85 15.8,-7.85 15.8,-11.15"/>
<polygon id="0x3fa462d0" class="l67d20" points="12.5,-7.75 12.5,-4.45 15.8,-4.45 15.8,-7.75"/>
<polygon id="0x3fa463a0" class="l66d44" points="13.3,10.05 13.3,11.75 15,11.75 15,10.05"/>
<polygon id="0x3fa46470" class="l67d20" points="12.5,9.25 12.5,12.55 15.8,12.55 15.8,9.25"/>
<polygon id="0x3fa46540" class="l66d44" points="13.3,-6.95 13.3,-5.25 15,-5.25 15,-6.95"/>
<polygon id="0x3fa46610" class="l66d44" points="13.3,6.65 13.3,8.35 15,8.35 15,6.65"/>
<polygon id="0x3fa466e0" class="l67d20" points="12.5,5.85 12.5,9.15 15.8,9.15 15.8,5.85"/>
<polygon id="0x3fa467b0" class="l67d20" points="12.5,-4.35 12.5,-1.05 15.8,-1.05 15.8,-4.35"/>
<polygon id="0x3fa46880" class="l66d44" points="13.3,3.25 13.3,4.95 15,4.95 15,3.25"/>
<polygon id="0x3fa46950" class="l67d20" points="12.5,2.45 12.5,5.75 15.8,5.75 15.8,2.45"/>
<polygon id="0x3fa46a20" class="l66d44" points="13.3,-3.55 13.3,-1.85 15,-1.85 15,-3.55"/>
<polygon id="0x3fa46af0" class="l66d44" points="13.3,-0.15 13.3,1.55 15,1.55 15,-0.15"/>
<polygon id="0x3fa46bc0" class="l67d20" points="12.5,-0.95 12.5,2.35 15.8,2.35 15.8,-0.95"/>
<polygon id="0x3fa46c90" class="l67d20" points="12.5,-14.3 12.5,15.7 15.8,15.7 15.8,-14.3"/>
<polygon id="0x3fa46d60" class="l93d44" points="10.6,-15.6 10.6,17 24.2,17 24.2,-15.6"/>
<polygon id="0x3fa46e30" class="l65d20" points="11.9,-14.3 11.9,15.7 22.9,15.7 22.9,-14.3"/>
<polygon id="0x3fa46f00" class="l66d44" points="16.55,-19.3 16.55,-17.6 18.25,-17.6 18.25,-19.3"/>
<polygon id="0x3fa46fd0" class="l66d20" points="15.75,-20.1 15.75,-16.8 19.05,-16.8 19.05,-20.1"/>
<polygon id="0x3fa470a0" class="l67d20" points="15.75,-20.1 15.75,-16.8 19.05,-16.8 19.05,-20.1"/>
<polygon id="0x3fa47170" class="l66d20" points="15.75,-20.1 15.75,-16.8 19.05,-16.8 19.05,-20.1"/>
<polygon id="0x3fa47240" class="l95d20" points="15.55,-20.3 19.25,-20.3 19.25,-16.6 15.55,-16.6"/>
<polygon id="0x3fa47310" class="l67d20" points="12.5,-20.1 15.75,-20.1 15.75,-16.8 12.5,-16.8"/>
<polygon id="0x3fa473e0" class="l67d20" points="12.5,-20.1 15.8,-20.1 15.8,-14.3 12.5,-14.3"/>
<polygon id="0x3fa43ea0" class="l67d20" points="19.05,-20.1 22.3,-20.1 22.3,-16.8 19.05,-16.8"/>
<polygon id="0x3fa43f70" class="l67d20" points="19,-20.1 22.3,-20.1 22.3,-14.3 19,-14.3"/>
<polygon id="0x3fa44040" class="l66d20" points="-18.15,-16.8 -18.15,18.2 -16.65,18.2 -16.65,-16.8"/>
<polygon id="0x3fa44110" class="l66d44" points="-15,-10.35 -15,-8.65 -13.3,-8.65 -13.3,-10.35"/>
<polygon id="0x3fa441e0" class="l67d20" points="-15.8,-11.15 -15.8,-7.85 -12.5,-7.85 -12.5,-11.15"/>
<polygon id="0x3fa47cc0" class="l67d20" points="-15.8,-7.75 -15.8,-4.45 -12.5,-4.45 -12.5,-7.75"/>
<polygon id="0x3fa47d90" class="l66d44" points="-15,10.05 -15,11.75 -13.3,11.75 -13.3,10.05"/>
<polygon id="0x3fa47e60" class="l67d20" points="-15.8,9.25 -15.8,12.55 -12.5,12.55 -12.5,9.25"/>
<polygon id="0x3fa47f30" class="l66d44" points="-15,-6.95 -15,-5.25 -13.3,-5.25 -13.3,-6.95"/>
<polygon id="0x3fa48000" class="l66d44" points="-15,6.65 -15,8.35 -13.3,8.35 -13.3,6.65"/>
<polygon id="0x3fa480d0" class="l67d20" points="-15.8,5.85 -15.8,9.15 -12.5,9.15 -12.5,5.85"/>
<polygon id="0x3fa481a0" class="l67d20" points="-15.8,-4.35 -15.8,-1.05 -12.5,-1.05 -12.5,-4.35"/>
<polygon id="0x3fa48270" class="l66d44" points="-15,3.25 -15,4.95 -13.3,4.95 -13.3,3.25"/>
<polygon id="0x3fa48340" class="l67d20" points="-15.8,2.45 -15.8,5.75 -12.5,5.75 -12.5,2.45"/>
<polygon id="0x3fa48410" class="l66d44" points="-15,-3.55 -15,-1.85 -13.3,-1.85 -13.3,-3.55"/>
<polygon id="0x3fa484e0" class="l66d44" points="-15,-0.15 -15,1.55 -13.3,1.55 -13.3,-0.15"/>
<polygon id="0x3fa485b0" class="l67d20" points="-15.8,-0.95 -15.8,2.35 -12.5,2.35 -12.5,-0.95"/>
<polygon id="0x3fa48680" class="l67d20" points="-15.8,-14.3 -15.8,15.7 -12.5,15.7 -12.5,-14.3"/>
<polygon id="0x3fa48750" class="l66d44" points="-21.5,-10.35 -21.5,-8.65 -19.8,-8.65 -19.8,-10.35"/>
<polygon id="0x3fa48820" class="l67d20" points="-22.3,-11.15 -22.3,-7.85 -19,-7.85 -19,-11.15"/>
<polygon id="0x3fa488f0" class="l67d20" points="-22.3,-7.75 -22.3,-4.45 -19,-4.45 -19,-7.75"/>
<polygon id="0x3fa489c0" class="l66d44" points="-21.5,10.05 -21.5,11.75 -19.8,11.75 -19.8,10.05"/>
<polygon id="0x3fa48a90" class="l67d20" points="-22.3,9.25 -22.3,12.55 -19,12.55 -19,9.25"/>
<polygon id="0x3fa48b60" class="l66d44" points="-21.5,-6.95 -21.5,-5.25 -19.8,-5.25 -19.8,-6.95"/>
<polygon id="0x3fa48c30" class="l66d44" points="-21.5,6.65 -21.5,8.35 -19.8,8.35 -19.8,6.65"/>
<polygon id="0x3fa48d00" class="l67d20" points="-22.3,5.85 -22.3,9.15 -19,9.15 -19,5.85"/>
<polygon id="0x3fa48dd0" class="l67d20" points="-22.3,-4.35 -22.3,-1.05 -19,-1.05 -19,-4.35"/>
<polygon id="0x3fa48ea0" class="l66d44" points="-21.5,3.25 -21.5,4.95 -19.8,4.95 -19.8,3.25"/>
<polygon id="0x3fa48f70" class="l67d20" points="-22.3,2.45 -22.3,5.75 -19,5.75 -19,2.45"/>
<polygon id="0x3fa49040" class="l66d44" points="-21.5,-3.55 -21.5,-1.85 -19.8,-1.85 -19.8,-3.55"/>
<polygon id="0x3fa49110" class="l66d44" points="-21.5,-0.15 -21.5,1.55 -19.8,1.55 -19.8,-0.15"/>
<polygon id="0x3fa491e0" class="l67d20" points="-22.3,-0.95 -22.3,2.35 -19,2.35 -19,-0.95"/>
<polygon id="0x3fa492b0" class="l67d20" points="-22.3,-14.3 -22.3,15.7 -19,15.7 -19,-14.3"/>
<polygon id="0x3fa49380" class="l93d44" points="-24.2,-15.6 -24.2,17 -10.6,17 -10.6,-15.6"/>
<polygon id="0x3fa49450" class="l65d20" points="-22.9,-14.3 -22.9,15.7 -11.9,15.7 -11.9,-14.3"/>
<polygon id="0x3fa49520" class="l66d44" points="-18.25,-19.3 -18.25,-17.6 -16.55,-17.6 -16.55,-19.3"/>
<polygon id="0x3fa495f0" class="l66d20" points="-19.05,-20.1 -19.05,-16.8 -15.75,-16.8 -15.75,-20.1"/>
<polygon id="0x3fa496c0" class="l67d20" points="-19.05,-20.1 -19.05,-16.8 -15.75,-16.8 -15.75,-20.1"/>
<polygon id="0x3fa49790" class="l66d20" points="-19.05,-20.1 -19.05,-16.8 -15.75,-16.8 -15.75,-20.1"/>
<polygon id="0x3fa49860" class="l95d20" points="-19.25,-20.3 -15.55,-20.3 -15.55,-16.6 -19.25,-16.6"/>
<polygon id="0x3fa49930" class="l67d20" points="-22.3,-20.1 -19.05,-20.1 -19.05,-16.8 -22.3,-16.8"/>
<polygon id="0x3fa49a00" class="l67d20" points="-22.3,-20.1 -19,-20.1 -19,-14.3 -22.3,-14.3"/>
<polygon id="0x3fa49ad0" class="l67d20" points="-15.75,-20.1 -12.5,-20.1 -12.5,-16.8 -15.75,-16.8"/>
<polygon id="0x3fa49ba0" class="l67d20" points="-15.8,-20.1 -12.5,-20.1 -12.5,-14.3 -15.8,-14.3"/>
<polygon id="0x3fa49c70" class="l68d20" points="-4.7,21.45 -4.7,24.35 4.7,24.35 4.7,21.45"/>
<polygon id="0x3fa49d40" class="l68d20" points="-4.7,17.15 -4.7,20.05 4.7,20.05 4.7,17.15"/>
<polygon id="0x3fa49e10" class="l66d44" points="-0.85,-23.3 -0.85,-21.6 0.85,-21.6 0.85,-23.3"/>
<polygon id="0x3fa49ee0" class="l68d20" points="-1.45,-23.9 -1.45,-21 1.45,-21 1.45,-23.9"/>
<polygon id="0x3fa49fb0" class="l67d20" points="-1.65,-24.1 -1.65,-20.8 1.65,-20.8 1.65,-24.1"/>
<polygon id="0x3fa4a080" class="l67d44" points="-0.85,-23.3 -0.85,-21.6 0.85,-21.6 0.85,-23.3"/>
<polygon id="0x3fa4a150" class="l66d20" points="-1.65,-24.1 -1.65,-20.8 1.65,-20.8 1.65,-24.1"/>
<polygon id="0x3fa4a220" class="l68d20" points="-1.65,-24.1 -1.65,-20.8 1.65,-20.8 1.65,-24.1"/>
<polygon id="0x3fa4a2f0" class="l66d20" points="-1.65,-24.1 -1.65,-20.8 1.65,-20.8 1.65,-24.1"/>
<polygon id="0x3fa4a3c0" class="l95d20" points="-1.85,-24.3 1.85,-24.3 1.85,-20.6 -1.85,-20.6"/>
<polygon id="0x3fa4a490" class="l67d20" points="1.6,15.7 4.9,15.7 4.9,23.75 1.6,23.75"/>
<polygon id="0x3fa4a560" class="l67d44" points="2.4,22.05 2.4,23.75 4.1,23.75 4.1,22.05"/>
<polygon id="0x3fa4a630" class="l68d20" points="1.8,21.45 1.8,24.35 4.7,24.35 4.7,21.45"/>
<polygon id="0x3fa4a700" class="l67d20" points="2.4,22.05 2.4,23.75 4.1,23.75 4.1,22.05"/>
<polygon id="0x3fa4a7d0" class="l66d20" points="-0.75,-20.8 0.75,-20.8 0.75,-16.8 -0.75,-16.8"/>
<polygon id="0x3fa4a8a0" class="l67d20" points="-4.9,15.7 -1.6,15.7 -1.6,19.45 -4.9,19.45"/>
<polygon id="0x3fa4a970" class="l67d20" points="15.75,-20.1 33.6,-20.1 33.6,-16.8 15.75,-16.8"/>
<polygon id="0x3fa4aa40" class="l67d20" points="-33.6,-20.1 -19.05,-20.1 -19.05,-16.8 -33.6,-16.8"/>
<polygon id="0x3fa4ab10" class="l65d20" points="33.6,33.75 -33.6,33.75 -33.6,-29.65 -29.5,-29.65 -29.5,29.65 29.5,29.65 29.5,-29.65 -29.5,-29.65 -33.6,-29.65 -33.6,-33.75 33.6,-33.75"/>
<polygon id="0x3fa4ab80" class="l68d20" points="29.5,-33.75 33.6,-33.75 33.6,-29.65 29.5,-29.65"/>
<polygon id="0x3fa4ac50" class="l67d44" points="30.7,-32.55 30.7,-30.85 32.4,-30.85 32.4,-32.55"/>
<polygon id="0x3fa4ad20" class="l68d20" points="30.1,-33.15 30.1,-30.25 33,-30.25 33,-33.15"/>
<polygon id="0x3fa4adf0" class="l67d20" points="30.7,-32.55 30.7,-30.85 32.4,-30.85 32.4,-32.55"/>
<polygon id="0x3fa4aec0" class="l68d20" points="29.5,-33.75 29.5,-29.65 33.6,-29.65 33.6,-33.75"/>
<polygon id="0x3fa4af90" class="l67d20" points="30.7,-32.55 30.7,-30.85 32.4,-30.85 32.4,-32.55"/>
<polygon id="0x3fa4b060" class="l67d20" points="29.5,-33.75 33.6,-33.75 33.6,-29.65 29.5,-29.65"/>
<polygon id="0x3fa4b130" class="l68d20" points="-33.6,-33.75 -29.5,-33.75 -29.5,-29.65 -33.6,-29.65"/>
<polygon id="0x3fa4b200" class="l67d44" points="-32.4,-32.55 -32.4,-30.85 -30.7,-30.85 -30.7,-32.55"/>
<polygon id="0x3fa4b2d0" class="l68d20" points="-33,-33.15 -33,-30.25 -30.1,-30.25 -30.1,-33.15"/>
<polygon id="0x3fa4b3a0" class="l67d20" points="-32.4,-32.55 -32.4,-30.85 -30.7,-30.85 -30.7,-32.55"/>
<polygon id="0x3fa4b470" class="l68d20" points="-33.6,-33.75 -33.6,-29.65 -29.5,-29.65 -29.5,-33.75"/>
<polygon id="0x3facefd0" class="l67d20" points="-32.4,-32.55 -32.4,-30.85 -30.7,-30.85 -30.7,-32.55"/>
<polygon id="0x3facf0a0" class="l67d20" points="-33.6,-33.75 -29.5,-33.75 -29.5,-29.65 -33.6,-29.65"/>
<polygon id="0x3facf170" class="l68d20" points="29.5,29.65 33.6,29.65 33.6,33.75 29.5,33.75"/>
<polygon id="0x3facf240" class="l67d44" points="30.7,30.85 30.7,32.55 32.4,32.55 32.4,30.85"/>
<polygon id="0x3facf310" class="l68d20" points="30.1,30.25 30.1,33.15 33,33.15 33,30.25"/>
<polygon id="0x3facf3e0" class="l67d20" points="30.7,30.85 30.7,32.55 32.4,32.55 32.4,30.85"/>
<polygon id="0x3facf4b0" class="l68d20" points="29.5,29.65 29.5,33.75 33.6,33.75 33.6,29.65"/>
<polygon id="0x3facf580" class="l67d20" points="30.7,30.85 30.7,32.55 32.4,32.55 32.4,30.85"/>
<polygon id="0x3facf650" class="l67d20" points="29.5,29.65 33.6,29.65 33.6,33.75 29.5,33.75"/>
<polygon id="0x3facf720" class="l68d20" points="-33.6,29.65 -29.5,29.65 -29.5,33.75 -33.6,33.75"/>
<polygon id="0x3facf7f0" class="l67d44" points="-32.4,30.85 -32.4,32.55 -30.7,32.55 -30.7,30.85"/>
<polygon id="0x3facf8c0" class="l68d20" points="-33,30.25 -33,33.15 -30.1,33.15 -30.1,30.25"/>
<polygon id="0x3facf990" class="l67d20" points="-32.4,30.85 -32.4,32.55 -30.7,32.55 -30.7,30.85"/>
<polygon id="0x3facfa60" class="l68d20" points="-33.6,29.65 -33.6,33.75 -29.5,33.75 -29.5,29.65"/>
<polygon id="0x3facfb30" class="l67d20" points="-32.4,30.85 -32.4,32.55 -30.7,32.55 -30.7,30.85"/>
<polygon id="0x3facfc00" class="l67d20" points="-33.6,29.65 -29.5,29.65 -29.5,33.75 -33.6,33.75"/>
<polygon id="0x3facfcd0" class="l66d44" points="-32.4,-26.35 -32.4,-24.65 -30.7,-24.65 -30.7,-26.35"/>
<polygon id="0x3facfda0" class="l67d20" points="-33.2,-27.15 -33.2,-23.85 -29.9,-23.85 -29.9,-27.15"/>
<polygon id="0x3facfe70" class="l65d20" points="-33.6,-27.55 -33.6,-23.45 -29.5,-23.45 -29.5,-27.55"/>
<polygon id="0x3facff40" class="l66d44" points="-32.4,24.65 -32.4,26.35 -30.7,26.35 -30.7,24.65"/>
<polygon id="0x3fad0010" class="l67d20" points="-33.2,23.85 -33.2,27.15 -29.9,27.15 -29.9,23.85"/>
<polygon id="0x3fad00e0" class="l65d20" points="-33.6,23.45 -33.6,27.55 -29.5,27.55 -29.5,23.45"/>
<polygon id="0x3fad01b0" class="l66d44" points="-32.4,21.25 -32.4,22.95 -30.7,22.95 -30.7,21.25"/>
<polygon id="0x3fad0280" class="l67d20" points="-33.2,20.45 -33.2,23.75 -29.9,23.75 -29.9,20.45"/>
<polygon id="0x3fad0350" class="l65d20" points="-33.6,20.05 -33.6,24.15 -29.5,24.15 -29.5,20.05"/>
<polygon id="0x3fad0420" class="l66d44" points="-32.4,17.85 -32.4,19.55 -30.7,19.55 -30.7,17.85"/>
<polygon id="0x3fad04f0" class="l67d20" points="-33.2,17.05 -33.2,20.35 -29.9,20.35 -29.9,17.05"/>
<polygon id="0x3fad05c0" class="l65d20" points="-33.6,16.65 -33.6,20.75 -29.5,20.75 -29.5,16.65"/>
<polygon id="0x3fad0690" class="l66d44" points="-32.4,14.45 -32.4,16.15 -30.7,16.15 -30.7,14.45"/>
<polygon id="0x3fad0760" class="l67d20" points="-33.2,13.65 -33.2,16.95 -29.9,16.95 -29.9,13.65"/>
<polygon id="0x3fad0830" class="l65d20" points="-33.6,13.25 -33.6,17.35 -29.5,17.35 -29.5,13.25"/>
<polygon id="0x3fad0900" class="l66d44" points="-32.4,11.05 -32.4,12.75 -30.7,12.75 -30.7,11.05"/>
<polygon id="0x3fad09d0" class="l67d20" points="-33.2,10.25 -33.2,13.55 -29.9,13.55 -29.9,10.25"/>
<polygon id="0x3fad0aa0" class="l65d20" points="-33.6,9.85 -33.6,13.95 -29.5,13.95 -29.5,9.85"/>
<polygon id="0x3fad0b70" class="l66d44" points="-32.4,7.65 -32.4,9.35 -30.7,9.35 -30.7,7.65"/>
<polygon id="0x3fad0c40" class="l67d20" points="-33.2,6.85 -33.2,10.15 -29.9,10.15 -29.9,6.85"/>
<polygon id="0x3fad0d10" class="l65d20" points="-33.6,6.45 -33.6,10.55 -29.5,10.55 -29.5,6.45"/>
<polygon id="0x3fad0de0" class="l66d44" points="-32.4,4.25 -32.4,5.95 -30.7,5.95 -30.7,4.25"/>
<polygon id="0x3fad0eb0" class="l67d20" points="-33.2,3.45 -33.2,6.75 -29.9,6.75 -29.9,3.45"/>
<polygon id="0x3fad0f80" class="l65d20" points="-33.6,3.05 -33.6,7.15 -29.5,7.15 -29.5,3.05"/>
<polygon id="0x3fad1050" class="l66d44" points="-32.4,0.85 -32.4,2.55 -30.7,2.55 -30.7,0.85"/>
<polygon id="0x3fad1120" class="l67d20" points="-33.2,0.05 -33.2,3.35 -29.9,3.35 -29.9,0.05"/>
<polygon id="0x3fad11f0" class="l65d20" points="-33.6,-0.35 -33.6,3.75 -29.5,3.75 -29.5,-0.35"/>
<polygon id="0x3fad12c0" class="l66d44" points="-32.4,-2.55 -32.4,-0.85 -30.7,-0.85 -30.7,-2.55"/>
<polygon id="0x3fad1390" class="l67d20" points="-33.2,-3.35 -33.2,-0.05 -29.9,-0.05 -29.9,-3.35"/>
<polygon id="0x3fad1460" class="l65d20" points="-33.6,-3.75 -33.6,0.35 -29.5,0.35 -29.5,-3.75"/>
<polygon id="0x3fad1530" class="l66d44" points="-32.4,-5.95 -32.4,-4.25 -30.7,-4.25 -30.7,-5.95"/>
<polygon id="0x3fad1600" class="l67d20" points="-33.2,-6.75 -33.2,-3.45 -29.9,-3.45 -29.9,-6.75"/>
<polygon id="0x3fad16d0" class="l65d20" points="-33.6,-7.15 -33.6,-3.05 -29.5,-3.05 -29.5,-7.15"/>
<polygon id="0x3fad17a0" class="l66d44" points="-32.4,-9.35 -32.4,-7.65 -30.7,-7.65 -30.7,-9.35"/>
<polygon id="0x3fad1870" class="l67d20" points="-33.2,-10.15 -33.2,-6.85 -29.9,-6.85 -29.9,-10.15"/>
<polygon id="0x3fad1940" class="l65d20" points="-33.6,-10.55 -33.6,-6.45 -29.5,-6.45 -29.5,-10.55"/>
<polygon id="0x3fad1a10" class="l66d44" points="-32.4,-12.75 -32.4,-11.05 -30.7,-11.05 -30.7,-12.75"/>
<polygon id="0x3fa474b0" class="l67d20" points="-33.2,-13.55 -33.2,-10.25 -29.9,-10.25 -29.9,-13.55"/>
<polygon id="0x3fa47580" class="l65d20" points="-33.6,-13.95 -33.6,-9.85 -29.5,-9.85 -29.5,-13.95"/>
<polygon id="0x3fa47650" class="l66d44" points="-32.4,-16.15 -32.4,-14.45 -30.7,-14.45 -30.7,-16.15"/>
<polygon id="0x3fa47720" class="l67d20" points="-33.2,-16.95 -33.2,-13.65 -29.9,-13.65 -29.9,-16.95"/>
<polygon id="0x3fa477f0" class="l65d20" points="-33.6,-17.35 -33.6,-13.25 -29.5,-13.25 -29.5,-17.35"/>
<polygon id="0x3fa478c0" class="l66d44" points="-32.4,-19.55 -32.4,-17.85 -30.7,-17.85 -30.7,-19.55"/>
<polygon id="0x3fa47990" class="l67d20" points="-33.2,-20.35 -33.2,-17.05 -29.9,-17.05 -29.9,-20.35"/>
<polygon id="0x3fa47a60" class="l65d20" points="-33.6,-20.75 -33.6,-16.65 -29.5,-16.65 -29.5,-20.75"/>
<polygon id="0x3fa47b30" class="l66d44" points="-32.4,-22.95 -32.4,-21.25 -30.7,-21.25 -30.7,-22.95"/>
<polygon id="0x3fad2a90" class="l67d20" points="-33.2,-23.75 -33.2,-20.45 -29.9,-20.45 -29.9,-23.75"/>
<polygon id="0x3fad2b00" class="l65d20" points="-33.6,-24.15 -33.6,-20.05 -29.5,-20.05 -29.5,-24.15"/>
<polygon id="0x3fad2bd0" class="l67d20" points="-33.6,-29.65 -33.6,29.65 -29.5,29.65 -29.5,-29.65"/>
<polygon id="0x3fad2ca0" class="l65d20" points="-33.6,-27.55 -33.6,27.55 -29.5,27.55 -29.5,-27.55"/>
<polygon id="0x3fad2d70" class="l66d44" points="-23.35,-32.55 -23.35,-30.85 -21.65,-30.85 -21.65,-32.55"/>
<polygon id="0x3fad2e40" class="l68d20" points="-23.95,-33.15 -23.95,-30.25 -21.05,-30.25 -21.05,-33.15"/>
<polygon id="0x3fad2f10" class="l67d20" points="-24.15,-33.35 -24.15,-30.05 -20.85,-30.05 -20.85,-33.35"/>
<polygon id="0x3fad2fe0" class="l67d44" points="-23.35,-32.55 -23.35,-30.85 -21.65,-30.85 -21.65,-32.55"/>
<polygon id="0x3fad30b0" class="l65d20" points="-24.55,-33.75 -24.55,-29.65 -20.45,-29.65 -20.45,-33.75"/>
<polygon id="0x3fad3180" class="l66d44" points="21.65,-32.55 21.65,-30.85 23.35,-30.85 23.35,-32.55"/>
<polygon id="0x3fad3250" class="l68d20" points="21.05,-33.15 21.05,-30.25 23.95,-30.25 23.95,-33.15"/>
<polygon id="0x3fad3320" class="l67d20" points="20.85,-33.35 20.85,-30.05 24.15,-30.05 24.15,-33.35"/>
<polygon id="0x3fad33f0" class="l67d44" points="21.65,-32.55 21.65,-30.85 23.35,-30.85 23.35,-32.55"/>
<polygon id="0x3fad34c0" class="l65d20" points="20.45,-33.75 20.45,-29.65 24.55,-29.65 24.55,-33.75"/>
<polygon id="0x3fad3590" class="l66d44" points="16.65,-32.55 16.65,-30.85 18.35,-30.85 18.35,-32.55"/>
<polygon id="0x3fad3660" class="l68d20" points="16.05,-33.15 16.05,-30.25 18.95,-30.25 18.95,-33.15"/>
<polygon id="0x3fad3730" class="l67d20" points="15.85,-33.35 15.85,-30.05 19.15,-30.05 19.15,-33.35"/>
<polygon id="0x3fad3800" class="l67d44" points="16.65,-32.55 16.65,-30.85 18.35,-30.85 18.35,-32.55"/>
<polygon id="0x3fad38d0" class="l65d20" points="15.45,-33.75 15.45,-29.65 19.55,-29.65 19.55,-33.75"/>
<polygon id="0x3fad39a0" class="l66d44" points="11.65,-32.55 11.65,-30.85 13.35,-30.85 13.35,-32.55"/>
<polygon id="0x3fad3a70" class="l68d20" points="11.05,-33.15 11.05,-30.25 13.95,-30.25 13.95,-33.15"/>
<polygon id="0x3fad3b40" class="l67d20" points="10.85,-33.35 10.85,-30.05 14.15,-30.05 14.15,-33.35"/>
<polygon id="0x3fad3c10" class="l67d44" points="11.65,-32.55 11.65,-30.85 13.35,-30.85 13.35,-32.55"/>
<polygon id="0x3fad3ce0" class="l65d20" points="10.45,-33.75 10.45,-29.65 14.55,-29.65 14.55,-33.75"/>
<polygon id="0x3fad3db0" class="l66d44" points="6.65,-32.55 6.65,-30.85 8.35,-30.85 8.35,-32.55"/>
<polygon id="0x3fad3e80" class="l68d20" points="6.05,-33.15 6.05,-30.25 8.95,-30.25 8.95,-33.15"/>
<polygon id="0x3fad3f50" class="l67d20" points="5.85,-33.35 5.85,-30.05 9.15,-30.05 9.15,-33.35"/>
<polygon id="0x3fad4020" class="l67d44" points="6.65,-32.55 6.65,-30.85 8.35,-30.85 8.35,-32.55"/>
<polygon id="0x3fad40f0" class="l65d20" points="5.45,-33.75 5.45,-29.65 9.55,-29.65 9.55,-33.75"/>
<polygon id="0x3fad41c0" class="l66d44" points="1.65,-32.55 1.65,-30.85 3.35,-30.85 3.35,-32.55"/>
<polygon id="0x3fad4290" class="l68d20" points="1.05,-33.15 1.05,-30.25 3.95,-30.25 3.95,-33.15"/>
<polygon id="0x3fad4360" class="l67d20" points="0.85,-33.35 0.85,-30.05 4.15,-30.05 4.15,-33.35"/>
<polygon id="0x3fad4430" class="l67d44" points="1.65,-32.55 1.65,-30.85 3.35,-30.85 3.35,-32.55"/>
<polygon id="0x3fad4500" class="l65d20" points="0.45,-33.75 0.45,-29.65 4.55,-29.65 4.55,-33.75"/>
<polygon id="0x3fad45d0" class="l66d44" points="-3.35,-32.55 -3.35,-30.85 -1.65,-30.85 -1.65,-32.55"/>
<polygon id="0x3fad46a0" class="l68d20" points="-3.95,-33.15 -3.95,-30.25 -1.05,-30.25 -1.05,-33.15"/>
<polygon id="0x3fad4770" class="l67d20" points="-4.15,-33.35 -4.15,-30.05 -0.85,-30.05 -0.85,-33.35"/>
<polygon id="0x3fad4840" class="l67d44" points="-3.35,-32.55 -3.35,-30.85 -1.65,-30.85 -1.65,-32.55"/>
<polygon id="0x3fad4910" class="l65d20" points="-4.55,-33.75 -4.55,-29.65 -0.45,-29.65 -0.45,-33.75"/>
<polygon id="0x3fad49e0" class="l66d44" points="-8.35,-32.55 -8.35,-30.85 -6.65,-30.85 -6.65,-32.55"/>
<polygon id="0x3fad4ab0" class="l68d20" points="-8.95,-33.15 -8.95,-30.25 -6.05,-30.25 -6.05,-33.15"/>
<polygon id="0x3fad4b80" class="l67d20" points="-9.15,-33.35 -9.15,-30.05 -5.85,-30.05 -5.85,-33.35"/>
<polygon id="0x3fad4c50" class="l67d44" points="-8.35,-32.55 -8.35,-30.85 -6.65,-30.85 -6.65,-32.55"/>
<polygon id="0x3fad4d20" class="l65d20" points="-9.55,-33.75 -9.55,-29.65 -5.45,-29.65 -5.45,-33.75"/>
<polygon id="0x3fad4df0" class="l66d44" points="-13.35,-32.55 -13.35,-30.85 -11.65,-30.85 -11.65,-32.55"/>
<polygon id="0x3fad4ec0" class="l68d20" points="-13.95,-33.15 -13.95,-30.25 -11.05,-30.25 -11.05,-33.15"/>
<polygon id="0x3fad4f90" class="l67d20" points="-14.15,-33.35 -14.15,-30.05 -10.85,-30.05 -10.85,-33.35"/>
<polygon id="0x3fad5060" class="l67d44" points="-13.35,-32.55 -13.35,-30.85 -11.65,-30.85 -11.65,-32.55"/>
<polygon id="0x3fad5130" class="l65d20" points="-14.55,-33.75 -14.55,-29.65 -10.45,-29.65 -10.45,-33.75"/>
<polygon id="0x3fad5200" class="l66d44" points="-18.35,-32.55 -18.35,-30.85 -16.65,-30.85 -16.65,-32.55"/>
<polygon id="0x3fad52d0" class="l68d20" points="-18.95,-33.15 -18.95,-30.25 -16.05,-30.25 -16.05,-33.15"/>
<polygon id="0x3fad53a0" class="l67d20" points="-19.15,-33.35 -19.15,-30.05 -15.85,-30.05 -15.85,-33.35"/>
<polygon id="0x3fad5470" class="l67d44" points="-18.35,-32.55 -18.35,-30.85 -16.65,-30.85 -16.65,-32.55"/>
<polygon id="0x3fad5540" class="l65d20" points="-19.55,-33.75 -19.55,-29.65 -15.45,-29.65 -15.45,-33.75"/>
<polygon id="0x3fad5610" class="l67d20" points="-24.15,-33.35 -24.15,-30.05 24.15,-30.05 24.15,-33.35"/>
<polygon id="0x3fad56e0" class="l68d20" points="-29.5,-33.75 -29.5,-29.65 29.5,-29.65 29.5,-33.75"/>
<polygon id="0x3fad57b0" class="l65d20" points="-24.55,-33.75 -24.55,-29.65 24.55,-29.65 24.55,-33.75"/>
<polygon id="0x3fad5880" class="l66d44" points="30.7,-26.35 30.7,-24.65 32.4,-24.65 32.4,-26.35"/>
<polygon id="0x3fad5950" class="l67d20" points="29.9,-27.15 29.9,-23.85 33.2,-23.85 33.2,-27.15"/>
<polygon id="0x3fad5a20" class="l65d20" points="29.5,-27.55 29.5,-23.45 33.6,-23.45 33.6,-27.55"/>
<polygon id="0x3fad5af0" class="l66d44" points="30.7,24.65 30.7,26.35 32.4,26.35 32.4,24.65"/>
<polygon id="0x3fad5bc0" class="l67d20" points="29.9,23.85 29.9,27.15 33.2,27.15 33.2,23.85"/>
<polygon id="0x3fad5c90" class="l65d20" points="29.5,23.45 29.5,27.55 33.6,27.55 33.6,23.45"/>
<polygon id="0x3fad5d60" class="l66d44" points="30.7,21.25 30.7,22.95 32.4,22.95 32.4,21.25"/>
<polygon id="0x3fad5e30" class="l67d20" points="29.9,20.45 29.9,23.75 33.2,23.75 33.2,20.45"/>
<polygon id="0x3fad5f00" class="l65d20" points="29.5,20.05 29.5,24.15 33.6,24.15 33.6,20.05"/>
<polygon id="0x3fad5fd0" class="l66d44" points="30.7,17.85 30.7,19.55 32.4,19.55 32.4,17.85"/>
<polygon id="0x3fad60a0" class="l67d20" points="29.9,17.05 29.9,20.35 33.2,20.35 33.2,17.05"/>
<polygon id="0x3fad6170" class="l65d20" points="29.5,16.65 29.5,20.75 33.6,20.75 33.6,16.65"/>
<polygon id="0x3fad6240" class="l66d44" points="30.7,14.45 30.7,16.15 32.4,16.15 32.4,14.45"/>
<polygon id="0x3fad6310" class="l67d20" points="29.9,13.65 29.9,16.95 33.2,16.95 33.2,13.65"/>
<polygon id="0x3fad63e0" class="l65d20" points="29.5,13.25 29.5,17.35 33.6,17.35 33.6,13.25"/>
<polygon id="0x3fad64b0" class="l66d44" points="30.7,11.05 30.7,12.75 32.4,12.75 32.4,11.05"/>
<polygon id="0x3fad6580" class="l67d20" points="29.9,10.25 29.9,13.55 33.2,13.55 33.2,10.25"/>
<polygon id="0x3fad6650" class="l65d20" points="29.5,9.85 29.5,13.95 33.6,13.95 33.6,9.85"/>
<polygon id="0x3fad6720" class="l66d44" points="30.7,7.65 30.7,9.35 32.4,9.35 32.4,7.65"/>
<polygon id="0x3fad67f0" class="l67d20" points="29.9,6.85 29.9,10.15 33.2,10.15 33.2,6.85"/>
<polygon id="0x3fad68c0" class="l65d20" points="29.5,6.45 29.5,10.55 33.6,10.55 33.6,6.45"/>
<polygon id="0x3fad6990" class="l66d44" points="30.7,4.25 30.7,5.95 32.4,5.95 32.4,4.25"/>
<polygon id="0x3fad6a60" class="l67d20" points="29.9,3.45 29.9,6.75 33.2,6.75 33.2,3.45"/>
<polygon id="0x3fad6b30" class="l65d20" points="29.5,3.05 29.5,7.15 33.6,7.15 33.6,3.05"/>
<polygon id="0x3fad6c00" class="l66d44" points="30.7,0.85 30.7,2.55 32.4,2.55 32.4,0.85"/>
<polygon id="0x3fad6cd0" class="l67d20" points="29.9,0.05 29.9,3.35 33.2,3.35 33.2,0.05"/>
<polygon id="0x3fad6da0" class="l65d20" points="29.5,-0.35 29.5,3.75 33.6,3.75 33.6,-0.35"/>
<polygon id="0x3fad6e70" class="l66d44" points="30.7,-2.55 30.7,-0.85 32.4,-0.85 32.4,-2.55"/>
<polygon id="0x3fad6f40" class="l67d20" points="29.9,-3.35 29.9,-0.05 33.2,-0.05 33.2,-3.35"/>
<polygon id="0x3fad7010" class="l65d20" points="29.5,-3.75 29.5,0.35 33.6,0.35 33.6,-3.75"/>
<polygon id="0x3fad70e0" class="l66d44" points="30.7,-5.95 30.7,-4.25 32.4,-4.25 32.4,-5.95"/>
<polygon id="0x3fad71b0" class="l67d20" points="29.9,-6.75 29.9,-3.45 33.2,-3.45 33.2,-6.75"/>
<polygon id="0x3fad7280" class="l65d20" points="29.5,-7.15 29.5,-3.05 33.6,-3.05 33.6,-7.15"/>
<polygon id="0x3fad7350" class="l66d44" points="30.7,-9.35 30.7,-7.65 32.4,-7.65 32.4,-9.35"/>
<polygon id="0x3fad7420" class="l67d20" points="29.9,-10.15 29.9,-6.85 33.2,-6.85 33.2,-10.15"/>
<polygon id="0x3fad74f0" class="l65d20" points="29.5,-10.55 29.5,-6.45 33.6,-6.45 33.6,-10.55"/>
<polygon id="0x3fad75c0" class="l66d44" points="30.7,-12.75 30.7,-11.05 32.4,-11.05 32.4,-12.75"/>
<polygon id="0x3fad7690" class="l67d20" points="29.9,-13.55 29.9,-10.25 33.2,-10.25 33.2,-13.55"/>
<polygon id="0x3fad7760" class="l65d20" points="29.5,-13.95 29.5,-9.85 33.6,-9.85 33.6,-13.95"/>
<polygon id="0x3fad7830" class="l66d44" points="30.7,-16.15 30.7,-14.45 32.4,-14.45 32.4,-16.15"/>
<polygon id="0x3fad7900" class="l67d20" points="29.9,-16.95 29.9,-13.65 33.2,-13.65 33.2,-16.95"/>
<polygon id="0x3fad79d0" class="l65d20" points="29.5,-17.35 29.5,-13.25 33.6,-13.25 33.6,-17.35"/>
<polygon id="0x3fad7aa0" class="l66d44" points="30.7,-19.55 30.7,-17.85 32.4,-17.85 32.4,-19.55"/>
<polygon id="0x3fad7b70" class="l67d20" points="29.9,-20.35 29.9,-17.05 33.2,-17.05 33.2,-20.35"/>
<polygon id="0x3fad7c40" class="l65d20" points="29.5,-20.75 29.5,-16.65 33.6,-16.65 33.6,-20.75"/>
<polygon id="0x3fad7d10" class="l66d44" points="30.7,-22.95 30.7,-21.25 32.4,-21.25 32.4,-22.95"/>
<polygon id="0x3fad7de0" class="l67d20" points="29.9,-23.75 29.9,-20.45 33.2,-20.45 33.2,-23.75"/>
<polygon id="0x3fad7eb0" class="l65d20" points="29.5,-24.15 29.5,-20.05 33.6,-20.05 33.6,-24.15"/>
<polygon id="0x3fad7f80" class="l67d20" points="29.5,-29.65 29.5,29.65 33.6,29.65 33.6,-29.65"/>
<polygon id="0x3fad8050" class="l65d20" points="29.5,-27.55 29.5,27.55 33.6,27.55 33.6,-27.55"/>
<polygon id="0x3fad8120" class="l66d44" points="-23.35,30.85 -23.35,32.55 -21.65,32.55 -21.65,30.85"/>
<polygon id="0x3fad81f0" class="l68d20" points="-23.95,30.25 -23.95,33.15 -21.05,33.15 -21.05,30.25"/>
<polygon id="0x3fad82c0" class="l67d20" points="-24.15,30.05 -24.15,33.35 -20.85,33.35 -20.85,30.05"/>
<polygon id="0x3fad8390" class="l67d44" points="-23.35,30.85 -23.35,32.55 -21.65,32.55 -21.65,30.85"/>
<polygon id="0x3fad8460" class="l65d20" points="-24.55,29.65 -24.55,33.75 -20.45,33.75 -20.45,29.65"/>
<polygon id="0x3fad8530" class="l66d44" points="21.65,30.85 21.65,32.55 23.35,32.55 23.35,30.85"/>
<polygon id="0x3fad8600" class="l68d20" points="21.05,30.25 21.05,33.15 23.95,33.15 23.95,30.25"/>
<polygon id="0x3fad86d0" class="l67d20" points="20.85,30.05 20.85,33.35 24.15,33.35 24.15,30.05"/>
<polygon id="0x3fad87a0" class="l67d44" points="21.65,30.85 21.65,32.55 23.35,32.55 23.35,30.85"/>
<polygon id="0x3fad8870" class="l65d20" points="20.45,29.65 20.45,33.75 24.55,33.75 24.55,29.65"/>
<polygon id="0x3fad8940" class="l66d44" points="16.65,30.85 16.65,32.55 18.35,32.55 18.35,30.85"/>
<polygon id="0x3fad8a10" class="l68d20" points="16.05,30.25 16.05,33.15 18.95,33.15 18.95,30.25"/>
<polygon id="0x3fad8ae0" class="l67d20" points="15.85,30.05 15.85,33.35 19.15,33.35 19.15,30.05"/>
<polygon id="0x3fad8bb0" class="l67d44" points="16.65,30.85 16.65,32.55 18.35,32.55 18.35,30.85"/>
<polygon id="0x3fad8c80" class="l65d20" points="15.45,29.65 15.45,33.75 19.55,33.75 19.55,29.65"/>
<polygon id="0x3fad8d50" class="l66d44" points="11.65,30.85 11.65,32.55 13.35,32.55 13.35,30.85"/>
<polygon id="0x3fad8e20" class="l68d20" points="11.05,30.25 11.05,33.15 13.95,33.15 13.95,30.25"/>
<polygon id="0x3fad8ef0" class="l67d20" points="10.85,30.05 10.85,33.35 14.15,33.35 14.15,30.05"/>
<polygon id="0x3fad8fc0" class="l67d44" points="11.65,30.85 11.65,32.55 13.35,32.55 13.35,30.85"/>
<polygon id="0x3fad9090" class="l65d20" points="10.45,29.65 10.45,33.75 14.55,33.75 14.55,29.65"/>
<polygon id="0x3fad9160" class="l66d44" points="6.65,30.85 6.65,32.55 8.35,32.55 8.35,30.85"/>
<polygon id="0x3fad9230" class="l68d20" points="6.05,30.25 6.05,33.15 8.95,33.15 8.95,30.25"/>
<polygon id="0x3fad9300" class="l67d20" points="5.85,30.05 5.85,33.35 9.15,33.35 9.15,30.05"/>
<polygon id="0x3fad93d0" class="l67d44" points="6.65,30.85 6.65,32.55 8.35,32.55 8.35,30.85"/>
<polygon id="0x3fad94a0" class="l65d20" points="5.45,29.65 5.45,33.75 9.55,33.75 9.55,29.65"/>
<polygon id="0x3fad9570" class="l66d44" points="1.65,30.85 1.65,32.55 3.35,32.55 3.35,30.85"/>
<polygon id="0x3fad9640" class="l68d20" points="1.05,30.25 1.05,33.15 3.95,33.15 3.95,30.25"/>
<polygon id="0x3fad9710" class="l67d20" points="0.85,30.05 0.85,33.35 4.15,33.35 4.15,30.05"/>
<polygon id="0x3fad97e0" class="l67d44" points="1.65,30.85 1.65,32.55 3.35,32.55 3.35,30.85"/>
<polygon id="0x3fad98b0" class="l65d20" points="0.45,29.65 0.45,33.75 4.55,33.75 4.55,29.65"/>
<polygon id="0x3fad9980" class="l66d44" points="-3.35,30.85 -3.35,32.55 -1.65,32.55 -1.65,30.85"/>
<polygon id="0x3fad9a50" class="l68d20" points="-3.95,30.25 -3.95,33.15 -1.05,33.15 -1.05,30.25"/>
<polygon id="0x3ff30e10" class="l67d20" points="-4.15,30.05 -4.15,33.35 -0.85,33.35 -0.85,30.05"/>
<polygon id="0x3ff30ee0" class="l67d44" points="-3.35,30.85 -3.35,32.55 -1.65,32.55 -1.65,30.85"/>
<polygon id="0x3ff30fb0" class="l65d20" points="-4.55,29.65 -4.55,33.75 -0.45,33.75 -0.45,29.65"/>
<polygon id="0x3ff31080" class="l66d44" points="-8.35,30.85 -8.35,32.55 -6.65,32.55 -6.65,30.85"/>
<polygon id="0x3ff31150" class="l68d20" points="-8.95,30.25 -8.95,33.15 -6.05,33.15 -6.05,30.25"/>
<polygon id="0x3ff31220" class="l67d20" points="-9.15,30.05 -9.15,33.35 -5.85,33.35 -5.85,30.05"/>
<polygon id="0x3ff312f0" class="l67d44" points="-8.35,30.85 -8.35,32.55 -6.65,32.55 -6.65,30.85"/>
<polygon id="0x3ff313c0" class="l65d20" points="-9.55,29.65 -9.55,33.75 -5.45,33.75 -5.45,29.65"/>
<polygon id="0x3ff31490" class="l66d44" points="-13.35,30.85 -13.35,32.55 -11.65,32.55 -11.65,30.85"/>
<polygon id="0x3ff31560" class="l68d20" points="-13.95,30.25 -13.95,33.15 -11.05,33.15 -11.05,30.25"/>
<polygon id="0x3ff31630" class="l67d20" points="-14.15,30.05 -14.15,33.35 -10.85,33.35 -10.85,30.05"/>
<polygon id="0x3ff31700" class="l67d44" points="-13.35,30.85 -13.35,32.55 -11.65,32.55 -11.65,30.85"/>
<polygon id="0x3ff317d0" class="l65d20" points="-14.55,29.65 -14.55,33.75 -10.45,33.75 -10.45,29.65"/>
<polygon id="0x3ff318a0" class="l66d44" points="-18.35,30.85 -18.35,32.55 -16.65,32.55 -16.65,30.85"/>
<polygon id="0x3ff31970" class="l68d20" points="-18.95,30.25 -18.95,33.15 -16.05,33.15 -16.05,30.25"/>
<polygon id="0x3ff31a40" class="l67d20" points="-19.15,30.05 -19.15,33.35 -15.85,33.35 -15.85,30.05"/>
<polygon id="0x3ff31b10" class="l67d44" points="-18.35,30.85 -18.35,32.55 -16.65,32.55 -16.65,30.85"/>
<polygon id="0x3ff31be0" class="l65d20" points="-19.55,29.65 -19.55,33.75 -15.45,33.75 -15.45,29.65"/>
<polygon id="0x3ff31cb0" class="l67d20" points="-24.15,30.05 -24.15,33.35 24.15,33.35 24.15,30.05"/>
<polygon id="0x3ff31d80" class="l68d20" points="-29.5,29.65 -29.5,33.75 29.5,33.75 29.5,29.65"/>
<polygon id="0x3ff31e50" class="l65d20" points="-24.55,29.65 -24.55,33.75 24.55,33.75 24.55,29.65"/>
<polygon id="0x3ff31f20" class="l94d20" points="34.9,35.05 -34.9,35.05 -34.9,-28.35 -28.2,-28.35 -28.2,28.35 28.2,28.35 28.2,-28.35 -28.2,-28.35 -34.9,-28.35 -34.9,-35.05 34.9,-35.05"/>
</g>
<g id="c_route_d74593a0$1">
<polygon id="0x3ff32030" class="l69d20" points="18.1,20.25 21.3,20.25 21.3,60.55 18.1,60.55"/>
<polygon id="0x3ff32100" class="l68d44" points="18.4,57.65 18.4,59.15 19.9,59.15 19.9,57.65"/>
<polygon id="0x3ff321d0" class="l69d20" points="17.5,56.75 17.5,60.05 20.8,60.05 20.8,56.75"/>
<polygon id="0x3ff322a0" class="l68d20" points="17,56.25 17,60.55 21.3,60.55 21.3,56.25"/>
<polygon id="0x3ff32370" class="l68d20" points="-20.8,60 -17.5,60 -17.5,60.05 -20.8,60.05"/>
<polygon id="0x3ff32440" class="l68d20" points="17.5,60 20.8,60 20.8,60.05 17.5,60.05"/>
<polygon id="0x3ff32510" class="l68d20" points="-20.8,56.8 20.8,56.8 20.8,60 -20.8,60"/>
<polygon id="0x3ff325e0" class="l69d20" points="-21.3,-61.85 -18.1,-61.85 -18.1,60.55 -21.3,60.55"/>
<polygon id="0x3ff326b0" class="l68d44" points="-19.9,57.65 -19.9,59.15 -18.4,59.15 -18.4,57.65"/>
<polygon id="0x3ff32810" class="l69d20" points="-20.8,56.75 -20.8,60.05 -17.5,60.05 -17.5,56.75"/>
<polygon id="0x3ff328e0" class="l68d20" points="-21.3,56.25 -21.3,60.55 -17,60.55 -17,56.25"/>
</g>
</defs>
<rect x="-52.825" y="-69.675" width="98.65" height="200.75" fill="#222222" stroke="none"/>
<g id="inverter" transform="scale(1 -1)">
<use transform="translate(0 0)" xlink:href="#Unnamed_1caa847b"/>
<use transform="translate(0 -86.4)" xlink:href="#Unnamed_615fdc9f"/>
<use transform="translate(-41.55 22.9)" xlink:href="#via_stack_02bf065d"/>
<use transform="translate(19.7 18.6)" xlink:href="#via_stack_02bf065d"/>
<use transform="translate(-19.7 -63.5)" xlink:href="#via_stack_02bf065d"/>
<use transform="translate(11.65 -108.85)" xlink:href="#via_stack_02bf065d"/>
<use transform="translate(0 0)" xlink:href="#straight_route_a300cee3"/>
<use transform="translate(0 0)" xlink:href="#straight_route_478a13ba"/>
<use transform="translate(0 0)" xlink:href="#c_route_d74593a0"/>
<use transform="translate(0 0)" xlink:href="#straight_route_a300cee3$1"/>
<use transform="translate(0 0)" xlink:href="#straight_route_478a13ba$1"/>
<use transform="translate(0 0)" xlink:href="#c_route_d74593a0$1"/>
<use transform="translate(0 0)" xlink:href="#straight_route_d26e7eb0"/>
</g>
</svg>
