<?xml version="1.0" standalone="yes"?>
<!DOCTYPE svg PUBLIC "-//W3C//DTD SVG 1.1//EN"
 "http://www.w3.org/Graphics/SVG/1.1/DTD/svg11.dtd">
<svg xmlns="http://www.w3.org/2000/svg" version="1.1"
  width="100%" height="100%" viewBox="0 0 1024 768"
  style="fill: none; font-family: Arial;
 font: Arial;
">

<!-- Creator: NGspice -->

<rect x="0" y="0" width="1024" height="768" fill="white" stroke="none"/>
<text stroke="none" fill="black" font-size="16" x="358" y="752">
frequency
</text>
<text stroke="none" fill="black" font-size="16" x="10" y="16">
ac30: OTA_2stage Gain
</text>
<path stroke="black" d="M70 704l0 -637"/>
<text stroke="none" fill="black" font-size="16" x="65" y="728">
1
</text>
<path stroke="black" stroke-dasharray="1,2" d="M129 704l0 -637M146 704l0 -637M158 704l0 -637"/>
<path stroke="black" d="M168 704l0 -637"/>
<text stroke="none" fill="black" font-size="16" x="158" y="728">
10
</text>
<path stroke="black" stroke-dasharray="1,2" d="M227 704l0 -637M244 704l0 -637M256 704l0 -637"/>
<path stroke="black" d="M266 704l0 -637"/>
<text stroke="none" fill="black" font-size="16" x="251" y="728">
100
</text>
<path stroke="black" stroke-dasharray="1,2" d="M325 704l0 -637M342 704l0 -637M354 704l0 -637"/>
<path stroke="black" d="M364 704l0 -637"/>
<text stroke="none" fill="black" font-size="16" x="344" y="728">
10^3
</text>
<path stroke="black" stroke-dasharray="1,2" d="M423 704l0 -637M440 704l0 -637M452 704l0 -637"/>
<path stroke="black" d="M462 704l0 -637"/>
<text stroke="none" fill="black" font-size="16" x="442" y="728">
10^4
</text>
<path stroke="black" stroke-dasharray="1,2" d="M521 704l0 -637M538 704l0 -637M550 704l0 -637"/>
<path stroke="black" d="M560 704l0 -637"/>
<text stroke="none" fill="black" font-size="16" x="540" y="728">
10^5
</text>
<path stroke="black" stroke-dasharray="1,2" d="M619 704l0 -637M636 704l0 -637M648 704l0 -637"/>
<path stroke="black" d="M658 704l0 -637"/>
<text stroke="none" fill="black" font-size="16" x="638" y="728">
10^6
</text>
<path stroke="black" stroke-dasharray="1,2" d="M717 704l0 -637M734 704l0 -637M746 704l0 -637"/>
<path stroke="black" d="M756 704l0 -637"/>
<text stroke="none" fill="black" font-size="16" x="736" y="728">
10^7
</text>
<path stroke="black" stroke-dasharray="1,2" d="M815 704l0 -637M832 704l0 -637M844 704l0 -637"/>
<path stroke="black" d="M854 704l0 -637"/>
<text stroke="none" fill="black" font-size="16" x="834" y="728">
10^8
</text>
<path stroke="black" stroke-dasharray="1,2" d="M913 704l0 -637M930 704l0 -637M942 704l0 -637"/>
<path stroke="black" d="M952 704l0 -637"/>
<text stroke="none" fill="black" font-size="16" x="932" y="728">
10^9
</text>
<text stroke="none" fill="black" font-size="16" x="623" y="752">
Hz
</text>
<path stroke="black" stroke-dasharray="1,2" d="M70 704l882 0"/>
<text stroke="none" fill="black" font-size="16" x="18" y="712">
-40.0
</text>
<path stroke="black" stroke-dasharray="1,2" d="M70 613l882 0"/>
<text stroke="none" fill="black" font-size="16" x="18" y="621">
-20.0
</text>
<path stroke="black" d="M70 522l882 0"/>
<text stroke="none" fill="black" font-size="16" x="38" y="530">
0.0
</text>
<path stroke="black" stroke-dasharray="1,2" d="M70 431l882 0"/>
<text stroke="none" fill="black" font-size="16" x="28" y="439">
20.0
</text>
<path stroke="black" stroke-dasharray="1,2" d="M70 340l882 0"/>
<text stroke="none" fill="black" font-size="16" x="28" y="348">
40.0
</text>
<path stroke="black" stroke-dasharray="1,2" d="M70 249l882 0"/>
<text stroke="none" fill="black" font-size="16" x="28" y="257">
60.0
</text>
<path stroke="black" stroke-dasharray="1,2" d="M70 158l882 0"/>
<text stroke="none" fill="black" font-size="16" x="28" y="166">
80.0
</text>
<path stroke="black" stroke-dasharray="1,2" d="M70 67l882 0"/>
<text stroke="none" fill="black" font-size="16" x="18" y="75">
100.0
</text>
<text stroke="none" fill="black" font-size="16" x="10" y="32">
dB
</text>
<path stroke="red" d="M70 139l376 0 10 1 19 0 20 2 20 4 20 8 10 5 10 7 9 7 20 16 20 18 10 8 10 9 10 10 20 18 9 9 20 18 10 10 40 36 19 19 20 18 10 10 10 9 20 20 20 22 9 12 10 14 10 15 10 16 20 38 10 20"/>
<path stroke="blue" d="M70 139l386 0 10 1 9 0 20 2 20 4 20 8 20 12 9 8 20 16 10 9 10 8 30 27 10 10 10 9 9 9 30 27 10 10 40 36 9 10 20 18 10 10 10 9 20 20 20 22 9 12 10 14 10 15 10 17 10 18 20 40"/>
<path stroke="#FFA500" d="M70 138l316 0 10 1 70 0 9 1 20 2 10 2 20 6 20 10 10 7 9 7 10 8 10 9 10 8 40 36 10 10 10 9 9 9 30 27 10 10 40 36 9 10 20 18 10 10 10 9 20 20 20 22 9 12 10 14 10 16 10 17 10 18 20 40"/>
<path stroke="green" d="M70 138l356 0 10 1 30 0 9 1 20 2 10 2 20 6 10 5 10 6 10 7 9 7 10 8 10 9 10 8 50 45 19 19 30 27 10 10 40 36 9 10 20 18 10 10 10 9 20 20 20 22 9 13 10 14 10 15 10 17 10 19 20 40"/>
<path stroke="#FFC0C5" d="M70 138l376 0 10 1 10 0 9 1 20 2 10 2 10 3 10 4 10 5 10 6 10 7 9 7 10 8 10 9 10 8 50 45 19 19 30 27 10 10 40 36 9 10 20 18 10 10 10 9 20 20 10 11 10 12 9 12 10 14 10 16 10 17 10 19 20 40"/>
<path stroke="#A52A2A" d="M70 138l386 0 10 1 9 0 10 1 20 4 10 3 10 4 10 5 10 6 10 7 9 8 10 8 10 9 10 8 40 36 10 10 10 9 9 9 30 27 10 10 40 36 9 10 20 18 10 10 10 9 10 10 10 11 10 10 10 12 9 13 10 14 10 16 10 17 10 19 20 40"/>
<path stroke="#F0E68C" d="M70 137l366 0 10 1 20 0 9 1 10 1 20 4 10 3 10 4 20 12 10 7 9 8 10 8 10 9 10 8 30 27 10 10 20 18 9 9 20 18 10 10 40 36 19 19 20 18 20 20 10 9 30 33 9 13 10 15 10 16 10 17 10 19 20 40"/>
<path stroke="#DDA0DD" d="M70 137l386 0 10 1 9 1 10 1 20 4 10 3 20 10 20 14 9 8 10 8 10 9 10 8 20 18 10 10 30 27 9 9 20 18 10 10 40 36 19 19 10 9 10 10 10 9 30 30 10 11 10 12 9 13 10 14 20 34 10 19 20 40"/>
<path stroke="#DA70D6" d="M70 136l376 0 10 1 10 0 9 1 10 1 10 2 10 3 20 8 20 12 10 8 9 8 10 8 80 72 19 19 50 45 10 10 10 9 19 19 20 18 30 30 10 11 10 12 9 14 10 14 10 17 10 18 10 19 20 40"/>
<path stroke="#EE82EE" d="M70 135l366 0 10 1 10 0 10 1 9 1 10 1 10 2 10 3 10 4 20 10 10 7 10 8 9 8 10 8 80 72 9 10 40 36 10 10 30 27 19 19 10 9 10 10 10 9 10 10 20 22 10 12 9 13 10 15 10 17 10 18 10 19 20 40"/>
<path stroke="#B03060" d="M70 134l356 0 10 1 20 0 10 1 9 1 10 1 20 6 10 4 10 5 10 6 10 7 10 8 9 8 10 8 60 54 10 10 10 9 9 9 30 27 10 10 30 27 19 19 10 9 10 10 10 9 30 30 20 24 9 13 10 15 10 17 10 18 30 60"/>
<path stroke="#40E0D0" d="M70 133l356 0 10 1 20 0 10 1 9 1 20 4 20 8 10 5 20 14 10 8 9 8 20 18 10 8 10 9 10 10 40 36 19 19 50 45 10 10 10 9 19 19 10 9 10 10 10 9 10 10 20 22 10 13 9 13 20 32 20 38 20 40"/>
<path stroke="#A0522D" d="M70 132l366 0 10 1 10 0 10 1 9 1 10 2 10 3 20 8 10 6 20 14 10 8 9 8 80 72 19 19 30 27 10 10 40 36 9 10 20 18 30 30 20 22 10 13 9 13 10 16 10 17 20 38 20 40"/>
<path stroke="#FF7F50" d="M70 131l366 0 10 1 10 0 10 1 9 2 10 2 10 3 10 4 10 5 10 6 20 14 10 8 9 9 10 8 30 27 10 10 40 36 19 19 50 45 10 10 10 9 19 19 10 9 10 10 10 9 10 11 10 10 10 12 10 13 9 14 10 15 20 36 30 60"/>
<path stroke="cyan" d="M70 129l346 0 10 1 20 0 20 2 9 2 10 2 10 3 20 10 10 6 10 8 10 7 10 9 9 8 70 63 10 10 10 9 9 9 30 27 10 10 30 27 19 19 10 9 10 10 10 9 10 10 10 11 10 10 10 12 10 13 9 14 10 16 20 36 30 60"/>
<path stroke="magenta" d="M70 128l356 0 10 1 10 0 20 2 9 2 20 6 10 5 20 12 30 24 9 9 90 81 9 10 40 36 10 10 30 27 9 10 20 18 30 30 10 11 10 12 10 13 9 15 10 16 10 18 20 38 20 40"/>
<path stroke="#666" d="M70 126l346 0 10 1 10 0 30 3 9 2 10 3 10 4 10 5 10 6 10 7 20 16 10 9 9 8 40 36 10 10 40 36 19 19 40 36 10 10 20 18 19 19 10 9 30 30 10 11 10 12 10 14 9 14 10 17 10 18 10 19 10 20 10 19 10 20"/>
<path stroke="#949494" d="M70 124l326 0 10 1 20 0 10 1 10 0 10 1 10 2 9 3 10 3 10 4 20 12 10 8 10 7 10 9 10 8 9 9 50 45 10 10 30 27 19 19 40 36 10 10 20 18 19 19 10 9 20 20 20 22 10 12 10 13 9 15 10 17 10 18 10 19 20 40 10 19"/>
<path stroke="#888" d="M70 122l307 0 9 1 40 0 30 3 10 2 9 3 10 4 10 5 20 12 30 24 10 9 9 9 50 45 10 10 30 27 19 19 40 36 10 10 20 18 19 19 10 9 20 20 20 22 20 26 9 15 10 17 20 38 10 20 10 19 10 20"/>
<path stroke="red" d="M70 120l297 0 10 1 39 0 10 1 10 0 10 2 10 1 10 3 9 3 10 4 10 5 20 14 30 24 10 9 9 9 40 36 10 10 40 36 9 10 50 45 10 10 20 18 9 10 10 9 10 10 10 9 10 11 10 10 20 24 10 14 9 16 10 17 10 18 20 40 20 38"/>
<path stroke="blue" d="M70 118l297 0 10 1 39 0 30 3 10 2 10 3 9 4 10 4 10 6 20 14 10 8 10 9 10 8 10 9 9 9 20 18 10 10 50 45 19 19 30 27 10 10 30 27 19 19 10 9 30 30 10 11 20 24 10 15 9 15 20 36 20 40 20 38"/>
<path stroke="#FFA500" d="M70 116l307 0 9 1 20 0 10 1 10 0 10 1 20 4 10 3 9 5 10 5 10 6 10 7 20 16 30 27 9 9 50 45 10 10 30 27 9 9 10 9 10 10 40 36 10 10 10 9 49 49 10 11 10 12 10 13 10 14 9 16 10 18 20 38 10 20 10 19 10 18"/>
<path stroke="green" d="M70 114l307 0 9 1 20 0 30 3 10 2 20 6 9 5 10 6 20 14 10 8 10 9 10 8 20 18 9 9 20 18 10 10 40 36 10 10 10 9 9 9 30 27 10 10 30 27 29 29 10 9 10 10 20 22 10 12 10 13 10 15 9 16 10 18 10 19 10 20 20 38 10 18"/>
<path stroke="#FFC0C5" d="M70 112l316 0 10 1 10 0 20 2 20 4 10 3 10 5 9 5 10 6 10 8 10 7 10 9 10 8 30 27 9 9 30 27 10 10 40 36 19 19 40 36 10 10 20 18 29 29 10 9 10 10 20 22 10 12 10 14 10 15 9 17 10 18 10 19 10 20 20 38 10 17"/>
<path stroke="#A52A2A" d="M70 110l316 0 10 1 10 0 10 1 20 4 20 6 10 5 9 6 10 7 30 24 40 36 9 9 30 27 10 10 40 36 19 19 30 27 10 10 30 27 29 29 10 9 10 11 10 10 20 24 10 14 10 16 9 17 10 18 10 19 10 20 10 19 20 36"/>
<path stroke="#F0E68C" d="M70 107l257 0 10 1 49 0 30 3 20 4 20 8 10 6 9 6 10 7 10 8 10 9 10 8 40 36 9 9 10 9 10 10 50 45 10 10 10 9 9 9 20 18 10 10 30 27 10 10 10 9 39 39 10 11 10 12 10 13 10 14 10 16 9 17 40 76 10 18 10 17"/>
<path stroke="#DDA0DD" d="M70 105l277 0 10 1 29 0 20 2 20 4 10 3 10 4 10 5 10 6 9 7 20 16 20 18 10 8 10 9 10 10 10 9 9 9 40 36 10 10 40 36 9 10 40 36 10 10 20 18 49 49 10 11 10 12 10 13 10 15 10 16 9 18 40 76 20 34"/>
<path stroke="#DA70D6" d="M70 103l287 0 10 1 10 0 9 1 20 2 10 2 20 6 10 5 10 6 10 7 9 7 10 8 10 9 10 8 40 36 19 19 40 36 10 10 40 36 19 19 30 27 10 10 20 18 39 39 20 22 10 12 10 14 10 15 10 16 9 18 40 76 10 17 10 16"/>
<path stroke="#EE82EE" d="M70 101l277 0 10 1 20 0 9 1 10 1 10 2 20 6 20 10 20 14 9 8 10 8 10 9 10 8 20 18 10 10 20 18 9 9 30 27 10 10 40 36 19 19 30 27 10 10 20 18 10 10 10 9 9 10 10 9 10 11 10 10 10 12 10 13 10 14 10 15 10 17 9 18 30 57 10 18"/>
<path stroke="#EE82EE" d="M881 594l20 32"/>
<path stroke="#B03060" d="M70 99l267 0 10 1 20 0 10 1 9 1 20 4 10 3 10 4 20 12 10 7 10 8 9 8 10 8 60 54 19 19 40 36 10 10 40 36 9 10 40 36 10 10 20 18 29 29 20 22 10 12 10 13 10 14 10 16 10 18 9 18 20 38 10 18 20 34 10 15"/>
</svg>
