<?xml version="1.0" standalone="yes"?>
<!DOCTYPE svg PUBLIC "-//W3C//DTD SVG 1.1//EN"
 "http://www.w3.org/Graphics/SVG/1.1/DTD/svg11.dtd">
<svg xmlns="http://www.w3.org/2000/svg" version="1.1"
  width="100%" height="100%" viewBox="0 0 1024 768"
  style="fill: none; font-family: Arial;
 font: Arial;
">

<!-- Creator: NGspice -->

<rect x="0" y="0" width="1024" height="768" fill="white" stroke="none"/>
<text stroke="none" fill="black" font-size="16" x="358" y="752">
Power(mW)
</text>
<text transform="rotate(-90, 20, 484)"  stroke="none" fill="black" font-size="16" x="20" y="484">
Integrated_Noise(uV)
</text>
<text stroke="none" fill="black" font-size="16" x="10" y="16">
noise58: OTA_2stage Integrated_Noise
</text>
<path stroke="black" d="M75 704l0 -637"/>
<text stroke="none" fill="black" font-size="16" x="60" y="728">
0.0
</text>
<path stroke="black" stroke-dasharray="1,2" d="M187 704l0 -637"/>
<text stroke="none" fill="black" font-size="16" x="172" y="728">
1.0
</text>
<path stroke="black" stroke-dasharray="1,2" d="M299 704l0 -637"/>
<text stroke="none" fill="black" font-size="16" x="284" y="728">
2.0
</text>
<path stroke="black" stroke-dasharray="1,2" d="M411 704l0 -637"/>
<text stroke="none" fill="black" font-size="16" x="396" y="728">
3.0
</text>
<path stroke="black" stroke-dasharray="1,2" d="M523 704l0 -637"/>
<text stroke="none" fill="black" font-size="16" x="508" y="728">
4.0
</text>
<path stroke="black" stroke-dasharray="1,2" d="M635 704l0 -637"/>
<text stroke="none" fill="black" font-size="16" x="620" y="728">
5.0
</text>
<path stroke="black" stroke-dasharray="1,2" d="M747 704l0 -637"/>
<text stroke="none" fill="black" font-size="16" x="732" y="728">
6.0
</text>
<path stroke="black" stroke-dasharray="1,2" d="M859 704l0 -637"/>
<text stroke="none" fill="black" font-size="16" x="844" y="728">
7.0
</text>
<path stroke="black" stroke-dasharray="1,2" d="M971 704l0 -637"/>
<text stroke="none" fill="black" font-size="16" x="956" y="728">
8.0
</text>
<text stroke="none" fill="black" font-size="16" x="614" y="752">
m     
</text>
<path stroke="black" stroke-dasharray="1,2" d="M75 704l896 0"/>
<text stroke="none" fill="black" font-size="16" x="43" y="712">
2.5
</text>
<path stroke="black" stroke-dasharray="1,2" d="M75 655l896 0"/>
<text stroke="none" fill="black" font-size="16" x="43" y="663">
3.0
</text>
<path stroke="black" stroke-dasharray="1,2" d="M75 606l896 0"/>
<text stroke="none" fill="black" font-size="16" x="43" y="614">
3.5
</text>
<path stroke="black" stroke-dasharray="1,2" d="M75 557l896 0"/>
<text stroke="none" fill="black" font-size="16" x="43" y="565">
4.0
</text>
<path stroke="black" stroke-dasharray="1,2" d="M75 508l896 0"/>
<text stroke="none" fill="black" font-size="16" x="43" y="516">
4.5
</text>
<path stroke="black" stroke-dasharray="1,2" d="M75 459l896 0"/>
<text stroke="none" fill="black" font-size="16" x="43" y="467">
5.0
</text>
<path stroke="black" stroke-dasharray="1,2" d="M75 410l896 0"/>
<text stroke="none" fill="black" font-size="16" x="43" y="418">
5.5
</text>
<path stroke="black" stroke-dasharray="1,2" d="M75 361l896 0"/>
<text stroke="none" fill="black" font-size="16" x="43" y="369">
6.0
</text>
<path stroke="black" stroke-dasharray="1,2" d="M75 312l896 0"/>
<text stroke="none" fill="black" font-size="16" x="43" y="320">
6.5
</text>
<path stroke="black" stroke-dasharray="1,2" d="M75 263l896 0"/>
<text stroke="none" fill="black" font-size="16" x="43" y="271">
7.0
</text>
<path stroke="black" stroke-dasharray="1,2" d="M75 214l896 0"/>
<text stroke="none" fill="black" font-size="16" x="43" y="222">
7.5
</text>
<path stroke="black" stroke-dasharray="1,2" d="M75 165l896 0"/>
<text stroke="none" fill="black" font-size="16" x="43" y="173">
8.0
</text>
<path stroke="black" stroke-dasharray="1,2" d="M75 116l896 0"/>
<text stroke="none" fill="black" font-size="16" x="43" y="124">
8.5
</text>
<path stroke="black" stroke-dasharray="1,2" d="M75 67l896 0"/>
<text stroke="none" fill="black" font-size="16" x="43" y="75">
9.0
</text>
<text stroke="none" fill="black" font-size="16" x="10" y="32">
u     
</text>
<path stroke="red" d="M802 662l68 13M737 647l65 15M674 630l63 17M613 611l61 19M555 588l58 23M500 561l55 27M447 529l53 32M397 490l50 39M351 444l46 46M307 388l44 56M267 318l40 70M231 229l36 89M197 112l34 117"/>
</svg>
