<?xml version="1.0" standalone="yes"?>
<!DOCTYPE svg PUBLIC "-//W3C//DTD SVG 1.1//EN"
 "http://www.w3.org/Graphics/SVG/1.1/DTD/svg11.dtd">
<svg xmlns="http://www.w3.org/2000/svg" version="1.1"
  width="100%" height="100%" viewBox="0 0 1024 768"
  style="fill: none; font-family: Arial;
 font: Arial;
">

<!-- Creator: NGspice -->

<rect x="0" y="0" width="1024" height="768" fill="white" stroke="none"/>
<text stroke="none" fill="black" font-size="16" x="358" y="752">
Time(ns)
</text>
<text transform="rotate(-90, 20, 414)"  stroke="none" fill="black" font-size="16" x="20" y="414">
Output
</text>
<text stroke="none" fill="black" font-size="16" x="10" y="16">
tran29: OTA_2stage Transient Plot
</text>
<path stroke="black" d="M75 704l0 -638"/>
<text stroke="none" fill="black" font-size="16" x="60" y="728">
0.0
</text>
<path stroke="black" stroke-dasharray="1,2" d="M164 704l0 -638"/>
<text stroke="none" fill="black" font-size="16" x="144" y="728">
50.0
</text>
<path stroke="black" stroke-dasharray="1,2" d="M253 704l0 -638"/>
<text stroke="none" fill="black" font-size="16" x="228" y="728">
100.0
</text>
<path stroke="black" stroke-dasharray="1,2" d="M342 704l0 -638"/>
<text stroke="none" fill="black" font-size="16" x="317" y="728">
150.0
</text>
<path stroke="black" stroke-dasharray="1,2" d="M431 704l0 -638"/>
<text stroke="none" fill="black" font-size="16" x="406" y="728">
200.0
</text>
<path stroke="black" stroke-dasharray="1,2" d="M520 704l0 -638"/>
<text stroke="none" fill="black" font-size="16" x="495" y="728">
250.0
</text>
<path stroke="black" stroke-dasharray="1,2" d="M609 704l0 -638"/>
<text stroke="none" fill="black" font-size="16" x="584" y="728">
300.0
</text>
<path stroke="black" stroke-dasharray="1,2" d="M698 704l0 -638"/>
<text stroke="none" fill="black" font-size="16" x="673" y="728">
350.0
</text>
<path stroke="black" stroke-dasharray="1,2" d="M787 704l0 -638"/>
<text stroke="none" fill="black" font-size="16" x="762" y="728">
400.0
</text>
<path stroke="black" stroke-dasharray="1,2" d="M876 704l0 -638"/>
<text stroke="none" fill="black" font-size="16" x="851" y="728">
450.0
</text>
<path stroke="black" stroke-dasharray="1,2" d="M965 704l0 -638"/>
<text stroke="none" fill="black" font-size="16" x="940" y="728">
500.0
</text>
<text stroke="none" fill="black" font-size="16" x="614" y="752">
ns
</text>
<path stroke="black" stroke-dasharray="1,2" d="M75 704l890 0"/>
<text stroke="none" fill="black" font-size="16" x="43" y="712">
0.4
</text>
<path stroke="black" stroke-dasharray="1,2" d="M75 646l890 0"/>
<text stroke="none" fill="black" font-size="16" x="43" y="654">
0.6
</text>
<path stroke="black" stroke-dasharray="1,2" d="M75 588l890 0"/>
<text stroke="none" fill="black" font-size="16" x="43" y="596">
0.8
</text>
<path stroke="black" stroke-dasharray="1,2" d="M75 530l890 0"/>
<text stroke="none" fill="black" font-size="16" x="43" y="538">
1.0
</text>
<path stroke="black" stroke-dasharray="1,2" d="M75 472l890 0"/>
<text stroke="none" fill="black" font-size="16" x="43" y="480">
1.2
</text>
<path stroke="black" stroke-dasharray="1,2" d="M75 414l890 0"/>
<text stroke="none" fill="black" font-size="16" x="43" y="422">
1.4
</text>
<path stroke="black" stroke-dasharray="1,2" d="M75 356l890 0"/>
<text stroke="none" fill="black" font-size="16" x="43" y="364">
1.6
</text>
<path stroke="black" stroke-dasharray="1,2" d="M75 298l890 0"/>
<text stroke="none" fill="black" font-size="16" x="43" y="306">
1.8
</text>
<path stroke="black" stroke-dasharray="1,2" d="M75 240l890 0"/>
<text stroke="none" fill="black" font-size="16" x="43" y="248">
2.0
</text>
<path stroke="black" stroke-dasharray="1,2" d="M75 182l890 0"/>
<text stroke="none" fill="black" font-size="16" x="43" y="190">
2.2
</text>
<path stroke="black" stroke-dasharray="1,2" d="M75 124l890 0"/>
<text stroke="none" fill="black" font-size="16" x="43" y="132">
2.4
</text>
<path stroke="black" stroke-dasharray="1,2" d="M75 66l890 0"/>
<text stroke="none" fill="black" font-size="16" x="43" y="74">
2.6
</text>
<text stroke="none" fill="black" font-size="16" x="10" y="32">
V
</text>
<path stroke="red" d="M75 252l2 0 4 2 2 2 1 2 2 3 4 8 2 5 1 6 2 6 4 14 1 8 6 27 2 10 1 10 6 33 1 11 2 12 2 11 4 24 1 11 2 12 2 11 2 12 1 11 2 11 2 10 2 11 2 10 1 9 4 18 2 8 1 8 2 7 4 12 2 5 1 5 6 9 1 1 2 1 4 0 2 -1 1 -2 2 -3 4 -8 2 -5 1 -6 2 -6"/>
<path stroke="red" d="M184 597l4 -14 1 -8 4 -18 4 -20 1 -11 6 -33 1 -12 8 -48 1 -13 6 -36 1 -11 2 -12 2 -11 2 -10 2 -11 1 -9 2 -10 2 -9 2 -8 1 -8 4 -14 2 -6 2 -5 1 -5 2 -4 2 -3 2 -2 1 -2 2 -1 2 0 4 2 1 2 4 6 4 10 1 5 2 6 2 7 2 8 1 7 6 27 2 10"/>
<path stroke="red" d="M286 333l1 10 6 33 1 11 2 12 2 11 4 24 1 11 2 12 2 11 2 12 1 11 2 11 2 10 2 11 2 10 1 9 4 18 2 8 1 8 2 7 4 12 2 5 1 5 2 3 2 4 2 2 1 2 2 0 2 1 4 -2 1 -2 2 -3 4 -8 2 -5 1 -5 6 -21 1 -8 4 -18 4 -20 1 -11 2 -10 2 -12 2 -11 1 -12"/>
<path stroke="red" d="M383 469l8 -48 1 -13 4 -24 2 -11 1 -12 6 -33 2 -10 1 -10 2 -10 2 -9 2 -8 1 -8 4 -14 2 -5 2 -6 1 -4 2 -4 4 -6 1 -1 2 -1 4 0 2 1 1 3 2 2 4 8 2 5 1 5 2 7 2 6 2 8 1 8 2 8 2 9 4 20 1 10 2 10 4 22 1 12 2 11 2 12 2 11 2 12 1 12"/>
<path stroke="red" d="M481 434l2 11 2 12 2 11 1 11 4 22 4 20 1 10 2 9 4 16 1 8 4 14 2 5 2 6 1 4 2 4 2 3 2 2 1 2 2 1 2 0 4 -2 1 -2 4 -6 2 -5 2 -4 1 -6 2 -6 2 -7 2 -8 1 -8 4 -18 4 -20 1 -10 4 -22 2 -12 1 -12 8 -48 1 -12 6 -36 1 -12 6 -33 2 -10"/>
<path stroke="red" d="M585 306l1 -10 4 -18 2 -8 1 -8 4 -14 2 -6 2 -5 1 -5 2 -3 2 -4 2 -2 1 -2 2 -1 2 0 4 2 1 2 4 6 4 10 1 5 2 6 2 7 2 8 1 7 6 27 2 10 1 10 6 33 1 11 2 12 2 11 4 24 1 11 2 12 2 11 2 12 1 11 2 11 2 10 2 11 2 10 1 9 4 18 2 8 1 8"/>
<path stroke="red" d="M682 553l2 7 4 12 2 5 1 5 2 4 2 3 2 2 1 2 2 1 2 0 4 -2 1 -2 2 -3 4 -8 2 -5 1 -5 6 -21 1 -8 4 -18 4 -20 1 -11 6 -33 1 -12 8 -48 1 -12 2 -13 2 -11 2 -12 1 -12 6 -33 2 -10 1 -10 4 -18 2 -8 1 -8 4 -14 2 -6 2 -5 1 -5 2 -3 2 -4"/>
<path stroke="red" d="M784 214l2 -2 1 -2 2 -1 2 0 4 2 1 2 2 3 4 8 2 5 1 5 2 6 4 14 1 8 6 27 2 10 1 10 6 33 1 11 2 12 2 11 4 24 1 11 2 12 2 11 2 12 1 11 2 11 2 10 2 11 2 10 1 9 4 18 2 8 1 8 2 7 4 12 2 5 1 5 2 3 2 4 2 2 1 2 2 1 2 0 4 -2 1 -2 2 -3"/>
<path stroke="red" d="M887 576l4 -8 2 -5 1 -6 2 -6 4 -14 1 -8 4 -18 4 -20 1 -11 6 -33 1 -12 8 -48 1 -12 2 -13 2 -11 2 -12 1 -12 6 -33 2 -10 1 -10 4 -18 2 -8 1 -8 4 -14 2 -6 2 -5 1 -4 2 -4 4 -6 1 -1"/>
<path stroke="blue" d="M75 228l4 0 2 2 2 1 1 2 4 6 2 4 2 5 1 5 4 12 2 7 1 7 2 8 2 9 2 8 2 9 1 10 6 30 1 11 2 10 6 33 1 11 2 10 4 22 1 10 6 30 2 9 1 9 6 24 1 7 2 7 2 6 4 10 1 4 2 4 2 3 2 2 1 2 2 0 2 1 4 -2 1 -2 2 -2 6 -12 1 -5 4 -12 2 -7 1 -8"/>
<path stroke="blue" d="M189 528l4 -16 2 -9 2 -10 1 -10 4 -20 2 -11 1 -11 6 -33 2 -12 1 -11 6 -33 1 -11 2 -10 2 -11 2 -10 2 -9 1 -9 2 -9 4 -16 1 -8 6 -18 2 -5 1 -4 2 -4 2 -3 2 -2 1 -2 2 -1 4 0 2 2 1 2 2 2 2 3 2 4 2 5 1 5 2 5 2 7 2 6 1 8 4 16 4 18"/>
<path stroke="blue" d="M286 303l1 9 6 30 1 11 2 11 2 10 4 22 1 11 2 11 2 10 2 11 1 10 6 30 2 9 1 9 2 9 2 8 2 7 1 7 2 7 2 6 4 10 1 5 4 6 2 2 1 2 2 1 4 0 3 -3 4 -6 2 -4 2 -5 1 -5 4 -12 2 -7 1 -8 4 -16 2 -9 2 -10 1 -9 2 -10 4 -22 1 -10 2 -11 2 -12"/>
<path stroke="blue" d="M387 408l4 -22 1 -11 2 -12 4 -22 1 -10 2 -11 6 -30 1 -9 2 -9 4 -16 1 -7 2 -7 2 -6 4 -10 1 -5 6 -9 1 -1 2 -1 4 0 2 1 1 2 4 6 4 8 1 5 4 12 2 7 1 7 2 8 2 9 2 8 2 9 1 10 6 30 1 11 2 10 6 33 1 10 6 33 1 10 6 30 2 9 1 9 6 24"/>
<path stroke="blue" d="M503 511l1 7 2 7 2 6 4 10 1 4 2 4 2 3 2 2 1 2 2 0 2 1 4 -2 1 -2 2 -2 6 -12 1 -5 2 -6 2 -7 2 -6 1 -8 2 -8 6 -27 1 -10 4 -20 2 -11 1 -11 6 -33 2 -12 1 -11 6 -33 1 -11 8 -40 1 -9 2 -9 4 -16 1 -7 2 -7 4 -12 2 -4 1 -5 6 -9 1 -1"/>
<path stroke="blue" d="M609 201l2 -1 4 0 2 1 1 2 4 6 4 8 1 5 4 12 2 7 1 7 4 16 4 18 1 10 6 30 1 10 6 33 2 10 1 11 4 22 2 10 1 11 4 20 2 9 2 10 1 9 6 24 1 7 6 18 2 5 1 4 2 4 2 3 3 3 4 2 4 -2 1 -2 4 -6 4 -8 1 -5 2 -6 4 -14 1 -7 2 -8 6 -27 1 -10"/>
<path stroke="blue" d="M732 452l4 -20 2 -11 1 -11 6 -33 2 -12 1 -11 6 -33 1 -11 8 -40 1 -9 2 -9 4 -16 1 -7 2 -7 2 -6 4 -10 1 -5 4 -6 2 -2 1 -2 2 -1 4 0 2 1 1 2 4 6 4 8 1 5 4 12 2 7 1 7 2 8 2 9 2 8 2 9 1 10 6 30 1 10 8 44 1 10 4 22 2 10 1 11 4 20"/>
<path stroke="blue" d="M848 439l2 9 2 10 1 9 6 24 1 7 2 6 2 7 4 10 1 4 2 4 2 3 3 3 4 2 4 -2 1 -2 4 -6 4 -8 1 -5 2 -6 4 -14 1 -7 2 -8 6 -27 1 -10 4 -20 2 -11 1 -11 8 -44 1 -12 6 -33 1 -11 8 -40 1 -9 2 -8 2 -9 2 -7 1 -8 2 -6 2 -7 4 -10 1 -4 2 -4"/>
<path stroke="blue" d="M960 188l2 -3 3 -3"/>
<path stroke="#FFA500" d="M75 206l1 -1M76 206l0 -1M76 206l3 0 2 1 2 2 1 2 2 2 2 3 4 8 1 5 2 5 4 12 1 7 2 7 6 24 1 9 4 18 2 10 1 9 8 40 1 10 6 30 1 9 2 10 4 18 2 8 1 9 2 8 4 14 1 7 2 6 2 5 2 6 2 4 1 4 4 6 2 2 1 2 2 1 4 0 2 -1 1 -2 2 -2 2 -3 4 -8"/>
<path stroke="#FFA500" d="M181 513l1 -5 2 -5 4 -12 1 -7 8 -32 1 -9 2 -10 2 -9 2 -10 1 -10 2 -10 2 -11 4 -20 1 -11 6 -30 1 -10 4 -20 4 -18 1 -8 4 -16 2 -7 1 -7 4 -12 4 -10 1 -4 4 -6 2 -2 1 -2 2 -1 4 0 2 1 1 2 2 2 2 3 4 8 1 4 2 6 2 5 2 7 1 6 2 8"/>
<path stroke="#FFA500" d="M280 251l2 7 2 8 2 9 1 8 2 9 2 10 2 9 1 10 8 40 1 10 2 10 2 9 2 10 1 10 8 36 1 8 4 16 2 7 1 6 4 12 4 10 1 4 4 6 3 3 4 2 4 -2 1 -2 2 -2 4 -6 2 -4 1 -5 2 -6 2 -5 2 -7 1 -7 2 -7 4 -16 2 -9 1 -9 2 -9 4 -20 1 -10 6 -30 2 -11"/>
<path stroke="#FFA500" d="M391 353l1 -10 2 -10 2 -11 2 -10 1 -10 2 -9 2 -10 4 -18 1 -8 4 -16 2 -7 1 -7 4 -12 4 -10 1 -4 4 -6 2 -2 1 -2 2 -1 4 0 2 1 1 2 2 2 2 3 4 8 1 4 2 5 4 12 1 7 2 7 6 24 1 9 4 18 2 10 1 10 2 9 6 30 1 10 6 30 1 10 8 36 1 8"/>
<path stroke="#FFA500" d="M497 445l2 8 4 14 1 7 4 12 2 5 2 4 1 4 2 4 2 2 2 3 1 1 2 1 4 0 2 -1 1 -2 2 -2 2 -3 4 -8 1 -5 2 -5 4 -12 1 -7 2 -7 2 -8 2 -9 2 -8 1 -9 2 -9 4 -20 1 -10 4 -20 2 -11 2 -10 1 -10 2 -11 4 -20 1 -10 2 -9 2 -10 4 -18 1 -8 2 -9"/>
<path stroke="#FFA500" d="M588 239l4 -14 1 -7 4 -12 4 -10 1 -4 4 -6 2 -2 1 -2 2 -1 4 0 2 1 1 2 2 2 2 3 4 8 1 4 2 6 2 5 2 6 1 7 2 7 6 24 1 9 4 18 2 10 1 9 8 40 1 10 6 30 1 10 8 36 1 8 2 8 4 14 1 7 4 12 2 5 2 4 1 4 2 4 2 2 2 3 1 1 2 1 4 0 2 -1"/>
<path stroke="#FFA500" d="M706 500l1 -2 2 -2 2 -3 4 -8 1 -5 2 -5 4 -12 1 -7 2 -8 2 -7 2 -9 2 -8 1 -9 2 -10 2 -9 2 -10 1 -10 4 -20 2 -11 2 -10 1 -10 2 -11 4 -20 1 -10 2 -9 2 -10 4 -18 1 -8 4 -16 2 -7 1 -7 4 -12 4 -10 1 -4 4 -6 2 -2 1 -2 2 -1 2 0"/>
<path stroke="#FFA500" d="M791 172l4 2 3 3 2 3 4 8 1 5 4 10 2 7 1 6 2 8 2 7 2 8 2 9 1 8 4 18 2 10 1 10 2 9 6 30 1 10 6 30 1 10 8 36 1 8 2 8 2 7 2 8 1 6 4 12 2 5 2 4 1 4 2 4 2 3 3 3 2 1 4 0 2 -1 1 -2 2 -2 2 -3 4 -8 1 -5 2 -5 4 -12 1 -7 2 -7 2 -8"/>
<path stroke="#FFA500" d="M905 432l2 -9 2 -8 1 -9 2 -9 4 -20 1 -10 6 -30 2 -11 1 -10 2 -10 2 -11 2 -10 1 -9 4 -20 4 -18 1 -8 4 -16 2 -7 1 -7 4 -12 2 -5 2 -4 1 -4 2 -4 2 -3 3 -3"/>
<path stroke="green" d="M75 185l1 0M76 186l0 -1M76 186l3 0 4 2 1 2 2 2 4 6 2 4 1 4 2 5 2 6 2 5 1 6 6 21 2 8 1 8 2 8 2 9 2 8 1 9 6 27 2 10 1 9 6 27 1 9 2 9 6 24 1 8 6 21 1 6 2 5 2 6 2 4 2 5 1 3 4 6 3 3 4 2 4 -2 3 -3 4 -6 2 -4 1 -4 4 -10 2 -6 1 -6"/>
<path stroke="green" d="M189 442l4 -14 4 -16 1 -8 2 -8 4 -18 1 -9 2 -9 2 -10 2 -9 2 -10 1 -9 2 -10 4 -18 1 -10 2 -9 2 -8 2 -9 2 -8 1 -8 6 -21 1 -6 2 -6 6 -15 1 -3 4 -6 2 -2 1 -2 2 -1 4 0 2 1 1 2 4 4 2 3 2 4 1 4 4 10 2 6 1 6 6 21 2 8 1 8 4 16"/>
<path stroke="green" d="M291 273l2 9 1 9 8 36 1 10 6 27 1 9 2 8 2 9 4 16 1 8 4 14 2 6 1 6 2 6 4 10 2 4 1 4 4 6 3 3 2 1 4 0 2 -1 3 -3 4 -6 2 -4 1 -4 2 -5 2 -6 2 -5 1 -7 2 -6 2 -8 2 -7 2 -8 1 -8 2 -9 2 -8 2 -9 1 -10 4 -18 2 -10 2 -9 1 -10 4 -18"/>
<path stroke="green" d="M396 295l2 -10 1 -9 2 -9 2 -8 2 -9 2 -8 1 -8 2 -7 2 -8 2 -6 1 -6 4 -12 2 -4 2 -5 1 -3 2 -4 4 -4 1 -2 2 -1 4 0 2 1 1 2 4 4 2 3 2 4 1 4 4 10 2 6 1 6 2 7 2 6 2 8 2 7 1 8 2 9 2 8 2 9 1 9 8 36 1 9 2 10 4 18 1 8 4 18 4 16 1 7"/>
<path stroke="green" d="M497 405l2 8 2 7 2 6 1 6 2 6 4 10 2 4 1 4 2 3 4 4 1 2 2 1 4 0 2 -1 1 -2 4 -4 2 -4 2 -3 1 -5 4 -10 2 -6 1 -6 6 -21 2 -8 1 -8 6 -27 1 -9 4 -18 2 -10 2 -9 1 -10 2 -9 2 -10 2 -9 1 -9 4 -18 4 -16 1 -8 2 -7 2 -8 2 -6 1 -6 4 -12"/>
<path stroke="green" d="M597 187l2 -4 2 -5 1 -3 2 -4 4 -4 1 -2 2 -1 4 0 2 1 1 2 4 4 2 3 2 4 1 4 4 10 2 6 1 6 2 7 2 6 2 8 2 7 1 8 2 9 2 8 2 9 1 9 8 36 1 9 2 9 2 10 2 9 1 8 2 9 2 8 2 9 2 8 1 7 2 8 2 6 2 7 1 6 2 6 4 10 2 4 1 4 2 3 4 4 1 2 2 1 4 0"/>
<path stroke="green" d="M704 458l2 -1 1 -2 4 -4 2 -4 2 -3 1 -5 4 -10 2 -6 1 -6 6 -21 2 -8 1 -9 2 -8 4 -18 1 -9 4 -18 2 -10 2 -9 1 -10 2 -9 2 -10 2 -9 1 -9 4 -18 4 -16 1 -8 6 -21 1 -6 2 -6 6 -15 1 -3 4 -6 2 -2 1 -2 2 0 2 -1 2 0 2 1 1 2 4 4 2 4"/>
<path stroke="green" d="M802 167l2 3 1 4 4 10 2 6 1 6 6 21 2 8 1 7 2 9 2 8 2 9 1 9 8 36 1 9 2 9 2 10 2 9 1 8 4 18 4 16 1 7 2 8 2 7 2 6 1 6 2 6 4 10 2 4 1 4 2 3 4 4 1 2 2 1 4 0 2 -1 1 -2 4 -4 2 -4 2 -3 1 -5 4 -10 2 -6 1 -6 6 -21 2 -8 1 -8 6 -27"/>
<path stroke="green" d="M916 345l1 -9 4 -18 2 -10 2 -9 1 -10 4 -18 2 -10 1 -9 2 -9 2 -8 2 -9 2 -8 1 -8 6 -21 1 -6 2 -6 4 -10 2 -4 1 -4 4 -6 3 -3"/>
<path stroke="#FFC0C5" d="M75 168l4 0 4 2 1 2 4 4 2 3 2 4 1 4 2 4 4 10 1 5 2 6 2 7 2 6 2 7 1 7 6 24 1 8 6 24 2 9 1 8 2 9 4 16 1 8 4 16 2 7 2 8 1 7 2 6 2 7 2 6 1 5 2 6 2 4 2 5 2 4 1 3 2 3 4 4 1 2 2 0 2 1 2 0 2 -1 1 -2 2 -1 6 -9 1 -4 2 -4 4 -10"/>
<path stroke="#FFC0C5" d="M188 408l1 -6 2 -6 2 -7 2 -6 2 -7 1 -8 2 -8 2 -7 2 -9 1 -8 2 -8 2 -9 2 -8 2 -9 1 -9 2 -8 2 -9 2 -8 1 -9 6 -24 2 -7 1 -7 4 -14 2 -6 1 -6 4 -10 4 -8 1 -4 2 -3 4 -4 1 -2 2 0 2 -1 2 0 2 1 5 5 2 3 2 4 1 3 2 5 2 4 2 5 1 6"/>
<path stroke="#FFC0C5" d="M278 199l4 12 4 14 1 7 2 8 2 7 2 8 1 8 2 8 2 9 4 16 1 9 4 16 2 9 1 8 2 8 2 7 2 8 2 7 1 7 2 7 4 12 1 6 4 10 4 8 1 4 2 3 5 5 2 1 4 0 2 -1 5 -5 4 -6 1 -4 2 -5 2 -4 2 -6 1 -5 2 -6 6 -21 1 -7 6 -24 1 -8 2 -9 2 -8 2 -9 2 -8"/>
<path stroke="#FFC0C5" d="M391 295l1 -9 2 -9 2 -8 2 -9 1 -8 6 -24 2 -7 1 -7 4 -14 2 -6 1 -6 4 -10 4 -8 1 -4 2 -3 4 -4 1 -2 2 -1 4 0 2 1 5 5 4 6 1 4 2 4 4 10 1 6 4 12 4 14 1 7 2 7 4 16 1 8 4 16 2 9 2 8 1 9 6 24 1 8 6 24 2 7 1 7 2 7 4 12 1 6 4 10"/>
<path stroke="#FFC0C5" d="M508 403l4 8 1 3 4 6 3 3 2 1 4 0 2 -1 5 -5 2 -3 2 -4 1 -4 2 -4 4 -10 1 -6 4 -12 4 -14 1 -8 2 -7 4 -16 1 -9 2 -8 2 -9 2 -8 2 -9 1 -8 4 -18 2 -8 1 -8 8 -32 1 -7 2 -7 4 -12 1 -6 6 -15 2 -4 1 -3 2 -3 4 -4 1 -2 2 -1 4 0 2 1"/>
<path stroke="#FFC0C5" d="M617 150l5 5 4 6 1 4 2 4 4 10 1 6 6 18 2 7 1 8 2 7 4 16 1 8 4 16 2 9 2 8 1 8 2 9 4 16 1 8 4 16 2 7 2 8 1 7 2 6 2 7 2 6 1 5 2 6 2 4 2 5 2 4 1 3 2 3 4 4 1 2 2 1 4 0 2 -1 3 -3 6 -9 1 -4 2 -4 4 -10 1 -6 4 -12 4 -14 1 -8"/>
<path stroke="#FFC0C5" d="M732 346l2 -7 4 -16 1 -9 2 -8 2 -9 2 -8 2 -9 1 -9 2 -8 2 -9 2 -8 1 -8 2 -9 2 -7 4 -16 1 -7 2 -7 4 -12 1 -6 6 -15 2 -4 1 -3 2 -3 4 -4 1 -2 2 -1 4 0 2 1 5 5 4 6 1 4 2 4 4 10 1 6 6 18 2 7 1 8 2 7 4 16 1 8 6 24 2 9 1 8 2 9"/>
<path stroke="#FFC0C5" d="M839 292l4 16 1 8 4 16 2 7 2 8 1 7 2 6 2 7 2 6 1 5 6 15 2 4 1 3 2 3 4 4 1 2 2 0 2 1 2 -1 2 0 1 -2 2 -1 6 -9 1 -4 2 -4 4 -10 1 -6 2 -6 2 -7 2 -6 2 -7 1 -8 2 -8 2 -7 2 -9 1 -8 2 -8 2 -9 2 -8 2 -9 1 -9 2 -8 2 -9 2 -8 1 -8"/>
<path stroke="#FFC0C5" d="M933 231l2 -9 2 -7 4 -16 1 -7 2 -7 4 -12 1 -6 6 -15 2 -3 1 -4 2 -3 5 -5"/>
<path stroke="#A52A2A" d="M75 152l2 0 2 1 2 0 2 1 1 2 6 6 2 3 1 4 4 8 2 5 1 5 2 5 6 18 1 6 6 21 1 7 2 8 2 7 2 8 2 7 1 8 2 8 2 7 2 8 1 7 8 28 1 6 4 12 2 5 1 6 2 4 2 5 2 4 2 3 1 3 2 3 5 5 4 2 2 -1 2 0 5 -5 4 -6 1 -3 4 -8 2 -5 1 -5 2 -5 4 -12 2 -7"/>
<path stroke="#A52A2A" d="M197 341l1 -6 4 -14 2 -8 1 -7 2 -8 2 -7 4 -16 1 -8 2 -8 2 -7 2 -8 1 -8 8 -28 1 -6 2 -7 2 -6 2 -5 1 -6 2 -4 2 -5 4 -8 1 -3 2 -3 5 -5 2 -1 6 0 7 7 2 3 1 4 2 3 2 5 2 4 1 5 2 5 6 18 1 7 6 21 1 7 2 7 2 8 2 7 2 8 1 8 2 7 2 8"/>
<path stroke="#A52A2A" d="M307 291l2 7 1 7 2 8 2 7 2 6 2 7 1 6 2 7 2 5 2 6 1 5 2 5 6 12 1 3 2 3 5 5 2 1 4 0 2 -1 1 -1 2 -1 2 -3 2 -2 2 -3 1 -4 2 -3 2 -5 2 -4 1 -5 8 -24 1 -7 6 -21 1 -8 2 -7 6 -24 1 -7 4 -16 2 -7 1 -8 2 -7 2 -8 2 -7 2 -6 1 -7"/>
<path stroke="#A52A2A" d="M408 195l6 -18 1 -5 2 -5 6 -12 1 -3 2 -3 4 -4 1 -2 2 0 2 -1 2 0 2 1 1 1 2 1 2 2 4 6 1 3 4 8 2 5 1 5 2 5 6 18 1 6 6 21 1 7 2 8 2 7 2 8 2 7 1 8 2 8 2 7 2 8 1 7 8 28 1 6 4 12 2 5 1 5 4 10 2 4 2 3 1 3 2 3 5 5 4 2 2 -1 2 0"/>
<path stroke="#A52A2A" d="M528 384l5 -5 4 -6 1 -3 4 -8 2 -5 1 -5 2 -5 4 -12 2 -7 1 -6 4 -14 2 -8 1 -7 2 -8 2 -7 4 -16 1 -8 2 -8 2 -7 2 -8 1 -7 2 -8 6 -21 1 -6 2 -7 2 -6 2 -5 1 -5 4 -10 2 -4 2 -3 1 -4 2 -2 2 -3 3 -3 2 -1 6 0 1 2 2 1 2 2 2 3 2 2"/>
<path stroke="#A52A2A" d="M626 146l1 4 6 12 1 5 2 6 2 5 2 6 2 7 1 6 6 21 1 7 2 7 4 16 2 7 1 8 2 7 2 8 2 7 1 8 6 21 2 6 1 7 2 6 2 5 2 6 1 5 2 5 6 12 1 3 2 3 5 5 2 1 4 0 2 -1 1 -1 2 -1 2 -2 4 -6 1 -3 2 -4 2 -5 2 -4 1 -5 8 -24 1 -7 6 -21 1 -8 2 -7"/>
<path stroke="#A52A2A" d="M741 279l4 -16 2 -7 1 -8 4 -16 2 -7 1 -8 8 -28 1 -7 4 -12 2 -5 1 -6 2 -5 6 -12 1 -3 2 -3 5 -5 2 -1 6 0 7 7 2 3 1 4 2 3 2 5 2 4 1 5 2 5 6 18 1 7 2 6 2 7 2 8 1 7 2 7 2 8 2 7 2 8 1 7 2 8 2 7 2 8 1 7 8 28 1 6 6 18 1 5 2 5"/>
<path stroke="#A52A2A" d="M862 348l4 8 2 3 1 4 2 2 2 3 2 1 1 2 2 0 2 1 2 0 2 -1 7 -7 2 -3 1 -4 4 -8 2 -5 1 -5 2 -5 6 -18 1 -7 6 -21 1 -8 2 -7 6 -24 1 -7 6 -24 1 -7 2 -7 2 -8 2 -7 2 -6 1 -7 6 -18 1 -5 2 -5 6 -12 1 -3 2 -3 5 -5"/>
<path stroke="#F0E68C" d="M75 139l4 0 4 2 7 7 2 3 1 3 2 3 4 8 1 4 6 15 2 6 1 6 6 18 1 7 2 7 2 6 4 14 1 7 2 7 2 6 2 7 1 7 4 12 2 7 2 5 1 6 2 6 4 10 1 5 6 12 2 3 1 3 7 7 2 1 6 0 3 -3 2 -1 2 -3 2 -2 1 -3 2 -4 2 -3 2 -5 1 -4 6 -15 2 -6 1 -6 2 -6"/>
<path stroke="#F0E68C" d="M200 298l2 -7 2 -6 1 -7 2 -7 2 -6 4 -14 1 -7 6 -21 1 -7 2 -7 4 -12 2 -7 1 -5 2 -6 2 -5 2 -6 1 -4 2 -5 4 -8 2 -3 1 -3 2 -2 2 -3 2 -1 1 -2 2 0 2 -1 2 0 2 1 1 0 2 2 2 1 2 3 2 2 1 3 2 4 2 3 2 4 1 5 2 4 2 5 2 6 2 5 1 6 4 12"/>
<path stroke="#F0E68C" d="M291 202l2 7 1 6 4 14 2 6 2 7 1 7 4 14 2 6 1 7 2 6 2 7 4 12 1 5 2 6 4 10 1 5 6 12 2 3 1 3 2 2 2 3 2 1 1 1 4 2 2 0 2 -1 1 -1 2 -1 4 -4 2 -3 1 -3 2 -3 4 -8 1 -5 6 -15 2 -6 1 -6 4 -12 2 -7 1 -7 2 -6 6 -21 1 -7 6 -21 1 -7"/>
<path stroke="#F0E68C" d="M399 210l2 -6 2 -7 4 -12 1 -6 2 -6 4 -10 1 -5 2 -4 2 -5 2 -3 2 -4 1 -3 7 -7 4 -2 2 0 2 1 1 1 2 1 4 4 2 3 1 3 2 3 4 8 1 4 6 15 2 6 1 5 2 6 2 7 2 6 1 7 2 6 4 14 2 6 1 7 6 21 1 6 2 7 6 18 1 6 2 5 2 6 2 4 1 5 6 12 2 3 1 3"/>
<path stroke="#F0E68C" d="M513 339l2 3 2 2 2 1 1 2 2 0 2 1 2 0 2 -1 1 -1 2 -1 4 -4 2 -3 1 -3 2 -3 4 -8 1 -5 2 -4 2 -6 2 -5 2 -6 1 -6 4 -12 2 -7 1 -6 8 -28 1 -7 6 -21 1 -6 2 -7 2 -6 2 -7 2 -6 1 -6 2 -5 2 -6 2 -5 1 -5 6 -12 2 -3 1 -3 2 -3 5 -5"/>
<path stroke="#F0E68C" d="M609 126l2 -1 6 0 3 3 2 1 2 2 2 3 1 3 2 3 4 8 1 4 6 15 2 6 1 6 6 18 1 7 2 7 2 6 4 14 1 7 2 6 4 14 1 6 2 7 6 18 1 6 2 6 4 10 1 4 2 5 2 4 2 3 2 4 1 3 7 7 2 1 6 0 3 -3 2 -1 2 -3 2 -2 1 -3 6 -12 1 -4 4 -10 2 -6 2 -5 1 -6"/>
<path stroke="#F0E68C" d="M732 287l2 -6 2 -7 2 -6 1 -7 2 -7 2 -6 4 -14 1 -7 6 -21 1 -7 2 -7 6 -18 1 -6 2 -6 4 -10 1 -5 2 -5 2 -4 2 -3 2 -4 1 -3 7 -7 4 -2 2 0 2 1 1 1 2 1 6 6 1 3 2 4 2 3 2 5 1 4 6 15 2 6 1 5 2 6 2 7 2 6 1 6 4 14 2 6 2 7 1 7 4 14"/>
<path stroke="#F0E68C" d="M841 246l2 6 1 7 2 6 2 7 4 12 1 6 6 15 1 5 6 12 2 3 1 3 2 2 2 3 2 1 1 1 4 2 2 0 2 -1 1 -1 2 -1 4 -4 2 -3 1 -3 2 -3 4 -8 1 -5 6 -15 2 -6 1 -6 4 -12 2 -7 1 -6 8 -28 1 -7 6 -21 1 -6 4 -14 4 -12 1 -6 2 -5 2 -6 2 -5 1 -5"/>
<path stroke="#F0E68C" d="M949 141l6 -12 2 -3 1 -3 2 -3 2 -2 2 -1 1 -1"/>
<path stroke="#DDA0DD" d="M75 128l2 0 2 1 2 0 2 1 1 1 2 1 6 6 1 3 4 6 2 4 1 4 2 4 2 5 2 4 2 5 1 5 2 6 2 5 2 6 1 5 8 24 1 6 6 18 1 6 4 12 2 5 2 6 1 5 2 5 2 4 2 5 1 4 2 4 2 3 2 4 2 3 1 2 2 3 2 2 2 1 1 1 2 1 6 0 1 -1 4 -2 2 -2 2 -3 1 -2 4 -6 2 -4"/>
<path stroke="#DDA0DD" d="M188 304l1 -4 2 -4 6 -15 1 -5 2 -5 4 -12 1 -5 2 -6 2 -7 4 -12 1 -6 4 -12 2 -7 1 -6 2 -6 2 -5 2 -6 2 -5 1 -6 4 -10 2 -4 1 -4 6 -12 2 -3 1 -2 2 -3 2 -2 2 -1 1 -1 4 -2 4 0 1 1 2 1 6 6 1 2 2 3 2 4 2 3 1 4 2 4 2 5 2 4 2 5"/>
<path stroke="#DDA0DD" d="M286 168l1 5 2 6 2 5 2 6 1 5 8 24 1 6 6 18 1 6 4 12 2 5 2 6 1 5 2 5 2 4 2 5 1 4 2 4 2 3 2 4 2 3 1 2 2 3 2 1 3 3 2 1 6 0 1 -1 4 -2 2 -2 2 -3 1 -2 2 -3 2 -4 2 -3 1 -4 2 -4 6 -15 1 -5 2 -5 4 -12 1 -5 2 -6 2 -7 4 -12 1 -6"/>
<path stroke="#DDA0DD" d="M392 218l4 -12 2 -7 1 -6 2 -6 2 -5 2 -6 2 -5 1 -6 4 -10 2 -4 1 -4 6 -12 2 -3 1 -2 2 -3 2 -2 2 -1 1 -1 4 -2 2 0 2 1 1 0 2 1 6 6 1 2 2 3 2 4 2 3 1 4 2 4 2 5 2 4 2 5 1 5 2 6 2 5 2 6 1 5 8 24 1 6 6 18 1 6 4 12 2 5 2 6 1 5"/>
<path stroke="#DDA0DD" d="M497 272l2 5 2 4 2 5 1 4 2 4 2 3 2 4 2 3 1 2 2 3 2 1 3 3 2 1 6 0 1 -1 4 -2 2 -2 2 -3 1 -2 2 -3 2 -4 2 -3 1 -4 2 -4 6 -15 1 -5 2 -5 4 -12 1 -5 2 -6 2 -7 4 -12 1 -6 4 -12 2 -7 1 -6 2 -5 4 -12 2 -5 1 -6 2 -5 2 -4 2 -5 1 -4"/>
<path stroke="#DDA0DD" d="M593 142l4 -8 4 -6 1 -3 7 -7 4 -2 2 0 2 1 1 0 2 2 2 1 4 4 1 3 6 9 1 4 2 4 2 5 2 4 2 5 1 5 2 6 2 5 2 6 1 6 2 5 6 18 1 6 2 7 2 6 2 5 1 6 4 12 2 5 2 6 1 5 2 5 2 4 2 5 1 4 2 4 2 3 2 4 2 3 1 2 2 3 2 2 2 1 1 1 2 1 6 0 1 -1"/>
<path stroke="#DDA0DD" d="M707 308l4 -2 2 -2 2 -3 1 -2 4 -6 2 -4 1 -4 2 -4 6 -15 1 -5 2 -5 2 -6 2 -5 1 -6 4 -12 2 -7 2 -6 1 -6 6 -18 1 -6 6 -18 2 -5 1 -5 2 -6 2 -4 2 -5 1 -4 4 -8 4 -6 1 -3 7 -7 2 -1 6 0 1 1 4 2 4 4 1 3 6 9 1 4 2 4 4 10 2 4 1 6"/>
<path stroke="#DDA0DD" d="M821 159l4 10 2 6 1 6 8 24 1 6 6 18 1 5 4 12 2 5 2 6 1 5 2 5 2 4 2 5 1 4 4 8 4 6 1 2 2 3 2 2 2 1 1 1 4 2 2 0 2 -1 1 -1 4 -2 4 -4 1 -3 4 -6 2 -4 1 -4 2 -4 2 -5 2 -4 2 -5 1 -6 2 -5 2 -6 2 -5 1 -6 6 -18 2 -7 1 -6 6 -18"/>
<path stroke="#DDA0DD" d="M932 185l1 -6 6 -18 2 -5 1 -5 6 -15 1 -4 4 -8 4 -6 1 -3 7 -7"/>
<path stroke="#DA70D6" d="M75 121l6 0 2 1 1 1 2 1 2 2 2 1 2 2 1 3 2 2 4 6 1 4 2 3 6 12 1 5 2 5 2 4 2 5 1 5 2 6 6 15 1 6 6 15 1 6 6 15 2 4 1 5 6 12 1 4 2 4 4 6 2 2 1 3 4 4 2 1 1 1 2 1 6 0 1 -1 2 0 2 -2 2 -1 2 -2 1 -3 2 -2 4 -6 1 -3 8 -16 1 -5"/>
<path stroke="#DA70D6" d="M198 252l6 -15 1 -5 4 -10 2 -6 2 -5 1 -6 4 -10 2 -6 1 -5 8 -20 1 -5 2 -4 2 -5 2 -4 1 -4 2 -3 2 -4 2 -3 2 -2 1 -3 4 -4 2 -1 1 -1 4 -2 4 0 1 1 4 2 4 4 1 2 2 2 4 6 1 3 8 16 1 5 2 4 4 10 1 5 4 10 2 6 2 5 1 5 2 6 4 10 1 5"/>
<path stroke="#DA70D6" d="M310 226l8 20 1 5 6 12 1 4 8 12 1 2 7 7 2 0 2 1 4 0 1 -1 4 -2 4 -4 1 -2 2 -2 4 -6 1 -4 2 -3 4 -8 2 -5 1 -4 6 -15 1 -5 2 -5 2 -6 4 -10 1 -6 2 -5 2 -6 2 -5 1 -5 2 -6 6 -15 1 -4 2 -5 4 -8 1 -4 2 -4 6 -9 1 -2 4 -4 2 -1 1 -2"/>
<path stroke="#DA70D6" d="M431 116l2 0 2 -1 4 0 1 1 6 3 2 2 1 2 6 9 1 3 8 16 1 4 6 15 1 5 6 15 2 6 1 5 2 5 2 6 2 5 1 5 8 20 1 4 2 5 4 8 1 3 2 4 6 9 1 2 4 4 2 1 1 1 4 2 2 0 2 -1 1 0 4 -2 4 -4 1 -2 6 -9 1 -3 8 -16 1 -5 2 -4 4 -10 1 -5 2 -6 4 -10"/>
<path stroke="#DA70D6" d="M567 208l2 -6 1 -5 2 -6 4 -10 1 -6 8 -20 1 -5 6 -12 1 -4 2 -4 6 -9 1 -2 7 -7 2 -1 6 0 1 1 2 0 2 2 2 1 2 2 1 2 6 9 1 3 2 4 2 3 2 4 2 5 1 4 4 10 2 4 1 6 8 20 1 6 4 10 2 6 1 5 6 15 2 4 1 5 6 12 1 4 2 4 4 6 2 2 1 3 4 4 2 1"/>
<path stroke="#DA70D6" d="M697 278l1 1 2 1 7 0 2 -1 2 -2 2 -1 2 -2 1 -2 6 -9 1 -3 8 -16 1 -5 6 -15 1 -5 4 -10 2 -6 2 -5 1 -5 2 -6 2 -5 2 -6 1 -5 8 -20 1 -5 4 -8 2 -5 1 -3 2 -4 6 -9 1 -2 2 -3 2 -1 3 -3 2 -1 7 0 4 2 4 4 1 2 2 3 2 2 2 3 1 4 2 3"/>
<path stroke="#DA70D6" d="M814 130l6 12 1 5 2 5 2 4 2 5 1 5 2 5 2 6 4 10 1 6 6 15 1 6 4 10 2 4 2 5 1 5 6 12 1 4 2 3 2 4 2 3 2 2 1 3 2 2 2 1 3 3 2 1 6 0 1 -1 4 -2 2 -2 2 -1 1 -3 2 -2 4 -6 1 -4 2 -3 4 -8 2 -5 1 -4 6 -15 1 -5 4 -10 2 -6 2 -5 1 -6"/>
<path stroke="#DA70D6" d="M926 188l4 -10 2 -6 1 -5 8 -20 1 -5 2 -4 2 -5 2 -4 1 -4 8 -12 1 -3 4 -4 2 -1 1 -1"/>
<path stroke="#EE82EE" d="M75 117l6 0 2 1 1 1 6 3 2 2 1 2 2 2 2 3 2 2 1 3 2 3 2 4 2 3 2 4 1 4 6 12 1 4 2 5 2 4 2 5 2 4 1 5 2 5 2 4 2 5 1 4 2 5 6 12 1 4 4 8 2 3 1 4 4 6 2 2 2 3 1 2 2 2 4 2 1 1 4 2 4 0 1 -1 6 -3 3 -3 2 -3 2 -2 2 -3 3 -6 4 -6 2 -4"/>
<path stroke="#EE82EE" d="M197 236l1 -4 4 -8 2 -5 1 -4 2 -5 2 -4 2 -5 2 -4 1 -5 4 -10 2 -4 1 -5 2 -4 2 -5 4 -8 1 -5 2 -3 4 -8 1 -3 6 -9 2 -2 1 -3 2 -2 2 -1 3 -3 2 0 2 -1 5 0 6 3 2 2 1 2 4 4 2 3 1 3 6 9 2 4 1 4 6 12 1 5 2 4 2 5 2 4 2 5 1 4 4 10"/>
<path stroke="#EE82EE" d="M307 199l2 4 1 5 4 8 2 5 2 4 1 4 2 4 2 3 2 4 1 3 6 9 2 2 1 2 2 2 2 1 3 3 2 0 2 1 4 0 1 -1 2 0 2 -1 2 -2 2 -1 1 -2 2 -2 2 -3 2 -2 1 -3 2 -3 2 -4 2 -3 2 -4 1 -4 6 -12 1 -5 2 -4 2 -5 2 -4 2 -5 1 -5 2 -5 2 -4 2 -5 1 -5 2 -4"/>
<path stroke="#EE82EE" d="M401 165l2 -5 4 -8 1 -4 4 -8 2 -3 1 -4 6 -9 2 -2 1 -2 4 -4 2 -1 1 -1 4 -2 4 0 1 1 2 0 2 1 2 2 2 1 1 2 2 2 2 3 2 2 1 3 4 6 4 8 1 3 4 8 2 5 1 4 2 4 4 10 2 4 1 5 2 4 4 10 1 4 2 4 2 5 4 8 1 4 4 8 2 3 1 3 6 9 2 2 1 2 4 4"/>
<path stroke="#EE82EE" d="M517 256l2 1 1 1 2 1 7 0 6 -3 2 -2 1 -2 4 -4 2 -3 1 -3 4 -6 4 -8 1 -3 2 -4 2 -5 2 -4 1 -4 2 -5 2 -4 4 -10 1 -4 6 -15 1 -4 2 -5 4 -8 2 -5 1 -4 2 -4 2 -3 2 -4 1 -3 2 -4 2 -3 2 -2 2 -3 1 -2 2 -2 2 -1 3 -3 2 -1 7 0 6 3 2 2"/>
<path stroke="#EE82EE" d="M626 114l1 2 4 4 2 3 1 2 2 3 2 4 2 3 2 4 1 4 6 12 1 4 2 5 2 4 4 10 1 4 2 5 2 4 2 5 1 4 2 5 4 8 2 5 1 4 2 3 2 4 2 3 1 4 4 6 2 2 2 3 1 2 2 2 4 2 1 1 4 2 4 0 1 -1 6 -3 3 -3 2 -3 2 -2 2 -3 3 -6 4 -6 2 -4 1 -4 4 -8 2 -5 1 -4"/>
<path stroke="#EE82EE" d="M739 204l2 -4 4 -10 2 -4 1 -5 4 -10 2 -4 1 -5 2 -4 2 -5 4 -8 1 -4 6 -12 1 -3 6 -9 2 -2 1 -2 4 -4 2 -1 1 -1 4 -2 4 0 1 1 2 0 2 1 2 2 2 1 1 2 4 4 2 3 1 3 4 6 2 4 2 3 1 4 6 12 1 5 2 4 2 5 2 4 2 5 1 5 2 4 2 5 2 4 1 5 2 4"/>
<path stroke="#EE82EE" d="M846 201l2 5 4 8 1 4 2 4 2 3 2 4 1 3 6 9 2 2 1 2 4 4 2 1 1 1 2 1 7 0 4 -2 2 -2 2 -1 1 -2 2 -2 2 -3 2 -2 1 -3 2 -3 2 -4 2 -3 2 -4 1 -4 6 -12 1 -5 2 -4 2 -5 2 -4 2 -5 1 -5 2 -4 4 -10 1 -4 2 -5 2 -4 2 -5 2 -4 1 -4 4 -8"/>
<path stroke="#EE82EE" d="M946 129l2 -3 1 -4 4 -6 2 -2 2 -3 1 -2 4 -4 2 -1 1 -1"/>
<path stroke="#B03060" d="M75 117l2 0 2 1 4 0 1 1 8 4 1 2 6 6 1 3 2 2 6 9 1 3 2 4 2 3 2 4 1 3 8 16 1 4 6 12 1 3 6 12 2 3 1 4 6 9 1 3 2 3 6 6 1 2 2 2 2 1 2 2 1 0 4 2 4 0 1 -1 2 0 6 -3 1 -2 6 -6 1 -2 4 -6 2 -2 2 -4 1 -3 2 -3 2 -4 2 -3 1 -4 8 -16"/>
<path stroke="#B03060" d="M213 187l1 -4 6 -12 1 -4 4 -8 2 -3 2 -4 1 -3 2 -4 4 -6 1 -3 2 -3 2 -2 2 -3 2 -2 1 -2 2 -2 4 -2 1 -1 4 -2 5 0 8 4 1 2 2 1 4 4 1 3 2 2 6 9 1 3 2 4 2 3 2 4 1 3 8 16 1 4 6 12 1 3 6 12 2 3 1 4 6 9 1 3 2 3 6 6 1 2 2 2 4 2"/>
<path stroke="#B03060" d="M341 240l1 1 4 2 4 0 1 -1 2 0 6 -3 1 -2 6 -6 1 -2 8 -12 1 -3 2 -3 4 -8 1 -3 8 -16 1 -4 6 -12 1 -4 4 -8 2 -3 2 -4 1 -3 2 -4 4 -6 1 -3 2 -3 2 -2 2 -3 2 -2 1 -2 2 -2 4 -2 1 -1 4 -2 5 0 8 4 7 7 1 3 2 2 6 9 1 3 2 4 2 3 2 4"/>
<path stroke="#B03060" d="M471 153l1 3 8 16 1 4 4 8 2 3 1 4 6 12 2 3 1 4 6 9 1 3 2 3 6 6 1 2 2 2 4 2 1 1 4 2 4 0 1 -1 2 0 6 -3 1 -2 6 -6 1 -2 8 -12 1 -3 2 -3 4 -8 1 -3 8 -16 1 -4 6 -12 1 -4 4 -8 2 -3 2 -4 1 -3 2 -4 4 -6 1 -3 2 -3 2 -2 2 -3 2 -2"/>
<path stroke="#B03060" d="M601 120l1 -2 2 -2 4 -2 1 -1 4 -2 5 0 8 4 7 7 1 3 2 2 6 9 1 3 2 4 2 3 2 4 1 3 8 16 1 4 4 8 2 3 1 4 4 8 2 3 2 4 1 3 2 4 4 6 1 3 2 2 2 3 4 4 1 2 2 2 4 2 1 1 2 1 2 0 2 1 2 0 1 -1 2 0 6 -3 1 -2 6 -6 1 -2 8 -12 1 -3 2 -3"/>
<path stroke="#B03060" d="M734 205l4 -8 1 -3 8 -16 1 -4 6 -12 1 -4 4 -8 2 -3 2 -4 1 -4 6 -9 1 -3 4 -6 4 -4 1 -2 2 -2 4 -2 1 -1 4 -2 5 0 8 4 7 7 1 3 2 2 6 9 1 3 2 4 2 3 2 4 1 3 8 16 1 4 4 8 2 3 1 4 4 8 2 3 2 4 1 3 2 4 4 6 1 3 2 2 2 3 4 4 1 2 2 2"/>
<path stroke="#B03060" d="M871 229l4 2 1 1 2 1 2 0 2 1 2 0 1 -1 2 0 6 -3 1 -2 6 -6 1 -2 8 -12 1 -3 2 -3 4 -8 1 -3 8 -16 1 -4 6 -12 1 -4 4 -8 2 -3 2 -4 1 -4 6 -9 1 -3 2 -3 2 -2 2 -3 2 -2 1 -2 2 -2 4 -2 1 -1"/>
<path stroke="#40E0D0" d="M75 124l6 0 2 1 1 0 8 4 3 3 2 1 2 2 1 2 2 2 2 3 2 2 2 3 1 2 6 9 1 3 2 3 2 4 4 6 1 3 2 4 4 6 1 4 8 12 1 3 2 3 2 2 2 3 1 2 2 3 9 9 4 2 1 1 2 0 2 1 7 0 6 -3 3 -3 2 -1 2 -2 1 -2 4 -4 2 -3 2 -2 1 -3 6 -9 1 -3 6 -9 2 -4 1 -3"/>
<path stroke="#40E0D0" d="M214 181l2 -3 2 -4 2 -3 1 -3 2 -4 6 -9 1 -3 4 -6 2 -2 1 -3 2 -2 2 -3 2 -2 2 -1 1 -2 2 -2 4 -2 1 -1 2 -1 4 0 2 -1 1 1 2 0 2 1 2 0 2 1 3 3 2 1 2 2 1 2 4 4 2 3 2 2 1 3 6 9 1 3 6 9 2 4 1 3 2 3 2 4 2 3 1 3 8 12 1 3 4 6 2 2"/>
<path stroke="#40E0D0" d="M325 211l1 3 8 8 1 2 6 3 1 1 2 1 2 0 2 1 2 0 1 -1 2 0 2 -1 2 0 2 -1 1 -2 2 -1 2 -2 2 -1 1 -2 2 -2 2 -3 2 -2 2 -3 1 -2 6 -9 1 -3 2 -3 2 -4 4 -6 1 -4 4 -6 2 -4 1 -3 4 -6 2 -4 2 -3 1 -3 2 -2 4 -6 1 -2 2 -3 6 -6 1 -2 4 -2"/>
<path stroke="#40E0D0" d="M428 126l2 -2 1 0 4 -2 7 0 6 3 1 1 2 1 4 4 1 2 6 6 2 3 1 3 2 2 4 6 1 3 2 3 2 4 4 6 1 3 2 4 4 6 1 4 8 12 1 3 2 3 2 2 2 3 1 2 2 3 9 9 4 2 1 1 2 0 2 1 7 0 6 -3 1 -1 2 -1 4 -4 1 -2 4 -4 2 -3 2 -2 1 -3 6 -9 1 -3 6 -9 2 -4"/>
<path stroke="#40E0D0" d="M569 179l1 -3 2 -3 2 -4 2 -3 1 -3 2 -4 6 -9 1 -3 4 -6 2 -2 1 -3 4 -4 2 -3 2 -1 1 -2 2 -2 4 -2 1 -1 2 -1 9 0 2 1 2 0 2 1 1 2 4 2 2 2 1 2 4 4 2 3 2 2 1 3 6 9 1 3 6 9 2 4 1 3 2 3 2 4 2 3 1 3 4 6 2 4 2 3 1 2 4 6 2 2 1 3"/>
<path stroke="#40E0D0" d="M682 209l8 8 1 2 6 3 1 1 2 1 2 0 2 1 2 0 1 -1 2 0 2 -1 2 0 2 -1 1 -2 2 -1 2 -2 2 -1 1 -2 2 -2 2 -3 2 -2 2 -3 1 -2 6 -9 1 -3 2 -3 2 -4 4 -6 1 -3 2 -4 2 -3 2 -4 1 -3 6 -9 2 -4 1 -3 2 -2 4 -6 1 -2 2 -3 6 -6 1 -2 6 -3 1 -1"/>
<path stroke="#40E0D0" d="M787 119l4 -2 5 0 2 1 2 0 4 2 1 1 2 1 4 4 1 2 6 6 2 3 1 3 2 2 4 6 1 3 2 3 2 4 4 6 1 3 2 4 4 6 1 4 8 12 1 3 2 3 2 2 2 3 1 2 2 3 9 9 4 2 1 1 2 1 9 0 6 -3 1 -1 2 -1 4 -4 1 -2 4 -4 2 -3 2 -2 1 -3 2 -3 2 -2 2 -4 1 -3 6 -9"/>
<path stroke="#40E0D0" d="M923 178l2 -4 1 -3 2 -3 2 -4 2 -3 1 -3 2 -4 6 -9 1 -3 4 -6 2 -2 1 -3 8 -8 1 -2 2 -1 2 -2 2 -1 1 -1"/>
<path stroke="#A0522D" d="M75 139l6 0 2 1 1 0 2 1 2 0 4 2 1 1 2 1 2 2 2 1 1 2 2 1 6 6 1 2 2 3 4 4 1 3 2 2 4 6 2 2 1 3 2 3 2 2 2 3 1 3 2 2 4 6 2 2 1 3 6 6 1 2 6 6 2 1 1 2 6 3 1 1 2 0 2 1 7 0 2 -1 2 0 2 -1 1 -1 4 -2 11 -11 1 -2 4 -4 2 -3 1 -2 4 -6"/>
<path stroke="#A0522D" d="M209 195l2 -2 2 -3 1 -3 2 -2 4 -6 1 -3 2 -2 2 -3 2 -2 2 -3 1 -2 2 -3 4 -4 1 -2 9 -9 2 -1 2 -2 2 -1 1 0 2 -1 2 0 2 -1 5 0 2 1 2 0 2 1 1 1 4 2 5 5 2 1 4 4 1 3 4 4 2 3 1 2 2 3 2 2 2 3 2 2 1 3 4 6 2 2 1 3 2 3 2 2 2 3 2 2"/>
<path stroke="#A0522D" d="M318 201l1 3 6 6 1 2 6 6 2 1 1 2 6 3 1 1 2 0 2 1 7 0 2 -1 2 0 2 -1 1 -1 4 -2 11 -11 1 -2 4 -4 2 -3 1 -2 2 -3 2 -2 4 -6 1 -3 2 -2 4 -6 1 -2 4 -6 2 -2 2 -3 1 -2 2 -3 4 -4 1 -2 9 -9 6 -3 1 -1 2 -1 2 0 2 -1 5 0 2 1 2 0 2 1"/>
<path stroke="#A0522D" d="M448 140l1 1 4 2 7 7 2 1 2 2 1 3 4 4 2 3 1 2 2 3 2 2 2 3 2 2 1 3 4 6 2 2 1 3 2 3 2 2 2 3 2 2 1 3 6 6 1 2 6 6 2 1 1 2 6 3 1 1 2 0 2 1 7 0 2 -1 2 0 2 -1 1 -1 4 -2 11 -11 1 -2 4 -4 2 -3 1 -2 2 -3 2 -2 4 -6 1 -2 6 -9 1 -2"/>
<path stroke="#A0522D" d="M577 173l4 -6 2 -2 2 -3 1 -2 2 -3 4 -4 1 -2 9 -9 6 -3 1 -1 2 -1 2 0 2 -1 5 0 2 1 2 0 2 1 1 1 4 2 7 7 2 1 2 3 1 2 4 4 2 3 1 2 2 3 2 2 4 6 1 2 4 6 2 2 1 3 2 3 2 2 2 3 2 2 1 3 6 6 1 2 6 6 2 1 1 2 6 3 1 1 2 0 2 1 7 0 2 -1"/>
<path stroke="#A0522D" d="M711 221l2 0 2 -1 1 -1 4 -2 7 -7 2 -1 2 -3 1 -2 4 -4 2 -3 1 -2 2 -3 2 -2 4 -6 1 -2 6 -9 1 -2 4 -6 2 -2 2 -3 1 -2 2 -3 4 -4 1 -2 6 -6 2 -1 1 -2 6 -3 1 -1 2 -1 2 0 2 -1 5 0 2 1 2 0 2 1 1 1 4 2 11 11 1 2 4 4 2 3 1 2 2 3"/>
<path stroke="#A0522D" d="M830 164l2 2 4 6 1 2 4 6 2 2 1 3 2 3 2 2 2 3 2 2 1 3 6 6 1 3 2 1 4 4 2 1 1 2 6 3 1 1 2 0 2 1 7 0 2 -1 2 0 2 -1 1 -1 6 -3 1 -2 2 -2 2 -1 4 -4 1 -3 4 -4 2 -3 1 -2 2 -3 2 -2 4 -6 1 -2 6 -9 1 -2 4 -6 2 -2 2 -3 1 -2 2 -3"/>
<path stroke="#A0522D" d="M944 153l4 -4 1 -2 6 -6 2 -1 1 -2 6 -3 1 -1"/>
<path stroke="#FF7F50" d="M75 166l8 0 1 1 4 0 4 2 1 1 2 0 2 1 3 3 2 1 2 2 2 1 9 9 1 2 8 8 1 2 2 2 2 3 2 2 1 2 8 8 1 2 4 4 2 1 1 2 2 2 2 1 2 2 2 1 1 1 6 3 1 0 2 1 2 0 2 1 5 0 2 -1 4 0 1 -1 6 -3 1 -1 2 -1 2 -2 2 -1 9 -9 1 -2 8 -8 1 -2 4 -4 2 -3"/>
<path stroke="#FF7F50" d="M220 199l1 -2 8 -8 1 -2 11 -11 4 -2 1 -2 4 -2 2 0 1 -1 2 -1 2 0 2 -1 7 0 2 1 2 0 1 1 6 3 1 1 4 2 2 2 2 1 1 2 4 4 2 1 1 2 4 4 2 3 2 2 1 2 6 6 1 2 2 2 2 3 4 4 1 2 2 1 4 4 1 2 2 1 2 2 4 2 1 2 4 2 2 0 1 1 2 1 13 0 2 -1 1 -1"/>
<path stroke="#FF7F50" d="M360 233l2 0 4 -2 3 -3 2 -1 2 -2 2 -1 1 -2 2 -2 2 -1 2 -2 1 -2 8 -8 1 -3 6 -6 1 -2 4 -4 2 -3 2 -2 1 -2 2 -2 2 -1 2 -2 1 -2 2 -2 4 -2 3 -3 6 -3 1 -1 2 0 2 -1 11 0 2 1 1 1 2 0 4 2 3 3 4 2 2 2 1 2 2 1 4 4 1 2 8 8 1 2 2 2"/>
<path stroke="#FF7F50" d="M483 198l2 3 2 2 1 2 8 8 1 2 9 9 2 1 2 2 2 1 1 1 6 3 1 1 2 0 2 1 9 0 2 -1 2 0 1 -1 6 -3 1 -1 2 -1 2 -2 2 -1 9 -9 1 -2 8 -8 1 -2 4 -4 2 -3 1 -2 8 -8 1 -2 9 -9 2 -1 2 -2 2 -1 3 -3 2 -1 2 0 1 -1 2 -1 2 0 2 -1 5 0 2 1 4 0"/>
<path stroke="#FF7F50" d="M626 165l1 1 6 3 1 1 2 1 2 2 2 1 9 9 1 2 8 8 1 2 6 6 1 2 2 3 6 6 1 2 2 2 2 1 2 2 1 2 2 1 2 2 4 2 1 2 4 2 2 0 1 1 2 1 13 0 2 -1 1 0 6 -3 3 -3 4 -2 2 -2 1 -2 2 -1 4 -4 1 -2 8 -8 1 -3 6 -6 1 -2 6 -6 2 -3 7 -7 1 -2 2 -1"/>
<path stroke="#FF7F50" d="M773 174l2 -2 2 -1 3 -3 6 -3 1 -1 2 0 2 -1 11 0 2 1 1 1 2 0 4 2 3 3 2 1 2 2 2 1 1 2 2 1 4 4 1 2 8 8 1 2 2 3 4 4 1 2 8 8 1 2 9 9 2 1 2 2 2 1 1 1 6 3 1 1 2 0 2 1 9 0 2 -1 2 0 1 -1 6 -3 1 -1 4 -2 11 -11 1 -2 8 -8 1 -2 6 -6"/>
<path stroke="#FF7F50" d="M932 194l1 -3 8 -8 1 -2 9 -9 2 -1 2 -2 2 -1 1 -1 6 -3 1 -1"/>
<path stroke="cyan" d="M75 209l11 0 2 1 2 0 2 1 1 0 4 2 2 0 1 1 6 3 3 3 2 1 2 2 2 1 5 5 2 1 7 7 2 1 1 2 2 2 2 1 2 2 2 1 1 2 2 1 2 2 2 1 3 3 6 3 1 1 4 2 2 0 1 1 2 0 2 1 13 0 1 -1 2 0 4 -2 1 -1 8 -4 1 -1 2 -1 2 -2 2 -1 3 -3 2 -1 7 -7 2 -1 2 -2"/>
<path stroke="cyan" d="M220 236l1 -2 2 -1 4 -4 2 -1 1 -2 2 -1 2 -2 2 -1 3 -3 6 -3 1 -1 6 -3 1 0 2 -1 4 0 2 -1 5 0 2 1 3 0 2 1 2 0 2 1 1 1 8 4 1 1 2 1 2 2 2 1 1 2 2 1 2 2 2 1 7 7 2 1 1 2 2 2 2 1 2 2 2 1 1 2 2 1 2 2 2 1 3 3 6 3 1 1 4 2 2 0 1 1"/>
<path stroke="cyan" d="M342 261l2 0 2 1 13 0 1 -1 2 0 4 -2 1 -1 8 -4 1 -1 2 -1 2 -2 2 -1 3 -3 2 -1 7 -7 2 -1 2 -2 1 -2 2 -1 4 -4 2 -1 1 -2 2 -1 2 -2 2 -1 3 -3 6 -3 1 -1 6 -3 1 0 2 -1 4 0 2 -1 5 0 2 1 3 0 2 1 2 0 2 1 1 1 8 4 1 1 2 1 2 2 2 1 1 2"/>
<path stroke="cyan" d="M472 224l2 1 2 2 2 1 7 7 2 1 1 2 2 2 2 1 2 2 2 1 1 2 2 1 2 2 2 1 3 3 6 3 1 1 4 2 2 0 1 1 2 0 2 1 11 0 2 -1 3 0 4 -2 1 -1 8 -4 1 -1 2 -1 2 -2 2 -1 3 -3 2 -1 7 -7 2 -1 2 -2 1 -2 2 -1 4 -4 2 -1 1 -2 2 -1 2 -2 2 -1 3 -3 6 -3"/>
<path stroke="cyan" d="M601 214l1 -1 6 -3 1 0 2 -1 4 0 2 -1 5 0 2 1 3 0 2 1 2 0 2 1 1 1 8 4 1 1 2 1 2 2 2 1 1 2 2 1 2 2 2 1 7 7 2 1 1 2 2 2 2 1 2 2 2 1 1 2 2 1 2 2 2 1 3 3 6 3 1 1 4 2 2 0 1 1 2 0 2 1 11 0 2 -1 3 0 4 -2 1 -1 8 -4 1 -1 2 -1 2 -2"/>
<path stroke="cyan" d="M736 248l2 -1 3 -3 2 -1 9 -9 2 -1 1 -2 2 -1 4 -4 2 -1 1 -2 2 -1 2 -2 2 -1 3 -3 6 -3 1 -1 6 -3 1 0 2 -1 4 0 2 -1 5 0 2 1 3 0 2 1 2 0 2 1 1 1 8 4 1 1 2 1 2 2 2 1 1 2 2 1 2 2 2 1 7 7 2 1 1 2 2 2 2 1 2 2 2 1 1 2 2 1 2 2 2 1"/>
<path stroke="cyan" d="M859 248l3 3 6 3 1 1 4 2 2 0 1 1 2 0 2 1 11 0 2 -1 3 0 4 -2 1 -1 8 -4 1 -1 2 -1 2 -2 2 -1 3 -3 2 -1 9 -9 2 -1 1 -2 2 -1 4 -4 2 -1 1 -2 2 -1 2 -2 2 -1 3 -3 6 -3 1 -1 6 -3 1 0"/>
</svg>
