<?xml version="1.0" standalone="yes"?>
<!DOCTYPE svg PUBLIC "-//W3C//DTD SVG 1.1//EN"
 "http://www.w3.org/Graphics/SVG/1.1/DTD/svg11.dtd">
<svg xmlns="http://www.w3.org/2000/svg" version="1.1"
  width="100%" height="100%" viewBox="0 0 1024 768"
  style="fill: none; font-family: Arial;
 font: Arial;
">

<!-- Creator: NGspice -->

<rect x="0" y="0" width="1024" height="768" fill="white" stroke="none"/>
<text stroke="none" fill="black" font-size="16" x="358" y="752">
Power(mW)
</text>
<text transform="rotate(-90, 20, 484)"  stroke="none" fill="black" font-size="16" x="20" y="484">
Integrated_Noise(uV)
</text>
<text stroke="none" fill="black" font-size="16" x="10" y="16">
noise42: OTA_2stage Integrated_Noise(ss)
</text>
<path stroke="black" d="M75 704l0 -640"/>
<text stroke="none" fill="black" font-size="16" x="60" y="728">
0.0
</text>
<path stroke="black" stroke-dasharray="1,2" d="M174 704l0 -640"/>
<text stroke="none" fill="black" font-size="16" x="159" y="728">
1.0
</text>
<path stroke="black" stroke-dasharray="1,2" d="M273 704l0 -640"/>
<text stroke="none" fill="black" font-size="16" x="258" y="728">
2.0
</text>
<path stroke="black" stroke-dasharray="1,2" d="M372 704l0 -640"/>
<text stroke="none" fill="black" font-size="16" x="357" y="728">
3.0
</text>
<path stroke="black" stroke-dasharray="1,2" d="M471 704l0 -640"/>
<text stroke="none" fill="black" font-size="16" x="456" y="728">
4.0
</text>
<path stroke="black" stroke-dasharray="1,2" d="M570 704l0 -640"/>
<text stroke="none" fill="black" font-size="16" x="555" y="728">
5.0
</text>
<path stroke="black" stroke-dasharray="1,2" d="M669 704l0 -640"/>
<text stroke="none" fill="black" font-size="16" x="654" y="728">
6.0
</text>
<path stroke="black" stroke-dasharray="1,2" d="M768 704l0 -640"/>
<text stroke="none" fill="black" font-size="16" x="753" y="728">
7.0
</text>
<path stroke="black" stroke-dasharray="1,2" d="M867 704l0 -640"/>
<text stroke="none" fill="black" font-size="16" x="852" y="728">
8.0
</text>
<path stroke="black" stroke-dasharray="1,2" d="M966 704l0 -640"/>
<text stroke="none" fill="black" font-size="16" x="951" y="728">
9.0
</text>
<text stroke="none" fill="black" font-size="16" x="614" y="752">
m     
</text>
<path stroke="black" stroke-dasharray="1,2" d="M75 704l891 0"/>
<text stroke="none" fill="black" font-size="16" x="43" y="712">
2.0
</text>
<path stroke="black" stroke-dasharray="1,2" d="M75 624l891 0"/>
<text stroke="none" fill="black" font-size="16" x="43" y="632">
3.0
</text>
<path stroke="black" stroke-dasharray="1,2" d="M75 544l891 0"/>
<text stroke="none" fill="black" font-size="16" x="43" y="552">
4.0
</text>
<path stroke="black" stroke-dasharray="1,2" d="M75 464l891 0"/>
<text stroke="none" fill="black" font-size="16" x="43" y="472">
5.0
</text>
<path stroke="black" stroke-dasharray="1,2" d="M75 384l891 0"/>
<text stroke="none" fill="black" font-size="16" x="43" y="392">
6.0
</text>
<path stroke="black" stroke-dasharray="1,2" d="M75 304l891 0"/>
<text stroke="none" fill="black" font-size="16" x="43" y="312">
7.0
</text>
<path stroke="black" stroke-dasharray="1,2" d="M75 224l891 0"/>
<text stroke="none" fill="black" font-size="16" x="43" y="232">
8.0
</text>
<path stroke="black" stroke-dasharray="1,2" d="M75 144l891 0"/>
<text stroke="none" fill="black" font-size="16" x="43" y="152">
9.0
</text>
<path stroke="black" stroke-dasharray="1,2" d="M75 64l891 0"/>
<text stroke="none" fill="black" font-size="16" x="33" y="72">
10.0
</text>
<text stroke="none" fill="black" font-size="16" x="10" y="32">
u     
</text>
<path stroke="red" d="M821 631l118 16M707 609l114 22M599 580l108 29M500 541l99 39M408 487l92 54M327 409l81 78M255 291l72 118M194 97l61 194"/>
</svg>
