<?xml version="1.0" standalone="yes"?>
<!DOCTYPE svg PUBLIC "-//W3C//DTD SVG 1.1//EN"
 "http://www.w3.org/Graphics/SVG/1.1/DTD/svg11.dtd">
<svg xmlns="http://www.w3.org/2000/svg" version="1.1"
  width="100%" height="100%" viewBox="0 0 1024 768"
  style="fill: none; font-family: Arial;
 font: Arial;
">

<!-- Creator: NGspice -->

<rect x="0" y="0" width="1024" height="768" fill="white" stroke="none"/>
<text stroke="none" fill="black" font-size="16" x="358" y="752">
Time(ns)
</text>
<text transform="rotate(-90, 20, 414)"  stroke="none" fill="black" font-size="16" x="20" y="414">
Output
</text>
<text stroke="none" fill="black" font-size="16" x="10" y="16">
tran21: OTA_2stage Transient Plot(ss)
</text>
<path stroke="black" d="M75 704l0 -636"/>
<text stroke="none" fill="black" font-size="16" x="60" y="728">
0.0
</text>
<path stroke="black" stroke-dasharray="1,2" d="M164 704l0 -636"/>
<text stroke="none" fill="black" font-size="16" x="144" y="728">
50.0
</text>
<path stroke="black" stroke-dasharray="1,2" d="M253 704l0 -636"/>
<text stroke="none" fill="black" font-size="16" x="228" y="728">
100.0
</text>
<path stroke="black" stroke-dasharray="1,2" d="M342 704l0 -636"/>
<text stroke="none" fill="black" font-size="16" x="317" y="728">
150.0
</text>
<path stroke="black" stroke-dasharray="1,2" d="M431 704l0 -636"/>
<text stroke="none" fill="black" font-size="16" x="406" y="728">
200.0
</text>
<path stroke="black" stroke-dasharray="1,2" d="M520 704l0 -636"/>
<text stroke="none" fill="black" font-size="16" x="495" y="728">
250.0
</text>
<path stroke="black" stroke-dasharray="1,2" d="M609 704l0 -636"/>
<text stroke="none" fill="black" font-size="16" x="584" y="728">
300.0
</text>
<path stroke="black" stroke-dasharray="1,2" d="M698 704l0 -636"/>
<text stroke="none" fill="black" font-size="16" x="673" y="728">
350.0
</text>
<path stroke="black" stroke-dasharray="1,2" d="M787 704l0 -636"/>
<text stroke="none" fill="black" font-size="16" x="762" y="728">
400.0
</text>
<path stroke="black" stroke-dasharray="1,2" d="M876 704l0 -636"/>
<text stroke="none" fill="black" font-size="16" x="851" y="728">
450.0
</text>
<path stroke="black" stroke-dasharray="1,2" d="M965 704l0 -636"/>
<text stroke="none" fill="black" font-size="16" x="940" y="728">
500.0
</text>
<text stroke="none" fill="black" font-size="16" x="614" y="752">
ns
</text>
<path stroke="black" d="M75 704l890 0"/>
<text stroke="none" fill="black" font-size="16" x="43" y="712">
0.0
</text>
<path stroke="black" stroke-dasharray="1,2" d="M75 651l890 0"/>
<text stroke="none" fill="black" font-size="16" x="43" y="659">
0.2
</text>
<path stroke="black" stroke-dasharray="1,2" d="M75 598l890 0"/>
<text stroke="none" fill="black" font-size="16" x="43" y="606">
0.4
</text>
<path stroke="black" stroke-dasharray="1,2" d="M75 545l890 0"/>
<text stroke="none" fill="black" font-size="16" x="43" y="553">
0.6
</text>
<path stroke="black" stroke-dasharray="1,2" d="M75 492l890 0"/>
<text stroke="none" fill="black" font-size="16" x="43" y="500">
0.8
</text>
<path stroke="black" stroke-dasharray="1,2" d="M75 439l890 0"/>
<text stroke="none" fill="black" font-size="16" x="43" y="447">
1.0
</text>
<path stroke="black" stroke-dasharray="1,2" d="M75 386l890 0"/>
<text stroke="none" fill="black" font-size="16" x="43" y="394">
1.2
</text>
<path stroke="black" stroke-dasharray="1,2" d="M75 333l890 0"/>
<text stroke="none" fill="black" font-size="16" x="43" y="341">
1.4
</text>
<path stroke="black" stroke-dasharray="1,2" d="M75 280l890 0"/>
<text stroke="none" fill="black" font-size="16" x="43" y="288">
1.6
</text>
<path stroke="black" stroke-dasharray="1,2" d="M75 227l890 0"/>
<text stroke="none" fill="black" font-size="16" x="43" y="235">
1.8
</text>
<path stroke="black" stroke-dasharray="1,2" d="M75 174l890 0"/>
<text stroke="none" fill="black" font-size="16" x="43" y="182">
2.0
</text>
<path stroke="black" stroke-dasharray="1,2" d="M75 121l890 0"/>
<text stroke="none" fill="black" font-size="16" x="43" y="129">
2.2
</text>
<path stroke="black" stroke-dasharray="1,2" d="M75 68l890 0"/>
<text stroke="none" fill="black" font-size="16" x="43" y="76">
2.4
</text>
<text stroke="none" fill="black" font-size="16" x="10" y="32">
V
</text>
<path stroke="red" d="M75 456l4 0 2 2 2 1 1 3 4 6 4 10 1 6 2 6 4 14 1 9 2 8 2 9 2 10 2 9 1 10 6 30 1 8 2 8 4 12 2 5 1 5 4 8 2 3 1 4 2 3 2 2 2 3 2 2 1 3 4 4 2 1 1 2 8 4 1 1 2 0 2 1 9 0 2 -1 1 0 8 -4 3 -3 2 -1 2 -2 1 -2 2 -3 2 -2 2 -3 2 -2 1 -4"/>
<path stroke="red" d="M198 641l2 -3 4 -8 1 -4 4 -10 2 -6 2 -7 1 -8 2 -9 4 -20 1 -12 6 -33 2 -10 1 -10 2 -10 4 -18 1 -8 2 -8 2 -7 4 -12 1 -5 2 -4 4 -6 1 -1 4 -2 4 2 1 2 2 3 4 8 2 5 1 5 6 21 1 9 2 8 2 9 4 20 1 10 6 33 1 11 6 30 2 7 1 7 2 6 4 10"/>
<path stroke="red" d="M309 626l1 4 2 4 6 9 1 2 2 3 4 4 1 2 2 1 2 2 4 2 1 1 2 0 2 1 11 0 1 -1 8 -4 1 -2 2 -1 4 -4 1 -2 8 -12 1 -4 4 -8 2 -5 1 -6 2 -6 2 -7 4 -18 1 -11 2 -11 4 -24 1 -11 2 -12 6 -33 1 -10 2 -10 4 -18 1 -8 2 -8 2 -7 2 -6 2 -5 1 -5"/>
<path stroke="red" d="M424 402l4 -8 2 -2 1 -2 2 -1 4 0 2 1 1 2 2 3 4 8 2 5 1 6 2 6 2 7 2 8 1 8 4 18 4 20 1 10 6 33 1 11 2 12 6 33 1 10 2 9 2 7 2 6 1 5 2 5 6 12 1 3 2 2 2 3 2 2 1 2 2 2 2 1 2 2 2 1 1 1 2 1 2 0 2 1 7 0 2 -1 1 0 6 -3 2 -2 1 -2 2 -1"/>
<path stroke="red" d="M540 646l2 -2 2 -3 1 -2 4 -6 4 -8 1 -4 4 -10 2 -7 1 -7 2 -8 2 -10 4 -22 1 -12 6 -36 1 -12 2 -12 6 -33 1 -10 2 -10 4 -18 1 -8 2 -8 2 -7 2 -6 2 -5 1 -5 4 -8 2 -2 1 -2 2 -1 4 0 2 2 1 2 2 2 4 8 2 5 1 6 2 6 2 7 2 8 1 8 4 18 4 20"/>
<path stroke="red" d="M642 454l1 10 4 22 2 12 1 11 4 24 2 11 2 12 1 11 2 11 2 10 2 8 1 8 2 6 4 10 2 4 1 4 4 6 2 2 1 3 4 4 4 2 1 2 2 0 4 2 7 0 2 -1 1 -1 2 0 2 -2 4 -2 1 -2 4 -4 2 -3 1 -3 2 -3 6 -12 1 -6 4 -12 2 -9 1 -9 2 -10 2 -12 2 -11 2 -12"/>
<path stroke="red" d="M747 535l1 -13 6 -36 1 -12 2 -12 6 -33 1 -10 2 -10 4 -18 1 -8 2 -8 2 -7 2 -6 2 -5 1 -5 4 -8 2 -2 1 -2 2 -1 4 0 2 2 1 2 4 6 2 4 2 5 1 6 6 21 1 8 4 18 4 20 1 11 2 10 2 11 2 12 1 11 8 48 1 11 2 12 2 11 2 10 1 10 2 8 2 7 2 6"/>
<path stroke="red" d="M850 609l2 5 1 5 2 4 4 6 1 3 6 6 2 1 1 1 6 3 7 0 2 -1 1 0 4 -2 4 -4 1 -2 4 -4 2 -3 1 -3 4 -8 2 -5 2 -6 1 -6 2 -7 2 -9 2 -10 1 -11 2 -11 6 -36 1 -13 6 -36 1 -12 2 -12 6 -33 1 -10 2 -10 4 -18 1 -8 2 -8 2 -7 4 -12 1 -4 2 -5"/>
<path stroke="red" d="M960 327l2 -3 2 -2 1 -2"/>
<path stroke="blue" d="M75 357l2 0 6 3 1 2 4 6 2 4 2 5 1 5 2 5 2 7 2 6 1 7 4 16 4 18 1 9 2 10 2 9 2 11 1 10 2 10 2 11 2 10 2 11 1 10 2 11 4 20 1 9 2 9 2 8 2 7 2 5 1 5 2 5 4 6 1 3 2 3 2 2 2 1 3 3 6 3 9 0 1 -1 6 -3 2 -2 1 -2 2 -2 4 -6 1 -3 4 -8"/>
<path stroke="blue" d="M193 615l4 -10 1 -7 4 -16 2 -10 1 -10 2 -10 6 -33 1 -11 4 -22 2 -10 1 -11 2 -11 4 -20 2 -9 1 -10 2 -8 2 -9 2 -8 1 -7 2 -7 4 -12 2 -5 1 -5 6 -9 1 -2 2 -1 2 0 4 2 1 1 4 6 4 8 1 5 6 18 1 8 2 7 2 8 4 18 1 9 6 30 1 10 2 10 4 22"/>
<path stroke="blue" d="M300 504l2 10 1 11 2 10 2 11 2 10 1 10 4 18 2 8 2 7 1 7 4 10 2 3 1 4 2 2 2 3 5 5 6 3 1 1 4 0 2 -1 2 0 1 -1 4 -2 2 -2 2 -1 1 -2 6 -9 1 -4 2 -4 2 -5 2 -6 2 -7 1 -8 4 -18 2 -10 1 -10 8 -44 1 -11 6 -33 1 -10 2 -11 6 -30 1 -9"/>
<path stroke="blue" d="M408 399l2 -9 4 -16 1 -8 2 -6 2 -7 4 -10 1 -5 2 -4 2 -3 2 -2 1 -2 2 -1 4 0 2 1 1 2 2 2 2 4 2 3 2 5 1 5 2 5 2 6 2 7 1 7 4 16 4 18 1 9 2 9 4 20 1 11 2 10 2 11 2 10 2 11 1 11 2 10 2 11 2 10 1 10 2 10 4 18 2 8 1 8 4 12 2 5"/>
<path stroke="blue" d="M503 611l1 4 4 6 4 4 1 2 6 3 1 1 6 0 2 -1 1 -1 4 -2 4 -4 1 -2 4 -6 2 -4 1 -5 2 -5 2 -6 2 -7 2 -8 1 -8 6 -30 1 -10 8 -44 1 -11 6 -33 1 -11 8 -40 1 -9 2 -9 4 -16 1 -8 2 -7 4 -12 2 -5 1 -4 2 -4 2 -3 2 -2 1 -2 2 -1 4 0 2 1"/>
<path stroke="blue" d="M617 312l1 2 6 9 2 5 1 5 2 5 2 7 2 6 1 7 4 16 4 18 1 9 2 10 2 9 2 11 1 10 2 10 4 22 2 10 1 11 2 10 2 11 2 10 1 10 4 20 4 18 1 8 4 14 2 6 1 5 2 4 4 6 2 2 1 2 2 2 4 2 1 1 6 0 2 -1 1 -1 4 -2 2 -2 2 -3 3 -6 2 -3 2 -5 1 -5 2 -6"/>
<path stroke="blue" d="M725 591l2 -7 2 -8 2 -9 1 -9 2 -9 2 -10 2 -11 1 -10 8 -44 1 -11 6 -33 1 -11 8 -40 1 -9 4 -18 2 -7 1 -8 2 -7 4 -12 2 -5 1 -4 2 -4 2 -3 2 -2 1 -2 2 -1 4 0 2 1 1 2 6 9 2 5 1 5 2 5 2 7 2 6 1 8 2 7 2 8 4 18 1 9 6 30 1 10 2 10"/>
<path stroke="blue" d="M830 437l4 22 2 10 1 11 2 11 4 20 1 11 2 10 6 27 1 9 2 8 4 14 1 5 4 10 4 6 1 2 4 4 2 1 1 1 6 0 2 -1 1 -1 2 -1 4 -4 2 -3 1 -3 4 -8 2 -6 1 -6 4 -14 2 -9 2 -8 1 -10 2 -9 2 -10 2 -11 1 -10 8 -44 1 -11 6 -33 1 -11 2 -10 2 -11"/>
<path stroke="blue" d="M937 385l2 -10 2 -9 1 -10 2 -8 2 -9 2 -8 1 -7 2 -7 4 -12 2 -5 1 -4 2 -4 2 -3 2 -2 1 -2"/>
<path stroke="#FFA500" d="M75 278l2 0 6 3 1 2 2 2 4 6 2 4 1 4 4 10 2 6 1 6 4 14 2 8 2 7 1 8 2 9 2 8 2 9 1 9 4 18 2 10 2 9 1 9 2 10 4 18 1 9 2 9 2 8 2 9 2 8 1 7 2 8 2 7 2 6 1 7 6 15 2 4 1 4 4 6 3 3 2 1 4 0 2 -1 3 -3 6 -9 1 -4 4 -10 2 -6 1 -6 4 -14"/>
<path stroke="#FFA500" d="M193 525l4 -16 1 -8 2 -9 2 -8 2 -9 1 -10 2 -9 4 -20 2 -9 1 -10 2 -10 2 -9 2 -10 1 -9 2 -10 2 -9 2 -8 2 -9 1 -8 2 -8 4 -14 1 -7 2 -6 2 -5 2 -6 2 -4 1 -4 4 -6 2 -2 1 -2 2 -1 4 0 2 1 3 3 4 6 2 4 1 4 4 10 2 6 1 6 4 14 2 8"/>
<path stroke="#FFA500" d="M284 332l2 7 1 8 2 9 2 8 2 9 1 9 4 18 2 10 2 9 1 9 2 10 4 18 1 9 2 9 2 8 2 9 2 8 1 7 2 8 2 7 2 6 1 7 2 5 2 6 2 4 2 5 1 3 4 6 2 2 1 2 2 1 4 0 2 -1 1 -2 4 -4 2 -3 2 -4 1 -4 4 -10 2 -6 1 -6 4 -14 4 -16 1 -8 2 -9 2 -8 2 -9"/>
<path stroke="#FFA500" d="M382 464l1 -10 2 -9 4 -20 2 -9 1 -10 2 -10 2 -9 2 -10 1 -9 2 -10 4 -18 2 -8 1 -8 2 -8 4 -14 1 -7 2 -6 6 -15 1 -4 4 -6 2 -2 1 -2 2 -1 4 0 2 1 1 2 4 4 2 3 2 4 1 4 2 5 2 6 2 5 1 7 2 6 2 7 2 8 2 7 1 9 4 16 2 9 1 9 2 9 2 10"/>
<path stroke="#FFA500" d="M476 390l4 18 1 9 2 10 4 18 1 9 2 9 2 8 2 9 2 8 1 8 6 21 1 6 2 6 4 10 2 4 1 4 4 6 3 3 2 1 4 0 2 -1 3 -3 4 -6 2 -4 1 -4 4 -10 2 -6 1 -6 6 -21 2 -8 1 -9 2 -8 4 -18 1 -10 2 -9 2 -10 2 -9 2 -10 1 -10 2 -10 2 -9 2 -10 1 -9"/>
<path stroke="#FFA500" d="M577 357l2 -9 2 -10 2 -8 2 -9 1 -8 2 -8 4 -14 1 -7 2 -6 6 -15 1 -3 2 -4 2 -3 3 -3 4 -2 4 2 3 3 4 6 2 4 1 4 4 10 2 6 1 6 6 21 2 8 1 8 2 8 4 18 1 9 6 27 2 10 1 9 6 27 1 9 4 18 4 16 1 8 2 7 2 8 2 6 1 6 2 6 6 15 1 3 2 4"/>
<path stroke="#FFA500" d="M693 540l4 4 1 2 2 1 4 0 2 -1 3 -3 4 -6 2 -4 1 -4 4 -10 2 -6 1 -6 4 -14 4 -16 1 -8 6 -27 1 -9 2 -10 2 -9 4 -20 1 -9 4 -20 2 -9 1 -10 6 -27 2 -8 1 -8 4 -16 2 -6 1 -7 2 -6 6 -15 1 -4 4 -6 2 -2 1 -2 2 -1 4 0 2 1 1 2 4 4"/>
<path stroke="#FFA500" d="M800 245l2 3 2 4 1 5 2 4 2 6 2 5 1 7 2 6 2 7 4 16 1 8 2 8 2 9 2 8 1 9 2 9 2 10 4 18 1 10 6 27 1 9 4 18 4 16 1 8 6 21 1 6 2 6 4 10 2 4 1 4 4 6 2 2 1 2 2 1 4 0 2 -1 1 -2 4 -4 2 -3 2 -4 1 -4 2 -5 2 -6 2 -5 1 -7 2 -6 2 -8"/>
<path stroke="#FFA500" d="M905 482l2 -7 2 -8 1 -8 6 -27 1 -9 2 -10 2 -9 4 -20 1 -10 2 -9 4 -20 1 -9 8 -36 1 -8 2 -7 2 -8 2 -7 1 -6 4 -12 2 -5 2 -4 1 -4 4 -6 3 -3"/>
<path stroke="green" d="M75 217l4 0 4 2 1 2 4 4 4 6 1 4 4 8 2 5 1 5 6 18 2 7 1 7 4 14 2 8 1 7 8 32 1 8 6 24 1 7 2 8 6 21 1 7 6 18 1 6 2 5 2 4 2 5 2 3 1 4 2 3 5 5 4 2 2 0 2 -1 7 -7 2 -4 1 -3 2 -4 4 -10 1 -5 6 -18 2 -7 1 -7 2 -7 4 -16 1 -8 6 -24"/>
<path stroke="green" d="M211 355l2 -9 1 -8 2 -8 2 -9 2 -8 1 -8 4 -16 4 -14 1 -7 2 -7 4 -12 1 -6 4 -10 4 -8 1 -4 2 -3 4 -4 1 -2 2 -1 4 0 2 1 7 7 2 3 1 4 2 4 2 5 2 4 1 6 2 5 2 6 2 7 2 6 1 7 4 14 2 8 1 8 2 7 6 24 1 8 6 24 1 8 4 14 2 8 2 7 1 6 2 7"/>
<path stroke="green" d="M321 419l2 6 2 5 1 6 4 10 4 8 1 3 2 3 4 4 1 2 2 1 4 0 2 -1 1 -1 2 -1 2 -3 2 -2 2 -3 1 -4 4 -8 2 -5 1 -6 2 -5 2 -7 2 -6 2 -7 1 -7 2 -7 2 -8 2 -7 1 -8 2 -9 6 -24 1 -9 4 -16 2 -9 1 -8 2 -8 2 -7 2 -8 2 -7 1 -7 2 -7 4 -12 1 -6"/>
<path stroke="green" d="M415 234l4 -10 4 -8 1 -3 4 -6 3 -3 2 -1 6 0 5 5 4 6 1 3 2 4 4 10 1 5 6 18 2 7 1 6 2 8 4 14 1 8 8 32 1 8 2 8 2 7 2 8 1 8 2 8 6 21 1 7 6 18 1 5 4 10 4 8 1 3 4 6 3 3 2 1 6 0 5 -5 4 -6 1 -3 2 -5 2 -4 2 -5 1 -5 4 -12 2 -7 2 -6"/>
<path stroke="green" d="M553 400l1 -7 2 -8 2 -7 2 -8 1 -8 4 -16 2 -9 2 -8 1 -8 2 -9 4 -16 1 -8 4 -16 4 -14 1 -7 2 -7 4 -12 1 -6 4 -10 4 -8 1 -4 2 -3 4 -4 1 -2 2 0 2 -1 2 0 2 1 7 7 2 3 1 4 2 4 2 5 2 4 1 6 2 5 2 6 2 7 2 6 1 7 4 14 2 8 1 8 2 7 6 24"/>
<path stroke="green" d="M658 320l1 8 6 24 1 8 4 14 2 8 2 7 1 6 2 7 4 12 1 5 4 10 4 8 1 3 2 3 4 4 1 2 2 1 4 0 2 -1 1 -1 2 -1 2 -3 2 -2 2 -3 1 -4 4 -8 2 -5 1 -6 2 -5 2 -7 2 -6 2 -7 1 -7 2 -7 4 -16 1 -7 2 -9 6 -24 1 -9 6 -24 1 -9 2 -7 4 -16 2 -7"/>
<path stroke="green" d="M763 249l1 -7 2 -6 2 -7 2 -6 1 -5 2 -6 2 -4 2 -5 2 -4 1 -3 2 -3 4 -4 1 -2 2 -1 4 0 2 1 1 1 2 1 2 3 2 2 2 3 1 4 4 8 2 5 1 5 6 18 2 7 1 7 4 14 2 8 1 7 8 32 1 8 6 24 1 7 2 8 6 21 1 7 2 6 2 7 2 5 1 6 2 5 2 4 2 5 2 3 1 4 2 3"/>
<path stroke="green" d="M871 435l5 5 4 2 2 0 2 -1 7 -7 2 -4 1 -3 2 -4 4 -10 1 -5 6 -18 2 -7 1 -7 2 -7 4 -16 1 -8 6 -24 2 -9 1 -8 2 -8 2 -9 2 -8 1 -8 2 -8 2 -7 2 -8 2 -7 1 -7 2 -7 4 -12 1 -5 2 -6 2 -4 2 -5 2 -4 1 -3 2 -3 5 -5"/>
<path stroke="#FFC0C5" d="M75 170l4 0 4 2 1 1 2 1 2 2 2 3 2 2 1 3 2 3 4 8 1 4 6 15 2 6 1 5 4 12 2 7 1 6 2 6 4 14 2 6 1 7 2 7 2 6 2 7 1 6 2 6 2 7 4 12 1 5 2 6 4 10 1 4 2 5 2 3 2 4 2 3 1 3 2 3 2 2 2 1 1 2 2 1 6 0 1 -1 2 -1 4 -4 2 -3 1 -3 2 -3 4 -8"/>
<path stroke="#FFC0C5" d="M188 363l1 -4 6 -15 2 -6 1 -5 2 -6 2 -7 2 -6 1 -7 2 -6 6 -21 1 -7 4 -14 2 -6 1 -7 2 -7 6 -18 1 -6 2 -6 4 -10 1 -5 2 -5 2 -4 2 -3 2 -4 1 -3 7 -7 4 -2 2 0 2 1 1 0 2 2 2 1 2 2 2 3 1 3 2 3 4 8 1 4 2 4 2 5 2 6 2 5 1 6 6 18"/>
<path stroke="#FFC0C5" d="M293 237l1 6 2 7 2 6 4 14 1 6 2 7 2 6 2 7 1 6 2 7 6 18 1 6 6 15 1 5 4 8 2 3 2 4 1 3 7 7 2 1 6 0 1 -1 2 -1 6 -6 1 -3 2 -4 2 -3 2 -4 1 -5 2 -4 2 -5 2 -6 2 -5 1 -6 4 -12 2 -7 1 -6 8 -28 1 -7 2 -6 4 -14 1 -7 2 -6 2 -7 4 -12"/>
<path stroke="#FFC0C5" d="M407 214l1 -6 2 -6 4 -10 1 -5 6 -12 2 -3 1 -3 2 -3 5 -5 2 -1 6 0 1 1 2 1 6 6 1 3 2 3 4 8 1 4 8 20 1 6 6 18 1 7 2 6 2 7 2 6 2 7 1 7 2 6 2 7 2 6 1 7 8 24 1 6 6 15 1 5 6 12 2 3 1 3 7 7 4 2 2 0 2 -1 1 0 2 -2 2 -1 2 -3 2 -2"/>
<path stroke="#FFC0C5" d="M537 364l1 -3 2 -3 4 -8 1 -4 6 -15 2 -6 1 -6 6 -18 1 -7 2 -7 2 -6 4 -14 1 -7 6 -21 1 -6 2 -7 2 -6 2 -7 2 -6 1 -6 4 -10 2 -6 1 -4 2 -5 2 -4 2 -3 2 -4 1 -3 2 -2 2 -3 2 -1 1 -2 2 0 2 -1 4 0 3 3 2 1 2 2 2 3 1 3 2 3 2 4 2 3"/>
<path stroke="#FFC0C5" d="M633 175l1 5 2 4 4 10 2 6 1 6 2 5 2 7 2 6 1 6 2 7 2 6 2 7 2 6 1 7 2 7 2 6 2 7 1 6 2 7 6 18 1 5 2 6 4 10 1 4 2 5 2 4 2 3 3 6 2 3 5 5 2 1 6 0 1 -1 2 -1 4 -4 2 -3 3 -6 2 -3 2 -4 1 -5 8 -20 1 -6 2 -6 2 -7 2 -6 1 -6 8 -28"/>
<path stroke="#FFC0C5" d="M747 260l1 -7 2 -6 4 -14 1 -7 2 -6 2 -7 4 -12 1 -6 2 -6 4 -10 1 -5 6 -12 2 -3 1 -3 2 -3 5 -5 2 -1 6 0 1 1 2 1 6 6 1 3 2 3 4 8 1 4 8 20 1 6 6 18 1 7 2 6 2 7 2 6 2 7 1 7 2 6 2 7 2 6 1 7 4 12 2 7 2 5 1 6 2 5 2 6 2 4 1 5"/>
<path stroke="#FFC0C5" d="M860 333l6 12 2 3 1 3 2 2 2 3 2 1 1 2 2 0 2 1 2 0 2 -1 1 0 2 -2 2 -1 2 -3 2 -2 1 -3 2 -3 4 -8 1 -4 6 -15 2 -6 1 -6 6 -18 1 -7 2 -7 2 -6 4 -14 1 -7 4 -14 2 -6 1 -7 2 -7 6 -18 1 -6 2 -6 4 -10 1 -5 8 -16 1 -3 7 -7"/>
<path stroke="#A52A2A" d="M75 135l2 0 2 1 2 0 2 1 1 1 4 2 4 4 1 2 6 9 1 3 8 16 1 5 6 15 1 5 6 15 2 6 1 5 2 6 4 10 1 6 6 15 2 4 1 5 2 4 2 5 2 4 1 4 8 12 1 2 2 3 2 1 3 3 2 1 7 0 2 -1 2 -2 2 -1 2 -2 1 -2 6 -9 1 -3 6 -12 2 -5 1 -4 6 -15 1 -5 2 -6"/>
<path stroke="#A52A2A" d="M207 243l2 -5 2 -6 2 -5 1 -6 2 -5 2 -6 2 -5 1 -6 8 -20 1 -5 2 -5 4 -8 1 -4 2 -4 6 -9 1 -3 4 -4 2 -1 1 -1 4 -2 4 0 1 1 6 3 2 2 1 3 2 2 4 6 1 3 8 16 1 5 2 5 2 4 2 5 1 6 6 15 2 6 1 5 2 5 2 6 2 5 1 5 2 6 4 10 2 4 1 5 2 4"/>
<path stroke="#A52A2A" d="M321 270l2 5 2 4 1 3 2 4 6 9 1 2 7 7 2 1 6 0 1 -1 6 -3 2 -2 1 -3 2 -2 4 -6 1 -4 2 -3 4 -8 2 -5 1 -4 6 -15 1 -6 4 -10 2 -6 2 -5 1 -6 2 -5 2 -6 2 -5 1 -6 8 -20 1 -5 2 -5 4 -8 1 -4 2 -4 6 -9 1 -3 4 -4 2 -1 1 -1 4 -2 4 0"/>
<path stroke="#A52A2A" d="M439 128l1 1 6 3 2 2 1 3 2 2 4 6 1 3 8 16 1 5 2 5 2 4 2 5 1 5 2 6 4 10 2 6 1 5 2 5 2 6 2 5 1 5 2 5 2 6 2 4 2 5 1 5 2 4 2 5 2 4 1 3 2 4 6 9 1 2 7 7 2 1 6 0 1 -1 6 -3 2 -2 1 -3 2 -2 4 -6 1 -4 2 -3 4 -8 2 -5 1 -5 2 -4 4 -10"/>
<path stroke="#A52A2A" d="M560 244l1 -6 4 -10 2 -6 2 -5 1 -6 2 -5 2 -6 2 -5 1 -6 4 -10 2 -6 2 -4 1 -5 2 -5 4 -8 1 -4 2 -4 6 -9 1 -3 4 -4 2 -1 1 -1 4 -2 4 0 1 1 6 3 2 2 1 3 2 2 4 6 1 3 8 16 1 5 2 5 2 4 2 5 1 5 2 6 4 10 2 6 1 5 2 5 2 6 2 5 1 5"/>
<path stroke="#A52A2A" d="M666 231l2 5 2 6 2 4 2 5 1 5 4 8 2 5 1 3 2 4 6 9 1 2 7 7 2 1 6 0 1 -1 4 -2 2 -2 2 -1 1 -3 2 -2 4 -6 1 -4 2 -3 2 -4 2 -5 2 -4 1 -5 2 -4 4 -10 1 -6 4 -10 2 -6 2 -5 1 -6 2 -5 2 -6 2 -5 1 -6 4 -10 2 -6 2 -4 1 -5 2 -5 4 -8"/>
<path stroke="#A52A2A" d="M770 146l1 -4 2 -4 6 -9 1 -3 4 -4 2 -1 1 -1 4 -2 4 0 1 1 6 3 2 2 1 3 2 2 4 6 1 3 8 16 1 5 2 5 2 4 2 5 1 5 2 6 4 10 2 6 1 5 2 5 2 6 2 5 1 5 2 5 2 6 2 4 2 5 1 5 2 4 2 5 2 4 1 3 2 4 6 9 1 2 7 7 2 1 6 0 1 -1 4 -2 2 -2 2 -1"/>
<path stroke="#A52A2A" d="M893 284l1 -3 2 -2 4 -6 1 -4 2 -3 2 -4 2 -5 2 -4 1 -5 2 -4 4 -10 1 -6 4 -10 2 -6 2 -5 1 -6 2 -5 2 -6 2 -5 1 -6 8 -20 1 -5 2 -5 4 -8 1 -4 2 -4 6 -9 1 -3 4 -4 2 -1 1 -1"/>
<path stroke="#F0E68C" d="M75 114l6 0 2 1 1 0 4 2 2 2 2 1 1 2 6 6 1 3 8 12 1 3 6 12 1 4 8 16 1 4 4 8 2 5 1 4 4 8 2 3 2 4 1 4 2 3 2 4 2 3 1 3 2 3 2 2 2 3 2 2 1 2 2 2 4 2 1 1 4 2 4 0 1 -1 2 0 4 -2 7 -7 2 -3 1 -2 8 -12 1 -4 2 -3 4 -8 1 -4 4 -8 2 -5"/>
<path stroke="#F0E68C" d="M211 191l2 -4 1 -4 2 -4 2 -5 2 -4 1 -4 8 -16 1 -4 2 -4 4 -6 1 -3 6 -9 2 -2 1 -2 2 -2 2 -1 3 -3 2 0 2 -1 5 0 2 1 2 0 2 2 2 1 1 2 2 1 2 2 2 3 1 2 8 12 1 4 2 3 4 8 1 4 8 16 1 4 2 4 2 5 2 4 1 4 6 12 2 3 1 4 2 4 4 6 1 3 4 6"/>
<path stroke="#F0E68C" d="M330 233l4 4 1 2 2 2 2 1 3 3 2 0 2 1 5 0 8 -4 1 -2 6 -6 1 -3 8 -12 1 -4 2 -3 4 -8 1 -4 6 -12 2 -5 1 -4 4 -8 2 -5 1 -4 8 -16 1 -4 2 -3 2 -4 2 -3 1 -3 4 -6 2 -2 2 -3 1 -2 2 -2 4 -2 1 -1 4 -2 5 0 8 4 1 2 6 6 1 3 2 2 4 6"/>
<path stroke="#F0E68C" d="M462 132l2 4 1 3 2 4 2 3 2 4 1 4 8 16 1 4 2 5 4 8 1 4 8 16 1 3 2 4 4 6 1 3 4 6 4 4 1 2 4 4 2 1 1 1 2 1 7 0 8 -4 1 -2 6 -6 1 -3 2 -2 2 -3 2 -4 2 -3 1 -3 6 -12 1 -4 8 -16 1 -5 6 -12 1 -5 8 -16 1 -3 4 -8 2 -3 1 -3 4 -6"/>
<path stroke="#F0E68C" d="M597 119l4 -4 1 -2 4 -4 2 -1 1 -1 2 -1 2 0 2 -1 2 0 1 1 2 0 6 3 1 2 6 6 1 3 2 2 2 3 2 4 2 3 1 3 4 8 2 3 1 4 6 12 2 5 1 4 6 12 1 4 8 16 1 3 2 4 2 3 2 4 1 3 2 2 2 3 2 2 2 3 1 2 2 1 2 2 2 1 1 1 2 1 7 0 2 -1 2 0 2 -2 2 -1"/>
<path stroke="#F0E68C" d="M715 234l1 -2 2 -1 2 -3 2 -2 1 -2 6 -9 2 -4 1 -3 4 -8 2 -3 1 -4 2 -4 2 -5 4 -8 1 -4 2 -5 4 -8 1 -4 2 -5 4 -8 2 -3 1 -4 2 -4 2 -3 2 -4 1 -3 2 -3 2 -2 2 -3 2 -2 1 -2 4 -4 2 -1 1 -1 2 -1 9 0 4 2 7 7 2 3 1 2 8 12 1 4 2 3"/>
<path stroke="#F0E68C" d="M823 135l4 8 1 4 8 16 1 4 6 12 1 5 4 8 2 3 2 4 1 4 2 3 2 4 2 3 1 3 2 3 2 2 2 3 2 2 1 2 2 2 4 2 1 1 2 1 2 0 2 1 2 0 1 -1 2 0 4 -2 7 -7 2 -3 1 -2 8 -12 1 -4 2 -3 4 -8 1 -4 4 -8 2 -5 2 -4 1 -4 2 -4 2 -5 2 -4 1 -4 8 -16"/>
<path stroke="#F0E68C" d="M941 135l1 -4 2 -4 4 -6 1 -3 6 -9 2 -2 1 -2 2 -2 2 -1 2 -2 1 0"/>
<path stroke="#DDA0DD" d="M75 108l2 0 2 1 4 0 1 1 2 0 6 3 1 1 2 1 9 9 2 3 2 2 1 3 2 2 4 6 1 2 8 12 1 3 6 9 1 3 8 12 1 3 2 2 2 3 2 2 1 3 6 6 2 1 1 2 6 3 1 1 2 1 2 0 2 1 3 0 2 -1 2 0 4 -2 1 -1 2 -1 2 -2 2 -1 1 -2 6 -6 2 -3 1 -2 2 -3 2 -2 2 -3 1 -3"/>
<path stroke="#DDA0DD" d="M205 177l8 -12 1 -3 6 -9 1 -4 6 -9 2 -2 1 -3 4 -6 2 -2 1 -2 2 -3 4 -4 2 -1 1 -2 2 -1 2 -2 2 -1 1 -1 2 0 2 -1 9 0 4 2 1 1 2 1 2 2 2 1 1 2 6 6 2 3 1 2 2 3 2 2 2 3 1 3 8 12 1 3 6 9 1 3 6 9 2 2 1 3 2 3 2 2 2 3 1 2 11 11"/>
<path stroke="#DDA0DD" d="M337 202l4 2 1 1 2 0 2 1 7 0 4 -2 2 0 1 -2 4 -2 2 -2 1 -2 8 -8 1 -3 2 -2 4 -6 1 -3 2 -2 2 -3 2 -4 2 -3 1 -3 6 -9 1 -3 8 -12 1 -3 2 -3 2 -2 2 -3 1 -2 8 -8 1 -2 6 -3 1 -1 4 -2 7 0 4 2 2 0 3 3 2 1 7 7 2 3 2 2 1 2 4 6 2 2"/>
<path stroke="#DDA0DD" d="M471 134l1 3 8 12 1 3 6 9 1 3 8 12 1 2 4 6 2 2 1 2 8 8 1 2 6 3 1 1 2 1 9 0 2 -1 2 0 2 -1 1 -1 2 -1 2 -2 2 -1 1 -2 6 -6 2 -3 1 -2 4 -6 2 -2 1 -3 8 -12 1 -3 2 -3 2 -4 2 -3 1 -3 8 -12 1 -2 4 -6 2 -2 1 -3 11 -11 4 -2 1 -1"/>
<path stroke="#DDA0DD" d="M609 105l2 -1 4 0 2 -1 1 0 2 1 2 0 4 2 1 1 4 2 2 2 1 2 8 8 1 3 2 2 4 6 1 2 8 12 1 3 2 3 2 4 2 3 1 3 2 3 2 2 4 6 1 3 2 2 2 3 2 2 1 3 6 6 2 1 1 2 2 1 2 2 2 1 1 0 2 1 2 0 2 1 3 0 2 -1 2 0 4 -2 1 -1 4 -2 2 -2 1 -2 8 -8 1 -3"/>
<path stroke="#DDA0DD" d="M732 180l2 -2 4 -6 1 -3 8 -12 1 -3 6 -9 1 -3 8 -12 1 -3 2 -3 2 -2 2 -3 1 -2 2 -2 2 -3 2 -1 2 -2 1 -2 2 -1 2 -2 2 -1 1 -1 2 0 2 -1 7 0 2 1 2 0 2 1 1 1 2 1 2 2 2 1 1 2 6 6 2 3 1 2 2 3 2 2 2 3 1 3 8 12 1 3 6 9 1 3 8 12"/>
<path stroke="#DDA0DD" d="M852 171l1 2 2 3 2 2 2 3 1 2 11 11 4 2 1 1 2 0 2 1 7 0 2 -1 2 0 2 -1 3 -3 2 -1 7 -7 2 -3 2 -2 1 -2 6 -9 1 -2 8 -12 1 -4 6 -9 1 -3 8 -12 1 -3 2 -2 2 -3 2 -2 1 -3 11 -11 4 -2 1 -1"/>
<path stroke="#DA70D6" d="M75 128l4 0 2 1 5 0 2 1 2 0 2 1 1 1 6 3 1 1 4 2 2 2 2 1 1 2 2 2 2 1 2 2 1 2 8 8 1 2 6 6 1 2 8 8 1 2 4 4 2 1 1 2 2 2 4 2 3 3 4 2 2 0 1 1 2 1 4 0 2 1 3 0 2 -1 2 0 2 -1 1 0 6 -3 1 -1 4 -2 2 -2 2 -1 1 -2 2 -1 4 -4 1 -2 8 -8"/>
<path stroke="#DA70D6" d="M213 169l1 -2 6 -6 1 -2 8 -8 1 -2 9 -9 2 -1 2 -2 2 -1 1 -1 6 -3 1 -1 2 0 2 -1 4 0 1 -1 2 1 6 0 1 1 6 3 1 1 4 2 2 2 2 1 1 2 2 1 4 4 1 2 2 1 6 6 1 2 2 3 4 4 1 2 8 8 1 2 2 1 7 7 2 1 2 2 2 1 1 1 6 3 1 1 2 0 2 1 9 0 2 -1"/>
<path stroke="#DA70D6" d="M357 194l2 0 1 -1 2 -1 2 0 2 -1 3 -3 4 -2 18 -18 1 -2 2 -3 4 -4 1 -2 8 -8 1 -2 2 -2 2 -1 2 -2 1 -2 2 -1 2 -2 2 -1 3 -3 6 -3 1 0 4 -2 11 0 2 1 1 0 6 3 1 1 2 1 2 2 4 2 1 2 2 2 2 1 2 2 1 2 8 8 1 2 6 6 1 2 8 8 1 2 4 4 2 1"/>
<path stroke="#DA70D6" d="M503 180l1 2 2 1 2 2 4 2 1 2 2 1 2 0 2 1 1 1 2 0 2 1 11 0 2 -1 1 0 6 -3 1 -1 2 -1 2 -2 4 -2 1 -2 2 -2 2 -1 2 -2 1 -2 8 -8 1 -2 6 -6 1 -2 2 -2 2 -3 2 -2 2 -1 1 -2 6 -6 1 -2 2 -1 2 -2 4 -2 3 -3 2 -1 2 0 1 -1 2 -1 4 0 2 -1"/>
<path stroke="#DA70D6" d="M617 126l5 0 2 1 2 0 1 1 2 1 2 0 2 1 3 3 4 2 18 18 1 2 6 6 1 2 2 3 4 4 2 1 1 2 9 9 2 1 2 2 2 1 1 1 6 3 1 0 2 1 2 0 2 1 5 0 2 -1 4 0 1 -1 6 -3 1 -1 4 -2 2 -2 2 -1 1 -2 2 -1 4 -4 1 -2 8 -8 1 -2 6 -6 1 -2 8 -8 1 -2 4 -4"/>
<path stroke="#DA70D6" d="M768 140l2 -1 1 -2 2 -2 2 -1 2 -2 2 -1 1 -1 6 -3 1 -1 2 0 2 -1 11 0 2 1 1 0 6 3 1 1 4 2 2 2 2 1 1 2 2 1 4 4 1 2 8 8 1 2 6 6 1 2 8 8 1 2 2 2 2 1 2 2 1 2 2 1 2 2 4 2 1 1 6 3 1 1 2 0 2 1 9 0 2 -1 2 0 1 -1 2 0 4 -2 1 -1"/>
<path stroke="#DA70D6" d="M901 185l2 -1 2 -2 2 -1 7 -7 2 -1 1 -2 8 -8 1 -2 4 -4 2 -3 1 -2 8 -8 1 -2 2 -1 4 -4 1 -2 2 -1 2 -2 4 -2 1 -2 6 -3 1 0"/>
<path stroke="#EE82EE" d="M75 191l8 0 1 1 6 0 2 1 1 0 2 1 2 0 2 1 1 0 4 2 2 0 2 1 1 1 6 3 1 1 2 1 2 2 4 2 1 1 2 1 2 2 2 1 1 1 4 2 2 2 2 1 1 1 6 3 1 1 8 4 1 1 2 0 2 1 2 0 1 1 2 0 2 1 16 0 2 -1 2 0 1 -1 2 -1 2 0 4 -2 1 -1 2 0 4 -2 3 -3 6 -3 1 -1"/>
<path stroke="#EE82EE" d="M214 217l4 -2 3 -3 4 -2 2 -2 2 -1 1 -1 6 -3 1 -1 8 -4 1 -1 2 0 4 -2 1 0 2 -1 4 0 2 -1 9 0 1 1 4 0 2 1 1 0 4 2 2 0 2 1 1 1 6 3 1 1 8 4 3 3 4 2 1 1 2 1 2 2 4 2 1 1 6 3 1 1 8 4 1 1 2 1 2 0 2 1 1 0 2 1 6 0 1 1 6 0 2 -1 3 0"/>
<path stroke="#EE82EE" d="M362 231l2 -1 2 0 1 -1 2 0 4 -2 2 0 1 -1 6 -3 1 -1 6 -3 3 -3 6 -3 1 -2 8 -4 1 -2 6 -3 1 -1 8 -4 1 0 4 -2 2 0 1 -1 2 0 2 -1 5 0 2 -1 2 0 2 1 5 0 2 1 2 0 1 1 2 0 4 2 2 0 1 1 6 3 1 1 6 3 3 3 6 3 1 2 8 4 3 3 4 2 1 1 4 2"/>
<path stroke="#EE82EE" d="M508 225l2 0 2 1 1 1 2 1 2 0 2 1 1 0 2 1 2 0 2 1 11 0 1 -1 4 0 2 -1 1 0 4 -2 2 0 2 -1 1 -1 6 -3 1 -1 8 -4 1 -2 6 -3 3 -3 6 -3 1 -1 2 -1 2 -2 2 -1 1 -1 6 -3 2 0 1 -1 4 -2 2 0 1 -1 2 0 2 -1 16 0 2 1 2 0 1 1 2 0 6 3 1 0"/>
<path stroke="#EE82EE" d="M643 197l6 3 1 1 4 2 2 2 2 1 1 1 4 2 3 3 6 3 3 3 6 3 1 1 8 4 1 0 4 2 2 0 1 1 2 0 2 1 14 0 2 -1 2 0 2 -1 1 0 2 -1 2 0 4 -2 1 -1 6 -3 1 -1 8 -4 3 -3 4 -2 1 -1 2 -1 2 -2 4 -2 1 -1 6 -3 1 -1 8 -4 1 -1 2 -1 2 0 2 -1 1 0 2 -1"/>
<path stroke="#EE82EE" d="M789 192l2 0 2 -1 12 0 2 1 2 0 2 1 1 0 2 1 2 0 4 2 1 1 6 3 1 1 8 4 1 1 2 1 2 2 2 1 1 1 4 2 2 2 2 1 1 1 6 3 1 1 8 4 1 1 2 0 2 1 2 0 1 1 2 0 2 1 16 0 2 -1 2 0 1 -1 2 0 6 -3 1 -1 2 0 4 -2 1 -1 2 -1 2 -2 4 -2 1 -1 4 -2 3 -3"/>
<path stroke="#EE82EE" d="M933 209l6 -3 3 -3 6 -3 1 -1 8 -4 1 -1 2 0 4 -2 1 0"/>
<path stroke="#B03060" d="M75 323l17 0 1 1 6 0 1 1 6 0 2 1 1 0 2 1 4 0 1 1 2 0 2 1 2 0 2 1 1 0 2 1 2 0 2 1 1 1 2 0 2 1 2 0 2 1 1 0 4 2 2 0 1 1 2 0 2 1 4 0 1 1 2 0 2 1 3 0 2 1 9 0 2 1 5 0 2 -1 9 0 2 -1 5 0 2 -1 2 0 1 -1 2 0 2 -1 4 0 1 -1 2 0 4 -2"/>
<path stroke="#B03060" d="M220 335l1 0 2 -1 2 0 2 -1 2 0 1 -1 2 0 2 -1 2 0 1 -1 2 0 2 -1 2 0 2 -1 3 0 2 -1 3 0 2 -1 7 0 2 -1 11 0 2 1 7 0 2 1 3 0 2 1 3 0 2 1 2 0 2 1 2 0 1 1 2 0 2 1 2 0 1 1 2 0 2 1 2 0 2 1 1 1 2 0 2 1 2 0 1 1 2 0 2 1 4 0 1 1"/>
<path stroke="#B03060" d="M335 340l2 0 2 1 5 0 2 1 25 0 2 -1 3 0 2 -1 4 0 1 -1 2 0 2 -1 2 0 2 -1 1 0 2 -1 2 0 2 -1 1 0 2 -1 2 0 2 -1 2 0 1 -1 2 0 2 -1 2 0 1 -1 2 0 2 -1 2 0 2 -1 3 0 2 -1 3 0 2 -1 7 0 2 -1 13 0 1 1 6 0 2 1 5 0 2 1 1 0 2 1 2 0"/>
<path stroke="#B03060" d="M476 329l2 1 2 0 1 1 2 0 2 1 2 0 1 1 2 0 2 1 2 0 2 1 1 0 2 1 2 0 2 1 1 0 2 1 2 0 2 1 2 0 1 1 4 0 2 1 3 0 2 1 25 0 2 -1 3 0 2 -1 4 0 1 -1 2 0 2 -1 2 0 2 -1 1 0 2 -1 2 0 2 -1 1 0 2 -1 2 0 2 -1 2 0 1 -1 2 0 2 -1 2 0 1 -1"/>
<path stroke="#B03060" d="M593 330l2 0 2 -1 2 0 2 -1 3 0 2 -1 3 0 2 -1 6 0 1 -1 15 0 1 1 8 0 1 1 4 0 2 1 1 0 2 1 2 0 2 1 2 0 1 1 2 0 2 1 2 0 1 1 2 0 2 1 2 0 2 1 1 0 2 1 2 0 2 1 1 0 2 1 2 0 2 1 2 0 1 1 4 0 2 1 3 0 2 1 23 0 2 -1 5 0 2 -1 2 0 2 -1"/>
<path stroke="#B03060" d="M738 339l3 0 2 -1 2 0 2 -1 1 0 2 -1 2 0 2 -1 1 0 2 -1 2 0 2 -1 2 0 1 -1 2 0 2 -1 2 0 1 -1 2 0 2 -1 2 0 2 -1 1 0 2 -1 4 0 1 -1 8 0 1 -1 16 0 2 1 6 0 1 1 4 0 2 1 1 0 2 1 4 0 2 1 1 0 2 1 2 0 2 1 1 1 2 0 2 1 2 0 2 1 1 0"/>
<path stroke="#B03060" d="M853 335l2 1 2 0 2 1 1 0 2 1 2 0 2 1 2 0 1 1 4 0 2 1 5 0 2 1 21 0 2 -1 4 0 1 -1 4 0 2 -1 3 0 2 -1 2 0 2 -1 1 0 2 -1 2 0 2 -1 1 0 2 -1 2 0 4 -2 1 0 2 -1 2 0 2 -1 1 0 2 -1 4 0 2 -1 1 0 2 -1 4 0 1 -1"/>
</svg>
