<?xml version="1.0" standalone="yes"?>
<!DOCTYPE svg PUBLIC "-//W3C//DTD SVG 1.1//EN"
 "http://www.w3.org/Graphics/SVG/1.1/DTD/svg11.dtd">
<svg xmlns="http://www.w3.org/2000/svg" version="1.1"
  width="100%" height="100%" viewBox="0 0 1024 768"
  style="fill: none; font-family: Arial;
 font: Arial;
">

<!-- Creator: NGspice -->

<rect x="0" y="0" width="1024" height="768" fill="white" stroke="none"/>
<text stroke="none" fill="black" font-size="16" x="358" y="752">
Time(ns)
</text>
<text transform="rotate(-90, 20, 414)"  stroke="none" fill="black" font-size="16" x="20" y="414">
Output
</text>
<text stroke="none" fill="black" font-size="16" x="10" y="16">
tran21: OTA_2stage Transient Plot(ff)
</text>
<path stroke="black" d="M75 704l0 -636"/>
<text stroke="none" fill="black" font-size="16" x="60" y="728">
0.0
</text>
<path stroke="black" stroke-dasharray="1,2" d="M164 704l0 -636"/>
<text stroke="none" fill="black" font-size="16" x="144" y="728">
50.0
</text>
<path stroke="black" stroke-dasharray="1,2" d="M253 704l0 -636"/>
<text stroke="none" fill="black" font-size="16" x="228" y="728">
100.0
</text>
<path stroke="black" stroke-dasharray="1,2" d="M342 704l0 -636"/>
<text stroke="none" fill="black" font-size="16" x="317" y="728">
150.0
</text>
<path stroke="black" stroke-dasharray="1,2" d="M431 704l0 -636"/>
<text stroke="none" fill="black" font-size="16" x="406" y="728">
200.0
</text>
<path stroke="black" stroke-dasharray="1,2" d="M520 704l0 -636"/>
<text stroke="none" fill="black" font-size="16" x="495" y="728">
250.0
</text>
<path stroke="black" stroke-dasharray="1,2" d="M609 704l0 -636"/>
<text stroke="none" fill="black" font-size="16" x="584" y="728">
300.0
</text>
<path stroke="black" stroke-dasharray="1,2" d="M698 704l0 -636"/>
<text stroke="none" fill="black" font-size="16" x="673" y="728">
350.0
</text>
<path stroke="black" stroke-dasharray="1,2" d="M787 704l0 -636"/>
<text stroke="none" fill="black" font-size="16" x="762" y="728">
400.0
</text>
<path stroke="black" stroke-dasharray="1,2" d="M876 704l0 -636"/>
<text stroke="none" fill="black" font-size="16" x="851" y="728">
450.0
</text>
<path stroke="black" stroke-dasharray="1,2" d="M965 704l0 -636"/>
<text stroke="none" fill="black" font-size="16" x="940" y="728">
500.0
</text>
<text stroke="none" fill="black" font-size="16" x="614" y="752">
ns
</text>
<path stroke="black" d="M75 704l890 0"/>
<text stroke="none" fill="black" font-size="16" x="43" y="712">
0.0
</text>
<path stroke="black" stroke-dasharray="1,2" d="M75 598l890 0"/>
<text stroke="none" fill="black" font-size="16" x="43" y="606">
0.5
</text>
<path stroke="black" stroke-dasharray="1,2" d="M75 492l890 0"/>
<text stroke="none" fill="black" font-size="16" x="43" y="500">
1.0
</text>
<path stroke="black" stroke-dasharray="1,2" d="M75 386l890 0"/>
<text stroke="none" fill="black" font-size="16" x="43" y="394">
1.5
</text>
<path stroke="black" stroke-dasharray="1,2" d="M75 280l890 0"/>
<text stroke="none" fill="black" font-size="16" x="43" y="288">
2.0
</text>
<path stroke="black" stroke-dasharray="1,2" d="M75 174l890 0"/>
<text stroke="none" fill="black" font-size="16" x="43" y="182">
2.5
</text>
<path stroke="black" stroke-dasharray="1,2" d="M75 68l890 0"/>
<text stroke="none" fill="black" font-size="16" x="43" y="76">
3.0
</text>
<text stroke="none" fill="black" font-size="16" x="10" y="32">
V
</text>
<path stroke="red" d="M75 364l2 0 2 1 4 4 1 3 2 4 4 10 2 6 1 7 2 8 4 18 1 9 6 33 2 12 1 12 2 13 2 12 2 14 1 13 8 52 1 11 2 9 4 14 1 5 6 12 2 3 1 3 2 3 4 4 1 2 2 2 6 3 1 1 2 1 2 0 2 1 3 0 2 -1 2 0 2 -1 1 0 2 -1 2 -2 2 -1 5 -5 2 -3 2 -2 1 -3 2 -4"/>
<path stroke="red" d="M191 646l2 -3 2 -4 2 -5 1 -5 2 -6 2 -7 2 -9 1 -11 2 -12 6 -42 1 -14 6 -42 1 -13 4 -26 4 -24 1 -12 2 -10 2 -11 2 -9 1 -9 2 -8 4 -14 2 -5 1 -5 2 -4 2 -3 2 -2 1 -2 4 0 2 1 2 2 1 3 2 4 4 10 2 6 1 7 2 8 4 18 1 9 6 33 2 12 1 12"/>
<path stroke="red" d="M287 454l6 39 1 13 2 14 2 13 2 14 2 13 1 13 2 13 2 12 2 10 1 8 2 7 2 6 2 5 2 4 1 3 2 4 2 3 2 2 1 2 4 4 2 1 3 3 2 0 2 1 2 0 1 1 2 0 2 -1 2 0 2 -1 1 -1 4 -2 2 -2 2 -1 1 -3 2 -2 4 -6 1 -3 4 -8 2 -5 2 -6 1 -8 2 -9 2 -10 2 -13"/>
<path stroke="red" d="M382 581l1 -13 2 -13 2 -14 2 -15 2 -14 1 -14 6 -42 1 -13 6 -39 2 -11 1 -12 6 -30 1 -8 4 -16 4 -12 1 -4 2 -4 4 -6 1 -1 4 0 2 1 2 2 1 3 2 4 4 10 2 6 1 7 4 16 2 9 1 10 2 10 2 11 4 24 1 12 2 12 4 26 1 14 2 13 4 28 2 13 1 14"/>
<path stroke="red" d="M481 545l6 39 1 11 2 10 2 9 2 7 2 5 1 5 2 4 4 6 1 3 9 9 2 1 2 0 2 1 5 0 2 -1 2 0 3 -3 2 -1 4 -4 1 -2 6 -9 1 -5 2 -4 2 -6 2 -7 2 -8 1 -10 2 -11 4 -26 1 -14 8 -56 1 -15 4 -28 2 -13 1 -14 4 -26 4 -24 1 -11 2 -11 2 -10 2 -9"/>
<path stroke="red" d="M592 327l1 -8 2 -8 4 -14 2 -5 1 -5 2 -4 2 -3 3 -3 2 -1 2 0 4 4 1 3 2 3 4 10 2 7 1 6 4 16 2 10 1 9 2 11 2 10 4 24 1 12 2 13 2 12 2 14 1 13 2 14 2 13 4 28 1 13 2 14 4 26 1 12 2 12 2 11 2 10 2 7 1 7 2 5 4 8 1 3 2 3 7 7 6 3"/>
<path stroke="red" d="M697 649l5 0 4 -2 1 -1 2 -1 2 -2 2 -1 2 -3 1 -2 2 -3 4 -8 1 -5 2 -6 2 -7 2 -9 2 -11 1 -11 6 -39 1 -14 4 -28 2 -15 2 -14 1 -14 6 -42 1 -13 4 -26 4 -24 1 -11 2 -11 2 -10 2 -9 1 -8 2 -8 2 -7 4 -12 1 -4 2 -4 2 -3 2 -2 1 -2 4 0"/>
<path stroke="red" d="M791 257l2 1 2 3 3 6 4 10 2 6 1 7 2 7 4 18 1 10 2 10 4 22 2 12 1 12 6 39 1 13 2 14 2 13 4 28 1 13 2 14 4 26 1 13 4 24 2 11 2 10 1 8 2 7 2 6 2 5 1 3 2 4 2 2 2 3 2 1 1 2 6 3 5 0 2 -1 2 0 1 -2 2 -1 6 -6 1 -3 4 -8 2 -5 1 -7"/>
<path stroke="red" d="M901 610l2 -7 2 -9 4 -22 1 -12 4 -26 2 -14 1 -14 8 -56 1 -15 4 -28 2 -13 1 -14 2 -13 6 -36 1 -11 2 -11 2 -9 2 -10 1 -8 2 -8 2 -7 2 -6 2 -5 1 -5 4 -6 3 -3"/>
<path stroke="blue" d="M75 321l1 0 1 1 2 0 4 4 1 3 2 3 2 4 2 5 2 6 1 6 2 7 4 16 1 9 2 9 4 20 2 11 1 11 2 11 4 24 1 12 4 24 2 13 2 12 1 12 6 36 1 11 2 10 2 9 2 8 2 6 1 5 2 5 4 6 1 3 2 3 2 2 2 1 3 3 4 2 9 0 2 -1 1 -1 4 -2 4 -4 1 -2 6 -9 1 -4 2 -5"/>
<path stroke="blue" d="M191 626l2 -6 2 -7 2 -8 1 -10 4 -22 2 -13 1 -12 2 -13 2 -12 4 -26 1 -13 2 -13 2 -12 2 -13 1 -12 4 -24 4 -22 1 -10 2 -10 2 -9 2 -8 1 -8 2 -8 4 -12 2 -5 1 -5 4 -6 2 -2 1 -2 4 0 2 1 2 2 5 10 4 10 1 6 2 7 4 16 1 9 2 9 4 20"/>
<path stroke="blue" d="M284 393l2 11 1 11 2 11 4 24 1 12 2 12 2 13 4 24 1 13 6 36 1 11 4 22 4 18 1 7 4 10 2 4 1 3 4 6 2 2 2 1 1 2 4 2 2 0 1 1 2 0 2 -1 2 0 2 -1 1 -1 4 -2 2 -2 2 -3 1 -2 2 -3 4 -8 1 -5 2 -6 4 -16 2 -10 1 -11 2 -12 2 -11 2 -13 1 -12"/>
<path stroke="blue" d="M383 530l4 -26 2 -12 2 -13 1 -13 4 -26 2 -12 1 -12 4 -24 4 -22 1 -10 2 -10 2 -9 2 -8 1 -8 2 -8 4 -12 2 -5 1 -5 4 -6 3 -3 2 -1 2 0 2 1 2 2 1 3 2 3 2 4 2 5 2 6 1 6 4 14 2 8 1 9 2 9 4 20 2 11 1 11 2 12 2 11 2 12 1 12 2 13"/>
<path stroke="blue" d="M474 457l4 24 2 13 1 12 6 36 1 12 4 22 4 20 1 8 2 8 2 6 2 5 1 4 2 4 2 3 4 4 1 2 4 2 2 0 1 1 4 0 2 -1 2 0 1 -2 2 -1 6 -6 1 -3 4 -8 2 -6 1 -6 2 -7 2 -9 2 -10 2 -11 1 -11 2 -11 2 -12 2 -13 1 -12 4 -26 2 -12 2 -13 1 -13 4 -26"/>
<path stroke="blue" d="M574 424l2 -12 1 -12 4 -24 4 -22 1 -10 2 -9 2 -10 2 -8 1 -8 4 -14 2 -6 2 -5 1 -4 2 -4 2 -2 2 -3 1 -1 4 0 2 1 2 2 5 10 4 10 1 6 2 7 4 16 1 9 2 9 4 20 2 11 1 11 2 11 4 24 1 12 4 24 2 13 2 12 1 12 2 13 4 24 1 11 2 12 2 11"/>
<path stroke="blue" d="M670 561l4 20 1 10 4 16 2 6 1 5 2 5 4 6 2 2 1 2 2 2 4 2 7 0 2 -1 7 -7 2 -3 1 -4 2 -4 4 -12 1 -8 2 -8 4 -20 2 -11 1 -11 6 -36 1 -12 8 -52 1 -13 2 -13 2 -12 2 -13 1 -12 2 -12 6 -33 1 -10 2 -10 2 -9 2 -8 1 -8 2 -7 4 -12 2 -5"/>
<path stroke="blue" d="M779 271l1 -5 4 -6 3 -3 2 -1 2 0 2 1 2 2 1 3 2 3 2 4 4 10 1 7 2 6 4 16 1 9 2 9 4 20 2 11 1 11 2 11 4 24 1 12 4 24 2 13 2 12 1 13 6 36 1 12 6 33 2 10 1 9 4 18 2 7 1 6 2 6 4 8 2 3 1 2 2 2 4 2 1 0 2 1 2 -1 2 0 2 -1 1 -2 2 -1"/>
<path stroke="blue" d="M887 627l6 -9 1 -4 4 -12 2 -7 1 -8 2 -10 2 -9 4 -22 1 -11 6 -36 1 -12 8 -52 1 -13 2 -12 2 -13 2 -12 1 -13 2 -11 2 -12 2 -11 2 -10 1 -11 6 -27 1 -7 4 -14 2 -6 2 -5 1 -4 4 -6 3 -3"/>
<path stroke="#FFA500" d="M75 284l2 0 4 2 2 2 1 2 2 3 4 8 2 5 1 5 2 7 2 6 2 7 1 8 2 8 4 18 2 10 1 10 4 20 2 11 1 11 8 44 1 11 2 11 2 10 2 11 1 11 4 20 4 18 1 9 4 16 2 7 1 7 4 10 4 8 1 3 2 2 4 2 1 1 6 0 2 -1 1 -2 4 -4 2 -3 2 -4 1 -5 2 -5 4 -14"/>
<path stroke="#FFA500" d="M188 590l1 -7 2 -8 4 -18 2 -10 1 -10 2 -11 2 -10 2 -11 1 -11 2 -12 2 -11 2 -12 2 -11 1 -12 2 -11 2 -12 2 -11 1 -11 2 -10 2 -11 2 -10 2 -9 1 -9 2 -9 4 -16 1 -7 2 -7 2 -5 2 -6 2 -4 1 -4 2 -4 4 -4 1 -2 4 0 4 2 1 3 2 2 4 8"/>
<path stroke="#FFA500" d="M268 289l2 5 1 6 4 12 2 8 1 7 2 9 2 8 2 9 2 10 1 10 4 20 2 11 1 11 8 44 1 11 4 22 2 10 1 11 4 20 2 9 2 10 1 8 2 9 2 8 2 7 1 7 2 6 4 10 2 4 1 3 7 7 4 0 4 -2 1 -2 2 -2 2 -3 4 -8 1 -5 4 -12 2 -8 1 -7 6 -27 2 -10 1 -10 2 -10"/>
<path stroke="#FFA500" d="M378 515l4 -22 1 -11 2 -11 2 -12 2 -11 2 -12 1 -11 2 -12 4 -22 1 -11 2 -11 4 -20 2 -9 1 -10 6 -24 1 -7 2 -7 2 -6 4 -10 1 -3 2 -4 4 -4 1 -2 4 0 4 2 1 3 2 2 4 8 2 5 1 6 4 12 2 8 1 7 2 9 2 8 2 9 2 10 1 10 4 20 2 11 1 11"/>
<path stroke="#FFA500" d="M472 404l8 44 1 11 4 22 2 10 1 11 4 20 2 9 2 10 1 8 2 9 2 8 2 7 1 7 4 12 2 5 2 4 1 3 4 6 2 1 1 1 2 1 2 0 2 -1 2 -2 1 -2 2 -2 2 -3 2 -4 2 -5 1 -5 2 -6 4 -14 1 -8 2 -9 2 -8 2 -10 2 -9 1 -11 2 -10 4 -22 1 -11 2 -11 2 -12"/>
<path stroke="#FFA500" d="M565 448l2 -11 2 -12 1 -11 2 -12 4 -22 1 -11 2 -10 2 -11 2 -10 2 -9 1 -9 2 -9 4 -16 1 -7 4 -12 4 -10 1 -4 4 -6 3 -3 2 -1 2 1 2 0 2 2 1 2 2 3 4 8 2 5 1 5 2 6 4 14 1 8 2 8 6 27 1 10 2 10 2 11 2 10 1 11 8 44 1 11 6 33 1 10"/>
<path stroke="#FFA500" d="M666 491l6 30 2 9 1 9 6 24 1 7 4 12 2 5 2 4 1 4 2 3 5 5 2 1 2 -1 2 0 2 -2 1 -2 4 -6 2 -4 2 -5 1 -5 2 -7 2 -6 2 -8 1 -8 2 -8 4 -18 2 -10 1 -10 2 -10 4 -22 1 -11 2 -12 2 -11 2 -12 2 -11 1 -12 6 -33 1 -11 2 -11 4 -20 2 -9"/>
<path stroke="#FFA500" d="M763 319l1 -9 2 -9 4 -16 1 -7 4 -12 4 -10 1 -4 4 -6 3 -3 2 -1 2 1 2 0 2 2 1 2 2 3 4 8 2 5 1 5 2 6 4 14 1 8 2 8 6 27 1 10 4 20 2 11 1 11 8 44 1 11 4 22 2 10 1 11 6 30 2 9 1 9 6 24 1 7 4 12 2 5 2 4 1 4 4 6 3 3 4 0 4 -2"/>
<path stroke="#FFA500" d="M884 592l1 -2 2 -3 4 -8 2 -5 1 -5 2 -7 2 -6 2 -8 1 -8 2 -8 4 -18 2 -10 1 -10 2 -10 4 -22 1 -11 2 -12 2 -11 2 -12 2 -11 1 -12 6 -33 1 -11 2 -11 4 -20 2 -9 1 -9 2 -9 4 -16 1 -7 4 -12 4 -10 1 -4 2 -3 5 -5"/>
<path stroke="green" d="M75 251l4 0 2 1 2 2 1 2 4 6 4 8 1 5 2 5 4 12 1 7 4 14 2 8 2 9 1 8 6 27 1 10 2 10 2 9 4 20 1 9 4 20 2 9 1 9 6 27 2 8 1 8 6 21 1 6 2 6 2 5 2 4 2 5 1 3 2 3 5 5 2 1 2 0 4 -2 1 -2 6 -9 2 -5 1 -5 2 -5 4 -12 1 -7 2 -8 2 -7 2 -9"/>
<path stroke="green" d="M195 492l2 -8 1 -9 2 -9 2 -10 2 -9 1 -10 8 -40 1 -10 6 -30 1 -9 2 -10 2 -9 2 -8 2 -9 1 -8 2 -7 2 -8 2 -6 1 -7 2 -6 4 -10 2 -4 1 -3 4 -6 2 -1 1 -2 6 0 2 2 1 2 2 2 2 3 4 8 1 5 2 5 4 12 1 7 2 7 2 8 2 7 2 9 1 8 4 18 2 10 1 9"/>
<path stroke="green" d="M294 366l2 10 2 9 4 20 1 9 4 20 2 9 1 9 6 27 2 8 1 8 6 21 1 6 2 6 4 10 2 4 1 3 4 6 2 1 1 2 4 0 4 -2 1 -2 2 -2 2 -4 2 -3 2 -5 1 -4 6 -18 1 -7 2 -8 2 -7 2 -9 2 -8 1 -9 2 -9 2 -10 2 -9 1 -10 8 -40 1 -10 6 -30 1 -9 8 -36 1 -8"/>
<path stroke="green" d="M408 295l6 -21 1 -6 2 -6 4 -10 2 -4 1 -4 2 -3 5 -5 2 -1 2 0 4 2 1 2 6 9 2 4 1 5 2 5 4 12 1 7 2 7 6 24 1 9 6 27 1 9 4 20 2 9 2 10 1 10 2 9 2 10 2 9 1 10 2 9 2 8 2 9 2 8 1 8 2 7 2 8 2 6 1 6 2 6 4 10 2 4 1 4 2 3 5 5 6 0 2 -2"/>
<path stroke="green" d="M528 543l1 -2 2 -2 2 -3 4 -8 1 -5 2 -6 2 -5 2 -7 1 -7 2 -7 4 -16 2 -9 1 -9 4 -18 2 -10 1 -10 8 -40 1 -10 2 -10 2 -9 2 -10 1 -10 6 -27 2 -8 1 -8 2 -8 4 -14 1 -6 2 -6 2 -5 2 -4 2 -5 1 -3 2 -3 5 -5 2 -1 2 0 4 2 1 2 2 2 2 3"/>
<path stroke="green" d="M622 236l4 8 1 5 2 5 4 12 1 7 2 7 2 8 2 7 2 9 1 8 6 27 1 10 2 10 2 9 4 20 1 9 4 20 2 9 1 9 6 27 2 8 1 8 6 21 1 6 2 6 4 10 2 4 1 3 4 6 2 1 1 2 4 0 4 -2 1 -2 2 -2 2 -4 2 -3 2 -5 1 -5 2 -5 4 -12 1 -7 2 -8 2 -7 2 -9 2 -8 1 -9"/>
<path stroke="green" d="M732 449l2 -9 2 -10 2 -9 1 -10 8 -40 1 -10 4 -20 2 -9 1 -10 6 -27 2 -8 1 -8 2 -8 4 -14 1 -6 2 -6 2 -5 2 -4 2 -5 1 -3 2 -3 5 -5 2 -1 2 0 4 2 1 2 2 2 2 3 4 8 1 5 2 5 4 12 1 7 4 14 2 8 2 9 1 8 6 27 1 10 2 9 4 20 2 9 1 10"/>
<path stroke="green" d="M837 389l2 10 2 9 2 10 1 9 4 18 2 8 2 9 1 7 2 8 4 14 1 6 2 5 2 6 4 8 1 4 2 3 5 5 2 1 2 0 4 -2 1 -2 6 -9 2 -5 1 -5 2 -5 2 -6 2 -7 1 -6 8 -32 1 -9 2 -9 2 -10 2 -9 1 -10 8 -40 1 -10 4 -20 2 -9 1 -10 6 -27 2 -8 1 -8 2 -8 4 -14"/>
<path stroke="green" d="M948 249l1 -6 2 -5 2 -6 4 -8 1 -4 2 -3 5 -5"/>
<path stroke="#FFC0C5" d="M75 222l2 0 6 3 1 2 2 2 6 9 1 4 6 15 1 6 4 12 4 14 1 8 2 7 4 16 1 8 2 8 2 9 2 8 2 9 1 8 4 16 2 9 1 8 2 7 2 8 2 7 2 8 1 6 2 7 4 12 1 5 4 10 2 4 2 3 1 4 7 7 2 1 2 0 4 -2 1 -2 4 -4 2 -3 2 -4 1 -4 6 -15 1 -6 2 -7 2 -6 2 -7"/>
<path stroke="#FFC0C5" d="M195 432l2 -8 1 -7 6 -24 1 -9 2 -8 2 -9 2 -8 2 -9 1 -9 2 -8 2 -9 2 -8 1 -8 4 -16 2 -7 2 -8 1 -7 2 -6 2 -7 2 -5 1 -6 4 -10 2 -4 2 -3 1 -3 2 -3 5 -5 2 -1 2 0 4 2 3 3 4 6 2 4 1 4 2 4 4 10 1 6 2 6 2 7 2 6 2 7 1 8 2 7 4 16"/>
<path stroke="#FFC0C5" d="M293 313l1 8 2 8 2 9 4 16 1 9 4 16 2 9 1 8 2 7 2 8 4 14 1 7 2 7 4 12 1 5 4 10 2 4 2 3 1 4 7 7 2 1 2 0 4 -2 1 -2 4 -4 2 -4 2 -3 1 -4 6 -15 1 -6 2 -7 2 -6 2 -7 2 -8 1 -7 6 -24 1 -9 2 -8 2 -9 2 -8 2 -9 1 -9 2 -8 2 -9 2 -8"/>
<path stroke="#FFC0C5" d="M398 309l1 -8 4 -16 2 -7 2 -8 1 -7 6 -18 1 -6 2 -5 6 -12 1 -3 2 -3 5 -5 6 0 2 1 1 2 4 4 2 3 2 4 1 4 2 4 4 10 1 6 2 6 2 7 2 6 2 8 1 7 2 7 4 16 1 8 2 9 4 16 2 9 1 8 2 8 2 9 2 8 1 8 2 7 2 8 2 7 2 8 1 6 2 7 4 12 1 5 4 10"/>
<path stroke="#FFC0C5" d="M508 459l4 8 1 3 7 7 2 1 2 0 4 -2 1 -1 2 -3 2 -2 2 -3 2 -4 1 -4 6 -15 1 -6 2 -7 2 -6 2 -7 2 -8 1 -7 6 -24 1 -9 2 -8 2 -9 2 -8 2 -9 1 -8 2 -9 2 -8 2 -9 1 -8 4 -16 4 -14 1 -7 2 -7 4 -12 1 -5 4 -10 4 -8 1 -3 2 -2 2 -3 2 -1"/>
<path stroke="#FFC0C5" d="M608 206l1 -1 2 -1 2 0 4 2 3 3 6 9 1 4 6 15 1 6 4 12 4 14 1 7 4 16 2 7 1 9 6 24 2 9 1 8 2 9 4 16 1 8 2 8 2 7 2 8 2 7 1 7 6 18 1 6 2 5 6 12 1 3 2 3 2 2 2 1 1 1 2 1 2 0 4 -2 3 -3 4 -6 2 -4 1 -4 6 -15 1 -6 2 -6 6 -21 1 -8"/>
<path stroke="#FFC0C5" d="M732 396l6 -24 1 -8 2 -9 2 -8 2 -9 2 -8 1 -9 2 -9 4 -16 1 -8 6 -24 2 -7 1 -7 2 -6 2 -7 2 -5 1 -6 2 -5 6 -12 1 -3 2 -3 2 -2 2 -1 1 -2 6 0 2 1 1 2 4 4 2 3 2 4 1 4 2 4 4 10 1 6 2 6 2 7 2 6 2 7 1 8 2 7 4 16 1 8 2 8 2 9 4 16"/>
<path stroke="#FFC0C5" d="M836 334l1 9 6 24 1 8 4 16 4 14 1 7 2 7 4 12 1 5 2 5 2 4 2 5 2 3 1 3 2 3 5 5 6 0 2 -1 1 -2 2 -2 6 -9 1 -5 2 -4 2 -5 2 -6 1 -6 2 -6 6 -21 1 -7 6 -24 1 -9 2 -8 2 -9 2 -8 2 -9 1 -8 2 -9 2 -8 2 -9 1 -8 4 -16 4 -14 1 -7 2 -7"/>
<path stroke="#FFC0C5" d="M944 237l4 -12 1 -5 4 -10 2 -4 2 -3 1 -3 2 -3 4 -4 1 0"/>
<path stroke="#A52A2A" d="M75 199l4 0 4 2 5 5 4 6 1 3 6 12 1 5 2 5 2 6 2 5 2 6 1 6 2 7 2 6 2 7 1 7 2 6 6 21 1 8 4 14 2 6 1 7 2 7 6 18 1 6 2 6 4 10 1 5 4 8 4 6 1 3 7 7 6 0 2 -1 5 -5 4 -6 1 -3 6 -12 1 -5 2 -6 2 -5 4 -12 1 -6 2 -7 2 -6 2 -7 1 -7"/>
<path stroke="#A52A2A" d="M205 337l2 -7 2 -8 4 -14 1 -7 2 -7 2 -8 2 -7 1 -6 4 -14 4 -12 1 -6 2 -6 4 -10 1 -5 6 -12 2 -3 1 -2 2 -3 2 -2 2 -1 1 -1 2 -1 4 0 2 1 5 5 2 3 2 2 1 4 2 3 2 4 2 5 1 5 4 10 4 12 1 6 2 6 2 7 2 6 1 7 8 28 1 7 6 21 1 7 2 6"/>
<path stroke="#A52A2A" d="M312 350l2 7 4 12 1 6 6 15 1 5 6 12 2 3 1 3 4 4 2 1 1 1 2 1 2 0 2 -1 2 0 1 -2 2 -1 2 -3 2 -2 2 -3 1 -3 4 -8 2 -5 1 -5 2 -5 2 -6 2 -5 2 -7 1 -6 2 -6 4 -14 1 -7 8 -28 1 -8 6 -21 1 -7 2 -7 2 -6 2 -7 2 -6 1 -6 6 -15 1 -5"/>
<path stroke="#A52A2A" d="M415 215l6 -12 2 -3 1 -3 4 -4 2 -1 1 -1 2 -1 4 0 2 1 7 7 2 3 1 3 6 12 1 5 2 5 2 6 2 5 2 6 1 6 2 7 2 6 2 7 1 7 2 6 4 14 2 8 1 7 4 14 2 6 1 7 2 7 6 18 1 6 2 6 4 10 1 5 4 8 4 6 1 3 7 7 6 0 2 -1 5 -5 4 -6 1 -3 6 -12 1 -5"/>
<path stroke="#A52A2A" d="M545 382l2 -6 2 -5 4 -12 1 -6 2 -7 2 -6 2 -7 1 -7 4 -14 2 -8 2 -7 1 -7 6 -21 1 -7 4 -14 4 -12 1 -6 2 -5 2 -6 2 -5 1 -4 2 -5 2 -4 4 -6 1 -3 7 -7 6 0 2 1 7 7 2 3 1 3 6 12 1 5 4 10 4 12 1 6 2 6 2 7 2 6 1 7 8 28 1 7 6 21"/>
<path stroke="#A52A2A" d="M665 326l1 7 2 6 2 7 4 12 1 6 2 5 2 6 2 5 1 4 6 12 2 3 1 3 4 4 2 1 1 1 2 1 4 0 2 -1 1 -2 2 -1 2 -2 4 -6 1 -3 4 -8 2 -5 1 -5 4 -10 4 -12 1 -7 2 -6 4 -14 1 -7 8 -28 1 -7 2 -8 4 -14 1 -7 2 -6 2 -7 4 -12 1 -6 2 -6 4 -10"/>
<path stroke="#A52A2A" d="M770 209l1 -5 4 -8 4 -6 1 -3 7 -7 6 0 2 1 1 1 2 1 2 2 4 6 1 3 6 12 1 5 4 10 4 12 1 6 2 6 2 7 2 6 1 7 8 28 1 7 6 21 1 6 4 14 4 12 1 6 6 15 1 5 6 12 2 3 1 2 2 3 2 2 2 1 1 1 2 1 2 0 4 -2 7 -7 2 -3 1 -4 2 -3 2 -5 2 -4 1 -5"/>
<path stroke="#A52A2A" d="M901 371l2 -5 6 -18 1 -6 2 -6 4 -14 1 -7 8 -28 1 -8 6 -21 1 -7 2 -6 2 -7 4 -12 1 -6 2 -6 4 -10 1 -5 4 -8 4 -6 1 -3 6 -6 1 0"/>
<path stroke="#F0E68C" d="M75 180l4 0 4 2 1 1 2 1 6 6 1 3 4 6 2 4 1 3 2 5 4 8 2 5 1 5 2 5 2 6 2 5 1 6 2 5 4 12 2 5 1 6 2 6 2 5 2 6 1 6 4 10 2 6 2 4 1 5 2 5 4 8 1 4 2 4 4 6 2 2 1 3 2 2 2 1 3 3 6 0 2 -1 1 0 2 -2 2 -1 2 -2 2 -3 1 -3 6 -9 1 -4 2 -5"/>
<path stroke="#F0E68C" d="M191 335l2 -4 4 -10 1 -5 4 -10 2 -6 1 -6 2 -5 6 -18 1 -6 2 -6 2 -5 2 -6 1 -6 2 -5 2 -6 4 -10 1 -5 2 -4 2 -5 2 -4 1 -4 2 -4 4 -6 2 -2 1 -3 2 -2 2 -1 3 -3 8 0 1 1 2 1 6 6 1 3 6 9 1 4 2 4 2 5 2 4 2 5 1 5 4 10 2 6 1 5 4 12"/>
<path stroke="#F0E68C" d="M298 258l2 5 2 6 1 6 2 5 4 12 1 5 2 6 6 15 1 5 2 5 4 8 1 4 2 3 2 4 2 3 2 2 1 2 4 4 2 1 1 1 2 1 4 0 2 -1 1 -1 2 -1 6 -6 1 -3 4 -6 2 -4 1 -4 4 -8 4 -10 1 -5 2 -5 2 -6 2 -5 1 -6 2 -6 2 -5 4 -12 1 -6 4 -12 2 -5 1 -6 2 -6"/>
<path stroke="#F0E68C" d="M401 232l6 -15 1 -5 2 -5 4 -8 1 -4 2 -4 6 -9 1 -2 4 -4 2 -1 1 -1 2 0 2 -1 2 1 2 0 1 1 2 1 6 6 1 3 2 2 2 4 2 3 1 4 4 8 4 10 1 5 6 15 1 6 2 6 2 5 4 12 1 6 2 5 4 12 1 5 2 6 6 15 1 5 2 4 2 5 2 4 1 4 8 12 1 2 4 4 2 1 1 1"/>
<path stroke="#F0E68C" d="M520 356l2 0 2 1 2 -1 2 0 1 -1 2 -1 6 -6 1 -3 4 -6 2 -4 1 -4 2 -4 2 -5 2 -4 2 -5 1 -5 2 -5 2 -6 2 -5 1 -6 4 -12 2 -5 2 -6 1 -6 6 -18 1 -5 2 -6 6 -15 1 -5 2 -5 4 -8 1 -4 2 -4 6 -9 1 -2 4 -4 2 -1 1 -1 2 0 2 -1 2 0 2 1"/>
<path stroke="#F0E68C" d="M617 170l1 1 2 1 6 6 1 2 2 3 2 4 2 3 1 4 4 8 4 10 1 4 2 6 4 10 1 6 2 5 6 18 1 5 4 12 2 5 1 6 2 5 2 6 4 10 1 4 2 5 4 8 1 4 2 4 6 9 1 2 4 4 2 1 1 1 8 0 3 -3 2 -1 2 -2 2 -3 1 -2 2 -3 2 -4 2 -3 1 -4 2 -4 2 -5 2 -4 2 -5 1 -5"/>
<path stroke="#F0E68C" d="M732 304l2 -6 2 -5 2 -6 1 -5 6 -18 2 -5 1 -6 6 -18 1 -5 2 -6 4 -10 2 -6 1 -4 2 -5 4 -8 1 -4 2 -4 6 -9 1 -2 4 -4 2 -1 1 -1 2 0 2 -1 2 0 2 1 1 1 2 1 6 6 1 2 2 3 2 4 2 3 1 4 4 8 2 5 2 4 1 5 2 5 2 6 2 5 1 6 2 5 4 12 2 5"/>
<path stroke="#F0E68C" d="M836 256l1 6 4 12 2 5 1 6 4 10 2 6 2 5 1 4 2 5 4 8 1 4 2 4 6 9 1 2 2 2 2 1 3 3 6 0 2 -1 1 0 2 -2 2 -1 2 -2 2 -3 1 -2 2 -3 2 -4 2 -3 1 -4 2 -5 2 -4 2 -5 2 -4 1 -6 4 -10 2 -6 1 -5 8 -24 1 -5 6 -18 1 -5 2 -6 2 -5 2 -6 2 -5"/>
<path stroke="#F0E68C" d="M941 204l1 -4 2 -5 2 -4 2 -5 1 -3 2 -4 6 -9 1 -2 4 -4 2 -1 1 -1"/>
<path stroke="#DDA0DD" d="M75 167l4 0 2 1 2 0 1 1 4 2 4 4 1 2 4 4 2 3 1 3 2 3 2 4 2 3 2 4 1 4 6 12 1 4 2 5 2 4 2 5 2 4 1 5 2 4 2 5 2 4 1 5 8 16 1 4 2 4 4 6 1 4 2 2 2 3 2 2 2 3 3 3 2 1 2 2 1 0 2 1 6 0 1 -1 4 -2 2 -2 2 -1 1 -2 2 -3 2 -2 2 -3 1 -3"/>
<path stroke="#DDA0DD" d="M189 294l2 -3 2 -4 2 -3 2 -4 1 -4 6 -12 1 -5 2 -4 2 -5 2 -4 2 -5 1 -5 2 -4 2 -5 2 -4 1 -5 2 -4 2 -5 4 -8 1 -4 2 -3 2 -4 2 -3 1 -3 4 -6 2 -2 2 -3 1 -2 2 -1 2 -2 2 -1 1 -1 8 0 1 1 2 0 2 2 2 1 2 2 1 2 4 4 2 3 1 3 4 6 4 8"/>
<path stroke="#DDA0DD" d="M286 198l1 4 6 12 1 4 2 5 2 4 2 5 2 4 1 5 2 4 2 5 2 4 1 4 2 5 6 12 1 4 2 3 2 4 2 3 1 3 4 6 4 4 1 2 2 2 4 2 1 1 2 1 4 0 2 -1 1 0 4 -2 4 -4 1 -2 4 -4 2 -3 1 -3 2 -3 2 -4 2 -3 2 -4 1 -4 4 -8 2 -5 1 -4 2 -5 2 -4 2 -5 2 -4"/>
<path stroke="#DDA0DD" d="M391 238l1 -5 2 -5 2 -4 2 -5 1 -4 2 -4 2 -5 4 -8 1 -4 2 -3 2 -4 2 -3 1 -4 2 -2 4 -6 2 -2 1 -2 2 -1 2 -2 2 -1 1 -1 2 0 2 -1 2 1 3 0 4 2 4 4 1 2 4 4 2 3 1 3 4 6 4 8 1 3 4 8 2 5 1 4 2 4 2 5 2 4 2 5 1 4 2 5 2 4 2 5 1 4 2 5"/>
<path stroke="#DDA0DD" d="M490 260l6 12 1 4 2 3 2 4 2 3 1 3 4 6 4 4 1 2 2 2 4 2 1 1 2 0 2 1 2 0 2 -1 1 0 2 -1 2 -2 2 -1 2 -2 1 -2 2 -2 2 -3 2 -2 1 -3 2 -4 2 -3 2 -4 2 -3 1 -4 2 -4 2 -5 2 -4 1 -4 2 -5 2 -4 4 -10 1 -4 2 -5 2 -4 2 -5 1 -4 2 -5 6 -12"/>
<path stroke="#DDA0DD" d="M585 195l1 -4 2 -4 2 -3 2 -4 1 -3 2 -3 2 -2 2 -3 2 -2 1 -2 2 -1 2 -2 2 -1 1 -1 2 0 2 -1 2 0 2 1 1 0 4 2 2 2 2 1 1 2 2 3 2 2 2 3 1 3 4 6 2 4 2 3 1 4 4 8 2 5 1 4 2 4 2 5 2 4 2 5 1 4 2 5 2 4 2 5 1 4 2 4 2 5 4 8 1 3 4 8"/>
<path stroke="#DDA0DD" d="M679 280l2 3 1 3 2 3 2 2 2 3 2 2 1 2 2 1 2 2 2 1 1 1 8 0 1 -1 6 -3 2 -2 1 -2 2 -2 4 -6 1 -3 4 -6 4 -8 1 -4 6 -12 1 -4 2 -5 2 -4 4 -10 1 -4 2 -5 2 -4 2 -5 1 -4 2 -5 6 -12 1 -4 2 -4 2 -3 2 -4 1 -3 2 -3 2 -2 2 -3 2 -2 1 -2"/>
<path stroke="#DDA0DD" d="M780 162l2 -2 4 -2 1 -1 2 0 2 -1 2 0 2 1 1 0 4 2 2 2 2 1 1 2 2 3 2 2 2 3 1 3 4 6 2 4 2 3 1 4 6 12 1 5 2 4 2 5 2 4 2 5 1 4 2 5 2 4 2 5 1 4 8 16 1 4 2 4 2 3 2 4 1 3 2 3 2 2 2 3 2 2 1 2 2 1 2 2 2 1 1 1 8 0 1 -1 6 -3 2 -2"/>
<path stroke="#DDA0DD" d="M893 294l1 -2 2 -2 4 -6 1 -3 4 -6 4 -8 1 -4 6 -12 1 -5 2 -4 2 -5 2 -4 2 -5 1 -4 4 -10 2 -4 1 -5 8 -16 1 -4 2 -4 2 -3 2 -4 1 -3 2 -3 2 -2 2 -3 2 -2 1 -2 2 -2 4 -2 1 -1"/>
<path stroke="#DA70D6" d="M75 163l6 0 2 1 1 0 8 4 1 2 2 1 4 4 1 2 2 3 2 2 2 3 2 2 1 3 6 9 1 4 4 6 2 4 2 3 1 3 2 4 4 6 1 4 8 12 1 3 4 6 2 2 1 2 2 3 4 4 2 1 1 2 6 3 1 1 2 0 2 1 2 0 2 -1 1 0 2 -1 2 0 2 -1 5 -5 2 -1 2 -2 1 -3 4 -4 4 -6 1 -3 6 -9"/>
<path stroke="#DA70D6" d="M204 237l1 -3 2 -3 2 -4 2 -3 2 -4 1 -3 2 -4 4 -6 1 -4 8 -12 1 -3 6 -9 1 -2 8 -8 1 -2 6 -3 1 -1 2 0 2 -1 4 0 1 1 2 0 6 3 1 2 2 1 4 4 1 2 2 2 2 3 2 2 2 3 1 3 6 9 1 3 2 4 4 6 2 4 1 3 2 3 2 4 2 3 1 3 2 4 6 9 1 3 2 3 2 2"/>
<path stroke="#DA70D6" d="M323 251l2 3 1 2 11 11 4 2 1 0 2 1 7 0 8 -4 7 -7 1 -2 2 -2 2 -3 2 -2 2 -3 1 -3 6 -9 1 -3 2 -4 2 -3 2 -4 2 -3 1 -3 2 -4 2 -3 2 -4 1 -3 2 -3 2 -4 4 -6 1 -3 2 -3 2 -2 2 -3 1 -2 2 -2 2 -3 2 -2 2 -1 1 -2 6 -3 1 -1 2 -1 6 0"/>
<path stroke="#DA70D6" d="M439 160l1 1 2 0 6 3 7 7 1 2 2 2 2 3 2 2 2 3 1 3 6 9 1 3 2 3 2 4 4 6 1 4 4 6 2 4 1 3 2 3 2 4 4 6 1 2 4 6 2 2 1 3 9 9 2 1 2 2 2 0 1 1 2 1 6 0 1 -1 2 0 6 -3 1 -2 2 -1 4 -4 1 -2 2 -3 2 -2 2 -3 2 -2 1 -3 6 -9 1 -4 4 -6 2 -4"/>
<path stroke="#DA70D6" d="M567 219l2 -3 1 -4 2 -3 2 -4 2 -3 1 -3 2 -4 6 -9 1 -3 2 -3 2 -2 2 -3 1 -2 2 -3 7 -7 2 -1 2 -2 2 -1 1 0 2 -1 7 0 8 4 5 5 2 1 1 3 4 4 4 6 1 2 4 6 2 4 1 3 4 6 2 4 2 3 1 3 2 4 2 3 2 4 1 3 8 12 1 3 4 6 2 2 1 3 6 6 2 1 1 2"/>
<path stroke="#DA70D6" d="M691 261l6 3 1 1 2 0 2 1 4 0 1 -1 2 0 6 -3 1 -2 2 -2 2 -1 2 -2 1 -2 2 -3 2 -2 4 -6 1 -2 2 -3 2 -4 2 -3 1 -3 2 -3 2 -4 4 -6 1 -4 2 -3 2 -4 2 -3 1 -4 8 -12 1 -3 4 -6 2 -2 1 -3 11 -11 4 -2 1 0 2 -1 7 0 2 1 2 0 2 1 5 5 2 1"/>
<path stroke="#DA70D6" d="M809 164l2 2 1 2 2 3 2 2 2 3 2 2 1 3 6 9 1 3 2 4 4 6 2 4 1 3 2 4 4 6 1 4 8 12 1 3 2 3 2 2 2 3 1 2 2 3 2 2 2 1 2 2 1 2 6 3 1 1 9 0 8 -4 7 -7 1 -2 2 -2 2 -3 2 -2 2 -3 1 -3 6 -9 1 -3 2 -4 4 -6 2 -4 1 -3 2 -4 4 -6 1 -4 8 -12"/>
<path stroke="#DA70D6" d="M941 182l1 -3 6 -9 1 -2 8 -8 1 -2 6 -3 1 -1"/>
<path stroke="#EE82EE" d="M75 175l8 0 1 1 2 0 2 1 2 0 2 1 1 1 2 1 2 2 2 1 3 3 2 1 4 4 1 2 6 6 1 3 6 6 2 3 1 2 2 2 2 3 2 2 1 2 2 3 6 6 1 2 6 6 1 2 2 1 2 2 2 1 3 3 4 2 2 0 1 1 2 0 2 1 5 0 2 -1 2 0 4 -2 1 -1 6 -3 5 -5 2 -1 2 -2 1 -2 6 -6 1 -3 4 -4"/>
<path stroke="#EE82EE" d="M209 222l2 -3 2 -2 1 -2 2 -3 4 -4 1 -3 4 -4 2 -3 2 -2 1 -2 11 -11 4 -2 1 -2 4 -2 2 0 1 -1 2 0 2 -1 7 0 4 2 2 0 1 1 4 2 3 3 2 1 6 6 1 2 6 6 1 2 2 2 2 3 4 4 1 3 4 4 2 3 1 2 2 2 2 3 4 4 1 2 9 9 2 1 2 2 2 1 1 1 6 3 1 0 2 1"/>
<path stroke="#EE82EE" d="M344 250l9 0 2 -1 2 0 2 -1 1 -1 4 -2 3 -3 2 -1 6 -6 1 -2 6 -6 1 -2 2 -2 2 -3 4 -4 1 -3 2 -2 2 -3 2 -2 1 -2 2 -3 6 -6 1 -2 6 -6 1 -2 2 -2 2 -1 2 -2 2 -1 1 -1 6 -3 1 0 2 -1 11 0 4 2 1 1 6 3 5 5 2 1 2 2 1 2 6 6 1 3 6 6"/>
<path stroke="#EE82EE" d="M478 205l2 3 1 2 2 2 2 3 2 2 1 2 2 3 6 6 1 2 6 6 1 2 2 1 2 2 2 1 3 3 4 2 2 0 1 1 2 0 2 1 5 0 2 -1 2 0 4 -2 1 -1 6 -3 5 -5 2 -1 2 -2 1 -2 6 -6 1 -3 4 -4 2 -3 2 -2 1 -2 2 -3 4 -4 1 -3 4 -4 2 -3 2 -2 1 -2 11 -11 4 -2 1 -2"/>
<path stroke="#EE82EE" d="M602 176l4 -2 2 0 1 -1 2 0 2 -1 5 0 2 1 2 0 2 1 2 0 1 1 4 2 5 5 2 1 4 4 1 2 6 6 1 2 2 2 2 3 4 4 1 3 4 4 2 3 1 2 2 2 2 3 4 4 1 2 9 9 2 1 2 2 2 1 1 1 6 3 1 0 2 1 9 0 2 -1 2 0 2 -1 1 -1 6 -3 1 -2 2 -1 6 -6 1 -2 6 -6 1 -2"/>
<path stroke="#EE82EE" d="M739 222l2 -2 2 -3 4 -4 1 -3 2 -2 2 -3 2 -2 1 -2 2 -3 6 -6 1 -2 6 -6 1 -2 2 -2 2 -1 2 -2 2 -1 1 -1 6 -3 1 0 2 -1 11 0 4 2 1 1 6 3 1 2 2 1 2 2 2 1 2 2 1 2 6 6 1 3 6 6 2 3 1 2 2 3 4 4 1 3 8 8 1 2 6 6 1 2 2 1 2 2 2 1 3 3"/>
<path stroke="#EE82EE" d="M869 242l4 2 2 0 1 1 2 0 2 1 5 0 2 -1 2 0 4 -2 1 0 2 -2 4 -2 5 -5 2 -1 2 -2 1 -2 6 -6 1 -3 6 -6 2 -3 1 -2 2 -3 4 -4 1 -3 4 -4 2 -3 2 -2 1 -2 11 -11 4 -2 1 -2 2 -1 2 0 2 -1 1 -1"/>
<path stroke="#B03060" d="M75 220l9 0 2 1 4 0 2 1 1 0 6 3 1 0 8 4 1 2 6 3 1 2 2 1 2 2 4 2 1 2 2 1 2 2 2 1 1 2 2 1 2 2 4 2 1 2 6 3 1 2 6 3 2 0 1 1 4 2 2 0 1 1 15 0 2 -1 1 0 2 -1 2 0 2 -1 1 -1 8 -4 1 -1 4 -2 3 -3 2 -1 2 -2 2 -1 3 -3 2 -1 2 -2 2 -1"/>
<path stroke="#B03060" d="M220 243l1 -2 2 -1 2 -2 2 -1 3 -3 4 -2 3 -3 8 -4 1 -1 2 0 4 -2 3 0 2 -1 11 0 2 1 1 0 2 1 2 0 2 1 1 1 8 4 1 1 4 2 3 3 2 1 2 2 2 1 5 5 4 2 1 2 2 1 2 2 2 1 3 3 4 2 3 3 8 4 1 0 4 2 2 0 1 1 6 0 2 1 1 0 2 -1 6 0 1 -1 2 0 4 -2"/>
<path stroke="#B03060" d="M366 264l1 -1 2 0 6 -3 1 -2 6 -3 1 -2 4 -2 2 -2 2 -1 1 -2 2 -1 2 -2 2 -1 1 -2 2 -1 2 -2 4 -2 1 -2 6 -3 1 -2 8 -4 1 0 4 -2 2 0 1 -1 2 0 2 -1 9 0 2 1 3 0 4 2 2 0 1 1 8 4 1 1 2 1 2 2 2 1 3 3 4 2 5 5 2 1 5 5 4 2 3 3 2 1"/>
<path stroke="#B03060" d="M499 255l2 2 2 1 1 1 8 4 1 1 2 0 2 1 2 0 1 1 4 0 2 1 5 0 2 -1 4 0 1 -1 2 0 4 -2 1 0 8 -4 3 -3 4 -2 1 -2 4 -2 2 -2 2 -1 1 -2 2 -1 2 -2 2 -1 3 -3 2 -1 2 -2 2 -1 1 -2 6 -3 3 -3 4 -2 2 0 1 -1 4 -2 2 0 1 -1 4 0 2 -1 5 0 2 1"/>
<path stroke="#B03060" d="M622 220l4 0 1 1 2 0 2 1 2 0 1 1 8 4 1 1 2 1 2 2 2 1 3 3 2 1 2 2 2 1 3 3 2 1 5 5 2 1 2 2 2 1 3 3 4 2 1 1 8 4 1 1 2 0 4 2 3 0 2 1 9 0 2 -1 2 0 1 -1 2 0 2 -1 2 0 1 -1 8 -4 1 -1 2 -1 2 -2 2 -1 3 -3 2 -1 2 -2 2 -1 3 -3 2 -1"/>
<path stroke="#B03060" d="M752 242l5 -5 2 -1 2 -2 2 -1 3 -3 4 -2 1 -1 8 -4 1 -1 2 -1 2 0 2 -1 1 -1 6 0 2 -1 1 0 2 1 6 0 1 1 2 0 4 2 1 0 8 4 3 3 4 2 3 3 2 1 2 2 2 1 1 2 2 1 2 2 2 1 3 3 2 1 2 2 2 1 3 3 4 2 1 1 8 4 1 1 2 1 2 0 2 1 1 0 2 1 11 0 2 -1"/>
<path stroke="#B03060" d="M891 264l3 0 4 -2 2 0 1 -1 8 -4 1 -1 2 -1 2 -2 2 -1 3 -3 4 -2 5 -5 2 -1 5 -5 4 -2 3 -3 2 -1 2 -2 2 -1 1 -1 8 -4 1 -1 2 -1 2 0 2 -1 1 0"/>
</svg>
