<?xml version="1.0" standalone="yes"?>
<!DOCTYPE svg PUBLIC "-//W3C//DTD SVG 1.1//EN"
 "http://www.w3.org/Graphics/SVG/1.1/DTD/svg11.dtd">
<svg xmlns="http://www.w3.org/2000/svg" version="1.1"
  width="100%" height="100%" viewBox="0 0 1024 768"
  style="fill: none; font-family: Arial;
 font: Arial;
">

<!-- Creator: NGspice -->

<rect x="0" y="0" width="1024" height="768" fill="white" stroke="none"/>
<text stroke="none" fill="black" font-size="16" x="358" y="752">
frequency
</text>
<text stroke="none" fill="black" font-size="16" x="10" y="16">
ac1: ** sch_path: /home/lmadhu/openmpw/pdk_1/project_gf180_tp/xschem/amplifiers/cg_lna_wo_cmfb.sch
</text>
<path stroke="black" d="M60 720l0 -672"/>
<text stroke="none" fill="black" font-size="16" x="55" y="728">
1
</text>
<path stroke="black" stroke-dasharray="1,2" d="M114 720l0 -672M130 720l0 -672M141 720l0 -672"/>
<path stroke="black" d="M150 720l0 -672"/>
<text stroke="none" fill="black" font-size="16" x="140" y="728">
10
</text>
<path stroke="black" stroke-dasharray="1,2" d="M204 720l0 -672M220 720l0 -672M231 720l0 -672"/>
<path stroke="black" d="M240 720l0 -672"/>
<text stroke="none" fill="black" font-size="16" x="225" y="728">
100
</text>
<path stroke="black" stroke-dasharray="1,2" d="M294 720l0 -672M310 720l0 -672M321 720l0 -672"/>
<path stroke="black" d="M330 720l0 -672"/>
<text stroke="none" fill="black" font-size="16" x="310" y="728">
10^3
</text>
<path stroke="black" stroke-dasharray="1,2" d="M384 720l0 -672M400 720l0 -672M411 720l0 -672"/>
<path stroke="black" d="M420 720l0 -672"/>
<text stroke="none" fill="black" font-size="16" x="400" y="728">
10^4
</text>
<path stroke="black" stroke-dasharray="1,2" d="M474 720l0 -672M490 720l0 -672M501 720l0 -672"/>
<path stroke="black" d="M510 720l0 -672"/>
<text stroke="none" fill="black" font-size="16" x="490" y="728">
10^5
</text>
<path stroke="black" stroke-dasharray="1,2" d="M564 720l0 -672M580 720l0 -672M591 720l0 -672"/>
<path stroke="black" d="M600 720l0 -672"/>
<text stroke="none" fill="black" font-size="16" x="580" y="728">
10^6
</text>
<path stroke="black" stroke-dasharray="1,2" d="M654 720l0 -672M670 720l0 -672M681 720l0 -672"/>
<path stroke="black" d="M690 720l0 -672"/>
<text stroke="none" fill="black" font-size="16" x="670" y="728">
10^7
</text>
<path stroke="black" stroke-dasharray="1,2" d="M744 720l0 -672M760 720l0 -672M771 720l0 -672"/>
<path stroke="black" d="M780 720l0 -672"/>
<text stroke="none" fill="black" font-size="16" x="760" y="728">
10^8
</text>
<path stroke="black" stroke-dasharray="1,2" d="M834 720l0 -672M850 720l0 -672M861 720l0 -672"/>
<path stroke="black" d="M870 720l0 -672"/>
<text stroke="none" fill="black" font-size="16" x="850" y="728">
10^9
</text>
<path stroke="black" stroke-dasharray="1,2" d="M924 720l0 -672M940 720l0 -672M951 720l0 -672"/>
<path stroke="black" d="M960 720l0 -672"/>
<text stroke="none" fill="black" font-size="16" x="935" y="728">
10^10
</text>
<text stroke="none" fill="black" font-size="16" x="614" y="752">
Hz
</text>
<path stroke="black" stroke-dasharray="1,2" d="M60 720l900 0"/>
<text stroke="none" fill="black" font-size="16" x="8" y="728">
-15.0
</text>
<path stroke="black" stroke-dasharray="1,2" d="M60 672l900 0"/>
<text stroke="none" fill="black" font-size="16" x="8" y="680">
-10.0
</text>
<path stroke="black" stroke-dasharray="1,2" d="M60 624l900 0"/>
<text stroke="none" fill="black" font-size="16" x="18" y="632">
-5.0
</text>
<path stroke="black" d="M60 576l900 0"/>
<text stroke="none" fill="black" font-size="16" x="28" y="584">
0.0
</text>
<path stroke="black" stroke-dasharray="1,2" d="M60 528l900 0"/>
<text stroke="none" fill="black" font-size="16" x="28" y="536">
5.0
</text>
<path stroke="black" stroke-dasharray="1,2" d="M60 480l900 0"/>
<text stroke="none" fill="black" font-size="16" x="18" y="488">
10.0
</text>
<path stroke="black" stroke-dasharray="1,2" d="M60 432l900 0"/>
<text stroke="none" fill="black" font-size="16" x="18" y="440">
15.0
</text>
<path stroke="black" stroke-dasharray="1,2" d="M60 384l900 0"/>
<text stroke="none" fill="black" font-size="16" x="18" y="392">
20.0
</text>
<path stroke="black" stroke-dasharray="1,2" d="M60 336l900 0"/>
<text stroke="none" fill="black" font-size="16" x="18" y="344">
25.0
</text>
<path stroke="black" stroke-dasharray="1,2" d="M60 288l900 0"/>
<text stroke="none" fill="black" font-size="16" x="18" y="296">
30.0
</text>
<path stroke="black" stroke-dasharray="1,2" d="M60 240l900 0"/>
<text stroke="none" fill="black" font-size="16" x="18" y="248">
35.0
</text>
<path stroke="black" stroke-dasharray="1,2" d="M60 192l900 0"/>
<text stroke="none" fill="black" font-size="16" x="18" y="200">
40.0
</text>
<path stroke="black" stroke-dasharray="1,2" d="M60 144l900 0"/>
<text stroke="none" fill="black" font-size="16" x="18" y="152">
45.0
</text>
<path stroke="black" stroke-dasharray="1,2" d="M60 96l900 0"/>
<text stroke="none" fill="black" font-size="16" x="18" y="104">
50.0
</text>
<path stroke="black" stroke-dasharray="1,2" d="M60 48l900 0"/>
<text stroke="none" fill="black" font-size="16" x="18" y="56">
55.0
</text>
<text stroke="none" fill="black" font-size="16" x="10" y="32">
dB
</text>
<path stroke="red" d="M450 23l45 0"/>
<text stroke="none" fill="black" font-size="16" x="505" y="32">
vdb(vout)
</text>
<path stroke="red" d="M60 75l441 0 9 1 9 0 9 1 18 4 18 8 9 7 9 9 9 11 9 13 9 14 18 34 18 36 9 19 9 18 18 38 9 20 45 95 9 20 45 95 9 20 27 57 9 18 9 19 18 36 9 17"/>
</svg>
