<?xml version="1.0" standalone="yes"?>
<!DOCTYPE svg PUBLIC "-//W3C//DTD SVG 1.1//EN"
 "http://www.w3.org/Graphics/SVG/1.1/DTD/svg11.dtd">
<svg xmlns="http://www.w3.org/2000/svg" version="1.1"
  width="100%" height="100%" viewBox="0 0 1024 768"
  style="fill: none; font-family: Arial;
 font: Arial;
">

<!-- Creator: NGspice -->

<rect x="0" y="0" width="1024" height="768" fill="white" stroke="none"/>
<text stroke="none" fill="black" font-size="16" x="358" y="752">
time
</text>
<text stroke="none" fill="black" font-size="16" x="10" y="16">
tran1: ** sch_path: /home/lmadhu/openmpw/pdk_1/project_gf180_tp/xschem/amplifiers/cg_lna_wo_cmfb.sch
</text>
<path stroke="black" d="M50 720l0 -671"/>
<text stroke="none" fill="black" font-size="16" x="35" y="728">
0.0
</text>
<path stroke="black" stroke-dasharray="1,2" d="M165 720l0 -671"/>
<text stroke="none" fill="black" font-size="16" x="150" y="728">
0.2
</text>
<path stroke="black" stroke-dasharray="1,2" d="M280 720l0 -671"/>
<text stroke="none" fill="black" font-size="16" x="265" y="728">
0.4
</text>
<path stroke="black" stroke-dasharray="1,2" d="M395 720l0 -671"/>
<text stroke="none" fill="black" font-size="16" x="380" y="728">
0.6
</text>
<path stroke="black" stroke-dasharray="1,2" d="M510 720l0 -671"/>
<text stroke="none" fill="black" font-size="16" x="495" y="728">
0.8
</text>
<path stroke="black" stroke-dasharray="1,2" d="M625 720l0 -671"/>
<text stroke="none" fill="black" font-size="16" x="610" y="728">
1.0
</text>
<path stroke="black" stroke-dasharray="1,2" d="M740 720l0 -671"/>
<text stroke="none" fill="black" font-size="16" x="725" y="728">
1.2
</text>
<path stroke="black" stroke-dasharray="1,2" d="M855 720l0 -671"/>
<text stroke="none" fill="black" font-size="16" x="840" y="728">
1.4
</text>
<path stroke="black" stroke-dasharray="1,2" d="M970 720l0 -671"/>
<text stroke="none" fill="black" font-size="16" x="955" y="728">
1.6
</text>
<text stroke="none" fill="black" font-size="16" x="614" y="752">
us
</text>
<path stroke="black" stroke-dasharray="1,2" d="M50 720l920 0"/>
<text stroke="none" fill="black" font-size="16" x="8" y="728">
-1.0
</text>
<path stroke="black" stroke-dasharray="1,2" d="M50 659l920 0"/>
<text stroke="none" fill="black" font-size="16" x="8" y="667">
-0.8
</text>
<path stroke="black" stroke-dasharray="1,2" d="M50 598l920 0"/>
<text stroke="none" fill="black" font-size="16" x="8" y="606">
-0.6
</text>
<path stroke="black" stroke-dasharray="1,2" d="M50 537l920 0"/>
<text stroke="none" fill="black" font-size="16" x="8" y="545">
-0.4
</text>
<path stroke="black" stroke-dasharray="1,2" d="M50 476l920 0"/>
<text stroke="none" fill="black" font-size="16" x="8" y="484">
-0.2
</text>
<path stroke="black" d="M50 415l920 0"/>
<text stroke="none" fill="black" font-size="16" x="18" y="423">
0.0
</text>
<path stroke="black" stroke-dasharray="1,2" d="M50 354l920 0"/>
<text stroke="none" fill="black" font-size="16" x="18" y="362">
0.2
</text>
<path stroke="black" stroke-dasharray="1,2" d="M50 293l920 0"/>
<text stroke="none" fill="black" font-size="16" x="18" y="301">
0.4
</text>
<path stroke="black" stroke-dasharray="1,2" d="M50 232l920 0"/>
<text stroke="none" fill="black" font-size="16" x="18" y="240">
0.6
</text>
<path stroke="black" stroke-dasharray="1,2" d="M50 171l920 0"/>
<text stroke="none" fill="black" font-size="16" x="18" y="179">
0.8
</text>
<path stroke="black" stroke-dasharray="1,2" d="M50 110l920 0"/>
<text stroke="none" fill="black" font-size="16" x="18" y="118">
1.0
</text>
<path stroke="black" stroke-dasharray="1,2" d="M50 49l920 0"/>
<text stroke="none" fill="black" font-size="16" x="18" y="57">
1.2
</text>
<text stroke="none" fill="black" font-size="16" x="10" y="32">
     
</text>
<path stroke="red" d="M460 23l46 0"/>
<text stroke="none" fill="black" font-size="16" x="516" y="32">
vout
</text>
<path stroke="red" d="M50 415l1 0M51 416l0 -1M51 416l1 2M52 420l0 -2M52 420l2 6M54 430l0 -4M54 430l1 4M55 439l0 -5M55 439l1 6M56 450l0 -5M56 450l1 7 1 6M58 470l0 -7M58 470l1 8M59 486l0 -8M59 486l2 16M61 510l0 -8M61 510l1 9M62 528l0 -9M62 528l1 9"/>
<path stroke="red" d="M63 546l0 -9M63 546l2 18M65 573l0 -9M65 573l1 9M66 590l0 -8M66 590l1 9M67 607l0 -8M67 607l1 9 1 8M69 631l0 -7M69 631l1 8M70 646l0 -7M70 646l1 6M71 658l0 -6M71 658l1 6 1 5M73 674l0 -5M73 674l1 4M74 682l0 -4M74 682l1 3M75 688l0 -3"/>
<path stroke="red" d="M75 688l2 4 1 1 0 -1 1 0 0 -2 1 -2 1 -3 0 -3 1 -4 0 -4 1 -5 1 -6 0 -6 1 -6 0 -7 1 -7 0 -8 2 -16 0 -9 1 -9 0 -10 1 -9 0 -10 1 -10 1 -9 0 -10 1 -10 0 -10 1 -10 0 -10 2 -20 0 -9 1 -9 0 -9 1 -9 0 -8 1 -8 1 -7 0 -8 1 -6 0 -6"/>
<path stroke="red" d="M101 398l1 -6 0 -5 1 -5 1 -4 0 -4 1 -3 0 -2 1 -2 1 -1 0 -1 1 0M108 366l0 -1M108 366l1 1M109 369l0 -2M109 369l1 2 1 3M111 377l0 -3M111 377l1 5M112 386l0 -4M112 386l1 5M113 397l0 -6M113 397l2 12M115 416l0 -7M115 416l1 7M116 431l0 -8"/>
<path stroke="red" d="M116 431l1 8M117 447l0 -8M117 447l1 8 1 9M119 473l0 -9M119 473l1 9M120 491l0 -9M120 491l1 9M121 509l0 -9M121 509l2 18M123 537l0 -10M123 537l1 8M124 554l0 -9M124 554l1 9M125 571l0 -8M125 571l2 16M127 595l0 -8M127 595l1 7"/>
<path stroke="red" d="M128 609l0 -7M128 609l2 12M130 626l0 -5M130 626l1 5M131 636l0 -5M131 636l1 4M132 643l0 -3M132 643l1 3 1 2M134 650l0 -2M134 650l1 1 1 0 0 -1 1 -1 1 -2 0 -2 1 -3 0 -4 1 -4 0 -5 1 -5 1 -6 0 -6 1 -7 0 -7 1 -8 0 -8 1 -8 1 -9"/>
<path stroke="red" d="M146 565l0 -8 1 -10 0 -9 1 -9 0 -10 2 -20 0 -9 1 -10 0 -10 1 -10 1 -9 0 -10 1 -9 0 -9 1 -9 0 -8 2 -16 0 -8 1 -7 0 -6 1 -6 0 -6 1 -5 1 -4 0 -4 1 -4 0 -3 1 -2 0 -2 1 -1 1 0 1 1M166 334l0 -1M166 334l1 2M167 338l0 -2M167 338l1 3"/>
<path stroke="red" d="M168 341l1 4M169 349l0 -4M169 349l1 5M170 359l0 -5M170 359l1 6M171 371l0 -6M171 371l1 6 1 7M173 392l0 -8M173 392l1 7M174 407l0 -8M174 407l1 9 1 8M176 433l0 -9M176 433l1 9M177 451l0 -9M177 451l1 9M178 469l0 -9M178 469l1 10"/>
<path stroke="red" d="M179 479l1 9M180 497l0 -9M180 497l1 9M181 515l0 -9M181 515l1 9M182 533l0 -9M182 533l1 9 1 8M184 558l0 -8M184 558l1 7M185 573l0 -8M185 573l1 6M186 586l0 -7M186 586l1 6 1 5M188 603l0 -6M188 603l1 4M189 611l0 -4M189 611l1 4"/>
<path stroke="red" d="M190 618l0 -3M190 618l2 4M192 623l0 -1M192 623l2 0 0 -1 1 -2 1 -3 0 -3 1 -3 0 -4 2 -10 0 -6 1 -6 0 -6 1 -7 0 -8 2 -16 0 -8 1 -9 0 -9 1 -9 0 -10 1 -9 1 -10 0 -10 1 -9 0 -10 1 -10 0 -9 1 -10 1 -9 0 -9 1 -9 0 -9 1 -8 0 -8 1 -8"/>
<path stroke="red" d="M214 366l1 -7 0 -7 1 -7 0 -6 1 -5 0 -5 2 -8 0 -4 1 -3 0 -2 2 -2 0 -1 1 1 1 2M224 314l0 -2M224 314l1 2 1 3M226 323l0 -4M226 323l1 4M227 332l0 -5M227 332l1 5M228 343l0 -6M228 343l1 6 1 7M230 363l0 -7M230 363l1 7M231 378l0 -8"/>
<path stroke="red" d="M231 378l1 8M232 395l0 -9M232 395l1 8 1 9M234 421l0 -9M234 421l1 9M235 440l0 -10M235 440l1 9M236 458l0 -9M236 458l1 10 1 9M238 486l0 -9M238 486l1 9M239 504l0 -9M239 504l1 9M240 522l0 -9M240 522l2 16M242 546l0 -8M242 546l1 7"/>
<path stroke="red" d="M243 560l0 -7M243 560l1 6 1 7M245 578l0 -5M245 578l1 5M246 588l0 -5M246 588l1 4M247 596l0 -4M247 596l1 3 1 2M249 603l0 -2M249 603l1 1M250 605l0 -1M250 605l1 0 0 -1 1 -1 1 -2 0 -2 1 -3 0 -3 1 -4 0 -5 1 -5 1 -6 0 -6 1 -6 0 -7"/>
<path stroke="red" d="M258 554l1 -7 0 -8 1 -8 1 -9 0 -8 1 -9 0 -9 1 -10 0 -9 1 -10 1 -9 0 -10 1 -10 0 -9 1 -10 1 -9 0 -10 1 -9 0 -8 1 -9 0 -8 2 -16 0 -7 1 -7 0 -6 1 -6 0 -6 1 -5 1 -4 0 -4 1 -3 0 -3 1 -2 0 -2 1 0 1 -1 1 1M281 297l0 -2M281 297l1 2"/>
<path stroke="red" d="M282 301l0 -2M282 301l1 4 1 3M284 313l0 -5M284 313l1 5M285 323l0 -5M285 323l1 6M286 335l0 -6M286 335l2 14M288 356l0 -7M288 356l1 8M289 372l0 -8M289 372l1 9 1 8M291 398l0 -9M291 398l1 9M292 416l0 -9M292 416l1 10M293 435l0 -9"/>
<path stroke="red" d="M293 435l1 10 1 9M295 463l0 -9M295 463l1 10M296 482l0 -9M296 482l1 9M297 500l0 -9M297 500l1 8 1 9M299 525l0 -8M299 525l1 7M300 540l0 -8M300 540l1 7M301 553l0 -6M301 553l2 12M303 570l0 -5M303 570l1 5M304 579l0 -4M304 579l1 4"/>
<path stroke="red" d="M305 586l0 -3M305 586l2 4M307 591l0 -1M307 591l1 1 1 0 0 -1 2 -4 0 -3 1 -3 0 -4 2 -10 0 -6 1 -6 0 -6 1 -7 0 -7 2 -16 0 -8 1 -9 0 -9 1 -9 0 -9 1 -10 1 -9 0 -10 1 -9 0 -10 1 -10 0 -9 1 -9 1 -10 0 -9 1 -8 0 -9 1 -8 0 -8 1 -8"/>
<path stroke="red" d="M329 339l1 -7 0 -7 1 -6 0 -6 1 -5 0 -5 2 -8 0 -3 1 -3 0 -2 1 -2 1 -1 1 0M338 285l0 -1M338 285l1 2M339 289l0 -2M339 289l2 6M341 299l0 -4M341 299l1 4M342 308l0 -5M342 308l1 5M343 319l0 -6M343 319l1 6 1 7M345 339l0 -7M345 339l1 8"/>
<path stroke="red" d="M346 354l0 -7M346 354l1 9M347 371l0 -8M347 371l2 18M349 398l0 -9M349 398l1 9M350 416l0 -9M350 416l1 10M351 435l0 -9M351 435l1 10 1 9M353 463l0 -9M353 463l1 10M354 482l0 -9M354 482l1 9M355 499l0 -8M355 499l1 9 1 8M357 523l0 -7"/>
<path stroke="red" d="M357 523l1 8M358 538l0 -7M358 538l1 7 1 6M360 556l0 -5M360 556l1 6M361 566l0 -4M361 566l1 5M362 574l0 -3M362 574l2 6M364 582l0 -2M364 582l1 1M365 584l0 -1M365 584l1 0 0 -1 2 -2 0 -3 1 -2 0 -4 1 -4 0 -4 1 -5 1 -6 0 -6 1 -6"/>
<path stroke="red" d="M373 541l0 -7 1 -7 0 -8 2 -16 0 -9 1 -9 0 -9 1 -9 0 -9 1 -10 1 -9 0 -10 1 -9 0 -10 1 -9 1 -10 0 -9 1 -9 0 -9 1 -8 0 -9 1 -7 1 -8 0 -7 1 -7 0 -6 1 -6 0 -5 1 -5 1 -4 0 -4 1 -3 0 -3 1 -2 0 -2 1 0 1 -1M395 278l0 -1M395 278l1 1"/>
<path stroke="red" d="M396 280l0 -1M396 280l1 2M397 285l0 -3M397 285l1 3 1 4M399 296l0 -4M399 296l1 5M400 307l0 -6M400 307l1 5M401 319l0 -7M401 319l1 6 1 8M403 340l0 -7M403 340l1 8M404 356l0 -8M404 356l1 9 1 8M406 382l0 -9M406 382l1 10M407 401l0 -9"/>
<path stroke="red" d="M407 401l1 9M408 420l0 -10M408 420l1 9 1 10M410 448l0 -9M410 448l1 9M411 467l0 -10M411 467l1 9M412 485l0 -9M412 485l1 8 1 9M414 510l0 -8M414 510l1 7M415 525l0 -8M415 525l1 7M416 539l0 -7M416 539l2 12M418 556l0 -5M418 556l1 4"/>
<path stroke="red" d="M419 565l0 -5M419 565l1 3M420 571l0 -3M420 571l1 3 1 2M422 577l0 -1M422 577l1 1 1 0 0 -1 2 -4 0 -3 1 -3 0 -4 2 -10 0 -5 1 -6 0 -6 1 -7 0 -8 1 -7 1 -8 0 -8 1 -9 0 -9 1 -9 0 -9 1 -9 1 -10 0 -9 1 -10 0 -10 1 -9 0 -10 2 -18"/>
<path stroke="red" d="M441 377l0 -9 1 -9 0 -8 1 -8 0 -8 1 -8 1 -7 0 -7 1 -6 0 -6 1 -5 0 -5 2 -8 0 -3 1 -3 0 -2 2 -2 1 0M453 274l0 -1M453 274l1 2M454 278l0 -2M454 278l1 2 1 4M456 287l0 -3M456 287l1 5M457 297l0 -5M457 297l1 5M458 308l0 -6M458 308l1 6"/>
<path stroke="red" d="M459 314l1 7M460 328l0 -7M460 328l1 8M461 344l0 -8M461 344l1 8M462 360l0 -8M462 360l2 18M464 387l0 -9M464 387l1 10M465 406l0 -9M465 406l1 9M466 425l0 -10M466 425l1 9 1 10M468 453l0 -9M468 453l1 9M469 472l0 -10M469 472l1 8"/>
<path stroke="red" d="M470 489l0 -9M470 489l1 9 1 8M472 513l0 -7M472 513l1 8M473 528l0 -7M473 528l1 7 1 6M475 547l0 -6M475 547l1 5M476 557l0 -5M476 557l1 4M477 564l0 -3M477 564l1 4 1 2M479 572l0 -2M479 572l1 1M480 574l0 -1M480 574l1 0 1 -1 1 -2"/>
<path stroke="red" d="M483 571l0 -2 1 -3 0 -3 1 -4 0 -4 1 -5 1 -6 0 -6 1 -6 0 -7 1 -7 0 -8 2 -16 0 -9 1 -8 0 -9 1 -10 0 -9 1 -9 1 -10 0 -9 1 -10 0 -9 1 -10 1 -9 0 -9 1 -9 0 -9 1 -9 0 -8 1 -8 1 -7 0 -7 1 -7 0 -6 1 -6 0 -5 1 -5 1 -4 0 -4 1 -3 0 -3"/>
<path stroke="red" d="M507 274l1 -2 0 -1 1 -1 1 0 1 1M511 272l0 -1M511 272l1 3M512 277l0 -2M512 277l1 4 1 3M514 289l0 -5M514 289l1 5M515 299l0 -5M515 299l1 6M516 311l0 -6M516 311l2 14M518 333l0 -8M518 333l1 8M519 349l0 -8M519 349l1 9 1 8M521 375l0 -9"/>
<path stroke="red" d="M521 375l1 9M522 394l0 -10M522 394l1 9M523 413l0 -10M523 413l1 9 1 10M525 441l0 -9M525 441l1 9M526 460l0 -10M526 460l1 9M527 478l0 -9M527 478l1 8 1 9M529 503l0 -8M529 503l1 8M530 518l0 -7M530 518l1 7M531 532l0 -7M531 532l2 12"/>
<path stroke="red" d="M533 549l0 -5M533 549l1 5M534 558l0 -4M534 558l1 4M535 565l0 -3M535 565l1 3 1 2M537 571l0 -1M537 571l1 1 1 -1 0 -1 1 -1 1 -2 0 -3 1 -3 0 -4 2 -10 0 -5 1 -6 0 -6 1 -7 0 -8 1 -7 1 -8 0 -8 1 -9 0 -9 1 -9 0 -9 1 -9 1 -10 0 -9"/>
<path stroke="red" d="M552 428l1 -10 0 -9 1 -10 0 -9 1 -9 1 -10 0 -9 1 -8 0 -9 1 -8 0 -8 2 -14 0 -7 1 -6 0 -6 1 -5 0 -5 2 -8 0 -3 1 -3 0 -2 2 -2 1 0M568 269l0 -1M568 269l1 1M569 273l0 -3M569 273l1 2 1 4M571 282l0 -3M571 282l1 5M572 292l0 -5M572 292l1 5"/>
<path stroke="red" d="M573 303l0 -6M573 303l1 6 1 7M575 323l0 -7M575 323l1 8M576 339l0 -8M576 339l1 8M577 356l0 -9M577 356l1 8 1 9M579 383l0 -10M579 383l1 9M580 401l0 -9M580 401l1 10M581 420l0 -9M581 420l1 10 1 9M583 449l0 -10M583 449l1 9M584 467l0 -9"/>
<path stroke="red" d="M584 467l1 9M585 485l0 -9M585 485l2 16M587 509l0 -8M587 509l1 7M588 523l0 -7M588 523l1 7 1 6M590 542l0 -6M590 542l1 5M591 552l0 -5M591 552l1 4M592 560l0 -4M592 560l2 6M594 568l0 -2M594 568l1 1M595 570l0 -1M595 570l1 0 1 -1"/>
<path stroke="red" d="M597 569l1 -2 0 -2 1 -3 0 -3 1 -4 0 -4 1 -5 1 -6 0 -6 1 -6 0 -7 1 -7 0 -8 2 -16 0 -9 1 -8 0 -9 1 -9 0 -10 1 -9 1 -10 0 -9 1 -10 0 -9 1 -10 1 -9 0 -9 1 -9 0 -9 1 -8 0 -8 2 -16 0 -7 1 -7 0 -6 1 -6 0 -5 1 -5 1 -4 0 -4 1 -3"/>
<path stroke="red" d="M622 273l0 -2 1 -2 0 -2 1 -1 1 0M625 267l0 -1M625 267l1 1M626 269l0 -1M626 269l1 2M627 274l0 -3M627 274l1 3 1 4M629 286l0 -5M629 286l1 4M630 296l0 -6M630 296l1 6M631 308l0 -6M631 308l2 14M633 330l0 -8M633 330l1 8M634 346l0 -8"/>
<path stroke="red" d="M634 346l1 8 1 9M636 372l0 -9M636 372l1 9M637 391l0 -10M637 391l1 9M638 409l0 -9M638 409l1 10 1 9M640 438l0 -10M640 438l1 9M641 457l0 -10M641 457l1 9M642 475l0 -9M642 475l1 8 1 9M644 500l0 -8M644 500l1 8M645 515l0 -7M645 515l1 7"/>
<path stroke="red" d="M646 529l0 -7M646 529l2 12M648 546l0 -5M648 546l1 5M649 555l0 -4M649 555l1 4M650 562l0 -3M650 562l1 3 1 2M652 568l0 -1M652 568l1 1 1 0 0 -1 2 -4 0 -3 1 -3 0 -4 1 -5 1 -4 0 -6 1 -6 0 -6 1 -7 0 -7 2 -16 0 -8 1 -9 0 -8 1 -9"/>
<path stroke="red" d="M665 463l0 -10 2 -18 0 -10 1 -9 0 -10 1 -9 0 -10 2 -18 0 -9 1 -9 0 -8 1 -8 0 -8 1 -8 1 -7 0 -6 1 -7 0 -6 1 -5 0 -5 2 -8 0 -3 1 -2 0 -2 1 -2 1 -1 1 1M683 267l0 -1M683 267l1 1M684 270l0 -2M684 270l2 6M686 280l0 -4M686 280l1 5"/>
<path stroke="red" d="M687 290l0 -5M687 290l1 5M688 301l0 -6M688 301l1 6 1 7M690 321l0 -7M690 321l1 8M691 337l0 -8M691 337l1 8M692 354l0 -9M692 354l1 8 1 9M694 380l0 -9M694 380l1 10M695 399l0 -9M695 399l1 10M696 418l0 -9M696 418l1 10 1 9M698 446l0 -9"/>
<path stroke="red" d="M698 446l1 10M699 465l0 -9M699 465l1 9M700 482l0 -8M700 482l1 9 1 8M702 507l0 -8M702 507l1 7M703 521l0 -7M703 521l1 7 1 6M705 540l0 -6M705 540l1 5M706 550l0 -5M706 550l1 4M707 558l0 -4M707 558l2 6M709 566l0 -2M709 566l1 1"/>
<path stroke="red" d="M710 568l0 -1M710 568l1 0 1 -1 1 -2 0 -2 1 -3 0 -3 1 -4 0 -4 1 -5 1 -6 0 -6 1 -6 0 -7 1 -7 0 -8 2 -16 0 -8 1 -9 0 -9 1 -9 0 -10 2 -18 0 -10 1 -10 0 -9 1 -9 1 -10 0 -9 1 -9 0 -8 1 -9 0 -8 1 -8 1 -7 0 -7 1 -7 0 -6 1 -6 0 -5"/>
<path stroke="red" d="M734 288l1 -5 1 -4 0 -4 1 -3 0 -3 1 -2 0 -1 1 -1 1 0 1 1M741 268l0 -2M741 268l1 2M742 272l0 -2M742 272l2 8M744 284l0 -4M744 284l1 5M745 294l0 -5M745 294l1 6M746 307l0 -7M746 307l1 6 1 8M748 328l0 -7M748 328l1 8M749 344l0 -8"/>
<path stroke="red" d="M749 344l2 18M751 371l0 -9M751 371l1 9M752 389l0 -9M752 389l1 10M753 408l0 -9M753 408l1 10 1 9M755 437l0 -10M755 437l1 9M756 455l0 -9M756 455l1 9M757 473l0 -9M757 473l1 9 1 8M759 499l0 -9M759 499l1 7M760 514l0 -8M760 514l1 7"/>
<path stroke="red" d="M761 528l0 -7M761 528l2 12M763 545l0 -5M763 545l1 5M764 554l0 -4M764 554l1 4M765 561l0 -3M765 561l2 4M767 567l0 -2M767 567l1 0M768 568l0 -1M768 568l1 -1 0 -1 1 -1 1 -2 0 -3 1 -4 0 -3 2 -10 0 -5 1 -6 0 -6 1 -7 0 -7 2 -16"/>
<path stroke="red" d="M778 496l0 -8 1 -9 0 -9 1 -9 0 -9 2 -18 0 -10 1 -9 0 -10 1 -9 0 -10 2 -18 0 -9 1 -9 0 -8 1 -9 0 -7 1 -8 1 -7 0 -7 1 -6 0 -6 1 -5 0 -5 2 -8 0 -3 1 -2 0 -2 1 -2 1 -1 1 1M798 266l0 -1M798 266l1 1M799 269l0 -2M799 269l2 6M801 279l0 -4"/>
<path stroke="red" d="M801 279l1 5M802 289l0 -5M802 289l1 5M803 300l0 -6M803 300l1 6 1 7M805 320l0 -7M805 320l1 8M806 336l0 -8M806 336l1 8M807 353l0 -9M807 353l1 8 1 9M809 379l0 -9M809 379l1 10M810 398l0 -9M810 398l1 10M811 417l0 -9M811 417l1 10"/>
<path stroke="red" d="M812 427l1 9M813 446l0 -10M813 446l1 9M814 464l0 -9M814 464l1 9M815 482l0 -9M815 482l2 16M817 506l0 -8M817 506l1 7M818 521l0 -8M818 521l2 12M820 539l0 -6M820 539l1 6M821 549l0 -4M821 549l1 5M822 557l0 -3M822 557l2 6M824 565l0 -2"/>
<path stroke="red" d="M824 565l1 1M825 567l0 -1M825 567l1 0 1 -1 1 -2 0 -2 1 -3 0 -3 1 -4 0 -4 1 -5 1 -6 0 -5 1 -7 0 -7 1 -7 0 -7 1 -8 1 -9 0 -8 1 -9 0 -9 1 -9 0 -9 1 -10 1 -9 0 -10 1 -9 0 -10 2 -18 0 -10 1 -8 0 -9 1 -9 0 -8 1 -8 1 -7 0 -7 1 -7"/>
<path stroke="red" d="M848 304l0 -6 1 -6 0 -5 1 -5 1 -4 0 -4 1 -3 0 -3 1 -2 0 -1 1 -1 1 0 1 1M856 267l0 -2M856 267l1 2M857 272l0 -3M857 272l1 3 1 4M859 283l0 -4M859 283l1 5M860 294l0 -6M860 294l1 6M861 306l0 -6M861 306l2 14M863 328l0 -8M863 328l1 8"/>
<path stroke="red" d="M864 344l0 -8M864 344l1 8 1 9M866 370l0 -9M866 370l1 9M867 389l0 -10M867 389l1 9M868 407l0 -9M868 407l1 10 1 9M870 436l0 -10M870 436l1 9M871 455l0 -10M871 455l1 9M872 473l0 -9M872 473l1 8 1 9M874 498l0 -8M874 498l1 8M875 513l0 -7"/>
<path stroke="red" d="M875 513l1 7M876 527l0 -7M876 527l2 12M878 544l0 -5M878 544l1 5M879 553l0 -4M879 553l1 4M880 560l0 -3M880 560l1 3 1 2M882 566l0 -1M882 566l1 1 1 0 0 -1 2 -4 0 -3 1 -3 0 -4 1 -4 1 -5 0 -6 1 -6 0 -6 1 -7 0 -7 2 -16 0 -8 1 -8"/>
<path stroke="red" d="M894 479l0 -9 1 -9 0 -9 1 -10 1 -9 0 -9 1 -10 0 -10 1 -9 0 -9 1 -10 1 -9 0 -9 1 -8 0 -9 1 -8 0 -8 2 -14 0 -7 1 -6 0 -6 1 -5 0 -5 2 -8 0 -3 1 -3 0 -2 2 -2 1 0"/>
<path stroke="blue" d="M50 23l46 0"/>
<text stroke="none" fill="black" font-size="16" x="106" y="32">
vin1
</text>
<path stroke="blue" d="M50 110l1 0 1 -1 2 0 1 -1 4 0 0 -1 11 0M70 108l0 -1M70 108l4 0M74 109l0 -1M74 109l3 0 1 1 2 0 1 1 2 0 1 1 4 0M88 113l0 -1M88 113l10 0 1 -1 3 0 1 -1 3 0 1 -1 2 0 0 -1 3 0 0 -1 4 0 1 -1 10 0 1 1 3 0 1 1 3 0M135 110l0 -1M135 110l3 0"/>
<path stroke="blue" d="M138 111l0 -1M138 111l2 0 1 1 4 0 1 1 10 0 1 -1 3 0 1 -1 2 0 1 -1 2 0 1 -1 2 0 1 -1 4 0 0 -1 11 0M185 108l0 -1M185 108l4 0M189 109l0 -1M189 109l3 0 1 1 2 0 1 1 2 0 1 1 4 0M203 113l0 -1M203 113l10 0 1 -1 3 0 1 -1 3 0 1 -1"/>
<path stroke="blue" d="M222 110l2 0 0 -1 3 0 0 -1 4 0 1 -1 10 0 1 1 3 0 1 1 3 0M250 110l0 -1M250 110l3 0M253 111l0 -1M253 111l2 0 1 1 4 0 1 1 10 0 1 -1 3 0 1 -1 2 0 1 -1 2 0 1 -1 2 0 1 -1 4 0 0 -1 11 0M300 108l0 -1M300 108l4 0M304 109l0 -1M304 109l3 0"/>
<path stroke="blue" d="M307 109l1 1 2 0 1 1 2 0 1 1 4 0M318 113l0 -1M318 113l10 0 1 -1 3 0 1 -1 3 0 1 -1 2 0 0 -1 3 0 0 -1 4 0 1 -1 10 0 1 1 3 0 1 1 3 0M365 110l0 -1M365 110l3 0M368 111l0 -1M368 111l2 0 1 1 4 0 1 1 10 0 1 -1 3 0 1 -1 2 0 1 -1"/>
<path stroke="blue" d="M394 110l2 0 1 -1 2 0 1 -1 4 0 0 -1 11 0M415 108l0 -1M415 108l4 0M419 109l0 -1M419 109l3 0 1 1 2 0 1 1 2 0 1 1 4 0M433 113l0 -1M433 113l10 0 1 -1 3 0 1 -1 3 0 1 -1 2 0 0 -1 3 0 0 -1 4 0 1 -1 10 0 1 1 3 0 1 1 3 0M480 110l0 -1"/>
<path stroke="blue" d="M480 110l3 0M483 111l0 -1M483 111l2 0 1 1 4 0 1 1 10 0 1 -1 3 0 1 -1 2 0 1 -1 2 0 1 -1 2 0 1 -1 4 0 0 -1 11 0M530 108l0 -1M530 108l4 0M534 109l0 -1M534 109l3 0 1 1 2 0 1 1 2 0 1 1 4 0M548 113l0 -1M548 113l10 0 1 -1 3 0"/>
<path stroke="blue" d="M562 112l1 -1 3 0 1 -1 2 0 0 -1 3 0 0 -1 4 0 1 -1 10 0 1 1 3 0 1 1 3 0M595 110l0 -1M595 110l3 0M598 111l0 -1M598 111l2 0 1 1 4 0 1 1 10 0 1 -1 3 0 1 -1 2 0 1 -1 2 0 1 -1 2 0 1 -1 4 0 0 -1 11 0M645 108l0 -1M645 108l4 0M649 109l0 -1"/>
<path stroke="blue" d="M649 109l3 0 1 1 2 0 1 1 2 0 1 1 4 0M663 113l0 -1M663 113l10 0 1 -1 3 0 1 -1 3 0 1 -1 2 0 0 -1 3 0 0 -1 4 0 1 -1 10 0 1 1 3 0 1 1 3 0M710 110l0 -1M710 110l3 0M713 111l0 -1M713 111l2 0 1 1 4 0 1 1 10 0 1 -1 3 0 1 -1 2 0"/>
<path stroke="blue" d="M738 111l1 -1 2 0 1 -1 2 0 1 -1 4 0 0 -1 11 0M760 108l0 -1M760 108l4 0M764 109l0 -1M764 109l3 0 1 1 2 0 1 1 2 0 1 1 4 0M778 113l0 -1M778 113l10 0 1 -1 3 0 1 -1 3 0 1 -1 2 0 0 -1 3 0 0 -1 4 0 1 -1 10 0 1 1 3 0 1 1 3 0M825 110l0 -1"/>
<path stroke="blue" d="M825 110l3 0M828 111l0 -1M828 111l2 0 1 1 4 0 1 1 10 0 1 -1 3 0 1 -1 2 0 1 -1 2 0 1 -1 2 0 1 -1 4 0 0 -1 11 0M875 108l0 -1M875 108l4 0M879 109l0 -1M879 109l3 0 1 1 2 0 1 1 2 0 1 1 4 0M893 113l0 -1M893 113l10 0 1 -1 3 0"/>
<path stroke="blue" d="M907 112l1 -1 3 0 1 -1 1 0"/>
<path stroke="#FFA500" d="M460 39l46 0"/>
<text stroke="none" fill="black" font-size="16" x="516" y="48">
vin2
</text>
<path stroke="#FFA500" d="M50 110l1 0 1 1 2 0 1 1 4 0M59 113l0 -1M59 113l11 0 0 -1 4 0 0 -1 3 0 1 -1 2 0 1 -1 2 0 1 -1 4 0 0 -1 10 0 1 1 3 0 1 1 3 0 1 1 2 0M109 111l0 -1M109 111l3 0M112 112l0 -1M112 112l4 0 1 1 10 0 1 -1 3 0 1 -1 3 0 0 -1 3 0"/>
<path stroke="#FFA500" d="M138 110l0 -1 2 0 1 -1 4 0 1 -1 10 0 1 1 3 0 1 1 2 0 1 1 2 0 1 1 2 0 1 1 4 0M174 113l0 -1M174 113l11 0 0 -1 4 0 0 -1 3 0 1 -1 2 0 1 -1 2 0 1 -1 4 0 0 -1 10 0 1 1 3 0 1 1 3 0 1 1 2 0M224 111l0 -1M224 111l3 0M227 112l0 -1"/>
<path stroke="#FFA500" d="M227 112l4 0 1 1 10 0 1 -1 3 0 1 -1 3 0 0 -1 3 0 0 -1 2 0 1 -1 4 0 1 -1 10 0 1 1 3 0 1 1 2 0 1 1 2 0 1 1 2 0 1 1 4 0M289 113l0 -1M289 113l11 0 0 -1 4 0 0 -1 3 0 1 -1 2 0 1 -1 2 0 1 -1 4 0 0 -1 10 0 1 1 3 0 1 1 3 0 1 1"/>
<path stroke="#FFA500" d="M337 110l2 0M339 111l0 -1M339 111l3 0M342 112l0 -1M342 112l4 0 1 1 10 0 1 -1 3 0 1 -1 3 0 0 -1 3 0 0 -1 2 0 1 -1 4 0 1 -1 10 0 1 1 3 0 1 1 2 0 1 1 2 0 1 1 2 0 1 1 4 0M404 113l0 -1M404 113l11 0 0 -1 4 0 0 -1 3 0 1 -1"/>
<path stroke="#FFA500" d="M423 110l2 0 1 -1 2 0 1 -1 4 0 0 -1 10 0 1 1 3 0 1 1 3 0 1 1 2 0M454 111l0 -1M454 111l3 0M457 112l0 -1M457 112l4 0 1 1 10 0 1 -1 3 0 1 -1 3 0 0 -1 3 0 0 -1 2 0 1 -1 4 0 1 -1 10 0 1 1 3 0 1 1 2 0 1 1 2 0 1 1 2 0 1 1 4 0"/>
<path stroke="#FFA500" d="M519 113l0 -1M519 113l11 0 0 -1 4 0 0 -1 3 0 1 -1 2 0 1 -1 2 0 1 -1 4 0 0 -1 10 0 1 1 3 0 1 1 3 0 1 1 2 0M569 111l0 -1M569 111l3 0M572 112l0 -1M572 112l4 0 1 1 10 0 1 -1 3 0 1 -1 3 0 0 -1 3 0 0 -1 2 0 1 -1 4 0 1 -1 10 0"/>
<path stroke="#FFA500" d="M616 107l1 1 3 0 1 1 2 0 1 1 2 0 1 1 2 0 1 1 4 0M634 113l0 -1M634 113l11 0 0 -1 4 0 0 -1 3 0 1 -1 2 0 1 -1 2 0 1 -1 4 0 0 -1 10 0 1 1 3 0 1 1 3 0 1 1 2 0M684 111l0 -1M684 111l3 0M687 112l0 -1M687 112l4 0 1 1 10 0 1 -1"/>
<path stroke="#FFA500" d="M703 112l3 0 1 -1 3 0 0 -1 3 0 0 -1 2 0 1 -1 4 0 1 -1 10 0 1 1 3 0 1 1 2 0 1 1 2 0 1 1 2 0 1 1 4 0M749 113l0 -1M749 113l11 0 0 -1 4 0 0 -1 3 0 1 -1 2 0 1 -1 2 0 1 -1 4 0 0 -1 10 0 1 1 3 0 1 1 3 0 1 1 2 0M799 111l0 -1"/>
<path stroke="#FFA500" d="M799 111l3 0M802 112l0 -1M802 112l4 0 1 1 10 0 1 -1 3 0 1 -1 3 0 0 -1 3 0 0 -1 2 0 1 -1 4 0 1 -1 10 0 1 1 3 0 1 1 2 0 1 1 2 0 1 1 2 0 1 1 4 0M864 113l0 -1M864 113l11 0 0 -1 4 0 0 -1 3 0 1 -1 2 0 1 -1 2 0 1 -1 4 0 0 -1"/>
<path stroke="#FFA500" d="M893 107l10 0 1 1 3 0 1 1 3 0 1 1 1 0"/>
</svg>
